<svg fill="none" height="129" viewBox="0 0 130 129" width="130" xmlns="http://www.w3.org/2000/svg"><g stroke="#000"><path d="m128.158 50.3408c.493.0003.839.4865.677.9522l-19.528 65.707h-88.2657l-19.52834-65.707c-.16182-.4657.18377-.9519.67676-.9522z"/><path d="m6 65h118.294" stroke-linecap="round"/><path d="m11.2949 82.9238 107.7051.1524" stroke-linecap="round"/><path d="m16.2949 100.999 97.7051.002" stroke-linecap="round"/><path d="m24.5 50v67"/><path d="m41.0801 50v67"/><path d="m57.6582 50v67"/><path d="m74.2383 50v67"/><path d="m90.8164 50v67"/><path d="m107.396 50v67"/><path d="m27.0342 46.0993c-4.1224.3136-4.481 4.3912-2.9126 3.2262l40.9103-37.3255 40.9101 37.3255c1.568 1.165 1.21-2.9126-2.912-3.2262" stroke-linecap="round" stroke-linejoin="round"/><path d="m85.4884 30.6627-20.4551-18.6627-20.4552 18.6627" stroke-linecap="round" stroke-linejoin="round" stroke-width="4"/><path d="m28.1554 50.535-3.1525-2.4519c-.5178-.4027-1.2428-.4027-1.7606 0l-3.1525 2.4519" stroke-linecap="round" stroke-linejoin="round" stroke-width="1.43387"/><path d="m110.423 50.535-3.152-2.4519c-.518-.4027-1.243-.4027-1.761 0l-3.153 2.4519" stroke-linecap="round" stroke-linejoin="round" stroke-width="1.43387"/></g><path d="m20.0879 51.252h-18.3711c-.39596 0-.7168-.3209-.7168-.7168 0-.396.32084-.7168.7168-.7168h18.3711zm82.2691 0h-74.2037v-1.4336h74.2037zm26.402-1.419c.327.0668.572.3556.572.7022 0 .3465-.245.6353-.572.7021l-.145.0147h-18.191v-1.4336h18.191z" fill="#000"/></svg>