<svg width="128" height="128" viewBox="0 0 128 128" fill="none" xmlns="http://www.w3.org/2000/svg">
<path d="M127 12C127 10.9391 126.579 9.92172 125.828 9.17157C125.078 8.42143 124.061 8 123 8H111C110.108 8.00025 109.241 8.29881 108.538 8.8482C107.835 9.39759 107.336 10.1663 107.12 11.032L103.88 24H11C10.4084 24.0004 9.82431 24.1319 9.28972 24.3852C8.75512 24.6385 8.28337 25.0072 7.90843 25.4648C7.5335 25.9224 7.26472 26.4574 7.12147 27.0314C6.97822 27.6053 6.96406 28.2039 7.08 28.784L15.08 68.784C15.255 69.6563 15.7158 70.4453 16.3896 71.0263C17.0633 71.6073 17.9115 71.9471 18.8 71.992L93.976 75.768L91.68 88H23C21.9391 88 20.9217 88.4214 20.1716 89.1716C19.4214 89.9217 19 90.9391 19 92C19 93.0609 19.4214 94.0783 20.1716 94.8284C20.9217 95.5786 21.9391 96 23 96H95C95.9325 95.9991 96.8355 95.6725 97.5527 95.0765C98.27 94.4805 98.7564 93.6526 98.928 92.736L110.92 28.856L114.12 16H123C124.061 16 125.078 15.5786 125.828 14.8284C126.579 14.0783 127 13.0609 127 12ZM102.184 32L95.464 67.832L22.312 64.16L15.88 32H102.184Z" fill="black"/>
<path fill-rule="evenodd" clip-rule="evenodd" d="M90.3255 103.584C87.9728 101.231 84.7818 99.9091 81.4545 99.9091C78.1273 99.9091 74.9363 101.231 72.5836 103.584C70.2308 105.936 68.9091 109.127 68.9091 112.455C68.9091 115.782 70.2308 118.973 72.5836 121.325C74.9363 123.678 78.1273 125 81.4545 125C84.7818 125 87.9728 123.678 90.3255 121.325C92.6783 118.973 94 115.782 94 112.455C94 109.127 92.6783 105.936 90.3255 103.584ZM46.4164 103.584C44.0637 101.231 40.8727 99.9091 37.5455 99.9091C34.2182 99.9091 31.0272 101.231 28.6745 103.584C26.3217 105.936 25 109.127 25 112.455C25 115.782 26.3217 118.973 28.6745 121.325C31.0272 123.678 34.2182 125 37.5455 125C40.8727 125 44.0637 123.678 46.4164 121.325C48.7692 118.973 50.0909 115.782 50.0909 112.455C50.0909 109.127 48.7692 105.936 46.4164 103.584ZM77.0186 108.019C78.195 106.843 79.7905 106.182 81.4541 106.182C83.1178 106.182 84.7132 106.843 85.8896 108.019C87.066 109.195 87.7268 110.791 87.7268 112.455C87.7268 114.118 87.066 115.714 85.8896 116.89C84.7132 118.066 83.1178 118.727 81.4541 118.727C79.7905 118.727 78.195 118.066 77.0186 116.89C75.8423 115.714 75.1814 114.118 75.1814 112.455C75.1814 110.791 75.8423 109.195 77.0186 108.019ZM37.5458 106.182C35.8822 106.182 34.2867 106.843 33.1103 108.019C31.9339 109.195 31.2731 110.791 31.2731 112.455C31.2731 114.118 31.9339 115.714 33.1103 116.89C34.2867 118.066 35.8822 118.727 37.5458 118.727C39.2094 118.727 40.8049 118.066 41.9813 116.89C43.1576 115.714 43.8185 114.118 43.8185 112.455C43.8185 110.791 43.1576 109.195 41.9813 108.019C40.8049 106.843 39.2094 106.182 37.5458 106.182Z" fill="black"/>
</svg>
