<svg width="1149" height="259" viewBox="0 0 1149 259" fill="none" xmlns="http://www.w3.org/2000/svg">
<g clip-path="url(#clip0_465_860)">
<line x1="326.086" y1="1.46005" x2="349.905" y2="257.354" stroke="black" stroke-width="2"/>
<line y1="-1" x2="257" y2="-1" transform="matrix(-0.0926838 0.995696 0.995696 0.0926838 815.819 1.55273)" stroke="black" stroke-width="2"/>
<line x1="430" y1="1" x2="430" y2="258" stroke="black" stroke-width="2"/>
<line x1="524" y1="1" x2="524" y2="258" stroke="black" stroke-width="2"/>
<line x1="618" y1="1" x2="618" y2="258" stroke="black" stroke-width="2"/>
<line x1="712" y1="1" x2="712" y2="258" stroke="black" stroke-width="2"/>
<mask id="path-7-inside-1_465_860" fill="white">
<path d="M1149 259H0L239.913 0H909.087L1149 259Z"/>
</mask>
<path d="M1149 259V261H1153.58L1150.47 257.641L1149 259ZM0 259L-1.46724 257.641L-4.57881 261H0V259ZM239.913 0V-2H239.039L238.446 -1.35912L239.913 0ZM909.087 0L910.554 -1.35912L909.961 -2H909.087V0ZM1149 259V257H0V259V261H1149V259ZM0 259L1.46724 260.359L241.38 1.35912L239.913 0L238.446 -1.35912L-1.46724 257.641L0 259ZM239.913 0V2H909.087V0V-2H239.913V0ZM909.087 0L907.62 1.35912L1147.53 260.359L1149 259L1150.47 257.641L910.554 -1.35912L909.087 0Z" fill="black" mask="url(#path-7-inside-1_465_860)"/>
<mask id="path-9-inside-2_465_860" fill="white">
<path d="M1114 352H35L260.297 93H888.703L1114 352Z"/>
</mask>
<path d="M1114 352V354H1118.39L1115.51 350.687L1114 352ZM35 352L33.491 350.687L30.6095 354H35V352ZM260.297 93V91H259.386L258.788 91.6874L260.297 93ZM888.703 93L890.212 91.6874L889.614 91H888.703V93ZM1114 352V350H35V352V354H1114V352ZM35 352L36.509 353.313L261.806 94.3126L260.297 93L258.788 91.6874L33.491 350.687L35 352ZM260.297 93V95H888.703V93V91H260.297V93ZM888.703 93L887.194 94.3126L1112.49 353.313L1114 352L1115.51 350.687L890.212 91.6874L888.703 93Z" fill="black" mask="url(#path-9-inside-2_465_860)"/>
<mask id="path-11-inside-3_465_860" fill="white">
<path d="M1081 454H68L279.517 195H869.483L1081 454Z"/>
</mask>
<path d="M1081 454V456H1085.22L1082.55 452.735L1081 454ZM68 454L66.4509 452.735L63.7845 456H68V454ZM279.517 195V193H278.568L277.968 193.735L279.517 195ZM869.483 195L871.032 193.735L870.432 193H869.483V195ZM1081 454V452H68V454V456H1081V454ZM68 454L69.5491 455.265L281.066 196.265L279.517 195L277.968 193.735L66.4509 452.735L68 454ZM279.517 195V197H869.483V195V193H279.517V195ZM869.483 195L867.934 196.265L1079.45 455.265L1081 454L1082.55 452.735L871.032 193.735L869.483 195Z" fill="black" mask="url(#path-11-inside-3_465_860)"/>
<path d="M241 0L293 258.5" stroke="black" stroke-width="2"/>
<path d="M196 48L253.5 304" stroke="black" stroke-width="2"/>
<path d="M952.5 48L897 304" stroke="black" stroke-width="2"/>
<path d="M152 96L203.5 352" stroke="black" stroke-width="2"/>
<path d="M996.5 96L943 352" stroke="black" stroke-width="2"/>
<path d="M106 145L157.5 401" stroke="black" stroke-width="2"/>
<path d="M1042.5 145L991 401" stroke="black" stroke-width="2"/>
<path d="M58 198L109.5 454" stroke="black" stroke-width="2"/>
<path d="M1090.5 198L1039 454" stroke="black" stroke-width="2"/>
<path d="M856 258L908.5 0" stroke="black" stroke-width="2"/>
</g>
<defs>
<clipPath id="clip0_465_860">
<rect width="1149" height="259" fill="white"/>
</clipPath>
</defs>
</svg>
