<svg fill="none" height="259" viewBox="0 0 1149 259" width="1149" xmlns="http://www.w3.org/2000/svg" xmlns:xlink="http://www.w3.org/1999/xlink"><clipPath id="a"><path d="m0 0h1149v259h-1149z"/></clipPath><mask id="b" fill="#fff"><path d="m1149 259h-1149l239.913-259h669.174z" fill="#fff"/></mask><mask id="c" fill="#fff"><path d="m1114 352h-1079l225.297-259h628.406z" fill="#fff"/></mask><mask id="d" fill="#fff"><path d="m1081 454h-1013l211.517-259h589.966z" fill="#fff"/></mask><g clip-path="url(#a)"><path d="m326.086 1.46005 23.819 255.89395" stroke="#000" stroke-width="2"/><path d="m0-1h257" stroke="#000" stroke-width="2" transform="matrix(-.0926838 .995696 .995696 .0926838 815.819 1.55273)"/><path d="m430 1v257" stroke="#000" stroke-width="2"/><path d="m524 1v257" stroke="#000" stroke-width="2"/><path d="m618 1v257" stroke="#000" stroke-width="2"/><path d="m712 1v257" stroke="#000" stroke-width="2"/><path d="m1149 259v2h4.58l-3.11-3.359zm-1149 0-1.46724-1.359-3.11157 3.359h4.57881zm239.913-259v-2h-.874l-.593.64088zm669.174 0 1.467-1.35912-.593-.64088h-.874zm239.913 259v-2h-1149v2 2h1149zm-1149 0 1.46724 1.359 239.91276-258.99988-1.467-1.35912-1.467-1.35912-239.91324 259.00012zm239.913-259v2h669.174v-2-2h-669.174zm669.174 0-1.467 1.35912 239.91 258.99988 1.47-1.359 1.47-1.359-239.916-259.00012z" fill="#000" mask="url(#b)"/><path d="m1114 352v2h4.39l-2.88-3.313zm-1079 0-1.509-1.313-2.8815 3.313h4.3905zm225.297-259v-2h-.911l-.598.6874zm628.406 0 1.509-1.3126-.598-.6874h-.911zm225.297 259v-2h-1079v2 2h1079zm-1079 0 1.509 1.313 225.297-259.0004-1.509-1.3126-1.509-1.3126-225.297 258.9996zm225.297-259v2h628.406v-2-2h-628.406zm628.406 0-1.509 1.3126 225.296 259.0004 1.51-1.313 1.51-1.313-225.298-258.9996z" fill="#000" mask="url(#c)"/><path d="m1081 454v2h4.22l-2.67-3.265zm-1013 0-1.5491-1.265-2.6664 3.265h4.2155zm211.517-259v-2h-.949l-.6.735zm589.966 0 1.549-1.265-.6-.735h-.949zm211.517 259v-2h-1013v2 2h1013zm-1013 0 1.5491 1.265 211.5169-259-1.549-1.265-1.549-1.265-211.5171 259zm211.517-259v2h589.966v-2-2h-589.966zm589.966 0-1.549 1.265 211.516 259 1.55-1.265 1.55-1.265-211.518-259z" fill="#000" mask="url(#d)"/><g stroke="#000" stroke-width="2"><path d="m241 0 52 258.5"/><path d="m196 48 57.5 256"/><path d="m952.5 48-55.5 256"/><path d="m152 96 51.5 256"/><path d="m996.5 96-53.5 256"/><path d="m106 145 51.5 256"/><path d="m1042.5 145-51.5 256"/><path d="m58 198 51.5 256"/><path d="m1090.5 198-51.5 256"/><path d="m856 258 52.5-258"/></g></g></svg>