<svg width="1280" height="800" viewBox="0 0 1280 800" fill="none" xmlns="http://www.w3.org/2000/svg">
<line y1="0.5" x2="1280" y2="0.5" stroke="white"/>
<line y1="32.5" x2="1280" y2="32.5" stroke="white"/>
<line y1="64.5" x2="1280" y2="64.5" stroke="white"/>
<line y1="96.5" x2="1280" y2="96.5" stroke="white"/>
<line y1="128.5" x2="1280" y2="128.5" stroke="white"/>
<line y1="160.5" x2="1280" y2="160.5" stroke="white"/>
<line y1="192.5" x2="1280" y2="192.5" stroke="white"/>
<line y1="224.5" x2="1280" y2="224.5" stroke="white"/>
<line y1="256.5" x2="1280" y2="256.5" stroke="white"/>
<line y1="288.5" x2="1280" y2="288.5" stroke="white"/>
<line y1="320.5" x2="1280" y2="320.5" stroke="white"/>
<line y1="352.5" x2="1280" y2="352.5" stroke="white"/>
<line y1="384.5" x2="1280" y2="384.5" stroke="white"/>
<line y1="416.5" x2="1280" y2="416.5" stroke="white"/>
<line y1="448.5" x2="1280" y2="448.5" stroke="white"/>
<line y1="480.5" x2="1280" y2="480.5" stroke="white"/>
<line y1="512.5" x2="1280" y2="512.5" stroke="white"/>
<line y1="544.5" x2="1280" y2="544.5" stroke="white"/>
<line y1="576.5" x2="1280" y2="576.5" stroke="white"/>
<line y1="608.5" x2="1280" y2="608.5" stroke="white"/>
<line y1="640.5" x2="1280" y2="640.5" stroke="white"/>
<line y1="672.5" x2="1280" y2="672.5" stroke="white"/>
<line y1="704.5" x2="1280" y2="704.5" stroke="white"/>
<line y1="736.5" x2="1280" y2="736.5" stroke="white"/>
<line y1="768.5" x2="1280" y2="768.5" stroke="white"/>
</svg>
