<svg width="187" height="60" viewBox="0 0 187 60" fill="none" xmlns="http://www.w3.org/2000/svg">
<path d="M1.81739 39.4549C1.34759 39.4549 0.951968 39.3621 0.630524 39.1767C0.30908 38.9912 0.123632 38.8058 0.0741793 38.6203L0 38.3422C1.49595 36.9575 2.24392 34.763 2.24392 31.7588C2.24392 29.1872 2.00902 27.3945 1.53922 26.3808C1.21778 25.7131 0.92106 25.2619 0.649069 25.027C0.364715 24.7797 0.222538 24.5943 0.222538 24.4706C0.222538 24.3594 0.290536 24.2357 0.426531 24.0997C0.562526 23.9638 0.72943 23.7783 0.927241 23.5434C1.13742 23.2961 1.34141 22.95 1.53922 22.5049C2.00902 21.454 2.24392 19.8592 2.24392 17.7203C2.24392 16.2862 2.16974 15.155 2.02139 14.3266C1.88539 13.4859 1.65667 12.7936 1.33523 12.2496C1.01378 11.7056 0.568708 11.174 0 10.6548C0 10.1973 0.339988 9.86969 1.01997 9.67188C1.30432 9.5977 1.6814 9.56061 2.1512 9.56061C2.621 9.56061 3.12789 9.71515 3.67188 10.0242C4.22822 10.3333 4.63002 10.6424 4.87729 10.9515L5.24818 11.4151C6.33615 10.1788 8.41317 9.56061 11.4792 9.56061C13.8159 9.56061 15.5653 10.1046 16.7274 11.1926C18.2234 12.5772 18.9714 14.7284 18.9714 17.6461C18.9714 20.9471 19.4535 23.1107 20.4179 24.1368C20.6404 24.3717 20.6404 24.6005 20.4179 24.823C20.3066 24.9466 20.1706 25.1321 20.0099 25.3793C19.8615 25.6266 19.707 25.9604 19.5462 26.3808C19.163 27.3698 18.9714 29.1378 18.9714 31.6846C18.9714 34.219 18.3161 36.1477 17.0056 37.4706C15.7075 38.7934 13.9148 39.4549 11.6276 39.4549C8.57389 39.4549 6.44742 38.744 5.24818 37.3222C4.71657 38.2 3.99332 38.8367 3.07844 39.2323C2.70754 39.3807 2.28719 39.4549 1.81739 39.4549ZM10.4222 36.0426C11.2629 36.0426 11.8007 35.9128 12.0356 35.6532C12.2829 35.3935 12.4498 35.1772 12.5363 35.0041C12.6352 34.8187 12.7094 34.5343 12.7588 34.151C12.7836 33.8791 12.8021 33.5576 12.8145 33.1867C12.8392 32.8035 12.8516 32.3707 12.8516 31.8886V31.6475C12.8516 28.7174 12.6167 26.7826 12.1469 25.843C12.0603 25.6699 11.9738 25.5153 11.8872 25.3793C11.8131 25.2433 11.7389 25.1135 11.6647 24.9899C11.5163 24.7674 11.4422 24.5881 11.4422 24.4521C11.4422 24.3285 11.4916 24.1987 11.5905 24.0627C11.6894 23.9267 11.8069 23.7289 11.9429 23.4692C12.0789 23.2096 12.2149 22.8387 12.3509 22.3565C12.6847 21.182 12.8516 19.0432 12.8516 15.94C12.8516 14.0361 12.0974 13.0841 10.5891 13.0841C9.26623 13.0841 8.46262 13.523 8.17827 14.4008C8.09172 14.6852 8.03609 15.1302 8.01136 15.736C7.98664 16.3418 7.98046 17.0033 7.99282 17.7203C8.01755 18.425 8.05464 19.0926 8.10409 19.7232C8.1659 20.3413 8.22154 20.8173 8.27099 21.1511C8.40699 21.9918 8.54298 22.5976 8.67898 22.9685C8.81497 23.327 8.96333 23.6238 9.12405 23.8587C9.3095 24.1307 9.40223 24.3346 9.40223 24.4706C9.40223 24.6066 9.32186 24.7983 9.16114 25.0455C9.01278 25.2804 8.85824 25.5586 8.69752 25.8801C8.22772 26.8444 7.99282 28.8225 7.99282 31.8144C7.99282 33.6689 8.17827 34.831 8.54916 35.3008C8.95715 35.7953 9.58149 36.0426 10.4222 36.0426Z" fill="black"/>
<path d="M32.4905 39.8258C30.1662 39.8258 28.2994 39.1149 26.89 37.6931C25.4806 36.259 24.6461 34.0954 24.3864 31.2024C24.2381 29.4097 23.5952 28.1487 22.4578 27.4193L22.0869 27.1782C22.0869 27.1164 22.2476 27.0113 22.569 26.8629C22.8905 26.7022 23.2243 26.4055 23.5705 25.9728C24.1145 25.2928 24.3864 24.3099 24.3864 23.0241C24.3864 17.1393 26.9642 14.1968 32.1196 14.1968C34.5676 14.1968 36.422 14.9881 37.6831 16.5705C38.771 17.9181 39.315 19.8901 39.315 22.4863C39.315 24.0812 39.3707 25.095 39.4819 25.5277C39.5808 25.9604 39.7106 26.3004 39.8714 26.5477C40.0321 26.7949 40.1557 27.0113 40.2423 27.1967C39.7601 27.7531 39.2347 28.0312 38.666 28.0312C38.4681 28.0312 38.2827 27.9942 38.1096 27.92C37.1329 27.4007 35.8039 27.1411 34.1225 27.1411C32.4411 27.1411 31.2913 27.2585 30.6731 27.4935C30.1662 28.1487 29.9128 29.3356 29.9128 31.0541C29.9128 32.7725 30.2219 34.1078 30.84 35.0597C31.4706 35.9993 32.3793 36.4691 33.5661 36.4691C34.753 36.4691 35.5999 36.0241 36.1068 35.1339C36.626 34.2438 36.8857 32.8962 36.8857 31.0911C36.8857 30.8439 37.0216 30.6646 37.2936 30.5533C37.578 30.4297 37.8994 30.3741 38.258 30.3864C38.6289 30.3988 38.9503 30.4668 39.2223 30.5904C39.5067 30.7141 39.6488 30.8995 39.6488 31.1468C39.6488 35.1277 38.4805 37.7611 36.1439 39.0469C35.3773 39.4672 34.6665 39.7021 34.0112 39.7516C33.3683 39.801 32.8614 39.8258 32.4905 39.8258ZM30.4321 25.2495C31.4335 25.2124 32.3113 25.0764 33.0654 24.8415C33.8319 24.619 34.2152 24.3532 34.2152 24.0441L34.2523 21.6704C34.2523 18.9257 33.6403 17.5534 32.4164 17.5534C31.5633 17.5534 30.9451 17.7821 30.5619 18.2396C30.2528 18.5981 30.0921 19.0988 30.0797 19.7417C30.0673 20.1992 30.0488 20.774 30.0241 21.4664C30.0117 22.1587 30.0303 22.8511 30.0797 23.5434C30.1415 24.2234 30.259 24.7921 30.4321 25.2495Z" fill="black"/>
<path d="M51.9626 39.8258C47.042 39.8258 44.2479 37.2233 43.5803 32.0184C43.3702 30.3864 43.1291 29.3232 42.8571 28.8287C42.5727 28.3465 42.3502 28.0065 42.1895 27.8087C42.0658 27.6604 41.9484 27.5367 41.8371 27.4378C41.7259 27.3389 41.6702 27.2585 41.6702 27.1967V27.1596C41.6702 27.0731 41.8062 26.9309 42.0782 26.7331C42.3626 26.5353 42.6222 26.2262 42.8571 25.8059C43.2898 25.0764 43.5062 23.9081 43.5062 22.3009C43.568 19.7541 44.3036 17.7698 45.713 16.348C47.1224 14.9262 49.0016 14.2154 51.3506 14.2154C52.8218 14.2154 54.3301 14.6728 55.8755 15.5877C56.6297 16.0327 57.2479 16.6509 57.73 17.4422C58.2246 18.221 58.4718 18.9752 58.4718 19.7046C58.4718 20.6319 58.3853 21.4231 58.2122 22.0784C58.0391 22.7336 57.9526 23.3641 57.9526 23.9699C57.9526 24.4026 58.1442 24.9095 58.5275 25.4906C58.4162 25.7873 58.1195 25.9357 57.6373 25.9357C57.1551 25.9357 56.6668 25.775 56.1723 25.4535C55.6777 25.1197 55.3068 24.7921 55.0596 24.4706L54.6887 23.9885C54.1942 24.3099 53.6934 24.4706 53.1866 24.4706C52.6797 24.4583 52.3026 24.415 52.0553 24.3408C51.7957 24.279 51.5979 24.1987 51.4619 24.0997C51.3259 24.0008 51.2146 23.8896 51.1281 23.7659C50.9921 23.5929 50.9241 23.4383 50.9241 23.3023L50.9426 23.2096C51.3877 23.2096 51.8081 23.0241 52.2037 22.6533C52.5993 22.2824 52.9207 21.8311 53.168 21.2995C53.4153 20.7555 53.5389 20.2424 53.5389 19.7603C53.5389 18.289 52.8218 17.5534 51.3877 17.5534C50.6212 17.5534 50.1267 17.7018 49.9041 17.9985C49.6692 18.3076 49.5023 18.5672 49.4034 18.7774C49.3169 18.9752 49.2489 19.2905 49.1994 19.7232C49.1747 20.0075 49.1561 20.3475 49.1438 20.7431C49.1314 21.1264 49.1252 21.5653 49.1252 22.0598C49.1252 23.0489 49.1871 23.8587 49.3107 24.4892C49.4343 25.1073 49.5889 25.5648 49.7743 25.8615C50.0339 26.2695 50.2936 26.5724 50.5532 26.7702C50.8252 26.9557 50.9612 27.0916 50.9612 27.1782C50.9612 27.2524 50.8252 27.3822 50.5532 27.5676C50.2936 27.7407 50.0339 28.0251 49.7743 28.4207C49.3416 29.1007 49.1252 30.2134 49.1252 31.7588C49.1252 33.3165 49.4158 34.491 49.9968 35.2823C50.5903 36.0612 51.4248 36.4506 52.5004 36.4506C53.6873 36.4506 54.528 36.0179 55.0225 35.1525C55.5417 34.2623 55.8014 32.9209 55.8014 31.1282C55.8014 30.881 55.9497 30.7017 56.2464 30.5904C56.5432 30.4668 56.8832 30.4112 57.2664 30.4235C57.662 30.4359 58.0082 30.5039 58.3049 30.6275C58.6016 30.7512 58.75 30.9366 58.75 31.1839C58.75 34.1758 58.0515 36.4197 56.6544 37.9156C55.4552 39.1891 53.8913 39.8258 51.9626 39.8258Z" fill="black"/>
<path d="M70.4332 39.7887C68.3315 39.7887 66.4956 39.1396 64.9254 37.8415C64.1713 37.2109 63.5593 36.3826 63.0895 35.3565C62.632 34.3303 62.4033 33.3103 62.4033 32.2966C62.4033 31.2704 62.3353 30.4606 62.1993 29.8672C62.0633 29.2738 61.8903 28.8225 61.6801 28.5134C61.3463 28.0065 61.0372 27.6665 60.7528 27.4935C60.4685 27.3204 60.3263 27.2091 60.3263 27.1596C60.3263 27.1102 60.4809 26.9804 60.7899 26.7702C61.099 26.5477 61.3895 26.2262 61.6615 25.8059C62.1561 25.0764 62.4033 23.9699 62.4033 22.4863C62.4033 21.0028 62.632 19.7479 63.0895 18.7217C63.7447 17.2134 64.7462 16.0884 66.0938 15.3466C67.4413 14.5924 68.8878 14.2154 70.4332 14.2154C72.5103 14.2154 74.3462 14.8768 75.941 16.1997C76.7076 16.8425 77.3195 17.6832 77.777 18.7217C78.2344 19.7603 78.4632 20.805 78.4632 21.8558C78.4632 22.9067 78.525 23.7412 78.6486 24.3594C78.7846 24.9775 78.9453 25.4473 79.1308 25.7688C79.378 26.2139 79.6377 26.5477 79.9096 26.7702C80.1816 26.9804 80.3176 27.1164 80.3176 27.1782L80.0024 27.4193C79.7675 27.6171 79.5944 27.784 79.4831 27.92C79.3224 28.1178 79.1679 28.3712 79.0195 28.6803C78.834 29.0141 78.6919 29.4592 78.593 30.0155C78.5064 30.5719 78.4632 31.3446 78.4632 32.3336C78.4632 33.3351 78.2344 34.3489 77.777 35.375C77.3195 36.3888 76.7076 37.2109 75.941 37.8415C74.3586 39.1396 72.5226 39.7887 70.4332 39.7887ZM70.3776 36.4506C72.0219 36.4506 72.8441 34.8248 72.8441 31.5733C72.8441 30.7202 72.7699 29.9785 72.6215 29.3479C72.4855 28.705 72.331 28.2662 72.1579 28.0312C71.9972 27.8211 71.8179 27.648 71.6201 27.512C71.4223 27.376 71.2925 27.2647 71.2307 27.1782C71.2307 27.104 71.3172 26.9866 71.4903 26.8258C71.6634 26.6528 71.8488 26.4488 72.0466 26.2139C72.2692 25.9295 72.4546 25.4041 72.603 24.6375C72.7637 23.871 72.8441 22.9932 72.8441 22.0042C72.8441 19.037 72.0466 17.5534 70.4518 17.5534C68.8446 17.5534 68.041 19.037 68.041 22.0042C68.041 23.0056 68.1151 23.8896 68.2635 24.6561C68.4242 25.4102 68.6159 25.9295 68.8384 26.2139C69.0238 26.4488 69.2031 26.6466 69.3762 26.8073C69.5493 26.968 69.6358 27.0793 69.6358 27.1411C69.6358 27.2029 69.5245 27.3204 69.302 27.4935C69.0795 27.6665 68.8569 27.9694 68.6344 28.4021C68.2511 29.1192 68.0595 30.2381 68.0595 31.7588C68.0595 34.8867 68.8322 36.4506 70.3776 36.4506Z" fill="black"/>
<path d="M84.1564 39.4734C83.6619 39.4734 83.2539 39.3992 82.9324 39.2509C82.5121 39.0407 82.2525 38.7811 82.1536 38.472C83.0066 37.6931 83.6124 36.84 83.971 35.9128C84.2059 35.307 84.3542 34.6394 84.416 33.91C84.4902 33.1682 84.5149 32.4635 84.4902 31.7958C84.4655 31.1159 84.4222 30.5657 84.3604 30.1454C84.2739 29.5643 84.1379 29.1068 83.9524 28.773C83.7793 28.4269 83.6248 28.1611 83.4888 27.9756C83.3281 27.7654 83.1983 27.6418 83.0993 27.6047C83.0128 27.5676 82.8583 27.4378 82.6357 27.2153C82.6357 27.1658 82.7655 27.0422 83.0252 26.8444C83.2848 26.6466 83.5568 26.3004 83.8411 25.8059C84.2738 25.0394 84.4902 23.8463 84.4902 22.2267C84.4902 20.6071 84.3048 19.3152 83.9339 18.3509C83.563 17.3865 82.8954 16.4655 81.931 15.5877C82.2401 14.9448 83.0313 14.6233 84.3048 14.6233C85.5535 14.6233 86.7403 15.5753 87.8654 17.4792C89.5097 15.3157 91.3951 14.2339 93.5215 14.2339C96.1055 14.2339 97.6818 15.1859 98.2505 17.0898C98.4112 17.5843 98.4916 18.1592 98.4916 18.8145C98.4916 20.2115 98.0403 21.6271 97.1378 23.0612C97.076 23.1849 97.0574 23.3085 97.0821 23.4321C97.1192 23.5558 97.1687 23.6732 97.2305 23.7845C97.3294 23.9699 97.4283 24.1307 97.5272 24.2667C97.6261 24.4026 97.7003 24.5201 97.7498 24.619L97.2491 24.7859C96.2353 24.7859 95.5058 24.2481 95.0608 23.1725C94.8753 22.7398 94.7826 22.4307 94.7826 22.2453V22.2267C94.1273 22.5853 93.5154 22.7089 92.9466 22.5976C92.3903 22.474 92.0132 22.2947 91.8154 22.0598C91.5434 21.7136 91.3827 21.3675 91.3333 21.0213C91.3703 21.0337 91.4692 21.0399 91.63 21.0399C92.3347 21.0399 92.9157 20.774 93.3732 20.2424C93.843 19.7108 94.0779 19.2163 94.0779 18.7588C94.0779 18.3138 94.0284 17.9676 93.9295 17.7203C93.843 17.4731 93.7194 17.2629 93.5586 17.0898C93.2248 16.7189 92.8725 16.5335 92.5016 16.5335C92.1307 16.5335 91.8154 16.62 91.5558 16.7931C91.2962 16.9662 91.0489 17.2258 90.814 17.572C90.3195 18.3385 90.0722 19.5563 90.0722 21.2253C90.0722 22.5358 90.2206 23.5929 90.5173 24.3965C90.8264 25.1877 91.0798 25.7688 91.2776 26.1397C91.6732 26.8815 91.939 27.2524 92.075 27.2524L91.7041 27.5862C91.4445 27.8211 91.222 28.0683 91.0365 28.328C90.8016 28.6494 90.5915 29.181 90.406 29.9228C90.2329 30.6523 90.1464 31.5795 90.1464 32.7045C90.1464 33.9656 90.3133 35.0412 90.6471 35.9313C90.9809 36.8215 91.5867 37.6684 92.4645 38.472C92.3779 38.7192 92.1616 38.948 91.8154 39.1581C91.4816 39.3683 91.1045 39.4734 90.6842 39.4734C89.4602 39.4734 88.2981 38.812 87.1978 37.4891C86.2087 38.812 85.1949 39.4734 84.1564 39.4734Z" fill="black"/>
<path d="M103.888 39.3436C103.369 39.1458 102.905 38.88 102.497 38.5462C102.102 38.2247 101.737 37.7796 101.403 37.2109C101.057 36.6175 100.822 35.9623 100.698 35.2452C100.575 34.5281 100.161 33.7431 99.4559 32.89C99.2334 32.6304 99.1221 32.4696 99.1221 32.4078C99.1221 32.3213 99.2272 32.1791 99.4373 31.9813C99.6475 31.7711 99.8701 31.5053 100.105 31.1839C100.352 30.8624 100.519 30.4792 100.606 30.0341C100.952 28.3774 101.768 27.2029 103.054 26.5106C103.622 26.1891 104.222 25.9295 104.852 25.7317C105.52 25.5215 106.138 25.3361 106.707 25.1753C107.288 25.0023 107.838 24.7859 108.357 24.5263C108.852 24.2914 109.248 23.939 109.544 23.4692C109.866 22.9871 110.02 22.3009 110.008 21.4107C109.996 20.5082 109.958 19.6861 109.897 18.9443C109.847 18.289 109.693 17.7203 109.433 17.2382C109.173 16.756 108.679 16.5149 107.949 16.5149C107.455 16.5149 107.041 16.6942 106.707 17.0527C106.385 17.4112 106.225 17.8625 106.225 18.4065C106.225 18.765 106.305 19.1916 106.466 19.6861C106.639 20.1682 106.886 20.6133 107.208 21.0213C107.529 21.4169 107.906 21.6704 108.339 21.7816C108.005 22.5729 107.455 22.9685 106.688 22.9685C105.909 22.9685 105.192 22.7151 104.537 22.2082C104.599 22.27 104.463 22.5729 104.129 23.1169C103.919 23.4754 103.61 23.8154 103.202 24.1368C102.806 24.4583 102.405 24.6685 101.997 24.7674C101.589 24.8663 101.261 24.7674 101.014 24.4706C101.657 23.8278 101.978 23.222 101.978 22.6533C101.978 22.4678 101.891 22.0165 101.718 21.2995C101.545 20.5824 101.459 20.0755 101.459 19.7788C101.459 18.2705 102.034 17.0527 103.183 16.1255C103.69 15.7051 104.395 15.2786 105.298 14.8459C106.2 14.4132 107.239 14.1968 108.413 14.1968C113.346 14.1968 115.812 16.892 115.812 22.2824C115.812 23.6052 116.06 24.7674 116.554 25.7688C116.801 26.2509 117.321 26.7207 118.112 27.1782C118.112 27.2276 118.044 27.3018 117.908 27.4007C117.76 27.4996 117.58 27.6604 117.37 27.8829C117.16 28.0931 116.95 28.3651 116.74 28.6989C116.505 29.0821 116.319 29.6076 116.183 30.2752C116.06 30.9428 115.998 31.8268 115.998 32.9271C115.998 35.3132 116.628 37.1738 117.889 38.5091C117.778 38.7069 117.543 38.9109 117.185 39.1211C116.913 39.257 116.474 39.3621 115.868 39.4363C115.262 39.5229 114.675 39.424 114.106 39.1396C113.068 38.6327 112.239 37.7673 111.621 36.5433C111.263 37.792 110.589 38.6636 109.6 39.1581C108.784 39.5661 107.875 39.7887 106.874 39.8258C105.872 39.8752 104.877 39.7145 103.888 39.3436ZM107.69 36.8771C108.197 36.8771 108.568 36.7844 108.802 36.599C108.951 36.5001 109.081 36.4011 109.192 36.3022C109.303 36.2033 109.402 36.0488 109.489 35.8386L109.804 35.0412C109.94 34.7074 110.008 33.6627 110.008 31.9071V25.8615C109.847 26.0222 109.637 26.2139 109.377 26.4364C109.13 26.6466 108.827 26.8877 108.469 27.1596C107.776 27.6913 107.214 28.2291 106.781 28.773C106.212 29.4901 105.928 30.6646 105.928 32.2966V32.7045C105.928 35.4863 106.515 36.8771 107.69 36.8771Z" fill="black"/>
<path d="M130.463 39.8258C128.386 39.8258 126.711 39.1891 125.437 37.9156C124.757 38.9542 123.836 39.4734 122.674 39.4734C122.043 39.4734 121.629 39.393 121.432 39.2323C121.11 38.948 120.931 38.6945 120.894 38.472C121.598 38.0887 122.056 37.7055 122.266 37.3222C122.451 36.9637 122.581 36.6793 122.655 36.4691C122.742 36.2466 122.804 35.8943 122.841 35.4121C122.866 35.0906 122.884 34.7136 122.897 34.2809C122.909 33.8358 122.915 33.3474 122.915 32.8158C122.915 31.7402 122.853 30.8686 122.73 30.201C122.606 29.521 122.458 29.0141 122.285 28.6803C122.111 28.3589 121.926 28.0931 121.728 27.8829C121.567 27.7098 121.419 27.5738 121.283 27.4749C121.147 27.3636 121.079 27.2585 121.079 27.1596C121.079 27.0607 121.141 26.9557 121.265 26.8444C121.388 26.7455 121.543 26.5971 121.728 26.3993C121.914 26.2015 122.093 25.9171 122.266 25.5462C122.699 24.6561 122.915 23.3641 122.915 21.6704C122.915 19.9519 122.897 18.6228 122.859 17.6832L121.042 17.9614C120.634 17.9614 120.331 17.7883 120.133 17.4422C119.898 17.0836 119.781 16.6633 119.781 16.1811C119.793 15.6866 119.966 15.4022 120.3 15.328C121.203 15.1426 122.025 14.7655 122.767 14.1968C123.509 13.6281 124.083 13.0099 124.491 12.3423C125.32 10.97 125.839 9.77078 126.049 8.74463L126.198 8.09557C126.321 7.77412 126.568 7.55777 126.939 7.4465C127.323 7.32286 127.681 7.32286 128.015 7.4465C128.361 7.55777 128.534 7.81739 128.534 8.22538L128.386 13.0656C128.386 13.8692 128.441 14.6233 128.553 15.328L131.594 14.883C132.076 14.883 132.472 15.0251 132.781 15.3095C133.09 15.5815 133.245 15.9771 133.245 16.4964C133.245 17.028 133.09 17.436 132.781 17.7203C132.472 17.9923 132.076 18.1283 131.594 18.1283L128.553 17.6832C128.54 17.9923 128.528 18.3941 128.516 18.8887C128.516 19.3708 128.516 19.9395 128.516 20.5948C128.516 21.9053 128.571 22.9685 128.683 23.7845C128.794 24.5634 128.967 25.1568 129.202 25.5648C129.437 25.9728 129.653 26.288 129.851 26.5106C130.061 26.7331 130.166 26.9495 130.166 27.1596C130.166 27.2585 130.073 27.3945 129.888 27.5676C129.715 27.7407 129.536 27.9509 129.35 28.1982C129.115 28.4825 128.917 29.0203 128.757 29.8116C128.596 30.6028 128.516 31.5239 128.516 32.5747C128.516 35.7892 129.344 37.3964 131.001 37.3964C132.83 37.3964 133.745 35.0412 133.745 30.3308C133.745 30.1083 133.881 29.9414 134.153 29.8301C134.438 29.7065 134.759 29.6446 135.118 29.6446C135.488 29.6323 135.81 29.6879 136.082 29.8116C136.366 29.9228 136.508 30.1145 136.508 30.3864C136.508 35.6284 135.13 38.6822 132.373 39.5476C131.78 39.733 131.143 39.8258 130.463 39.8258Z" fill="black"/>
<path d="M142.128 6L146.022 9.41225L142.109 12.9358L141.126 12.0827C140.805 11.7983 140.477 11.5202 140.143 11.2482C139.822 10.9638 139.5 10.6795 139.179 10.3951L138.196 9.54206C138.196 9.50497 138.381 9.30716 138.752 8.94863C139.136 8.57773 139.575 8.16974 140.069 7.72467C140.576 7.26723 141.033 6.86543 141.441 6.51926C141.849 6.17309 142.078 6 142.128 6ZM139.383 14.2339C140.458 14.2339 141.386 14.7099 142.165 15.6619C142.56 15.0808 143.172 14.6543 144.001 14.3823C144.322 14.2834 144.65 14.2339 144.983 14.2339C145.589 14.2339 146.028 14.3514 146.3 14.5863C146.547 14.7964 146.69 15.0128 146.727 15.2353C145.935 16.0142 145.404 16.8055 145.132 17.6091C145.008 17.9676 144.897 18.4807 144.798 19.1483C144.711 19.8035 144.668 20.533 144.668 21.3366C144.668 21.7693 144.681 22.2144 144.705 22.6718C144.742 23.1292 144.798 23.5867 144.872 24.0441C145.008 24.8354 145.206 25.4164 145.466 25.7873C145.725 26.1459 145.966 26.4117 146.189 26.5848C146.411 26.7455 146.523 26.9371 146.523 27.1596C146.523 27.2585 146.461 27.3513 146.337 27.4378C146.214 27.5244 146.059 27.6727 145.874 27.8829C145.701 28.0807 145.521 28.3465 145.336 28.6803C144.903 29.4716 144.687 30.7017 144.687 32.3707C144.687 33.4834 144.749 34.4107 144.872 35.1525C144.996 35.8819 145.206 36.5001 145.503 37.0069C145.812 37.5138 146.22 38.0022 146.727 38.472C146.727 38.8552 146.411 39.152 145.781 39.3621C145.546 39.4363 145.218 39.4734 144.798 39.4734C144.378 39.4734 143.933 39.3498 143.463 39.1025C143.005 38.8676 142.678 38.6327 142.48 38.3978L142.165 38.0455C141.781 38.6018 141.169 39.0221 140.329 39.3065C140.02 39.4178 139.698 39.4734 139.364 39.4734C138.956 39.4734 138.585 39.3992 138.252 39.2509C137.93 39.1149 137.739 38.9356 137.677 38.7131L137.603 38.472C138.369 37.7796 138.901 37.0069 139.197 36.1539C139.371 35.6841 139.488 35.1525 139.55 34.559C139.624 33.9532 139.661 33.3474 139.661 32.7416C139.661 32.2718 139.643 31.8206 139.605 31.3879C139.568 30.9428 139.519 30.5533 139.457 30.2195C139.333 29.5272 139.136 28.9956 138.864 28.6247C138.604 28.2414 138.363 27.9447 138.14 27.7345C137.918 27.5244 137.807 27.3327 137.807 27.1596C137.807 27.0236 137.943 26.8691 138.215 26.696C138.499 26.5106 138.759 26.1891 138.993 25.7317C139.426 24.9034 139.643 23.5558 139.643 21.6889C139.643 20.4279 139.581 19.4203 139.457 18.6661C139.333 17.912 139.123 17.2814 138.827 16.7745C138.53 16.2553 138.122 15.7422 137.603 15.2353C137.603 14.8397 137.918 14.543 138.548 14.3452C138.796 14.271 139.074 14.2339 139.383 14.2339Z" fill="black"/>
<path d="M155.591 39.4734C154.948 39.4734 154.509 39.393 154.274 39.2323C153.866 38.948 153.619 38.6945 153.533 38.472C154.138 37.7796 154.441 36.9822 154.441 36.0797C154.441 35.1896 154.274 34.151 153.941 32.9642C153.607 31.7773 153.273 30.8253 152.939 30.1083C152.605 29.3912 152.296 28.8719 152.012 28.5505C151.653 28.1425 151.332 27.8458 151.048 27.6604C150.763 27.4749 150.572 27.3265 150.473 27.2153C150.386 27.104 150.454 26.968 150.677 26.8073C151.097 26.4735 151.307 25.8677 151.307 24.9899C151.307 24.1368 151.091 22.8943 150.658 21.2624C150.361 20.1992 150.052 19.3152 149.731 18.6105C149.409 17.9058 149.026 17.2938 148.581 16.7745C148.148 16.2553 147.598 15.7422 146.931 15.2353C146.856 15.087 146.931 14.883 147.153 14.6233C147.363 14.3637 147.79 14.2339 148.433 14.2339C149.953 14.2339 151.499 14.9571 153.069 16.4036C153.18 15.8226 153.452 15.3157 153.885 14.883C154.318 14.4503 154.781 14.2339 155.276 14.2339C155.894 14.2339 156.339 14.3514 156.611 14.5863C156.883 14.7964 157.062 15.0128 157.149 15.2353C156.518 16.0637 156.203 16.9229 156.203 17.8131C156.203 18.7279 156.395 19.8592 156.778 21.2068C157.248 23.5805 157.662 25.6204 158.02 27.3265C158.379 29.0327 158.682 30.405 158.929 31.4435C159.473 30.4297 159.745 29.6199 159.745 29.0141C159.745 28.4207 159.659 27.8149 159.485 27.1967C159.485 27.1226 159.572 26.9433 159.745 26.6589C159.931 26.3622 160.122 25.9604 160.32 25.4535C160.567 24.823 160.771 24.0688 160.932 23.1911C161.093 22.3133 161.21 21.4231 161.284 20.5206C161.371 19.6057 161.414 18.7959 161.414 18.0912C161.414 17.0156 161.099 16.0637 160.468 15.2353C160.802 14.5677 161.426 14.2339 162.341 14.2339C162.762 14.2339 163.12 14.3823 163.417 14.679C163.726 14.9757 163.93 15.2724 164.029 15.5691L164.177 16.0327C164.734 15.3157 165.451 14.7779 166.329 14.4193C166.798 14.2463 167.256 14.1906 167.701 14.2524C168.158 14.3143 168.461 14.4379 168.61 14.6233C168.758 14.8088 168.832 14.9881 168.832 15.1611V15.2353C168.09 15.7175 167.367 16.6571 166.662 18.0541C165.958 19.4635 165.414 20.8791 165.03 22.3009C164.647 23.7227 164.455 24.8477 164.455 25.6761L164.622 27.2338C164.622 27.3204 164.598 27.3698 164.548 27.3822H164.511C164.313 27.3822 164.072 27.5985 163.788 28.0312C163.504 28.4516 163.219 28.9894 162.935 29.6446C162.65 30.2999 162.403 30.9799 162.193 31.6846C161.822 32.9085 161.637 34.0892 161.637 35.2266C161.637 36.3641 161.977 37.4458 162.657 38.472V38.4905C162.657 38.8985 162.446 39.1643 162.026 39.288C161.618 39.4116 161.142 39.4734 160.598 39.4734C160.203 39.4734 159.801 39.3498 159.393 39.1025C158.985 38.8676 158.676 38.6327 158.465 38.3978L158.15 38.0455C157.52 38.9974 156.667 39.4734 155.591 39.4734Z" fill="black"/>
<path d="M178.438 39.8258C176.114 39.8258 174.247 39.1149 172.838 37.6931C171.428 36.259 170.594 34.0954 170.334 31.2024C170.186 29.4097 169.543 28.1487 168.406 27.4193L168.035 27.1782C168.035 27.1164 168.195 27.0113 168.517 26.8629C168.838 26.7022 169.172 26.4055 169.518 25.9728C170.062 25.2928 170.334 24.3099 170.334 23.0241C170.334 17.1393 172.912 14.1968 178.067 14.1968C180.515 14.1968 182.37 14.9881 183.631 16.5705C184.719 17.9181 185.263 19.8901 185.263 22.4863C185.263 24.0812 185.318 25.095 185.43 25.5277C185.529 25.9604 185.658 26.3004 185.819 26.5477C185.98 26.7949 186.103 27.0113 186.19 27.1967C185.708 27.7531 185.182 28.0312 184.614 28.0312C184.416 28.0312 184.23 27.9942 184.057 27.92C183.081 27.4007 181.752 27.1411 180.07 27.1411C178.389 27.1411 177.239 27.2585 176.621 27.4935C176.114 28.1487 175.861 29.3356 175.861 31.0541C175.861 32.7725 176.17 34.1078 176.788 35.0597C177.418 35.9993 178.327 36.4691 179.514 36.4691C180.701 36.4691 181.548 36.0241 182.055 35.1339C182.574 34.2438 182.833 32.8962 182.833 31.0911C182.833 30.8439 182.969 30.6646 183.241 30.5533C183.526 30.4297 183.847 30.3741 184.206 30.3864C184.577 30.3988 184.898 30.4668 185.17 30.5904C185.454 30.7141 185.597 30.8995 185.597 31.1468C185.597 35.1277 184.428 37.7611 182.092 39.0469C181.325 39.4672 180.614 39.7021 179.959 39.7516C179.316 39.801 178.809 39.8258 178.438 39.8258ZM176.38 25.2495C177.381 25.2124 178.259 25.0764 179.013 24.8415C179.78 24.619 180.163 24.3532 180.163 24.0441L180.2 21.6704C180.2 18.9257 179.588 17.5534 178.364 17.5534C177.511 17.5534 176.893 17.7821 176.51 18.2396C176.201 18.5981 176.04 19.0988 176.027 19.7417C176.015 20.1992 175.997 20.774 175.972 21.4664C175.959 22.1587 175.978 22.8511 176.027 23.5434C176.089 24.2234 176.207 24.7921 176.38 25.2495Z" fill="black"/>
</svg>
