<svg fill="none" height="311" viewBox="0 0 713 311" width="713" xmlns="http://www.w3.org/2000/svg" xmlns:xlink="http://www.w3.org/1999/xlink"><filter id="a" color-interpolation-filters="sRGB" filterUnits="userSpaceOnUse" height="171.861" width="711.861" x=".569256" y="1"><feFlood flood-opacity="0" result="BackgroundImageFix"/><feColorMatrix in="SourceAlpha" result="hardAlpha" type="matrix" values="0 0 0 0 0 0 0 0 0 0 0 0 0 0 0 0 0 0 127 0"/><feOffset dy="3.43074"/><feGaussianBlur stdDeviation="1.71537"/><feComposite in2="hardAlpha" operator="out"/><feColorMatrix type="matrix" values="0 0 0 0 0 0 0 0 0 0 0 0 0 0 0 0 0 0 0.25 0"/><feBlend in2="BackgroundImageFix" mode="normal" result="effect1_dropShadow_654_476"/><feBlend in="SourceGraphic" in2="effect1_dropShadow_654_476" mode="normal" result="shape"/></filter><mask id="b" fill="#000" height="115" maskUnits="userSpaceOnUse" width="658" x="32" y="24"><path d="m32 24h658v115h-658z" fill="#fff"/><path d="m319.901 110.91.194.726c.792 2.955 2.431 3.683 6.89 2.488 4.354-1.167 5.269-2.523 4.755-4.441-.597-2.229-2.193-3.413-9.182-2.541-12.302 1.574-16.275-1.64-18.08-8.3788-1.973-7.3613 2.148-13.1328 14.071-16.3276 13.271-3.556 18.395-.8172 20.256 6.1294.195.7258.351 1.5173.522 2.3606-1.583.3131-4.138.9419-6.367 1.5392-1.762.4723-3.473.9306-4.548 1.2742-.045-.3768-.142-.7397-.226-1.0507-.555-2.0736-2.057-3.1159-6.982-1.7963-3.784 1.014-4.685 2.4222-4.24 4.0811.5 1.8662 1.746 3.1992 9.347 2.3293 11.058-1.2406 15.693 1.1289 17.721 8.6976 2.029 7.569-1.56 13.253-14.106 16.615-13.478 3.611-18.871 1.111-20.802-6.095-.236-.881-.486-1.814-.632-2.775 1.752-.303 4.386-.842 6.823-1.495 1.762-.472 3.421-.916 4.586-1.34z" fill="#000"/><path d="m339.167 77.6891 31.104-8.3344c.337 1.4654.934 3.6946 1.476 5.7163.514 1.9181 1.167 4.3546 1.635 5.896-3.072.7677-6.145 1.5354-8.944 2.2855 3.348 12.4936 6.65 24.6105 7.555 27.3685-1.856.33-4.81 1.122-6.884 1.678-2.074.555-4.925 1.319-6.75 1.975-.594-2.841-3.779-14.934-7.14-27.4794-2.8.7501-5.844 1.6215-8.941 2.5067-.365-1.5691-1.018-4.0056-1.532-5.9237-.541-2.0217-1.139-4.2509-1.579-5.6885z" fill="#000"/><path d="m417.96 76.69c3.765 14.0487-1.362 22.7012-14.685 26.271-13.323 3.57-21.83-1.429-25.595-15.478-3.764-14.0488 2.191-21.4784 14.84-24.8678 12.597-3.3754 21.676.026 25.44 14.0748zm-17.439 15.7854c4.665-1.2501 6.137-5.0893 4.262-12.0878-1.848-6.8948-4.996-9.1071-9.61-7.8708s-6.314 4.6367-4.439 11.6351c1.903 7.1022 5.173 9.5598 9.787 8.3235z" fill="#000"/><path d="m441.945 70.2634c3.421-.9168 4.546-2.9406 3.615-6.4139-1.111-4.1473-3.124-4.6081-7.012-3.5663-1.088.2917-3.615 1.0242-5.623 1.6178.903 3.3696 1.806 6.7392 2.719 9.9395 1.466-.3371 3.747-.9483 6.301-1.5771zm9.357 2.1599.084.311c5.52-.7568 8.062.2289 10.761 5.1175 1.621 2.7327 3.274 5.7903 4.265 7.4139l-11.561 3.0977c-1.918.5139-2.461-.0628-4.412-3.8184-2.995-6.1985-4.026-7.1445-7.188-6.2972-1.867.5001-2.969.7399-5.444 1.4585 1.438 4.9489 2.746 9.21 3.877 12.1853l-13.116 3.5143c-1.41-5.6784-2.779-11.2013-5.002-19.4958-2.208-8.2426-3.76-13.8275-5.416-19.3846l21.203-5.6813c9.487-2.542 15.874-.4753 18.069 7.7155 1.903 7.1021.186 11.0626-6.12 13.8636z" fill="#000"/><path d="m460.473 45.1851 31.208-8.3622c.24 1.1026.716 3.0864 1.119 4.5898.43 1.607 1.028 3.8362 1.437 4.9489-6.339 1.6428-13.247 3.4384-18.431 4.8275l1.458 5.4432c6.169-1.6529 12.857-3.4448 17.895-4.9616.463 1.932 1.671 6.4421 2.227 8.5157-5.057 1.2437-11.81 2.9977-17.927 4.6368l1.514 5.6506c5.236-1.403 12.48-3.3995 18.376-5.0349.229 1.272.841 3.553 1.327 5.3674.416 1.5552.972 3.6288 1.423 4.897l-31.208 8.3622c-1.247-5.2776-2.831-11.1874-5.053-19.4819-2.209-8.2426-3.862-14.4116-5.365-19.3985z" fill="#000"/><path d="m532.749 79.1504 11.249-3.0143c.897 3.7603 2.831 11.1874 5.04 19.43 2.306 8.6059 3.875 14.4639 5.327 19.4639l-13.22 3.543c-2.589-3.029-8.899-8.951-14.229-13.912-2.042-2.231-3.853-4.635-5.495-7.029l-.103.0278c1.162 3.3002 2.137 6.3172 3.06 9.3482 2.094 7.606 3.483 12.79 4.222 14.926l-11.509 3.084c-1.337-5.198-2.883-11.174-5.105-19.468-2.209-8.2429-3.834-14.3082-5.313-19.4127l14.567-3.9032c1.704 2.2105 8.965 8.9882 14.002 14.3062 1.578 1.7439 3.15 3.8787 4.567 6.0547l.09-.079c-1.051-2.8859-1.957-5.6436-2.624-8.132-1.579-5.6885-3.471-12.1269-4.526-15.2336z" fill="#000"/><path d="m579.198 91.8743c-1.844-3.5621-3.767-7.214-5.551-10.3475-1.486-2.4355-2.737-4.8229-3.652-6.578l-.155.0416c.033 1.9913.13 4.6325.102 7.6402.125 3.578.272 7.6504.391 11.619zm21.544 10.7297-14.516 3.889c-.53-1.358-1.667-3.943-3.23-7.0797-2.229.5977-4.407 1.1807-6.117 1.6387-1.608.431-3.837 1.028-6.118 1.639.188 3.395.378 6.178.587 7.789l-13.271 3.556c.551-10.594.461-36.0174.313-41.7561l20.788-5.5701c2.91 5.0543 15.541 26.8952 21.564 35.8942z" fill="#000"/><path d="m650.352 89.3106-12.338 3.306c-1.352-6.083-2.471-10.6728-4.141-17.1149-.681-2.5402-1.303-5.4849-1.898-8.326l-.325.0315c.014 3.1633-.075 6.3544-.231 8.6743l-1.907 19.0131-5.495 1.4724-11.424-15.8857c-1.361-1.969-3.02-4.6359-4.548-7.2269l-.245.1213c.854 2.7716 1.731 5.4256 2.547 8.263 1.802 6.518 3.17 11.2077 4.909 17.0758l-10.835 2.9035c-1.344-5.6408-2.806-11.3053-5.015-19.5479-2.278-8.5019-3.886-14.2941-5.351-19.3467l16.226-4.3478c2.165 3.3094 5.732 8.7432 9.812 14.4288.977 1.5718 2.224 3.7379 3.391 5.8143l.156-.0417c.025-2.3958.049-4.7917.147-6.707.511-6.8043.983-13.5429 1.217-17.4393l14.878-3.9866c1.206 5.122 2.71 10.942 4.988 19.4439 2.209 8.2426 3.775 13.8794 5.482 19.4226z" fill="#000"/><path d="m646.653 48.6299 31.208-8.3621c.24 1.1025.716 3.0863 1.119 4.5897.43 1.6071 1.027 3.8362 1.437 4.9489-6.339 1.6428-13.247 3.4384-18.431 4.8275l1.458 5.4433c6.169-1.653 12.857-3.4449 17.895-4.9617.462 1.932 1.671 6.4421 2.226 8.5157-5.056 1.2437-11.809 2.9977-17.926 4.6368l1.514 5.6506c5.236-1.403 12.48-3.3995 18.376-5.0349.229 1.272.84 3.553 1.327 5.3674.416 1.5552.972 3.6288 1.423 4.8971l-31.208 8.3621c-1.248-5.2775-2.831-11.1874-5.054-19.4818-2.208-8.2427-3.861-14.4117-5.364-19.3986z" fill="#000"/><path d="m71.6251 109.236.1037-.028c4.8679 14.642 4.1206 22.844-12.2092 27.219-13.5822 3.64-21.744-1.73-25.3556-15.209-3.5977-13.426 1.098-21.4075 14.732-25.0608 13.6341-3.6532 19.762.7612 21.6233 7.7078.1945.726.3751 1.4.5316 2.191-1.7246.407-4.1232.994-6.456 1.619-2.3847.639-4.6657 1.25-6.1931 1.771-.1111-.415-.1843-.896-.2815-1.259-.8474-3.162-3.1405-4.048-6.873-3.047-4.873 1.305-6.2521 4.453-4.0296 12.747 2.0975 7.828 4.8527 10.646 10.296 9.188 3.888-1.042 5.0645-3.08 4.2643-7.311-2.4884.667-5.1702 1.441-7.2299 2.049-.1566-.792-.6566-2.658-.8789-3.487-.4306-1.607-.7917-2.955-1.1214-3.978 3.3317-.837 6.6495-1.726 9.1378-2.393 2.7476-.736 6.3385-1.643 9.9395-2.719z" fill="#000"/><path d="m97.2465 104.038c3.4215-.917 4.5465-2.941 3.6155-6.4141-1.1114-4.1473-3.124-4.6081-7.012-3.5663-1.0887.2917-3.615 1.0241-5.6229 1.6177.9029 3.3697 1.8058 6.7397 2.7189 9.9397 1.4654-.337 3.7464-.948 6.3005-1.577zm9.3575 2.16.083.311c5.521-.757 8.063.229 10.762 5.117 1.621 2.733 3.274 5.79 4.264 7.414l-11.56 3.098c-1.918.514-2.462-.063-4.412-3.819-2.995-6.198-4.026-7.144-7.1885-6.297-1.8663.5-2.9688.74-5.4433 1.459 1.4372 4.949 2.7456 9.21 3.8762 12.185l-13.1156 3.514c-1.4104-5.678-2.7792-11.201-5.0017-19.495-2.2086-8.243-3.7606-13.828-5.4163-19.3851l21.2028-5.6813c9.4864-2.542 15.8744-.4754 18.0694 7.7155 1.903 7.1021.186 11.0629-6.12 13.8639z" fill="#000"/><path d="m159.022 87.4851c3.764 14.0489-1.363 22.7009-14.686 26.2709s-21.83-1.429-25.594-15.4779c-3.765-14.0488 2.19-21.4784 14.839-24.8677 12.597-3.3754 21.676.0259 25.441 14.0747zm-17.44 15.7859c4.666-1.251 6.137-5.0898 4.262-12.0883-1.847-6.8948-4.996-9.107-9.61-7.8708-4.614 1.2363-6.314 4.6367-4.439 11.6352 1.903 7.1019 5.173 9.5599 9.787 8.3239z" fill="#000"/><path d="m189.399 84.1796-.361-1.3479c2.087-.5038 4.161-1.0594 6.234-1.615 2.074-.5557 4.199-1.1252 6.259-1.7326.274.8155.483 1.5931.663 2.2671 2.764 10.3162-1.954 16.97-14.447 20.3178-13.168 3.528-21.155-.777-25.073-15.396-3.583-13.3748.919-21.2487 14.449-24.8741 13.271-3.556 19.689.2806 21.953 8.7306.264.985.504 2.0876.706 3.2558-2.102.452-4.227 1.0215-6.249 1.5632-2.073.5556-4.095 1.0974-6.141 1.7567-.059-.4286-.17-.8434-.254-1.1544-1.18-4.4064-3.605-5.3681-7.545-4.3124-4.341 1.2187-5.873 3.7961-3.817 11.4685 2.042 7.6205 4.848 9.5912 9.41 8.3688 3.992-1.0696 5.143-3.8228 4.213-7.2961z" fill="#000"/><path d="m201.079 56.1023 31.208-8.3622c.24 1.1026.716 3.0864 1.118 4.5898.431 1.6071 1.028 3.8362 1.438 4.9489-6.339 1.6428-13.247 3.4384-18.432 4.8275l1.459 5.4433c6.169-1.653 12.856-3.4449 17.895-4.9617.462 1.932 1.671 6.4421 2.226 8.5157-5.056 1.2437-11.809 2.9977-17.926 4.6368l1.514 5.6506c5.236-1.403 12.479-3.3995 18.375-5.0349.23 1.272.841 3.553 1.327 5.3674.417 1.5552.973 3.6288 1.424 4.8971l-31.208 8.3621c-1.248-5.2775-2.831-11.1874-5.054-19.4819-2.208-8.2426-3.861-14.4116-5.364-19.3985z" fill="#000"/><path d="m262.184 59.8427c3.422-.9168 4.547-2.9405 3.616-6.4139-1.111-4.1472-3.124-4.608-7.012-3.5662-1.089.2917-3.615 1.0241-5.623 1.6177.903 3.3697 1.806 6.7393 2.719 9.9395 1.465-.3371 3.746-.9483 6.3-1.5771zm9.358 2.1599.083.3111c5.521-.7569 8.063.2288 10.762 5.1175 1.621 2.7326 3.274 5.7902 4.264 7.4139l-11.56 3.0976c-1.918.514-2.462-.0627-4.413-3.8183-2.994-6.1985-4.025-7.1446-7.188-6.2972-1.866.5-2.968.7399-5.443 1.4585 1.437 4.9489 2.746 9.21 3.876 12.1852l-13.115 3.5144c-1.411-5.6784-2.779-11.2013-5.002-19.4958-2.208-8.2426-3.76-13.8275-5.416-19.3846l21.203-5.6813c9.486-2.542 15.874-.4754 18.069 7.7154 1.903 7.1022.186 11.0627-6.12 13.8636z" fill="#000"/><path d="m300.877 29.3615 12.545-3.3615c-1.509 7.0164-3.95 24.4502-4.593 30.3454 1.608 5.7923 2.865 10.0672 3.361 11.7123-1.998.4241-5.056 1.2437-7.389 1.8687-2.385.639-5.444 1.4586-7.438 2.104-.289-1.7006-1.366-6.1348-2.935-11.9928-3.588-5.095-14.456-18.9071-19.109-23.828l14.101-3.7782c1.164 1.8551 4.281 6.8538 6.851 11.0546 1.313 2.2041 2.547 4.3184 3.499 6.0078l.415-.1111c-.006-1.8876-.033-4.2695.082-6.745.253-5.0685.633-11.1155.61-13.2762z" fill="#000"/></mask><mask id="c" fill="#000" height="115" maskUnits="userSpaceOnUse" width="658" x="28.3955" y="21.9355"><path d="m28.3955 21.9355h658v115h-658z" fill="#fff"/><path d="m316.296 108.846.195.726c.791 2.955 2.431 3.682 6.889 2.488 4.355-1.167 5.269-2.524 4.755-4.442-.597-2.229-2.192-3.413-9.181-2.54-12.303 1.574-16.275-1.64-18.081-8.3792-1.972-7.3614 2.148-13.1328 14.072-16.3277 13.271-3.556 18.394-.8172 20.256 6.1295.194.7257.351 1.5172.521 2.3606-1.583.313-4.137.9418-6.366 1.5391-1.763.4723-3.473.9307-4.548 1.2742-.046-.3767-.143-.7396-.226-1.0507-.556-2.0736-2.057-3.1158-6.982-1.7962-3.785 1.014-4.685 2.4221-4.241 4.081.5 1.8663 1.746 3.1992 9.348 2.3293 11.058-1.2405 15.693 1.129 17.721 8.6981 2.028 7.568-1.561 13.253-14.106 16.614-13.479 3.612-18.871 1.112-20.802-6.094-.236-.881-.486-1.814-.633-2.775 1.753-.303 4.387-.842 6.823-1.495 1.763-.472 3.422-.917 4.586-1.34z" fill="#000"/><path d="m335.562 75.6246 31.104-8.3344c.337 1.4655.935 3.6946 1.476 5.7164.514 1.9181 1.167 4.3546 1.636 5.8959-3.073.7677-6.145 1.5354-8.944 2.2855 3.347 12.4936 6.649 24.61 7.555 27.368-1.856.331-4.811 1.123-6.885 1.678-2.073.556-4.924 1.32-6.749 1.975-.595-2.841-3.779-14.9335-7.141-27.4789-2.799.7501-5.844 1.6215-8.94 2.5068-.365-1.5691-1.018-4.0056-1.532-5.9237-.542-2.0218-1.139-4.2509-1.58-5.6886z" fill="#000"/><path d="m414.356 74.6255c3.764 14.0488-1.363 22.7012-14.686 26.2715-13.323 3.57-21.83-1.4297-25.594-15.4785-3.765-14.0488 2.19-21.4784 14.839-24.8677 12.597-3.3754 21.677.0259 25.441 14.0747zm-17.44 15.7855c4.666-1.2502 6.137-5.0894 4.262-12.0879-1.847-6.8948-4.996-9.107-9.61-7.8708-4.613 1.2363-6.314 4.6367-4.439 11.6352 1.903 7.1022 5.173 9.5597 9.787 8.3235z" fill="#000"/><path d="m438.34 68.1989c3.422-.9168 4.546-2.9405 3.616-6.4139-1.112-4.1472-3.124-4.6081-7.012-3.5663-1.089.2917-3.615 1.0242-5.623 1.6178.903 3.3696 1.806 6.7393 2.719 9.9395 1.465-.3371 3.746-.9483 6.3-1.5771zm9.358 2.1599.083.311c5.52-.7568 8.063.2289 10.762 5.1176 1.621 2.7326 3.273 5.7902 4.264 7.4139l-11.56 3.0976c-1.918.514-2.462-.0627-4.413-3.8183-2.994-6.1986-4.025-7.1446-7.188-6.2972-1.866.5-2.969.7399-5.443 1.4585 1.437 4.9489 2.746 9.21 3.876 12.1852l-13.115 3.5144c-1.411-5.6784-2.78-11.2013-5.002-19.4958-2.209-8.2427-3.761-13.8275-5.416-19.3847l21.202-5.6812c9.487-2.542 15.875-.4754 18.07 7.7154 1.903 7.1022.186 11.0627-6.12 13.8636z" fill="#000"/><path d="m456.869 43.1206 31.208-8.3621c.239 1.1025.715 3.0864 1.118 4.5897.431 1.6071 1.028 3.8362 1.437 4.9489-6.338 1.6429-13.247 3.4385-18.431 4.8275l1.459 5.4433c6.169-1.653 12.856-3.4449 17.895-4.9617.462 1.932 1.671 6.4421 2.226 8.5158-5.056 1.2437-11.809 2.9976-17.927 4.6367l1.515 5.6506c5.235-1.4029 12.479-3.3995 18.375-5.0348.23 1.2719.841 3.5529 1.327 5.3673.417 1.5552.973 3.6289 1.424 4.8971l-31.209 8.3622c-1.247-5.2776-2.83-11.1874-5.053-19.4819-2.209-8.2427-3.862-14.4117-5.364-19.3986z" fill="#000"/><path d="m529.145 77.0859 11.249-3.0143c.896 3.7603 2.831 11.1874 5.039 19.4301 2.306 8.6053 3.876 14.4633 5.327 19.4643l-13.219 3.542c-2.59-3.029-8.899-8.95-14.229-13.912-2.043-2.231-3.854-4.6346-5.495-7.0285l-.104.0278c1.162 3.3002 2.137 6.3167 3.061 9.3477 2.093 7.607 3.482 12.791 4.221 14.927l-11.508 3.083c-1.338-5.198-2.883-11.173-5.106-19.468-2.208-8.2423-3.833-14.3077-5.312-19.4121l14.567-3.9033c1.703 2.2106 8.965 8.9882 14.001 14.3062 1.579 1.744 3.151 3.8786 4.567 6.0552l.09-.08c-1.051-2.8854-1.956-5.6431-2.623-8.1314-1.58-5.6886-3.472-12.127-4.526-15.2337z" fill="#000"/><path d="m575.593 89.8099c-1.843-3.5621-3.766-7.2141-5.551-10.3476-1.486-2.4355-2.737-4.8228-3.651-6.578l-.156.0417c.034 1.9913.13 4.6324.103 7.6402.125 3.578.272 7.6503.39 11.619zm21.544 10.7291-14.515 3.89c-.531-1.358-1.668-3.943-3.231-7.0802-2.229.5973-4.406 1.1807-6.117 1.6391-1.607.4306-3.836 1.0281-6.117 1.6391.187 3.395.377 6.177.587 7.788l-13.272 3.556c.551-10.593.462-36.0169.313-41.7555l20.788-5.5702c2.91 5.0543 15.541 26.8953 21.564 35.8937z" fill="#000"/><path d="m646.748 87.2461-12.338 3.306c-1.352-6.083-2.471-10.6727-4.142-17.1148-.68-2.5402-1.303-5.485-1.897-8.326l-.325.0315c.014 3.1633-.076 6.3543-.232 8.6742l-1.906 19.0132-5.495 1.4724-11.424-15.8858c-1.361-1.9689-3.021-4.6358-4.548-7.2269l-.246.1213c.854 2.7716 1.732 5.4257 2.548 8.263 1.802 6.518 3.17 11.2077 4.909 17.0759l-10.835 2.9031c-1.345-5.6404-2.807-11.3049-5.016-19.5476-2.278-8.5018-3.885-14.2941-5.35-19.3467l16.226-4.3477c2.165 3.3093 5.732 8.7431 9.811 14.4287.977 1.5718 2.224 3.738 3.392 5.8143l.155-.0416c.025-2.3959.05-4.7917.148-6.7071.51-6.8043.983-13.5428 1.217-17.4393l14.878-3.9866c1.206 5.1221 2.71 10.9421 4.988 19.4439 2.208 8.2427 3.774 13.8794 5.482 19.4226z" fill="#000"/><path d="m643.048 46.5655 31.208-8.3622c.24 1.1025.716 3.0864 1.119 4.5898.431 1.607 1.028 3.8362 1.437 4.9489-6.338 1.6428-13.247 3.4384-18.431 4.8275l1.459 5.4432c6.169-1.653 12.856-3.4449 17.895-4.9617.462 1.932 1.67 6.4422 2.226 8.5158-5.056 1.2437-11.81 2.9976-17.927 4.6367l1.514 5.6506c5.236-1.4029 12.48-3.3994 18.376-5.0348.23 1.2719.841 3.5529 1.327 5.3673.417 1.5553.972 3.6289 1.423 4.8971l-31.208 8.3622c-1.247-5.2776-2.831-11.1874-5.053-19.4819-2.209-8.2427-3.862-14.4117-5.365-19.3985z" fill="#000"/><path d="m68.0206 107.172.1037-.028c4.8679 14.642 4.1206 22.843-12.2092 27.219-13.5822 3.639-21.744-1.73-25.3556-15.209-3.5977-13.427 1.098-21.408 14.732-25.0612 13.6341-3.6532 19.762.7611 21.6233 7.7082.1945.725.3751 1.399.5316 2.191-1.7246.406-4.1232.993-6.456 1.618-2.3847.639-4.6657 1.251-6.1931 1.771-.1111-.415-.1843-.895-.2815-1.258-.8474-3.162-3.1405-4.048-6.873-3.048-4.873 1.306-6.2521 4.453-4.0296 12.748 2.0975 7.828 4.8527 10.646 10.296 9.187 3.888-1.042 5.0645-3.079 4.2643-7.31-2.4884.667-5.1702 1.441-7.2299 2.048-.1566-.791-.6566-2.657-.8789-3.487-.4306-1.607-.7917-2.955-1.1214-3.978 3.3317-.837 6.6495-1.726 9.1378-2.393 2.7476-.736 6.3385-1.642 9.9395-2.718z" fill="#000"/><path d="m93.642 101.973c3.4215-.917 4.5461-2.9403 3.6154-6.4136-1.1113-4.1472-3.1239-4.6081-7.0119-3.5663-1.0887.2917-3.615 1.0242-5.6228 1.6178.9028 3.3696 1.8057 6.7391 2.7188 9.9391 1.4654-.337 3.7464-.948 6.3005-1.577zm9.358 2.16.083.311c5.52-.757 8.062.229 10.761 5.118 1.621 2.732 3.274 5.79 4.265 7.414l-11.561 3.097c-1.918.514-2.461-.062-4.412-3.818-2.9944-6.199-4.0258-7.145-7.188-6.297-1.8663.5-2.9688.74-5.4433 1.458 1.4372 4.949 2.7456 9.21 3.8762 12.185l-13.1156 3.515c-1.4104-5.679-2.7791-11.201-5.0017-19.496-2.2086-8.2426-3.7606-13.8275-5.4163-19.3846l21.2028-5.6813c9.4869-2.542 15.8749-.4753 18.0689 7.7155 1.903 7.1022.187 11.0624-6.119 13.8634z" fill="#000"/><path d="m155.417 85.4206c3.765 14.0488-1.362 22.7014-14.685 26.2714s-21.83-1.43-25.595-15.4783c-3.764-14.0488 2.191-21.4785 14.84-24.8678 12.597-3.3754 21.676.0259 25.44 14.0747zm-17.439 15.7854c4.665-1.2501 6.137-5.0893 4.262-12.0877-1.848-6.8948-4.996-9.1071-9.61-7.8708-4.614 1.2362-6.314 4.6367-4.439 11.6351 1.903 7.1022 5.173 9.5594 9.787 8.3234z" fill="#000"/><path d="m185.794 82.1151-.361-1.3478c2.088-.5038 4.161-1.0595 6.235-1.6151 2.073-.5556 4.199-1.1251 6.259-1.7326.274.8156.482 1.5932.663 2.2671 2.764 10.3163-1.954 16.97-14.448 20.3173-13.167 3.529-21.155-.7764-25.072-15.3954-3.584-13.3749.918-21.2487 14.449-24.8742 13.271-3.556 19.689.2807 21.953 8.7307.264.985.503 2.0875.705 3.2558-2.101.4519-4.226 1.0214-6.248 1.5632-2.074.5556-4.096 1.0973-6.142 1.7566-.059-.4286-.17-.8433-.253-1.1544-1.181-4.4064-3.606-5.368-7.545-4.3123-4.341 1.2186-5.873 3.796-3.817 11.4684 2.042 7.6206 4.848 9.5912 9.41 8.3689 3.991-1.0696 5.143-3.8229 4.212-7.2962z" fill="#000"/><path d="m197.474 54.0379 31.208-8.3622c.24 1.1025.716 3.0864 1.119 4.5897.431 1.6071 1.028 3.8362 1.437 4.949-6.338 1.6428-13.247 3.4384-18.431 4.8275l1.459 5.4432c6.169-1.653 12.856-3.4449 17.895-4.9617.462 1.932 1.67 6.4421 2.226 8.5158-5.056 1.2437-11.81 2.9976-17.927 4.6367l1.514 5.6506c5.236-1.4029 12.48-3.3994 18.376-5.0348.23 1.2719.841 3.5529 1.327 5.3673.417 1.5553.972 3.6289 1.423 4.8971l-31.208 8.3622c-1.247-5.2776-2.831-11.1874-5.053-19.4819-2.209-8.2427-3.862-14.4117-5.365-19.3985z" fill="#000"/><path d="m258.58 57.7783c3.421-.9168 4.546-2.9406 3.615-6.4139-1.111-4.1472-3.123-4.6081-7.011-3.5663-1.089.2917-3.615 1.0242-5.623 1.6178.903 3.3696 1.805 6.7392 2.719 9.9395 1.465-.3371 3.746-.9483 6.3-1.5771zm9.358 2.1599.083.311c5.52-.7568 8.062.2289 10.761 5.1175 1.621 2.7327 3.274 5.7903 4.265 7.414l-11.561 3.0976c-1.918.5139-2.461-.0628-4.412-3.8184-2.994-6.1985-4.026-7.1445-7.188-6.2972-1.866.5001-2.969.7399-5.443 1.4585 1.437 4.9489 2.745 9.21 3.876 12.1853l-13.116 3.5143c-1.41-5.6784-2.779-11.2013-5.001-19.4958-2.209-8.2426-3.761-13.8275-5.417-19.3846l21.203-5.6813c9.487-2.542 15.875-.4753 18.069 7.7155 1.903 7.1021.187 11.0626-6.119 13.8636z" fill="#000"/><path d="m297.272 27.2971 12.546-3.3616c-1.51 7.0164-3.95 24.4503-4.593 30.3455 1.607 5.7922 2.864 10.0672 3.36 11.7122-1.997.4242-5.056 1.2437-7.389 1.8688-2.384.639-5.443 1.4585-7.437 2.1039-.289-1.7006-1.366-6.1348-2.936-11.9928-3.587-5.095-14.456-18.9071-19.108-23.8279l14.1-3.7783c1.164 1.8551 4.282 6.8539 6.852 11.0547 1.313 2.2041 2.546 4.3184 3.499 6.0078l.415-.1112c-.006-1.8876-.033-4.2695.081-6.7449.254-5.0685.634-11.1155.61-13.2762z" fill="#000"/></mask><path d="m65.5 232v-112" stroke="#000"/><path d="m36.9146 252.296v-.528c0-3.384-1.8-4.872-5.28-4.872s-5.952 1.944-5.976 6.936c0 5.04 2.52 7.248 6.072 7.248 3.648 0 5.232-1.8 5.232-4.848v-.552h2.424c0 .24.024.432.024.72 0 4.272-2.496 6.888-7.656 6.912-5.088 0-8.592-3.024-8.592-9.432 0-5.88 3.192-9.192 8.568-9.192 5.28 0 7.608 2.736 7.608 6.696 0 .336 0 .576-.024.912-.384-.024-.792-.024-1.2-.024-.432 0-.792 0-1.2.024zm17.7313 3.384c0-3.696-2.136-5.376-5.064-5.376-2.904 0-5.04 1.656-5.04 5.376 0 3.696 2.088 5.616 5.04 5.616 3 0 5.064-1.944 5.064-5.616zm2.28-.072c0 4.896-3.024 7.704-7.344 7.704-4.296 0-7.296-2.808-7.296-7.704s3.144-7.344 7.296-7.344 7.344 2.448 7.344 7.344zm5.7837 7.392h-2.424c.072-2.952.072-6 .072-9.24 0-3.768 0-6.24-.072-9.336h2.424c-.072 3.024-.048 5.496-.048 9.432 0 3.408-.024 6.12.048 9.144zm15.7723-7.32c0-3.696-2.136-5.376-5.064-5.376-2.904 0-5.04 1.656-5.04 5.376 0 3.696 2.088 5.616 5.04 5.616 3 0 5.064-1.944 5.064-5.616zm2.28-.072c0 4.896-3.024 7.704-7.344 7.704-4.296 0-7.296-2.808-7.296-7.704s3.144-7.344 7.296-7.344 7.344 2.448 7.344 7.344zm5.3756-3.792h.168c.744-2.376 2.4-3.456 4.8-3.456 1.08 0 1.968.216 2.76.528-.144.552-.336 1.608-.408 2.256-.768-.384-1.632-.552-2.616-.552-2.472 0-4.248 1.392-4.248 4.872 0 2.568 0 5.904.072 7.536h-2.52c.048-2.016.048-4.152.048-7.248 0-3.072 0-5.112-.048-7.176h2.112c-.024.888-.072 1.944-.12 3.24zm16.1485 9.6c3 0 4.176-.744 4.176-2.352 0-1.464-.984-2.208-5.016-2.616-4.4164-.432-5.7124-1.872-5.7124-4.176 0-2.712 2.208-4.032 6.3364-4.032 4.344 0 6.264 1.368 6.264 4.2 0 .36 0 .576-.024.936-.288-.024-.72-.024-1.128-.024-.432 0-.816 0-1.032.024.024-.24.024-.552.024-.72 0-1.752-1.128-2.568-4.104-2.568-2.8324 0-4.0804.744-4.0804 2.208 0 1.344.84 2.088 4.8004 2.496 4.44.48 5.904 1.752 5.904 4.32 0 2.712-1.992 4.2-6.432 4.2-4.8004 0-6.7684-1.536-6.7684-4.464 0-.264.024-.48.024-.768.288.024.672.048 1.128.048.384 0 .792-.024 1.056-.048-.024.216-.024.408-.024.576 0 1.992 1.464 2.76 4.6084 2.76z" fill="#000"/><rect fill="#ff272b" height="23" rx="11.5" stroke="#000" width="23" x="46.5" y="282.5"/><rect fill="#fff" height="23" rx="11.5" stroke="#000" width="23" x="62.5" y="282.5"/><path d="m330 232v-112" stroke="#000"/><path d="m300.358 245h13.44c0 .264-.024.672-.024 1.008 0 .408.024.84.024 1.2-3.936-.048-7.824-.048-10.944-.048v6.504.528c3.792 0 7.56 0 10.776-.072-.024.576-.024 1.584-.024 2.112-3.192-.024-7.008-.048-10.752-.048.024 2.424.048 5.16.12 6.816h-2.616c.048-2.424.072-5.16.072-9 0-3.816 0-6.576-.072-9zm28.339 10.68c0-3.696-2.136-5.376-5.064-5.376-2.904 0-5.04 1.656-5.04 5.376 0 3.696 2.088 5.616 5.04 5.616 3 0 5.064-1.944 5.064-5.616zm2.28-.072c0 4.896-3.024 7.704-7.344 7.704-4.296 0-7.296-2.808-7.296-7.704s3.144-7.344 7.296-7.344 7.344 2.448 7.344 7.344zm16.967 7.392h-2.448c.048-2.256.072-4.872.072-8.736 0-2.544-1.104-3.936-3.96-3.936-2.712 0-4.872 1.368-4.872 4.392 0 5.016.024 6.816.048 8.28h-2.424c.048-1.944.072-3.888.072-6.96 0-3.168-.024-5.592-.072-7.464h2.424c-.024.96-.024 1.728-.048 2.688l.144.024c.936-1.944 2.904-2.952 5.664-2.952 3.528 0 5.376 1.848 5.376 5.472 0 2.376-.048 3.168-.048 4.608 0 1.632.024 3.096.072 4.584zm4.901-12.432h-2.16c0-.576 0-1.368-.024-1.992.672.024 1.416.024 2.184.048 0-1.056 0-2.064 0-3.048.384 0 .816.024 1.224.024.384 0 .792 0 1.152-.024-.024.96-.024 1.992-.048 3.048 2.112 0 4.392 0 6.672-.048-.024.624-.048 1.44-.048 2.088-1.968-.048-4.368-.072-6.648-.072-.024 2.304-.024 4.848-.024 7.632 0 1.896.912 2.904 3.384 2.904 1.248 0 2.328-.24 3.264-.576.072.696.24 1.536.336 2.112-1.248.312-2.328.552-3.864.552-3.888 0-5.424-1.92-5.424-4.752 0-1.968.024-4.896.024-7.896z" fill="#000"/><path d="m295.995 295.12v.336c0 1.368.624 1.872 2.688 1.872 2.016 0 2.568-.48 2.568-1.368 0-1.032-.552-1.728-3.672-2.16-5.496-.744-6.84-2.592-6.84-5.712 0-3.408 2.448-5.424 7.968-5.424 6.144 0 8.04 1.776 8.04 4.992 0 .336-.024.696-.048 1.08-.72-.048-1.896-.072-2.928-.072-.816 0-1.608 0-2.112.024.024-.168.024-.336.024-.48 0-.96-.528-1.584-2.808-1.584-1.752 0-2.304.504-2.304 1.272 0 .864.384 1.584 3.768 2.088 4.92.744 6.648 2.304 6.648 5.808s-2.208 5.544-8.016 5.544c-6.24 0-8.28-1.704-8.28-5.04 0-.408 0-.84.048-1.272.792.072 1.992.144 3.12.144.816 0 1.584 0 2.136-.048zm12.167-12.12h14.4c-.024.672-.024 1.704-.024 2.64 0 .888 0 2.016.024 2.736-1.416-.024-2.832-.048-4.128-.048 0 5.784.024 11.4.096 12.696-.84-.072-2.208-.072-3.168-.072s-2.28 0-3.144.072c.072-1.296.096-6.888.096-12.696-1.296 0-2.712.024-4.152.048.024-.72.024-1.848.024-2.736 0-.936 0-1.968-.024-2.64zm26.659 0h5.808c-1.464 2.856-4.536 10.104-5.496 12.576.024 2.688.072 4.68.096 5.448-.912-.048-2.328-.048-3.408-.048-1.104 0-2.52 0-3.456.048.072-.768.12-2.808.12-5.52-.96-2.616-4.056-9.84-5.496-12.504h6.528c.288.936 1.056 3.456 1.68 5.568.312 1.104.6 2.16.816 3h.192c.216-.816.48-1.848.816-2.904.696-2.16 1.56-4.728 1.8-5.664zm7.001 0h6.192c-.048 1.344-.096 4.992-.12 8.976 0 1.272 0 2.568.024 3.696 1.656 0 3.864-.024 5.784-.072 0 .888-.024 1.8-.024 2.688 0 .912.024 1.8.024 2.712h-11.88c0-1.464.072-5.16.072-9 0-4.128 0-7.272-.072-9zm13.758 0h14.448c-.024.504-.048 1.416-.048 2.112 0 .744 0 1.776.048 2.304-2.928-.024-6.12-.048-8.52-.048v2.52c2.856 0 5.952 0 8.304-.072-.024.888-.024 2.976-.024 3.936-2.328-.048-5.448-.072-8.28-.072v2.616c2.424 0 5.784-.024 8.52-.048-.048.576-.048 1.632-.048 2.472 0 .72 0 1.68.048 2.28h-14.448c.072-2.424.072-5.16.072-9 0-3.816 0-6.672-.072-9z" fill="#000"/><path d="m620.5 232v-112" stroke="#000"/><path d="m584.653 255.392c-.336-.024-.72-.024-1.152-.024-.336 0-.816 0-1.152.024.408-1.728 1.368-6.12 1.68-7.56.48.072 1.272.24 1.728.288-.336 1.608-.96 5.592-1.104 7.272zm-4.032 0c-.336-.024-.72-.024-1.152-.024-.336 0-.816 0-1.152.024.408-1.728 1.368-6.12 1.68-7.56.48.072 1.272.24 1.728.288-.336 1.608-.96 5.592-1.104 7.272zm27.673-7.392h2.52c-1.272 3.792-4.512 14.688-5.52 18-.336 0-.792-.024-1.296-.024-.72 0-1.32 0-1.632.024-.552-1.896-1.896-7.032-2.928-11.112-.408-1.68-.768-3.264-1.008-4.488h-.096c-.264 1.248-.624 2.952-1.056 4.536-1.104 4.08-2.52 8.976-3.096 11.064-.432 0-.912-.024-1.368-.024-.672 0-1.08.024-1.416.024-1.104-3.6-3.984-14.208-5.4-18h2.88c.288 1.536 1.968 7.584 3.048 11.736.504 1.8.816 3.144 1.032 4.128h.096c.24-1.032.6-2.376 1.08-4.176 1.008-3.96 2.568-9.6 2.976-11.688h1.536 1.44c.456 2.04 1.776 7.464 2.88 11.736.48 1.752.792 3.192 1.032 4.176h.144c.216-.984.6-2.376 1.056-4.104 1.032-4.08 2.76-10.032 3.096-11.808zm15.356 10.68c0-3.696-2.136-5.376-5.064-5.376-2.904 0-5.04 1.656-5.04 5.376 0 3.696 2.088 5.616 5.04 5.616 3 0 5.064-1.944 5.064-5.616zm2.28-.072c0 4.896-3.024 7.704-7.344 7.704-4.296 0-7.296-2.808-7.296-7.704s3.144-7.344 7.296-7.344 7.344 2.448 7.344 7.344zm5.375-3.792h.168c.744-2.376 2.4-3.456 4.8-3.456 1.08 0 1.968.216 2.76.528-.144.552-.336 1.608-.408 2.256-.768-.384-1.632-.552-2.616-.552-2.472 0-4.248 1.392-4.248 4.872 0 2.568 0 5.904.072 7.536h-2.52c.048-2.016.048-4.152.048-7.248 0-3.072 0-5.112-.048-7.176h2.112c-.024.888-.072 1.944-.12 3.24zm20.196 5.088v-5.28c-1.152-.864-2.784-1.392-4.488-1.392-3.24 0-4.92 1.968-4.92 5.688 0 3.768 1.8 5.448 4.632 5.448 2.592 0 4.776-1.656 4.776-4.464zm-.072-12.48h2.472c-.072 2.76-.072 5.112-.072 9.96 0 3.624 0 6.24.072 8.616h-2.424c.024-.552.024-1.104.024-1.752 0-.432.024-.888.048-1.368l-.168-.024c-.792 1.896-2.616 3.408-5.304 3.408-3.768 0-6.216-2.4-6.216-7.32s2.544-7.632 6.504-7.632c2.256 0 3.984.744 5.064 2.088l.096-.024c-.048-.888-.048-1.584-.048-2.52 0-1.368.024-2.232-.048-3.432zm5.917.576c.336.024.72.024 1.152.024.336 0 .816 0 1.152-.024-.408 1.728-1.368 6.12-1.68 7.56-.48-.072-1.272-.24-1.728-.288.336-1.608.96-5.592 1.104-7.272zm4.032 0c.336.024.72.024 1.152.024.336 0 .816 0 1.152-.024-.408 1.728-1.368 6.12-1.68 7.56-.48-.072-1.272-.24-1.728-.288.336-1.608.96-5.592 1.104-7.272zm-117.023 38.864c0 .6-.336 1.128-1.704 1.128-1.344 0-1.68-.528-1.68-1.128 0-.648.36-1.08 1.68-1.08s1.704.432 1.704 1.08zm-.48 17.136h-2.448c.072-2.4.072-4.44.072-7.464 0-2.856 0-4.704-.072-6.96h2.448c-.096 2.256-.096 4.08-.096 7.032 0 3.144 0 4.992.096 7.392zm18.187 0h-2.448c.048-2.256.072-4.872.072-8.736 0-2.544-1.104-3.936-3.96-3.936-2.712 0-4.872 1.368-4.872 4.392 0 5.016.024 6.816.048 8.28h-2.424c.048-1.944.072-3.888.072-6.96 0-3.168-.024-5.592-.072-7.464h2.424c-.024.96-.024 1.728-.048 2.688l.144.024c.936-1.944 2.904-2.952 5.664-2.952 3.528 0 5.376 1.848 5.376 5.472 0 2.376-.048 3.168-.048 4.608 0 1.632.024 3.096.072 4.584zm12.259-12.432h-2.16c0-.576 0-1.368-.024-1.992.672.024 1.416.024 2.184.048 0-1.056 0-2.064 0-3.048.384 0 .816.024 1.224.024.384 0 .792 0 1.152-.024-.024.96-.024 1.992-.048 3.048 2.112 0 4.392 0 6.672-.048-.024.624-.048 1.44-.048 2.088-1.968-.048-4.368-.072-6.648-.072-.024 2.304-.024 4.848-.024 7.632 0 1.896.912 2.904 3.384 2.904 1.248 0 2.328-.24 3.264-.576.072.696.24 1.536.336 2.112-1.248.312-2.328.552-3.864.552-3.888 0-5.424-1.92-5.424-4.752 0-1.968.024-4.896.024-7.896zm26.038 12.432h-2.448c.048-2.328.072-5.016.072-8.88 0-2.496-1.176-3.768-3.912-3.768-2.688 0-4.92 1.344-4.92 4.464 0 5.016.024 6.72.048 8.184h-2.424c.048-2.184.072-4.248.072-7.776 0-4.392-.048-8.112-.096-10.8h2.496c-.048 1.536-.048 2.856-.048 4.368 0 .888-.024 1.608-.048 2.52l.12.024c.912-2.04 2.904-3.024 5.688-3.024 3.456 0 5.376 1.848 5.376 5.184 0 2.256-.048 3.216-.048 4.632 0 1.752.024 3.312.072 4.872zm10.419-12.984c-2.832 0-4.608 1.488-4.872 4.896 2.52.048 7.032.048 8.952 0 .024-.264.024-.6.024-.912 0-2.448-1.224-3.984-4.104-3.984zm5.208 8.184c.432 0 .744-.024 1.032-.048.072 2.76-1.056 5.16-6.192 5.16-4.368 0-7.152-2.424-7.152-7.512 0-5.16 2.856-7.536 7.2-7.536 4.44 0 6.168 2.376 6.168 5.952 0 .768 0 1.512-.048 2.088-1.056-.024-3.048 0-5.832 0-1.848 0-3.768-.024-5.304-.048.12 3.576 1.92 5.28 4.992 5.28 3.144 0 4.032-1.368 4.032-3.384.312.024.648.048 1.104.048zm25.904 4.8h-2.448c.048-2.256.072-4.872.072-8.736 0-2.544-1.104-3.936-3.96-3.936-2.712 0-4.872 1.368-4.872 4.392 0 5.016.024 6.816.048 8.28h-2.424c.048-1.944.072-3.888.072-6.96 0-3.168-.024-5.592-.072-7.464h2.424c-.024.96-.024 1.728-.048 2.688l.144.024c.936-1.944 2.904-2.952 5.664-2.952 3.528 0 5.376 1.848 5.376 5.472 0 2.376-.048 3.168-.048 4.608 0 1.632.024 3.096.072 4.584zm14.428-5.568v-.792c-1.32-.216-2.88-.288-4.512-.288-2.76 0-4.056.792-4.056 2.592 0 1.656 1.08 2.568 3.576 2.568 3.288 0 4.992-1.728 4.992-4.08zm.072 2.736h-.12c-.768 2.016-2.76 3.096-5.784 3.096-3.216 0-5.016-1.296-5.016-4.032 0-2.832 1.944-4.152 6.024-4.152 2.04 0 3.744.144 4.848.408.024-.6.024-1.152.024-1.608 0-2.112-1.08-3.624-4.008-3.624-2.76 0-4.128 1.248-4.056 3.6-.288-.024-.624-.024-1.032-.024-.432 0-.888 0-1.224.048-.12-3.264 1.848-5.568 6.288-5.568 4.608 0 6.36 2.352 6.36 5.448 0 1.752-.072 3.12-.072 4.848s.072 3.648.288 4.392h-1.92c-.528 0-.648-.12-.648-.72s.024-1.392.048-2.112zm28.151 2.832h-2.352c.048-1.968.072-5.4.072-9.24 0-2.28-.912-3.408-3.216-3.408-2.256 0-4.08 1.272-4.08 4.2 0 4.344-.024 6.504.048 8.448h-2.328c.048-1.992.072-4.584.072-9.168 0-2.304-.888-3.48-3.216-3.48-2.232 0-4.08 1.272-4.08 4.2 0 3.696 0 6.96.024 8.448h-2.304c.048-1.992.048-3.984.048-6.936 0-3.192 0-5.352-.048-7.488h2.376c-.048.96-.024 1.656-.072 2.616l.12.024c.864-1.896 2.424-2.88 4.752-2.88s3.96.96 4.368 2.976l.144.024c.84-2.04 2.592-3 4.944-3 2.976 0 4.704 1.488 4.704 4.608 0 1.776-.072 3.624-.072 5.28 0 1.536.048 3.384.096 4.776zm10.471-12.984c-2.832 0-4.608 1.488-4.872 4.896 2.52.048 7.032.048 8.952 0 .024-.264.024-.6.024-.912 0-2.448-1.224-3.984-4.104-3.984zm5.208 8.184c.432 0 .744-.024 1.032-.048.072 2.76-1.056 5.16-6.192 5.16-4.368 0-7.152-2.424-7.152-7.512 0-5.16 2.856-7.536 7.2-7.536 4.44 0 6.168 2.376 6.168 5.952 0 .768 0 1.512-.048 2.088-1.056-.024-3.048 0-5.832 0-1.848 0-3.768-.024-5.304-.048.12 3.576 1.92 5.28 4.992 5.28 3.144 0 4.032-1.368 4.032-3.384.312.024.648.048 1.104.048z" fill="#000"/><path d="m3.5.5h706v166h-706z" stroke="#000"/><g filter="url(#a)"><path d="m4 1h705v165h-705z" fill="#f4f4f4"/></g><g stroke="#000"><path d="m319.901 110.91.194.726c.792 2.955 2.431 3.683 6.89 2.488 4.354-1.167 5.269-2.523 4.755-4.441-.597-2.229-2.193-3.413-9.182-2.541-12.302 1.574-16.275-1.64-18.08-8.3788-1.973-7.3613 2.148-13.1328 14.071-16.3276 13.271-3.556 18.395-.8172 20.256 6.1294.195.7258.351 1.5173.522 2.3606-1.583.3131-4.138.9419-6.367 1.5392-1.762.4723-3.473.9306-4.548 1.2742-.045-.3768-.142-.7397-.226-1.0507-.555-2.0736-2.057-3.1159-6.982-1.7963-3.784 1.014-4.685 2.4222-4.24 4.0811.5 1.8662 1.746 3.1992 9.347 2.3293 11.058-1.2406 15.693 1.1289 17.721 8.6976 2.029 7.569-1.56 13.253-14.106 16.615-13.478 3.611-18.871 1.111-20.802-6.095-.236-.881-.486-1.814-.632-2.775 1.752-.303 4.386-.842 6.823-1.495 1.762-.472 3.421-.916 4.586-1.34z" mask="url(#b)" stroke-width="2"/><path d="m339.167 77.6891 31.104-8.3344c.337 1.4654.934 3.6946 1.476 5.7163.514 1.9181 1.167 4.3546 1.635 5.896-3.072.7677-6.145 1.5354-8.944 2.2855 3.348 12.4936 6.65 24.6105 7.555 27.3685-1.856.33-4.81 1.122-6.884 1.678-2.074.555-4.925 1.319-6.75 1.975-.594-2.841-3.779-14.934-7.14-27.4794-2.8.7501-5.844 1.6215-8.941 2.5067-.365-1.5691-1.018-4.0056-1.532-5.9237-.541-2.0217-1.139-4.2509-1.579-5.6885z" mask="url(#b)" stroke-width="2"/><path d="m417.96 76.69c3.765 14.0487-1.362 22.7012-14.685 26.271-13.323 3.57-21.83-1.429-25.595-15.478-3.764-14.0488 2.191-21.4784 14.84-24.8678 12.597-3.3754 21.676.026 25.44 14.0748zm-17.439 15.7854c4.665-1.2501 6.137-5.0893 4.262-12.0878-1.848-6.8948-4.996-9.1071-9.61-7.8708s-6.314 4.6367-4.439 11.6351c1.903 7.1022 5.173 9.5598 9.787 8.3235z" mask="url(#b)" stroke-width="2"/><path d="m441.945 70.2634c3.421-.9168 4.546-2.9406 3.615-6.4139-1.111-4.1473-3.124-4.6081-7.012-3.5663-1.088.2917-3.615 1.0242-5.623 1.6178.903 3.3696 1.806 6.7392 2.719 9.9395 1.466-.3371 3.747-.9483 6.301-1.5771zm9.357 2.1599.084.311c5.52-.7568 8.062.2289 10.761 5.1175 1.621 2.7327 3.274 5.7903 4.265 7.4139l-11.561 3.0977c-1.918.5139-2.461-.0628-4.412-3.8184-2.995-6.1985-4.026-7.1445-7.188-6.2972-1.867.5001-2.969.7399-5.444 1.4585 1.438 4.9489 2.746 9.21 3.877 12.1853l-13.116 3.5143c-1.41-5.6784-2.779-11.2013-5.002-19.4958-2.208-8.2426-3.76-13.8275-5.416-19.3846l21.203-5.6813c9.487-2.542 15.874-.4753 18.069 7.7155 1.903 7.1021.186 11.0626-6.12 13.8636z" mask="url(#b)" stroke-width="2"/><path d="m460.473 45.1851 31.208-8.3622c.24 1.1026.716 3.0864 1.119 4.5898.43 1.607 1.028 3.8362 1.437 4.9489-6.339 1.6428-13.247 3.4384-18.431 4.8275l1.458 5.4432c6.169-1.6529 12.857-3.4448 17.895-4.9616.463 1.932 1.671 6.4421 2.227 8.5157-5.057 1.2437-11.81 2.9977-17.927 4.6368l1.514 5.6506c5.236-1.403 12.48-3.3995 18.376-5.0349.229 1.272.841 3.553 1.327 5.3674.416 1.5552.972 3.6288 1.423 4.897l-31.208 8.3622c-1.247-5.2776-2.831-11.1874-5.053-19.4819-2.209-8.2426-3.862-14.4116-5.365-19.3985z" mask="url(#b)" stroke-width="2"/><path d="m532.749 79.1504 11.249-3.0143c.897 3.7603 2.831 11.1874 5.04 19.43 2.306 8.6059 3.875 14.4639 5.327 19.4639l-13.22 3.543c-2.589-3.029-8.899-8.951-14.229-13.912-2.042-2.231-3.853-4.635-5.495-7.029l-.103.0278c1.162 3.3002 2.137 6.3172 3.06 9.3482 2.094 7.606 3.483 12.79 4.222 14.926l-11.509 3.084c-1.337-5.198-2.883-11.174-5.105-19.468-2.209-8.2429-3.834-14.3082-5.313-19.4127l14.567-3.9032c1.704 2.2105 8.965 8.9882 14.002 14.3062 1.578 1.7439 3.15 3.8787 4.567 6.0547l.09-.079c-1.051-2.8859-1.957-5.6436-2.624-8.132-1.579-5.6885-3.471-12.1269-4.526-15.2336z" mask="url(#b)" stroke-width="2"/><path d="m579.198 91.8743c-1.844-3.5621-3.767-7.214-5.551-10.3475-1.486-2.4355-2.737-4.8229-3.652-6.578l-.155.0416c.033 1.9913.13 4.6325.102 7.6402.125 3.578.272 7.6504.391 11.619zm21.544 10.7297-14.516 3.889c-.53-1.358-1.667-3.943-3.23-7.0797-2.229.5977-4.407 1.1807-6.117 1.6387-1.608.431-3.837 1.028-6.118 1.639.188 3.395.378 6.178.587 7.789l-13.271 3.556c.551-10.594.461-36.0174.313-41.7561l20.788-5.5701c2.91 5.0543 15.541 26.8952 21.564 35.8942z" mask="url(#b)" stroke-width="2"/><path d="m650.352 89.3106-12.338 3.306c-1.352-6.083-2.471-10.6728-4.141-17.1149-.681-2.5402-1.303-5.4849-1.898-8.326l-.325.0315c.014 3.1633-.075 6.3544-.231 8.6743l-1.907 19.0131-5.495 1.4724-11.424-15.8857c-1.361-1.969-3.02-4.6359-4.548-7.2269l-.245.1213c.854 2.7716 1.731 5.4256 2.547 8.263 1.802 6.518 3.17 11.2077 4.909 17.0758l-10.835 2.9035c-1.344-5.6408-2.806-11.3053-5.015-19.5479-2.278-8.5019-3.886-14.2941-5.351-19.3467l16.226-4.3478c2.165 3.3094 5.732 8.7432 9.812 14.4288.977 1.5718 2.224 3.7379 3.391 5.8143l.156-.0417c.025-2.3958.049-4.7917.147-6.707.511-6.8043.983-13.5429 1.217-17.4393l14.878-3.9866c1.206 5.122 2.71 10.942 4.988 19.4439 2.209 8.2426 3.775 13.8794 5.482 19.4226z" mask="url(#b)" stroke-width="2"/><path d="m646.653 48.6299 31.208-8.3621c.24 1.1025.716 3.0863 1.119 4.5897.43 1.6071 1.027 3.8362 1.437 4.9489-6.339 1.6428-13.247 3.4384-18.431 4.8275l1.458 5.4433c6.169-1.653 12.857-3.4449 17.895-4.9617.462 1.932 1.671 6.4421 2.226 8.5157-5.056 1.2437-11.809 2.9977-17.926 4.6368l1.514 5.6506c5.236-1.403 12.48-3.3995 18.376-5.0349.229 1.272.84 3.553 1.327 5.3674.416 1.5552.972 3.6288 1.423 4.8971l-31.208 8.3621c-1.248-5.2775-2.831-11.1874-5.054-19.4818-2.208-8.2427-3.861-14.4117-5.364-19.3986z" mask="url(#b)" stroke-width="2"/><path d="m71.6251 109.236.1037-.028c4.8679 14.642 4.1206 22.844-12.2092 27.219-13.5822 3.64-21.744-1.73-25.3556-15.209-3.5977-13.426 1.098-21.4075 14.732-25.0608 13.6341-3.6532 19.762.7612 21.6233 7.7078.1945.726.3751 1.4.5316 2.191-1.7246.407-4.1232.994-6.456 1.619-2.3847.639-4.6657 1.25-6.1931 1.771-.1111-.415-.1843-.896-.2815-1.259-.8474-3.162-3.1405-4.048-6.873-3.047-4.873 1.305-6.2521 4.453-4.0296 12.747 2.0975 7.828 4.8527 10.646 10.296 9.188 3.888-1.042 5.0645-3.08 4.2643-7.311-2.4884.667-5.1702 1.441-7.2299 2.049-.1566-.792-.6566-2.658-.8789-3.487-.4306-1.607-.7917-2.955-1.1214-3.978 3.3317-.837 6.6495-1.726 9.1378-2.393 2.7476-.736 6.3385-1.643 9.9395-2.719z" mask="url(#b)" stroke-width="2"/><path d="m97.2465 104.038c3.4215-.917 4.5465-2.941 3.6155-6.4141-1.1114-4.1473-3.124-4.6081-7.012-3.5663-1.0887.2917-3.615 1.0241-5.6229 1.6177.9029 3.3697 1.8058 6.7397 2.7189 9.9397 1.4654-.337 3.7464-.948 6.3005-1.577zm9.3575 2.16.083.311c5.521-.757 8.063.229 10.762 5.117 1.621 2.733 3.274 5.79 4.264 7.414l-11.56 3.098c-1.918.514-2.462-.063-4.412-3.819-2.995-6.198-4.026-7.144-7.1885-6.297-1.8663.5-2.9688.74-5.4433 1.459 1.4372 4.949 2.7456 9.21 3.8762 12.185l-13.1156 3.514c-1.4104-5.678-2.7792-11.201-5.0017-19.495-2.2086-8.243-3.7606-13.828-5.4163-19.3851l21.2028-5.6813c9.4864-2.542 15.8744-.4754 18.0694 7.7155 1.903 7.1021.186 11.0629-6.12 13.8639z" mask="url(#b)" stroke-width="2"/><path d="m159.022 87.4851c3.764 14.0489-1.363 22.7009-14.686 26.2709s-21.83-1.429-25.594-15.4779c-3.765-14.0488 2.19-21.4784 14.839-24.8677 12.597-3.3754 21.676.0259 25.441 14.0747zm-17.44 15.7859c4.666-1.251 6.137-5.0898 4.262-12.0883-1.847-6.8948-4.996-9.107-9.61-7.8708-4.614 1.2363-6.314 4.6367-4.439 11.6352 1.903 7.1019 5.173 9.5599 9.787 8.3239z" mask="url(#b)" stroke-width="2"/><path d="m189.399 84.1796-.361-1.3479c2.087-.5038 4.161-1.0594 6.234-1.615 2.074-.5557 4.199-1.1252 6.259-1.7326.274.8155.483 1.5931.663 2.2671 2.764 10.3162-1.954 16.97-14.447 20.3178-13.168 3.528-21.155-.777-25.073-15.396-3.583-13.3748.919-21.2487 14.449-24.8741 13.271-3.556 19.689.2806 21.953 8.7306.264.985.504 2.0876.706 3.2558-2.102.452-4.227 1.0215-6.249 1.5632-2.073.5556-4.095 1.0974-6.141 1.7567-.059-.4286-.17-.8434-.254-1.1544-1.18-4.4064-3.605-5.3681-7.545-4.3124-4.341 1.2187-5.873 3.7961-3.817 11.4685 2.042 7.6205 4.848 9.5912 9.41 8.3688 3.992-1.0696 5.143-3.8228 4.213-7.2961z" mask="url(#b)" stroke-width="2"/><path d="m201.079 56.1023 31.208-8.3622c.24 1.1026.716 3.0864 1.118 4.5898.431 1.6071 1.028 3.8362 1.438 4.9489-6.339 1.6428-13.247 3.4384-18.432 4.8275l1.459 5.4433c6.169-1.653 12.856-3.4449 17.895-4.9617.462 1.932 1.671 6.4421 2.226 8.5157-5.056 1.2437-11.809 2.9977-17.926 4.6368l1.514 5.6506c5.236-1.403 12.479-3.3995 18.375-5.0349.23 1.272.841 3.553 1.327 5.3674.417 1.5552.973 3.6288 1.424 4.8971l-31.208 8.3621c-1.248-5.2775-2.831-11.1874-5.054-19.4819-2.208-8.2426-3.861-14.4116-5.364-19.3985z" mask="url(#b)" stroke-width="2"/><path d="m262.184 59.8427c3.422-.9168 4.547-2.9405 3.616-6.4139-1.111-4.1472-3.124-4.608-7.012-3.5662-1.089.2917-3.615 1.0241-5.623 1.6177.903 3.3697 1.806 6.7393 2.719 9.9395 1.465-.3371 3.746-.9483 6.3-1.5771zm9.358 2.1599.083.3111c5.521-.7569 8.063.2288 10.762 5.1175 1.621 2.7326 3.274 5.7902 4.264 7.4139l-11.56 3.0976c-1.918.514-2.462-.0627-4.413-3.8183-2.994-6.1985-4.025-7.1446-7.188-6.2972-1.866.5-2.968.7399-5.443 1.4585 1.437 4.9489 2.746 9.21 3.876 12.1852l-13.115 3.5144c-1.411-5.6784-2.779-11.2013-5.002-19.4958-2.208-8.2426-3.76-13.8275-5.416-19.3846l21.203-5.6813c9.486-2.542 15.874-.4754 18.069 7.7154 1.903 7.1022.186 11.0627-6.12 13.8636z" mask="url(#b)" stroke-width="2"/><path d="m300.877 29.3615 12.545-3.3615c-1.509 7.0164-3.95 24.4502-4.593 30.3454 1.608 5.7923 2.865 10.0672 3.361 11.7123-1.998.4241-5.056 1.2437-7.389 1.8687-2.385.639-5.444 1.4586-7.438 2.104-.289-1.7006-1.366-6.1348-2.935-11.9928-3.588-5.095-14.456-18.9071-19.109-23.828l14.101-3.7782c1.164 1.8551 4.281 6.8538 6.851 11.0546 1.313 2.2041 2.547 4.3184 3.499 6.0078l.415-.1111c-.006-1.8876-.033-4.2695.082-6.745.253-5.0685.633-11.1155.61-13.2762z" mask="url(#b)" stroke-width="2"/></g><path d="m316.296 108.846.195.726c.791 2.955 2.431 3.682 6.889 2.488 4.355-1.167 5.269-2.524 4.755-4.442-.597-2.229-2.192-3.413-9.181-2.54-12.303 1.574-16.275-1.64-18.081-8.3792-1.972-7.3614 2.148-13.1328 14.072-16.3277 13.271-3.556 18.394-.8172 20.256 6.1295.194.7257.351 1.5172.521 2.3606-1.583.313-4.137.9418-6.366 1.5391-1.763.4723-3.473.9307-4.548 1.2742-.046-.3767-.143-.7396-.226-1.0507-.556-2.0736-2.057-3.1158-6.982-1.7962-3.785 1.014-4.685 2.4221-4.241 4.081.5 1.8663 1.746 3.1992 9.348 2.3293 11.058-1.2405 15.693 1.129 17.721 8.6981 2.028 7.568-1.561 13.253-14.106 16.614-13.479 3.612-18.871 1.112-20.802-6.094-.236-.881-.486-1.814-.633-2.775 1.753-.303 4.387-.842 6.823-1.495 1.763-.472 3.422-.917 4.586-1.34z" fill="#ff272b"/><path d="m335.562 75.6246 31.104-8.3344c.337 1.4655.935 3.6946 1.476 5.7164.514 1.9181 1.167 4.3546 1.636 5.8959-3.073.7677-6.145 1.5354-8.944 2.2855 3.347 12.4936 6.649 24.61 7.555 27.368-1.856.331-4.811 1.123-6.885 1.678-2.073.556-4.924 1.32-6.749 1.975-.595-2.841-3.779-14.9335-7.141-27.4789-2.799.7501-5.844 1.6215-8.94 2.5068-.365-1.5691-1.018-4.0056-1.532-5.9237-.542-2.0218-1.139-4.2509-1.58-5.6886z" fill="#ff272b"/><path d="m414.356 74.6255c3.764 14.0488-1.363 22.7012-14.686 26.2715-13.323 3.57-21.83-1.4297-25.594-15.4785-3.765-14.0488 2.19-21.4784 14.839-24.8677 12.597-3.3754 21.677.0259 25.441 14.0747zm-17.44 15.7855c4.666-1.2502 6.137-5.0894 4.262-12.0879-1.847-6.8948-4.996-9.107-9.61-7.8708-4.613 1.2363-6.314 4.6367-4.439 11.6352 1.903 7.1022 5.173 9.5597 9.787 8.3235z" fill="#ff272b"/><path d="m438.34 68.1989c3.422-.9168 4.546-2.9405 3.616-6.4139-1.112-4.1472-3.124-4.6081-7.012-3.5663-1.089.2917-3.615 1.0242-5.623 1.6178.903 3.3696 1.806 6.7393 2.719 9.9395 1.465-.3371 3.746-.9483 6.3-1.5771zm9.358 2.1599.083.311c5.52-.7568 8.063.2289 10.762 5.1176 1.621 2.7326 3.273 5.7902 4.264 7.4139l-11.56 3.0976c-1.918.514-2.462-.0627-4.413-3.8183-2.994-6.1986-4.025-7.1446-7.188-6.2972-1.866.5-2.969.7399-5.443 1.4585 1.437 4.9489 2.746 9.21 3.876 12.1852l-13.115 3.5144c-1.411-5.6784-2.78-11.2013-5.002-19.4958-2.209-8.2427-3.761-13.8275-5.416-19.3847l21.202-5.6812c9.487-2.542 15.875-.4754 18.07 7.7154 1.903 7.1022.186 11.0627-6.12 13.8636z" fill="#ff272b"/><path d="m456.869 43.1206 31.208-8.3621c.239 1.1025.715 3.0864 1.118 4.5897.431 1.6071 1.028 3.8362 1.437 4.9489-6.338 1.6429-13.247 3.4385-18.431 4.8275l1.459 5.4433c6.169-1.653 12.856-3.4449 17.895-4.9617.462 1.932 1.671 6.4421 2.226 8.5158-5.056 1.2437-11.809 2.9976-17.927 4.6367l1.515 5.6506c5.235-1.4029 12.479-3.3995 18.375-5.0348.23 1.2719.841 3.5529 1.327 5.3673.417 1.5552.973 3.6289 1.424 4.8971l-31.209 8.3622c-1.247-5.2776-2.83-11.1874-5.053-19.4819-2.209-8.2427-3.862-14.4117-5.364-19.3986z" fill="#ff272b"/><path d="m529.145 77.0859 11.249-3.0143c.896 3.7603 2.831 11.1874 5.039 19.4301 2.306 8.6053 3.876 14.4633 5.327 19.4643l-13.219 3.542c-2.59-3.029-8.899-8.95-14.229-13.912-2.043-2.231-3.854-4.6346-5.495-7.0285l-.104.0278c1.162 3.3002 2.137 6.3167 3.061 9.3477 2.093 7.607 3.482 12.791 4.221 14.927l-11.508 3.083c-1.338-5.198-2.883-11.173-5.106-19.468-2.208-8.2423-3.833-14.3077-5.312-19.4121l14.567-3.9033c1.703 2.2106 8.965 8.9882 14.001 14.3062 1.579 1.744 3.151 3.8786 4.567 6.0552l.09-.08c-1.051-2.8854-1.956-5.6431-2.623-8.1314-1.58-5.6886-3.472-12.127-4.526-15.2337z" fill="#ff272b"/><path d="m575.593 89.8099c-1.843-3.5621-3.766-7.2141-5.551-10.3476-1.486-2.4355-2.737-4.8228-3.651-6.578l-.156.0417c.034 1.9913.13 4.6324.103 7.6402.125 3.578.272 7.6503.39 11.619zm21.544 10.7291-14.515 3.89c-.531-1.358-1.668-3.943-3.231-7.0802-2.229.5973-4.406 1.1807-6.117 1.6391-1.607.4306-3.836 1.0281-6.117 1.6391.187 3.395.377 6.177.587 7.788l-13.272 3.556c.551-10.593.462-36.0169.313-41.7555l20.788-5.5702c2.91 5.0543 15.541 26.8953 21.564 35.8937z" fill="#ff272b"/><path d="m646.748 87.2461-12.338 3.306c-1.352-6.083-2.471-10.6727-4.142-17.1148-.68-2.5402-1.303-5.485-1.897-8.326l-.325.0315c.014 3.1633-.076 6.3543-.232 8.6742l-1.906 19.0132-5.495 1.4724-11.424-15.8858c-1.361-1.9689-3.021-4.6358-4.548-7.2269l-.246.1213c.854 2.7716 1.732 5.4257 2.548 8.263 1.802 6.518 3.17 11.2077 4.909 17.0759l-10.835 2.9031c-1.345-5.6404-2.807-11.3049-5.016-19.5476-2.278-8.5018-3.885-14.2941-5.35-19.3467l16.226-4.3477c2.165 3.3093 5.732 8.7431 9.811 14.4287.977 1.5718 2.224 3.738 3.392 5.8143l.155-.0416c.025-2.3959.05-4.7917.148-6.7071.51-6.8043.983-13.5428 1.217-17.4393l14.878-3.9866c1.206 5.1221 2.71 10.9421 4.988 19.4439 2.208 8.2427 3.774 13.8794 5.482 19.4226z" fill="#ff272b"/><path d="m643.048 46.5655 31.208-8.3622c.24 1.1025.716 3.0864 1.119 4.5898.431 1.607 1.028 3.8362 1.437 4.9489-6.338 1.6428-13.247 3.4384-18.431 4.8275l1.459 5.4432c6.169-1.653 12.856-3.4449 17.895-4.9617.462 1.932 1.67 6.4422 2.226 8.5158-5.056 1.2437-11.81 2.9976-17.927 4.6367l1.514 5.6506c5.236-1.4029 12.48-3.3994 18.376-5.0348.23 1.2719.841 3.5529 1.327 5.3673.417 1.5553.972 3.6289 1.423 4.8971l-31.208 8.3622c-1.247-5.2776-2.831-11.1874-5.053-19.4819-2.209-8.2427-3.862-14.4117-5.365-19.3985z" fill="#ff272b"/><path d="m68.0206 107.172.1037-.028c4.8679 14.642 4.1206 22.843-12.2092 27.219-13.5822 3.639-21.744-1.73-25.3556-15.209-3.5977-13.427 1.098-21.408 14.732-25.0612 13.6341-3.6532 19.762.7611 21.6233 7.7082.1945.725.3751 1.399.5316 2.191-1.7246.406-4.1232.993-6.456 1.618-2.3847.639-4.6657 1.251-6.1931 1.771-.1111-.415-.1843-.895-.2815-1.258-.8474-3.162-3.1405-4.048-6.873-3.048-4.873 1.306-6.2521 4.453-4.0296 12.748 2.0975 7.828 4.8527 10.646 10.296 9.187 3.888-1.042 5.0645-3.079 4.2643-7.31-2.4884.667-5.1702 1.441-7.2299 2.048-.1566-.791-.6566-2.657-.8789-3.487-.4306-1.607-.7917-2.955-1.1214-3.978 3.3317-.837 6.6495-1.726 9.1378-2.393 2.7476-.736 6.3385-1.642 9.9395-2.718z" fill="#ff272b"/><path d="m93.642 101.973c3.4215-.917 4.5461-2.9403 3.6154-6.4136-1.1113-4.1472-3.1239-4.6081-7.0119-3.5663-1.0887.2917-3.615 1.0242-5.6228 1.6178.9028 3.3696 1.8057 6.7391 2.7188 9.9391 1.4654-.337 3.7464-.948 6.3005-1.577zm9.358 2.16.083.311c5.52-.757 8.062.229 10.761 5.118 1.621 2.732 3.274 5.79 4.265 7.414l-11.561 3.097c-1.918.514-2.461-.062-4.412-3.818-2.9944-6.199-4.0258-7.145-7.188-6.297-1.8663.5-2.9688.74-5.4433 1.458 1.4372 4.949 2.7456 9.21 3.8762 12.185l-13.1156 3.515c-1.4104-5.679-2.7791-11.201-5.0017-19.496-2.2086-8.2426-3.7606-13.8275-5.4163-19.3846l21.2028-5.6813c9.4869-2.542 15.8749-.4753 18.0689 7.7155 1.903 7.1022.187 11.0624-6.119 13.8634z" fill="#ff272b"/><path d="m155.417 85.4206c3.765 14.0488-1.362 22.7014-14.685 26.2714s-21.83-1.43-25.595-15.4783c-3.764-14.0488 2.191-21.4785 14.84-24.8678 12.597-3.3754 21.676.0259 25.44 14.0747zm-17.439 15.7854c4.665-1.2501 6.137-5.0893 4.262-12.0877-1.848-6.8948-4.996-9.1071-9.61-7.8708-4.614 1.2362-6.314 4.6367-4.439 11.6351 1.903 7.1022 5.173 9.5594 9.787 8.3234z" fill="#ff272b"/><path d="m185.794 82.1151-.361-1.3478c2.088-.5038 4.161-1.0595 6.235-1.6151 2.073-.5556 4.199-1.1251 6.259-1.7326.274.8156.482 1.5932.663 2.2671 2.764 10.3163-1.954 16.97-14.448 20.3173-13.167 3.529-21.155-.7764-25.072-15.3954-3.584-13.3749.918-21.2487 14.449-24.8742 13.271-3.556 19.689.2807 21.953 8.7307.264.985.503 2.0875.705 3.2558-2.101.4519-4.226 1.0214-6.248 1.5632-2.074.5556-4.096 1.0973-6.142 1.7566-.059-.4286-.17-.8433-.253-1.1544-1.181-4.4064-3.606-5.368-7.545-4.3123-4.341 1.2186-5.873 3.796-3.817 11.4684 2.042 7.6206 4.848 9.5912 9.41 8.3689 3.991-1.0696 5.143-3.8229 4.212-7.2962z" fill="#ff272b"/><path d="m197.474 54.0379 31.208-8.3622c.24 1.1025.716 3.0864 1.119 4.5897.431 1.6071 1.028 3.8362 1.437 4.949-6.338 1.6428-13.247 3.4384-18.431 4.8275l1.459 5.4432c6.169-1.653 12.856-3.4449 17.895-4.9617.462 1.932 1.67 6.4421 2.226 8.5158-5.056 1.2437-11.81 2.9976-17.927 4.6367l1.514 5.6506c5.236-1.4029 12.48-3.3994 18.376-5.0348.23 1.2719.841 3.5529 1.327 5.3673.417 1.5553.972 3.6289 1.423 4.8971l-31.208 8.3622c-1.247-5.2776-2.831-11.1874-5.053-19.4819-2.209-8.2427-3.862-14.4117-5.365-19.3985z" fill="#ff272b"/><path d="m258.58 57.7783c3.421-.9168 4.546-2.9406 3.615-6.4139-1.111-4.1472-3.123-4.6081-7.011-3.5663-1.089.2917-3.615 1.0242-5.623 1.6178.903 3.3696 1.805 6.7392 2.719 9.9395 1.465-.3371 3.746-.9483 6.3-1.5771zm9.358 2.1599.083.311c5.52-.7568 8.062.2289 10.761 5.1175 1.621 2.7327 3.274 5.7903 4.265 7.414l-11.561 3.0976c-1.918.5139-2.461-.0628-4.412-3.8184-2.994-6.1985-4.026-7.1445-7.188-6.2972-1.866.5001-2.969.7399-5.443 1.4585 1.437 4.9489 2.745 9.21 3.876 12.1853l-13.116 3.5143c-1.41-5.6784-2.779-11.2013-5.001-19.4958-2.209-8.2426-3.761-13.8275-5.417-19.3846l21.203-5.6813c9.487-2.542 15.875-.4753 18.069 7.7155 1.903 7.1021.187 11.0626-6.119 13.8636z" fill="#ff272b"/><path d="m297.272 27.2971 12.546-3.3616c-1.51 7.0164-3.95 24.4503-4.593 30.3455 1.607 5.7922 2.864 10.0672 3.36 11.7122-1.997.4242-5.056 1.2437-7.389 1.8688-2.384.639-5.443 1.4585-7.437 2.1039-.289-1.7006-1.366-6.1348-2.936-11.9928-3.587-5.095-14.456-18.9071-19.108-23.8279l14.1-3.7783c1.164 1.8551 4.282 6.8539 6.852 11.0547 1.313 2.2041 2.546 4.3184 3.499 6.0078l.415-.1112c-.006-1.8876-.033-4.2695.081-6.7449.254-5.0685.634-11.1155.61-13.2762z" fill="#ff272b"/><path d="m316.296 108.846.195.726c.791 2.955 2.431 3.682 6.889 2.488 4.355-1.167 5.269-2.524 4.755-4.442-.597-2.229-2.192-3.413-9.181-2.54-12.303 1.574-16.275-1.64-18.081-8.3792-1.972-7.3614 2.148-13.1328 14.072-16.3277 13.271-3.556 18.394-.8172 20.256 6.1295.194.7257.351 1.5172.521 2.3606-1.583.313-4.137.9418-6.366 1.5391-1.763.4723-3.473.9307-4.548 1.2742-.046-.3767-.143-.7396-.226-1.0507-.556-2.0736-2.057-3.1158-6.982-1.7962-3.785 1.014-4.685 2.4221-4.241 4.081.5 1.8663 1.746 3.1992 9.348 2.3293 11.058-1.2405 15.693 1.129 17.721 8.6981 2.028 7.568-1.561 13.253-14.106 16.614-13.479 3.612-18.871 1.112-20.802-6.094-.236-.881-.486-1.814-.633-2.775 1.753-.303 4.387-.842 6.823-1.495 1.763-.472 3.422-.917 4.586-1.34z" mask="url(#c)" stroke="#000" stroke-width="2"/><path d="m335.562 75.6246 31.104-8.3344c.337 1.4655.935 3.6946 1.476 5.7164.514 1.9181 1.167 4.3546 1.636 5.8959-3.073.7677-6.145 1.5354-8.944 2.2855 3.347 12.4936 6.649 24.61 7.555 27.368-1.856.331-4.811 1.123-6.885 1.678-2.073.556-4.924 1.32-6.749 1.975-.595-2.841-3.779-14.9335-7.141-27.4789-2.799.7501-5.844 1.6215-8.94 2.5068-.365-1.5691-1.018-4.0056-1.532-5.9237-.542-2.0218-1.139-4.2509-1.58-5.6886z" mask="url(#c)" stroke="#000" stroke-width="2"/><path d="m414.356 74.6255c3.764 14.0488-1.363 22.7012-14.686 26.2715-13.323 3.57-21.83-1.4297-25.594-15.4785-3.765-14.0488 2.19-21.4784 14.839-24.8677 12.597-3.3754 21.677.0259 25.441 14.0747zm-17.44 15.7855c4.666-1.2502 6.137-5.0894 4.262-12.0879-1.847-6.8948-4.996-9.107-9.61-7.8708-4.613 1.2363-6.314 4.6367-4.439 11.6352 1.903 7.1022 5.173 9.5597 9.787 8.3235z" mask="url(#c)" stroke="#000" stroke-width="2"/><path d="m438.34 68.1989c3.422-.9168 4.546-2.9405 3.616-6.4139-1.112-4.1472-3.124-4.6081-7.012-3.5663-1.089.2917-3.615 1.0242-5.623 1.6178.903 3.3696 1.806 6.7393 2.719 9.9395 1.465-.3371 3.746-.9483 6.3-1.5771zm9.358 2.1599.083.311c5.52-.7568 8.063.2289 10.762 5.1176 1.621 2.7326 3.273 5.7902 4.264 7.4139l-11.56 3.0976c-1.918.514-2.462-.0627-4.413-3.8183-2.994-6.1986-4.025-7.1446-7.188-6.2972-1.866.5-2.969.7399-5.443 1.4585 1.437 4.9489 2.746 9.21 3.876 12.1852l-13.115 3.5144c-1.411-5.6784-2.78-11.2013-5.002-19.4958-2.209-8.2427-3.761-13.8275-5.416-19.3847l21.202-5.6812c9.487-2.542 15.875-.4754 18.07 7.7154 1.903 7.1022.186 11.0627-6.12 13.8636z" mask="url(#c)" stroke="#000" stroke-width="2"/><path d="m456.869 43.1206 31.208-8.3621c.239 1.1025.715 3.0864 1.118 4.5897.431 1.6071 1.028 3.8362 1.437 4.9489-6.338 1.6429-13.247 3.4385-18.431 4.8275l1.459 5.4433c6.169-1.653 12.856-3.4449 17.895-4.9617.462 1.932 1.671 6.4421 2.226 8.5158-5.056 1.2437-11.809 2.9976-17.927 4.6367l1.515 5.6506c5.235-1.4029 12.479-3.3995 18.375-5.0348.23 1.2719.841 3.5529 1.327 5.3673.417 1.5552.973 3.6289 1.424 4.8971l-31.209 8.3622c-1.247-5.2776-2.83-11.1874-5.053-19.4819-2.209-8.2427-3.862-14.4117-5.364-19.3986z" mask="url(#c)" stroke="#000" stroke-width="2"/><path d="m529.145 77.0859 11.249-3.0143c.896 3.7603 2.831 11.1874 5.039 19.4301 2.306 8.6053 3.876 14.4633 5.327 19.4643l-13.219 3.542c-2.59-3.029-8.899-8.95-14.229-13.912-2.043-2.231-3.854-4.6346-5.495-7.0285l-.104.0278c1.162 3.3002 2.137 6.3167 3.061 9.3477 2.093 7.607 3.482 12.791 4.221 14.927l-11.508 3.083c-1.338-5.198-2.883-11.173-5.106-19.468-2.208-8.2423-3.833-14.3077-5.312-19.4121l14.567-3.9033c1.703 2.2106 8.965 8.9882 14.001 14.3062 1.579 1.744 3.151 3.8786 4.567 6.0552l.09-.08c-1.051-2.8854-1.956-5.6431-2.623-8.1314-1.58-5.6886-3.472-12.127-4.526-15.2337z" mask="url(#c)" stroke="#000" stroke-width="2"/><path d="m575.593 89.8099c-1.843-3.5621-3.766-7.2141-5.551-10.3476-1.486-2.4355-2.737-4.8228-3.651-6.578l-.156.0417c.034 1.9913.13 4.6324.103 7.6402.125 3.578.272 7.6503.39 11.619zm21.544 10.7291-14.515 3.89c-.531-1.358-1.668-3.943-3.231-7.0802-2.229.5973-4.406 1.1807-6.117 1.6391-1.607.4306-3.836 1.0281-6.117 1.6391.187 3.395.377 6.177.587 7.788l-13.272 3.556c.551-10.593.462-36.0169.313-41.7555l20.788-5.5702c2.91 5.0543 15.541 26.8953 21.564 35.8937z" mask="url(#c)" stroke="#000" stroke-width="2"/><path d="m646.748 87.2461-12.338 3.306c-1.352-6.083-2.471-10.6727-4.142-17.1148-.68-2.5402-1.303-5.485-1.897-8.326l-.325.0315c.014 3.1633-.076 6.3543-.232 8.6742l-1.906 19.0132-5.495 1.4724-11.424-15.8858c-1.361-1.9689-3.021-4.6358-4.548-7.2269l-.246.1213c.854 2.7716 1.732 5.4257 2.548 8.263 1.802 6.518 3.17 11.2077 4.909 17.0759l-10.835 2.9031c-1.345-5.6404-2.807-11.3049-5.016-19.5476-2.278-8.5018-3.885-14.2941-5.35-19.3467l16.226-4.3477c2.165 3.3093 5.732 8.7431 9.811 14.4287.977 1.5718 2.224 3.738 3.392 5.8143l.155-.0416c.025-2.3959.05-4.7917.148-6.7071.51-6.8043.983-13.5428 1.217-17.4393l14.878-3.9866c1.206 5.1221 2.71 10.9421 4.988 19.4439 2.208 8.2427 3.774 13.8794 5.482 19.4226z" mask="url(#c)" stroke="#000" stroke-width="2"/><path d="m643.048 46.5655 31.208-8.3622c.24 1.1025.716 3.0864 1.119 4.5898.431 1.607 1.028 3.8362 1.437 4.9489-6.338 1.6428-13.247 3.4384-18.431 4.8275l1.459 5.4432c6.169-1.653 12.856-3.4449 17.895-4.9617.462 1.932 1.67 6.4422 2.226 8.5158-5.056 1.2437-11.81 2.9976-17.927 4.6367l1.514 5.6506c5.236-1.4029 12.48-3.3994 18.376-5.0348.23 1.2719.841 3.5529 1.327 5.3673.417 1.5553.972 3.6289 1.423 4.8971l-31.208 8.3622c-1.247-5.2776-2.831-11.1874-5.053-19.4819-2.209-8.2427-3.862-14.4117-5.365-19.3985z" mask="url(#c)" stroke="#000" stroke-width="2"/><path d="m68.0206 107.172.1037-.028c4.8679 14.642 4.1206 22.843-12.2092 27.219-13.5822 3.639-21.744-1.73-25.3556-15.209-3.5977-13.427 1.098-21.408 14.732-25.0612 13.6341-3.6532 19.762.7611 21.6233 7.7082.1945.725.3751 1.399.5316 2.191-1.7246.406-4.1232.993-6.456 1.618-2.3847.639-4.6657 1.251-6.1931 1.771-.1111-.415-.1843-.895-.2815-1.258-.8474-3.162-3.1405-4.048-6.873-3.048-4.873 1.306-6.2521 4.453-4.0296 12.748 2.0975 7.828 4.8527 10.646 10.296 9.187 3.888-1.042 5.0645-3.079 4.2643-7.31-2.4884.667-5.1702 1.441-7.2299 2.048-.1566-.791-.6566-2.657-.8789-3.487-.4306-1.607-.7917-2.955-1.1214-3.978 3.3317-.837 6.6495-1.726 9.1378-2.393 2.7476-.736 6.3385-1.642 9.9395-2.718z" mask="url(#c)" stroke="#000" stroke-width="2"/><path d="m93.642 101.973c3.4215-.917 4.5461-2.9403 3.6154-6.4136-1.1113-4.1472-3.1239-4.6081-7.0119-3.5663-1.0887.2917-3.615 1.0242-5.6228 1.6178.9028 3.3696 1.8057 6.7391 2.7188 9.9391 1.4654-.337 3.7464-.948 6.3005-1.577zm9.358 2.16.083.311c5.52-.757 8.062.229 10.761 5.118 1.621 2.732 3.274 5.79 4.265 7.414l-11.561 3.097c-1.918.514-2.461-.062-4.412-3.818-2.9944-6.199-4.0258-7.145-7.188-6.297-1.8663.5-2.9688.74-5.4433 1.458 1.4372 4.949 2.7456 9.21 3.8762 12.185l-13.1156 3.515c-1.4104-5.679-2.7791-11.201-5.0017-19.496-2.2086-8.2426-3.7606-13.8275-5.4163-19.3846l21.2028-5.6813c9.4869-2.542 15.8749-.4753 18.0689 7.7155 1.903 7.1022.187 11.0624-6.119 13.8634z" mask="url(#c)" stroke="#000" stroke-width="2"/><path d="m155.417 85.4206c3.765 14.0488-1.362 22.7014-14.685 26.2714s-21.83-1.43-25.595-15.4783c-3.764-14.0488 2.191-21.4785 14.84-24.8678 12.597-3.3754 21.676.0259 25.44 14.0747zm-17.439 15.7854c4.665-1.2501 6.137-5.0893 4.262-12.0877-1.848-6.8948-4.996-9.1071-9.61-7.8708-4.614 1.2362-6.314 4.6367-4.439 11.6351 1.903 7.1022 5.173 9.5594 9.787 8.3234z" mask="url(#c)" stroke="#000" stroke-width="2"/><path d="m185.794 82.1151-.361-1.3478c2.088-.5038 4.161-1.0595 6.235-1.6151 2.073-.5556 4.199-1.1251 6.259-1.7326.274.8156.482 1.5932.663 2.2671 2.764 10.3163-1.954 16.97-14.448 20.3173-13.167 3.529-21.155-.7764-25.072-15.3954-3.584-13.3749.918-21.2487 14.449-24.8742 13.271-3.556 19.689.2807 21.953 8.7307.264.985.503 2.0875.705 3.2558-2.101.4519-4.226 1.0214-6.248 1.5632-2.074.5556-4.096 1.0973-6.142 1.7566-.059-.4286-.17-.8433-.253-1.1544-1.181-4.4064-3.606-5.368-7.545-4.3123-4.341 1.2186-5.873 3.796-3.817 11.4684 2.042 7.6206 4.848 9.5912 9.41 8.3689 3.991-1.0696 5.143-3.8229 4.212-7.2962z" mask="url(#c)" stroke="#000" stroke-width="2"/><path d="m197.474 54.0379 31.208-8.3622c.24 1.1025.716 3.0864 1.119 4.5897.431 1.6071 1.028 3.8362 1.437 4.949-6.338 1.6428-13.247 3.4384-18.431 4.8275l1.459 5.4432c6.169-1.653 12.856-3.4449 17.895-4.9617.462 1.932 1.67 6.4421 2.226 8.5158-5.056 1.2437-11.81 2.9976-17.927 4.6367l1.514 5.6506c5.236-1.4029 12.48-3.3994 18.376-5.0348.23 1.2719.841 3.5529 1.327 5.3673.417 1.5553.972 3.6289 1.423 4.8971l-31.208 8.3622c-1.247-5.2776-2.831-11.1874-5.053-19.4819-2.209-8.2427-3.862-14.4117-5.365-19.3985z" mask="url(#c)" stroke="#000" stroke-width="2"/><path d="m258.58 57.7783c3.421-.9168 4.546-2.9406 3.615-6.4139-1.111-4.1472-3.123-4.6081-7.011-3.5663-1.089.2917-3.615 1.0242-5.623 1.6178.903 3.3696 1.805 6.7392 2.719 9.9395 1.465-.3371 3.746-.9483 6.3-1.5771zm9.358 2.1599.083.311c5.52-.7568 8.062.2289 10.761 5.1175 1.621 2.7327 3.274 5.7903 4.265 7.414l-11.561 3.0976c-1.918.5139-2.461-.0628-4.412-3.8184-2.994-6.1985-4.026-7.1445-7.188-6.2972-1.866.5001-2.969.7399-5.443 1.4585 1.437 4.9489 2.745 9.21 3.876 12.1853l-13.116 3.5143c-1.41-5.6784-2.779-11.2013-5.001-19.4958-2.209-8.2426-3.761-13.8275-5.417-19.3846l21.203-5.6813c9.487-2.542 15.875-.4753 18.069 7.7155 1.903 7.1021.187 11.0626-6.119 13.8636z" mask="url(#c)" stroke="#000" stroke-width="2"/><path d="m297.272 27.2971 12.546-3.3616c-1.51 7.0164-3.95 24.4503-4.593 30.3455 1.607 5.7922 2.864 10.0672 3.36 11.7122-1.997.4242-5.056 1.2437-7.389 1.8688-2.384.639-5.443 1.4585-7.437 2.1039-.289-1.7006-1.366-6.1348-2.936-11.9928-3.587-5.095-14.456-18.9071-19.108-23.8279l14.1-3.7783c1.164 1.8551 4.282 6.8539 6.852 11.0547 1.313 2.2041 2.546 4.3184 3.499 6.0078l.415-.1112c-.006-1.8876-.033-4.2695.081-6.7449.254-5.0685.634-11.1155.61-13.2762z" mask="url(#c)" stroke="#000" stroke-width="2"/></svg>