<svg width="171" height="60" viewBox="0 0 171 60" fill="none" xmlns="http://www.w3.org/2000/svg">
<path d="M6.08154 32.76C6.08154 33.72 6.25487 34.5333 6.60154 35.2C6.94821 35.8667 7.40154 36.4133 7.96154 36.84C8.54821 37.24 9.22821 37.5467 10.0015 37.76C10.7749 37.9467 11.5749 38.04 12.4015 38.04C12.9615 38.04 13.5615 38 14.2015 37.92C14.8415 37.8133 15.4415 37.6267 16.0015 37.36C16.5615 37.0933 17.0282 36.7333 17.4015 36.28C17.7749 35.8 17.9615 35.2 17.9615 34.48C17.9615 33.7067 17.7082 33.08 17.2015 32.6C16.7215 32.12 16.0815 31.72 15.2815 31.4C14.4815 31.08 13.5749 30.8 12.5615 30.56C11.5482 30.32 10.5215 30.0533 9.48154 29.76C8.41487 29.4933 7.37487 29.1733 6.36154 28.8C5.34821 28.4 4.44154 27.8933 3.64154 27.28C2.84154 26.6667 2.18821 25.9067 1.68154 25C1.20154 24.0667 0.961538 22.9467 0.961538 21.64C0.961538 20.1733 1.26821 18.9067 1.88154 17.84C2.52154 16.7467 3.34821 15.84 4.36154 15.12C5.37487 14.4 6.52154 13.8667 7.80154 13.52C9.08154 13.1733 10.3615 13 11.6415 13C13.1349 13 14.5615 13.1733 15.9215 13.52C17.3082 13.84 18.5349 14.3733 19.6015 15.12C20.6682 15.8667 21.5082 16.8267 22.1215 18C22.7615 19.1467 23.0815 20.5467 23.0815 22.2H17.0015C16.9482 21.3467 16.7615 20.64 16.4415 20.08C16.1482 19.52 15.7482 19.08 15.2415 18.76C14.7349 18.44 14.1482 18.2133 13.4815 18.08C12.8415 17.9467 12.1349 17.88 11.3615 17.88C10.8549 17.88 10.3482 17.9333 9.84154 18.04C9.33487 18.1467 8.86821 18.3333 8.44154 18.6C8.04154 18.8667 7.70821 19.2 7.44154 19.6C7.17487 20 7.04154 20.5067 7.04154 21.12C7.04154 21.68 7.14821 22.1333 7.36154 22.48C7.57487 22.8267 7.98821 23.1467 8.60154 23.44C9.24154 23.7333 10.1082 24.0267 11.2015 24.32C12.3215 24.6133 13.7749 24.9867 15.5615 25.44C16.0949 25.5467 16.8282 25.7467 17.7615 26.04C18.7215 26.3067 19.6682 26.7467 20.6015 27.36C21.5349 27.9733 22.3349 28.8 23.0015 29.84C23.6949 30.8533 24.0415 32.16 24.0415 33.76C24.0415 35.0667 23.7882 36.28 23.2815 37.4C22.7749 38.52 22.0149 39.4933 21.0015 40.32C20.0149 41.12 18.7749 41.7467 17.2815 42.2C15.8149 42.6533 14.1082 42.88 12.1615 42.88C10.5882 42.88 9.05487 42.68 7.56154 42.28C6.09487 41.9067 4.78821 41.3067 3.64154 40.48C2.52154 39.6533 1.62821 38.6 0.961538 37.32C0.294872 36.04 -0.0251282 34.52 0.00153846 32.76H6.08154Z" fill="black"/>
<path d="M26.9381 27.92C27.0181 26.5867 27.3514 25.48 27.9381 24.6C28.5248 23.72 29.2714 23.0133 30.1781 22.48C31.0848 21.9467 32.0981 21.5733 33.2181 21.36C34.3648 21.12 35.5114 21 36.6581 21C37.6981 21 38.7514 21.08 39.8181 21.24C40.8848 21.3733 41.8581 21.6533 42.7381 22.08C43.6181 22.5067 44.3381 23.1067 44.8981 23.88C45.4581 24.6267 45.7381 25.6267 45.7381 26.88V37.64C45.7381 38.5733 45.7914 39.4667 45.8981 40.32C46.0048 41.1733 46.1914 41.8133 46.4581 42.24H40.6981C40.5914 41.92 40.4981 41.6 40.4181 41.28C40.3648 40.9333 40.3248 40.5867 40.2981 40.24C39.3914 41.1733 38.3248 41.8267 37.0981 42.2C35.8714 42.5733 34.6181 42.76 33.3381 42.76C32.3514 42.76 31.4314 42.64 30.5781 42.4C29.7248 42.16 28.9781 41.7867 28.3381 41.28C27.6981 40.7733 27.1914 40.1333 26.8181 39.36C26.4714 38.5867 26.2981 37.6667 26.2981 36.6C26.2981 35.4267 26.4981 34.4667 26.8981 33.72C27.3248 32.9467 27.8581 32.3333 28.4981 31.88C29.1648 31.4267 29.9114 31.0933 30.7381 30.88C31.5914 30.64 32.4448 30.4533 33.2981 30.32C34.1514 30.1867 34.9914 30.08 35.8181 30C36.6448 29.92 37.3781 29.8 38.0181 29.64C38.6581 29.48 39.1648 29.2533 39.5381 28.96C39.9114 28.64 40.0848 28.1867 40.0581 27.6C40.0581 26.9867 39.9514 26.5067 39.7381 26.16C39.5514 25.7867 39.2848 25.5067 38.9381 25.32C38.6181 25.1067 38.2314 24.9733 37.7781 24.92C37.3514 24.84 36.8848 24.8 36.3781 24.8C35.2581 24.8 34.3781 25.04 33.7381 25.52C33.0981 26 32.7248 26.8 32.6181 27.92H26.9381ZM40.0581 32.12C39.8181 32.3333 39.5114 32.5067 39.1381 32.64C38.7914 32.7467 38.4048 32.84 37.9781 32.92C37.5781 33 37.1514 33.0667 36.6981 33.12C36.2448 33.1733 35.7914 33.24 35.3381 33.32C34.9114 33.4 34.4848 33.5067 34.0581 33.64C33.6581 33.7733 33.2981 33.96 32.9781 34.2C32.6848 34.4133 32.4448 34.6933 32.2581 35.04C32.0714 35.3867 31.9781 35.8267 31.9781 36.36C31.9781 36.8667 32.0714 37.2933 32.2581 37.64C32.4448 37.9867 32.6981 38.2667 33.0181 38.48C33.3381 38.6667 33.7114 38.8 34.1381 38.88C34.5648 38.96 35.0048 39 35.4581 39C36.5781 39 37.4448 38.8133 38.0581 38.44C38.6714 38.0667 39.1248 37.6267 39.4181 37.12C39.7114 36.5867 39.8848 36.0533 39.9381 35.52C40.0181 34.9867 40.0581 34.56 40.0581 34.24V32.12Z" fill="black"/>
<path d="M50.1469 21.56H55.5469V24.44H55.6669C56.3869 23.24 57.3202 22.3733 58.4669 21.84C59.6135 21.28 60.7869 21 61.9869 21C63.5069 21 64.7468 21.2133 65.7068 21.64C66.6935 22.04 67.4669 22.6133 68.0269 23.36C68.5869 24.08 68.9735 24.9733 69.1869 26.04C69.4269 27.08 69.5469 28.24 69.5469 29.52V42.24H63.8669V30.56C63.8669 28.8533 63.6002 27.5867 63.0669 26.76C62.5335 25.9067 61.5869 25.48 60.2269 25.48C58.6802 25.48 57.5602 25.9467 56.8669 26.88C56.1735 27.7867 55.8269 29.2933 55.8269 31.4V42.24H50.1469V21.56Z" fill="black"/>
<path d="M89.8706 32.76C89.8706 33.72 90.0439 34.5333 90.3906 35.2C90.7373 35.8667 91.1906 36.4133 91.7506 36.84C92.3373 37.24 93.0173 37.5467 93.7906 37.76C94.5639 37.9467 95.3639 38.04 96.1906 38.04C96.7506 38.04 97.3506 38 97.9906 37.92C98.6306 37.8133 99.2306 37.6267 99.7906 37.36C100.351 37.0933 100.817 36.7333 101.191 36.28C101.564 35.8 101.751 35.2 101.751 34.48C101.751 33.7067 101.497 33.08 100.991 32.6C100.511 32.12 99.8706 31.72 99.0706 31.4C98.2706 31.08 97.3639 30.8 96.3506 30.56C95.3373 30.32 94.3106 30.0533 93.2706 29.76C92.2039 29.4933 91.1639 29.1733 90.1506 28.8C89.1373 28.4 88.2306 27.8933 87.4306 27.28C86.6306 26.6667 85.9773 25.9067 85.4706 25C84.9906 24.0667 84.7506 22.9467 84.7506 21.64C84.7506 20.1733 85.0573 18.9067 85.6706 17.84C86.3106 16.7467 87.1373 15.84 88.1506 15.12C89.1639 14.4 90.3106 13.8667 91.5906 13.52C92.8706 13.1733 94.1506 13 95.4306 13C96.9239 13 98.3506 13.1733 99.7106 13.52C101.097 13.84 102.324 14.3733 103.391 15.12C104.457 15.8667 105.297 16.8267 105.911 18C106.551 19.1467 106.871 20.5467 106.871 22.2H100.791C100.737 21.3467 100.551 20.64 100.231 20.08C99.9373 19.52 99.5373 19.08 99.0306 18.76C98.5239 18.44 97.9373 18.2133 97.2706 18.08C96.6306 17.9467 95.9239 17.88 95.1506 17.88C94.6439 17.88 94.1373 17.9333 93.6306 18.04C93.1239 18.1467 92.6573 18.3333 92.2306 18.6C91.8306 18.8667 91.4973 19.2 91.2306 19.6C90.9639 20 90.8306 20.5067 90.8306 21.12C90.8306 21.68 90.9373 22.1333 91.1506 22.48C91.3639 22.8267 91.7773 23.1467 92.3906 23.44C93.0306 23.7333 93.8973 24.0267 94.9906 24.32C96.1106 24.6133 97.5639 24.9867 99.3506 25.44C99.8839 25.5467 100.617 25.7467 101.551 26.04C102.511 26.3067 103.457 26.7467 104.391 27.36C105.324 27.9733 106.124 28.8 106.791 29.84C107.484 30.8533 107.831 32.16 107.831 33.76C107.831 35.0667 107.577 36.28 107.071 37.4C106.564 38.52 105.804 39.4933 104.791 40.32C103.804 41.12 102.564 41.7467 101.071 42.2C99.6039 42.6533 97.8973 42.88 95.9506 42.88C94.3773 42.88 92.8439 42.68 91.3506 42.28C89.8839 41.9067 88.5773 41.3067 87.4306 40.48C86.3106 39.6533 85.4173 38.6 84.7506 37.32C84.0839 36.04 83.7639 34.52 83.7906 32.76H89.8706Z" fill="black"/>
<path d="M124.887 29.68C124.62 28.24 124.14 27.1467 123.447 26.4C122.78 25.6533 121.754 25.28 120.367 25.28C119.46 25.28 118.7 25.44 118.087 25.76C117.5 26.0533 117.02 26.4267 116.647 26.88C116.3 27.3333 116.047 27.8133 115.887 28.32C115.754 28.8267 115.674 29.28 115.647 29.68H124.887ZM115.647 33.28C115.727 35.12 116.194 36.4533 117.047 37.28C117.9 38.1067 119.127 38.52 120.727 38.52C121.874 38.52 122.86 38.24 123.687 37.68C124.514 37.0933 125.02 36.48 125.207 35.84H130.207C129.407 38.32 128.18 40.0933 126.527 41.16C124.874 42.2267 122.874 42.76 120.527 42.76C118.9 42.76 117.434 42.5067 116.127 42C114.82 41.4667 113.714 40.72 112.807 39.76C111.901 38.8 111.194 37.6533 110.687 36.32C110.207 34.9867 109.967 33.52 109.967 31.92C109.967 30.3733 110.22 28.9333 110.727 27.6C111.234 26.2667 111.954 25.12 112.887 24.16C113.82 23.1733 114.927 22.4 116.207 21.84C117.514 21.28 118.954 21 120.527 21C122.287 21 123.821 21.3467 125.127 22.04C126.434 22.7067 127.5 23.6133 128.327 24.76C129.18 25.9067 129.794 27.2133 130.167 28.68C130.54 30.1467 130.674 31.68 130.567 33.28H115.647Z" fill="black"/>
<path d="M133.936 21.56H139.336V25.4H139.416C139.683 24.76 140.043 24.1733 140.496 23.64C140.949 23.08 141.469 22.6133 142.056 22.24C142.643 21.84 143.269 21.5333 143.936 21.32C144.603 21.1067 145.296 21 146.016 21C146.389 21 146.803 21.0667 147.256 21.2V26.48C146.989 26.4267 146.669 26.3867 146.296 26.36C145.923 26.3067 145.563 26.28 145.216 26.28C144.176 26.28 143.296 26.4533 142.576 26.8C141.856 27.1467 141.269 27.6267 140.816 28.24C140.389 28.8267 140.083 29.52 139.896 30.32C139.709 31.12 139.616 31.9867 139.616 32.92V42.24H133.936V21.56Z" fill="black"/>
<path d="M155.323 18.36H149.643V13.68H155.323V18.36ZM149.643 21.56H155.323V42.24H149.643V21.56Z" fill="black"/>
<path d="M161.035 25.36H157.635V21.56H161.035V19.96C161.035 18.12 161.609 16.6133 162.755 15.44C163.902 14.2667 165.635 13.68 167.955 13.68C168.462 13.68 168.969 13.7067 169.475 13.76C169.982 13.7867 170.475 13.8133 170.955 13.84V18.08C170.289 18 169.595 17.96 168.875 17.96C168.102 17.96 167.542 18.1467 167.195 18.52C166.875 18.8667 166.715 19.4667 166.715 20.32V21.56H170.635V25.36H166.715V42.24H161.035V25.36Z" fill="black"/>
</svg>
