<svg fill="none" height="60" viewBox="0 0 95 60" width="95" xmlns="http://www.w3.org/2000/svg"><g fill="#000"><path d="m10.847 43.5074c-3.36792 0-5.72547-1.0103-7.64999-2.5018-.57735-.4331-.86603-.5774-1.1066-.5774-.28868 0-.48113.3368-.76981.8179-.28868.5293-.529241.5774-.866032.5774-.288679 0-.5292441-.2406-.4330182-.7698.1924522-1.2029.6735832-7.3132.8179222-8.7085.048113-.2887.144339-.2887.336788-.2887l.7217.0481c.19245 0 .28868.0963.28868.385.04811 1.5396.14434 3.1273 1.73207 5.5811 1.44339 2.2613 4.08961 3.5603 6.73579 3.5603 2.8868 0 6.5434-1.7802 6.5434-6.1103 0-4.9557-3.5604-6.784-7.4094-8.1311-1.4915-.5293-4.95564-1.7321-7.02451-3.8972-1.58773-1.5877-2.405649-3.849-2.405649-7.0245 0-2.4057 1.491509-4.7632 2.983009-6.1585 1.73207-1.63582 4.13773-2.3094 6.73585-2.3094 2.7424 0 4.8594.81792 5.6773 1.20283.433.24056.6736.19245.9142-.04812l.6254-.57735c.2406-.19245.3849-.28868.6255-.28868s.3849.3849.3849.81792c0 1.684.6255 6.5915.6736 7.65 0 .2405-.0481.3368-.2406.3849l-.5773.1443c-.1444.0481-.2406 0-.2887-.1443-.3849-1.3953-1.0104-3.2717-2.983-5.3406-1.2991-1.3952-2.983-2.06883-5.24434-2.06883-4.28206 0-5.82168 3.17543-5.82168 5.62923 0 1.3472.28868 2.9349 1.49151 4.1858 1.39528 1.3953 4.08961 2.4538 5.48491 2.8868 3.3198 1.0585 6.0141 1.8764 7.7462 3.9934 1.2509 1.4915 2.117 3.3679 2.117 6.5434 0 5.6773-3.4642 10.5367-9.8151 10.5367z"/><path d="m41.2785 29.9877h-11.8839c-.0963.433-.1444 1.2028-.1444 2.3094 0 4.7151 2.983 8.2754 6.8321 8.2754 2.9349 0 5.0037-1.6839 5.8217-3.2716.0962-.1925.2886-.2887.433-.2406l.6255.3368c.1443.0481.2405.1924 0 .7217-.8661 1.9245-3.368 5.2443-7.65 5.2443-2.7425 0-5.7736-.8179-7.5538-3.416-1.6839-2.4538-2.1169-4.234-2.1169-7.6019 0-1.8764.4811-5.1 3.0311-7.65 2.0688-2.1169 4.4745-2.55 6.8801-2.55 5.533 0 7.0727 5.1963 7.0727 7.0727 0 .6735-.5774.7698-1.3472.7698zm-11.6915-1.4434h7.4576c.9141 0 1.299-.2406 1.299-.6736 0-1.1066-.5773-4.2821-3.7047-4.2821-2.117 0-4.1377 1.3953-5.0519 4.9557z"/><path d="m49.0142 34.5103v-4.5226c0-2.4538-.3849-2.9349-1.7321-3.6566l-.9141-.4812c-.2887-.0962-.3849-.1443-.3849-.3367v-.2887c0-.1925.0962-.2887.3849-.433l4.7632-2.4538c.2886-.1443.4811-.1925.6735-.1925.2887 0 .3368.2887.3368.5774l.2406 3.416h.1924c1.4434-2.2132 3.7048-4.1858 5.7736-4.1858 1.6359 0 2.4538 1.0104 2.4538 2.117 0 1.3952-1.1547 2.3575-2.0208 2.3575-.5292 0-1.0103-.1924-1.3952-.3849-.385-.2406-.9623-.3849-1.5878-.3849-.7698 0-2.0207.4811-2.8386 2.0207-.2887.5293-.4812 1.3953-.4812 1.5397v10.0075c0 1.4915.3368 1.9726 1.3472 1.9726h2.2613c.2887 0 .3368.1444.3368.433v.8661c0 .2886-.0481.433-.2406.433-.2886 0-2.5019-.1444-5.1-.1444-2.983 0-5.0037.1444-5.2924.1444-.1924 0-.2887-.0962-.2887-.4811v-.818c0-.3368.0963-.433.5293-.433h1.8764c.7217 0 1.0585-.2887 1.0585-.9141.0481-1.5878.0481-3.2717.0481-5.7736z"/><path d="m66.1225 35.8575v-7.0727c0-1.6358-.2887-2.5018-2.6943-2.8867-.3368-.0482-.433-.1444-.433-.3368v-.433c0-.1444.0962-.2406.3368-.3368 1.5396-.5774 3.3679-1.3472 5.1962-2.3576.3849-.1924.6254-.2887.9141-.2887.2406 0 .2887.2406.2406.5774-.0963.8179-.0963 3.849-.0963 7.8424v5.2444c0 1.8764 0 3.6084.0482 4.1377.0962.9141.2405 1.2509.7698 1.2509h2.2132c.3849 0 .4811.1444.4811.433v.818c0 .3367-.0962.4811-.433.4811-.3849 0-2.5981-.1444-4.6189-.1444-2.7905 0-4.6669.1444-5.1962.1444-.2405 0-.3849-.0962-.3849-.3849v-.9623c0-.2887.1444-.3849.4811-.3849h2.3576c.5292 0 .7217-.1924.7698-.9622.0481-1.4434.0481-2.9349.0481-4.3783zm.4811-19.149c-1.1066 0-2.7424-1.1066-2.7424-2.6944 0-1.2509 1.0585-2.6943 3.0311-2.6943 1.7802 0 2.5981 1.4434 2.5981 2.55 0 1.299-.866 2.8387-2.8868 2.8387z"/><path d="m79.1901 24.9839h-3.3198c-.2406 0-.3368-.0962-.2406-.5292l.1925-1.4434c.0481-.2887.1924-.3368.5773-.3368h2.7906v-.866c0-4.7632 1.3472-7.8906 3.2236-10.0076 2.55-2.79052 5.1962-3.8009 7.8905-3.8009 2.2613 0 4.3783.86604 4.3783 2.6943 0 1.1547-1.2509 2.0689-2.0207 2.0689-.4812 0-.9623-.0962-1.3472-.2887-.433-.2406-.9623-.866-1.1547-1.1066-.6255-.7698-1.2991-1.1066-2.2132-1.1066-1.251 0-2.55.3368-3.6085 1.684-1.7802 2.2613-1.684 6.4471-1.684 9.815v.9142h5.8217c.3368 0 .3849.2887.3368.4811l-.2406 1.5877c-.0481.1925-.2405.2406-.6254.2406h-5.2925v4.3302c0 5.6773 0 10.1037.0481 10.633.0963.8179.2406 1.2509 1.251 1.2509h2.7424c.4331 0 .5293.0962.5293.3849v.7698c0 .3849-.0963.5774-.3368.5774-.2887 0-2.0689-.1444-5.7736-.1444-2.6462 0-5.1.1444-5.4849.1444-.2887 0-.3849-.0962-.3849-.3368v-1.0585c0-.2406.0962-.3368.4812-.3368h2.3094c.9141 0 1.1066-.5773 1.1547-1.6839z"/></g></svg>