<svg fill="none" height="801" viewBox="0 0 1112 801" width="1112" xmlns="http://www.w3.org/2000/svg"><path d="m1106.86 312.833.94.329zm-169.08 485.9v1h.711l.234-.671zm-764.199 0-.944.329.233.671h.711zm-169.07514-485.9-.94447.329h.00001zm1096.48414-8.247v1c3.59 0 6.1 3.535 4.92 6.918l.95.329.94.329c1.63-4.684-1.85-9.576-6.81-9.576zm5.87 8.247-.95-.329-169.074 485.901.944.328.945.329 169.075-485.9zm-169.08 485.9v-1h-764.199v1 1h764.199zm-764.199 0 .945-.328-169.07568-485.901-.94446.329-.94446.329 169.0756 485.9zm-169.07514-485.9.94447-.329c-1.17732-3.383 1.33571-6.918 4.91877-6.918v-1-1c-4.95886 0-8.43734 4.892-6.80771 9.576zm5.86324-8.247v1h1090.6209v-1-1h-1090.6209z" fill="#000"/><g stroke="#000" stroke-width="2"><path d="m43.8848 430.025h1024.1852" stroke-linecap="round"/><path d="m97.8105 585.205h916.3395" stroke-linecap="round"/><path d="m151.734 740.386h808.489" stroke-linecap="round"/><path d="m198.164 304.329v494.404"/><path d="m341.705 304.329v494.404"/><path d="m485.248 304.329v494.404"/><path d="m628.789 304.329v494.404"/><path d="m772.33 304.329v494.404"/><path d="m915.873 304.329v494.404"/><path d="m225.482 267.862c-35.691 2.716-38.796 38.02-25.217 27.933 112.962-103.064 185.395-169.15 283.495-258.6539 9.486-8.6544 21.884-13.4712 34.724-13.4712h71.961c12.84 0 25.218 4.7979 34.703 13.4523l283.516 258.6728c13.579 10.087 10.474-25.217-25.217-27.933" stroke-linecap="round" stroke-linejoin="round"/></g><path d="m0 0h154.298v42.2977h-154.298z" fill="#eee" transform="matrix(.74314483 -.66913061 .66913061 .74314483 234.152 228.764)"/><path d="m259.807 241.857.276.307c1.171 1.3 2.68.884 5.573-1.721 2.984-2.687 3.339-3.894 2.499-4.827-.855-.949-1.926-.816-5.713 2.15-5.002 3.894-7.251 3.952-9.111 1.885-1.902-2.112-1.253-5.024 3.109-8.951 4.637-4.176 7.239-4.579 9.307-2.283.22.245.427.474.646.748-.305.247-.793.659-1.267 1.086-.49.441-.966.897-1.243 1.174-.123-.166-.288-.35-.398-.473-.993-1.102-2.252-.993-5.329 1.777-2.709 2.44-3.078 3.631-2.306 4.488.717.796 1.615.901 5.688-2.24 4.77-3.629 7.064-4.004 9.076-1.77 2.081 2.311 1.42 5.179-3.095 9.244-4.698 4.231-7.604 4.852-9.685 2.54-.234-.26-.454-.505-.672-.808.378-.257.866-.669 1.341-1.096.505-.455.979-.882 1.304-1.23zm21.06-24.144-.235-.261c-1.571-1.744-3.623-1.254-6.516 1.351-2.942 2.704-3.641 5.19-1.298 7.792 2.37 2.632 5.158 2.312 8.173-.403 3-2.701 3.35-4.651 1.944-6.213l-.289-.321c.458-.384.871-.756 1.315-1.156s.887-.799 1.302-1.201c.152.169.291.293.443.461 2.453 2.724 2.256 6.199-2.688 10.651-4.775 4.299-9.145 4.77-12.839.669-3.569-3.965-2.52-8.401 2.041-12.508 4.5-4.051 8.175-4.617 10.684-1.832.192.215.372.414.549.642-.442.37-.886.77-1.314 1.156-.444.399-.858.771-1.272 1.173zm1.078-9.507 11.877-10.694c.192.243.564.656.853.978.303.336.717.795.953 1.027-2.982 2.629-6.807 6.045-9.21 8.208l2.536 2.817c2.877-2.591 6.643-5.981 8.972-8.134.371.442 1.253 1.422 1.666 1.881-2.354 2.064-6.177 5.451-9.039 8.028l2.577 2.862c2.418-2.177 6.322-5.721 9.126-8.301.219.274.633.733.963 1.101.29.321.689.765.939 1.011l-11.877 10.695c-1.275-1.54-2.902-3.346-5.107-5.795-2.191-2.434-3.886-4.316-5.229-5.684zm25.618-23.066 2.51-2.26c1.182 1.374 2.917 3.332 5.108 5.765 2.274 2.525 3.803 4.224 5.212 5.727l-2.74 2.467c-1.817-.387-8.199-.765-12.822-1.036-1.104-.087-2.22-.219-3.201-.416.874.848 1.704 1.708 2.506 2.537 2.798 3.107 4.727 5.25 5.559 6.081l-2.556 2.302c-1.349-1.529-2.917-3.332-5.122-5.781-2.191-2.434-3.845-4.27-5.214-5.698l3.153-2.839c1.398.321 8.366.642 12.62.997.959.079 1.957.233 2.862.5l.016-.043c-.848-.789-1.665-1.604-2.368-2.385-2.205-2.449-4.537-4.977-5.523-5.918zm5.755-5.183 11.877-10.694c.192.244.564.657.853.978.303.337.717.796.953 1.027-2.982 2.629-6.807 6.045-9.21 8.209l2.536 2.816c2.877-2.591 6.642-5.981 8.972-8.134.371.443 1.252 1.422 1.666 1.881-2.354 2.065-6.177 5.452-9.039 8.029l2.577 2.862c2.418-2.178 6.322-5.721 9.126-8.301.219.274.633.733.963 1.101.29.321.689.765.939 1.011l-11.877 10.694c-1.276-1.54-2.902-3.346-5.107-5.794-2.191-2.434-3.886-4.316-5.229-5.685zm22.559-10.057c.808-.673 2.72-2.366 4.709-4.158 2.021-1.819 2.257-3.279 1.169-4.488-1.254-1.393-2.468-1.048-4.626.895-.888.799-3.308 3.005-4.475 4.14 1.087 1.238 2.189 2.463 3.223 3.611zm7.745-5.034.041.046c2.106-1.508 3.268-1.695 5.367-.565 1.318.726 2.352 1.319 2.966 1.57l-2.449 2.205c-.49.441-.689.343-1.931-.451-2.691-1.512-3.423-1.74-5.52.148l-4.454 4.011c1.437 1.533 2.709 2.854 3.655 3.72l-2.77 2.495c-1.487-1.682-2.903-3.317-5.122-5.781-2.191-2.434-3.695-4.073-5.214-5.698l7.791-7.015c3.168-2.853 5.834-3.369 7.97-.997 1.737 1.929 1.676 3.923-.33 6.312zm9.341-20.605 3.245-2.922c.111 3.447.808 10.746 1.216 13.538 1.405 1.562 2.69 2.927 3.119 3.372-.395.3-.946.796-1.39 1.196-.459.414-1.01.91-1.365 1.285-.383-.487-1.62-1.923-3.012-3.468-2.715-.799-9.973-2.273-13.337-2.624l3.504-3.156c1.034.316 4.206 1.008 6.262 1.567 1.268.3 2.231.569 2.962.797l.153-.137c-.153-.694-.323-1.621-.475-2.898-.311-2.131-.642-5.546-.882-6.55z" fill="#000"/><path d="m0 0h134.298v42.2977h-134.298z" fill="#eee" transform="matrix(.74314483 -.66913061 .66913061 .74314483 373.689 103.124)"/><path d="m412.993 107.392c1.791-1.612 2.15-2.629 1.075-3.822-.937-1.041-2.042-.822-3.955.901-1.408 1.267-3.153 2.838-4.901 4.468.965 1.071 1.902 2.112 2.718 2.957 2.063-1.803 3.67-3.25 5.063-4.504zm-3.221-8.3788c-.937-1.0408-2-.8048-3.729.7525-1.515 1.3643-3.139 2.8543-4.977 4.5373.729.84 1.666 1.881 2.644 2.967 1.877-1.578 3.502-3.097 4.956-4.407 1.777-1.627 2.029-2.824 1.106-3.8498zm1.796 2.7338.069.076c.623-.477 1.168-.857 1.675-1.064 1.536-.663 2.718-.397 3.89.904 1.929 2.143 1.302 4.37-1.545 6.933l-8.602 7.745c-1.356-1.66-2.9-3.374-5.091-5.808s-3.803-4.224-5.244-5.671l8.418-7.5792c2.923-2.6321 5.101-3.0138 6.962-.9476 1.13 1.2551 1.308 2.3144.774 3.5989-.233.5419-.688 1.1449-1.306 1.8129zm.682-10.8681 11.877-10.694c.191.2433.563.6566.853.978.303.3367.716.7958.952 1.0269-2.981 2.6292-6.806 6.0453-9.209 8.2089l2.536 2.8162c2.877-2.5908 6.642-5.9809 8.972-8.1338.37.4423 1.252 1.4219 1.666 1.881-2.354 2.0641-6.178 5.4512-9.04 8.0282l2.577 2.8621c2.419-2.1774 6.323-5.7206 9.127-8.3007.219.274.632.7331.963 1.1005.289.3214.689.7652.939 1.0116l-11.877 10.6942c-1.276-1.54-2.902-3.3459-5.107-5.7947-2.191-2.4336-3.886-4.3161-5.229-5.6844zm25.602-23.0521 2.77-2.4944c1.345 1.6163 2.914 3.3902 5.092 5.8084 2.191 2.4336 3.694 4.0727 5.244 5.6706l-2.77 2.4944c-1.028-1.2643-2.79-3.2525-3.989-4.584-1.266 1.0565-2.706 2.381-4.114 3.6489-1.393 1.2541-2.846 2.5342-4.029 3.6826 1.199 1.3315 3.006 3.3074 4.127 4.4599l-2.755 2.4806c-1.412-1.7219-2.915-3.3611-5.107-5.7946-2.177-2.4183-3.747-4.1922-5.229-5.6844l2.755-2.4806c.974 1.1739 2.805 3.2386 4.073 4.6467 1.266-1.0565 2.705-2.3519 4.098-3.606 1.408-1.2679 2.862-2.577 4.045-3.7254-1.268-1.4081-3.13-3.4453-4.211-4.5227zm19.071 3.6138-2.725 2.453c-1.552-1.8168-2.93-3.3473-5.121-5.7808-2.205-2.4489-3.584-3.9794-5.214-5.6982l2.724-2.453c1.51 1.7999 2.903 3.3167 5.108 5.7655 2.178 2.4183 3.554 3.9779 5.228 5.7135zm3.693-24.1107 2.51-2.26c1.182 1.3744 2.917 3.332 5.108 5.7655 2.274 2.5254 3.804 4.2243 5.212 5.7272l-2.739 2.4668c-1.817-.3869-8.2-.7651-12.823-1.0365-1.103-.0871-2.22-.2185-3.201-.4157.874.8479 1.704 1.708 2.507 2.5376 2.797 3.1069 4.727 5.2497 5.558 6.0807l-2.556 2.3015c-1.349-1.529-2.917-3.332-5.122-5.7809-2.191-2.4335-3.845-4.2702-5.214-5.6981l3.153-2.8389c1.398.3212 8.366.6426 12.621.9968.958.0794 1.956.2338 2.861.5l.017-.0429c-.849-.7882-1.666-1.604-2.369-2.3845-2.205-2.4489-4.537-4.9773-5.523-5.9186zm20.681-1.6877c2.77-2.4944 3.232-4.6285.737-7.3987-2.439-2.7091-4.409-2.404-7.241.1455-1.392 1.2541-2.649 2.4132-3.8 3.5049.989 1.1602 2.187 2.5208 3.262 3.7146 1.419 1.5765 2.356 2.6173 3.129 3.4453 1.476-1.1623 2.413-2.0611 3.913-3.4116zm-14.956-3.4671 6.642-5.9809c4.776-4.2997 8.101-4.3004 11.642-.367 3.611 4.01 3.531 7.4912-1.336 11.8735l-6.612 5.9534c-1.388-1.6331-2.917-3.332-5.108-5.7655-2.192-2.4336-3.859-4.2855-5.228-5.7135z" fill="#000"/><path d="m519.322.5h73.2977v42.2977h-73.2977z" fill="#eee"/><path d="m541.478 17.2019h3.378c-.041 1.8124-.062 4.428-.062 7.7027 0 3.3982 0 5.6843.041 7.7438h-3.686c-1.092-1.5034-5.582-6.055-8.836-9.3502-.762-.8033-1.503-1.6477-2.1-2.4509.082 1.2151.123 2.4097.164 3.563 0 4.1809 0 7.0642.062 8.2381h-3.439c.02-2.0389.062-4.428.062-7.7232 0-3.2747 0-5.7461-.062-7.7233h4.242c.824 1.174 5.788 6.0757 8.712 9.1856.659.7002 1.298 1.4828 1.792 2.286l.041-.0206c-.103-1.1533-.164-2.3066-.164-3.357 0-3.2953-.042-6.7347-.145-8.094zm21.009 0h4.366c-2.224 2.6362-6.591 8.5265-8.156 10.8744 0 2.1007.041 3.9749.062 4.5927-.494-.0412-1.236-.0412-1.833-.0412-.618 0-1.359 0-1.874.0412.041-.6178.082-2.5126.082-4.5927-1.483-2.4097-5.89-8.3617-8.156-10.8744h4.717c.556.9268 2.451 3.563 3.604 5.3548.741 1.071 1.277 1.9154 1.668 2.5744h.206c.35-.6178.845-1.421 1.586-2.4714 1.194-1.7918 3.233-4.5516 3.728-5.4578zm19.658 6.3434v-.3501c0-2.3479-1.854-3.3571-5.746-3.3571-3.996.0412-6.179 1.4211-6.179 4.9223 0 3.5424 2.286 5.1695 6.343 5.1695 4.037 0 5.602-1.2152 5.602-3.3159v-.4325c.597.0206 1.154.0206 1.751.0206s1.194 0 1.771-.0206c0 .2266.021.4119.021.6385 0 3.6659-2.472 6.1168-9.124 6.1168-6.426 0-9.989-2.5744-9.989-8.094 0-5.3342 3.749-7.9292 9.886-7.9292 6.055 0 9.165 2.0389 9.165 5.7873 0 .2883 0 .5561-.021.8444-.576-.0206-1.174-.0206-1.75-.0206-.598 0-1.154 0-1.73.0206z" fill="#000"/><path d="m0 0h213.298v42.2977h-213.298z" fill="#eee" transform="matrix(.74314483 .66913061 -.66913061 .74314483 638.223 16.5869)"/><path d="m628.199 43.7555-.275.3061c-1.172 1.3009-.6 2.7584 2.293 5.363 2.985 2.6873 4.222 2.9141 5.062 1.9805.855-.9489.61-2.0006-2.736-5.4565-4.395-4.5675-4.687-6.798-2.827-8.8642 1.902-2.1121 4.866-1.7716 9.228 2.156 4.637 4.1756 5.31 6.7215 3.243 9.0173-.22.2449-.427.4745-.677.7209-.277-.2771-.737-.7197-1.212-1.1469-.49-.441-.993-.8666-1.298-1.1132.153-.1392.319-.3229.429-.4454.992-1.1019.752-2.3435-2.324-5.1135-2.709-2.4392-3.932-2.6814-4.704-1.8243-.717.7959-.728 1.7006 2.822 5.4229 4.107 4.3638 4.721 6.6066 2.709 8.8412-2.081 2.3111-5.002 1.9538-9.517-2.1116-4.699-4.2308-5.62-7.0554-3.539-9.3665.234-.2602.455-.5051.734-.753.295.3491.756.7916 1.23 1.2188.505.4548.98.882 1.359 1.1684zm18.383 2.8333 12.091 10.887c-.277.277-.663.7055-1.021 1.1035-.331.3673-.758.8418-1.019 1.1617-1.656-1.5466-3.295-3.0502-4.703-4.318-3.859 4.2854-7.468 8.3245-8.305 9.3163-.325-.3476-.922-.885-1.32-1.2433s-.964-.8682-1.374-1.1821c.914-.9229 4.54-4.9191 8.412-9.2199-1.423-1.2817-3.09-2.7547-4.801-4.24.291-.2923.718-.7668 1.049-1.1341.358-.398.73-.8112.991-1.1311zm22.689 30.6833c-3.487 3.8722-8.099 3.7931-12.951-.5754-4.837-4.3548-5.382-8.9199-1.895-12.7921 3.527-3.9182 8.114-3.5023 12.782.7009 4.683 4.217 5.592 8.7484 2.064 12.6666zm-10.938-2.7809c3.169 2.8526 5.944 2.9405 8.218.4151 2.274-2.5253 1.826-5.2289-1.327-8.0678s-5.89-3.0308-8.178-.4901c-2.274 2.5253-1.881 5.2901 1.287 8.1428zm16.006 7.3441c.753.7335 2.637 2.4576 4.626 4.2491 2.021 1.8191 3.498 1.9021 4.587.693 1.254-1.3928.784-2.564-1.374-4.5071-.888-.7993-3.335-2.9752-4.586-4.0179-1.117 1.2106-2.22 2.435-3.253 3.5829zm5.815 7.1764-.041.0459c1.72 1.9369 2.028 3.0728 1.122 5.2786-.583 1.3868-1.066 2.4766-1.251 3.1134l-2.449-2.2049c-.49-.441-.413-.6492.247-1.9671 1.222-2.8349 1.372-3.5865-.724-5.4745l-4.454-4.0102c-1.375 1.5887-2.556 2.9922-3.318 4.0238l-2.771-2.4943c1.518-1.6545 2.995-3.234 5.214-5.6982 2.191-2.4335 3.664-4.1003 5.122-5.7808l7.79 7.0145c3.169 2.8526 3.961 5.4507 1.825 7.823-1.736 1.9285-3.727 2.0765-6.312.3308zm12.42-1.0115 11.877 10.694c-.222.2158-.594.6291-.884.9505-.303.3367-.716.7963-.922 1.0543-2.926-2.6901-6.723-6.1369-9.126-8.3005l-2.536 2.8162c2.878 2.5908 6.643 5.9813 9.027 8.0723-.401.415-1.283 1.395-1.696 1.854-2.299-2.126-6.067-5.5739-8.929-8.1509l-2.577 2.8621c2.418 2.1778 6.35 5.6898 9.209 8.2088-.25.246-.663.706-.994 1.073-.289.321-.689.765-.908 1.039l-11.877-10.6938c1.398-1.4295 3.024-3.2355 5.229-5.6844 2.191-2.4335 3.886-4.3161 5.107-5.7946zm14.842 13.3638 11.647 10.488c-.277.277-.664.676-.981 1.028-.372.413-.77.886-1.044 1.221-3.231-2.936-6.416-5.832-8.972-8.133-.965 1.071-2.095 2.326-2.867 3.183l-.289.322c3.122 2.811 6.214 5.595 8.903 7.933-.527.523-1.436 1.533-1.919 2.069-2.617-2.356-5.696-5.185-8.788-7.968-1.211 1.376-2.435 2.796-3.271 3.817l-2.755-2.481c1.45-1.549 3.023-3.264 5.214-5.698 2.191-2.433 3.776-4.194 5.122-5.781zm11.852 20.926c.753.733 2.637 2.458 4.627 4.249 2.02 1.819 3.497 1.902 4.586.693 1.254-1.393.785-2.564-1.374-4.507-.887-.799-3.335-2.975-4.585-4.018-1.118 1.211-2.22 2.435-3.254 3.583zm5.816 7.176-.042.046c1.721 1.937 2.028 3.073 1.123 5.279-.584 1.387-1.066 2.477-1.252 3.113l-2.448-2.205c-.49-.441-.414-.649.246-1.967 1.223-2.835 1.373-3.586-.724-5.474l-4.454-4.01c-1.375 1.588-2.555 2.992-3.318 4.023l-2.77-2.494c1.517-1.654 2.995-3.234 5.214-5.698 2.191-2.434 3.664-4.1 5.121-5.781l7.791 7.015c3.168 2.852 3.96 5.45 1.824 7.823-1.736 1.928-3.726 2.076-6.311.33zm21.177 17.128c-3.487 3.872-8.099 3.793-12.951-.575-4.837-4.355-5.382-8.92-1.896-12.792 3.528-3.919 8.115-3.503 12.783.701 4.683 4.217 5.592 8.748 2.064 12.666zm-10.938-2.781c3.169 2.853 5.944 2.941 8.218.415 2.274-2.525 1.826-5.229-1.327-8.067-3.153-2.839-5.89-3.031-8.178-.491-2.274 2.526-1.881 5.291 1.287 8.143zm29.262 9.027 2.51 2.26c-1.243 1.319-3.008 3.249-5.2 5.683-2.274 2.525-3.803 4.224-5.151 5.782l-2.739-2.467c.195-1.848-.096-8.234-.31-12.86-.029-1.107-.015-2.231.079-3.227-.752.958-1.52 1.873-2.262 2.758-2.797 3.107-4.726 5.249-5.466 6.163l-2.556-2.301c1.38-1.502 3.009-3.25 5.214-5.699 2.191-2.433 3.845-4.27 5.122-5.78l3.153 2.839c-.174 1.423.235 8.387.327 12.655.022.961-.028 1.97-.198 2.898l.045.012c.695-.926 1.421-1.824 2.123-2.605 2.205-2.449 4.476-5.032 5.309-6.111zm4.424 3.983 12.092 10.887c-.278.277-.663.706-1.022 1.104-.331.367-.758.841-1.018 1.161-1.656-1.546-3.295-3.05-4.703-4.318-3.859 4.286-7.468 8.325-8.306 9.317-.324-.348-.921-.885-1.319-1.244-.398-.358-.964-.868-1.374-1.182.914-.923 4.54-4.919 8.412-9.22-1.423-1.281-3.09-2.754-4.801-4.24.291-.292.718-.766 1.049-1.134.358-.398.73-.811.99-1.131z" fill="#000"/><path d="m0 0h103.298v42.2977h-103.298z" fill="#eee" transform="matrix(.74314483 .66913061 -.66913061 .74314483 813.953 174.814)"/><path d="m803.726 201.8-.275.306c-1.172 1.301-.599 2.759 2.293 5.363 2.985 2.687 4.222 2.914 5.062 1.981.855-.949.61-2.001-2.735-5.457-4.396-4.567-4.688-6.798-2.827-8.864 1.901-2.112 4.865-1.772 9.227 2.156 4.637 4.176 5.31 6.721 3.243 9.017-.22.245-.427.475-.676.721-.278-.277-.738-.72-1.213-1.147-.489-.441-.993-.866-1.298-1.113.154-.139.319-.323.429-.445.992-1.102.752-2.344-2.324-5.114-2.709-2.439-3.932-2.681-4.704-1.824-.717.796-.727 1.7 2.822 5.423 4.108 4.364 4.721 6.606 2.709 8.841-2.081 2.311-5.002 1.954-9.517-2.112-4.699-4.23-5.62-7.055-3.539-9.366.235-.26.455-.505.734-.753.295.349.756.791 1.23 1.219.505.454.98.882 1.359 1.168zm12.134 17.992-2.725-2.453c1.645-1.734 3.023-3.265 5.214-5.698 2.205-2.449 3.583-3.98 5.122-5.781l2.724 2.453c-1.632 1.69-2.995 3.234-5.2 5.683-2.177 2.418-3.584 3.95-5.135 5.796zm22.036 8.756c-3.404 4.334-6.527 5.679-12.405.387-4.683-4.217-5.452-8.872-1.952-12.76 3.597-3.994 8.119-3.415 12.695.706 4.546 4.093 5.301 7.655 3.083 10.119-.152.169-.262.291-.443.461-.277-.277-.753-.733-1.227-1.161-.536-.482-1.026-.923-1.359-1.168.096-.107.208-.2.291-.292 1.281-1.424.616-3.27-2.262-5.861-3.015-2.715-5.646-3.116-8.127-.361-2.384 2.647-1.977 5.397 1.237 8.291 2.954 2.66 4.788 2.87 6.611.937-1.546-1.392-3.886-3.472-5.23-4.626.167-.155.47-.491.622-.66.317-.352.593-.658.798-.917 1.486 1.366 3.032 2.758 4.149 3.764.934.841 2.251 2.055 3.519 3.141zm18.441 6.904 2.51 2.26c-1.243 1.32-3.009 3.25-5.2 5.683-2.274 2.526-3.804 4.224-5.151 5.782l-2.74-2.466c.195-1.848-.096-8.235-.309-12.861-.029-1.107-.015-2.23.079-3.227-.752.958-1.521 1.873-2.262 2.758-2.798 3.107-4.727 5.25-5.467 6.164l-2.556-2.302c1.38-1.501 3.009-3.249 5.214-5.698 2.191-2.434 3.845-4.27 5.122-5.781l3.153 2.839c-.173 1.424.235 8.388.328 12.656.021.961-.028 1.97-.198 2.897l.044.013c.695-.926 1.421-1.825 2.124-2.605 2.205-2.449 4.476-5.033 5.309-6.112zm1.123 14.729-.276.307c-1.171 1.3-.599 2.758 2.293 5.363 2.985 2.687 4.222 2.914 5.062 1.98.855-.949.61-2.001-2.735-5.456-4.396-4.568-4.688-6.798-2.827-8.865 1.901-2.112 4.865-1.771 9.227 2.156 4.637 4.176 5.31 6.722 3.243 9.018-.22.245-.427.474-.676.721-.278-.278-.738-.72-1.213-1.147-.489-.441-.993-.867-1.298-1.114.154-.139.319-.322.429-.445.992-1.102.752-2.343-2.324-5.113-2.709-2.44-3.932-2.682-4.704-1.825-.716.796-.727 1.701 2.822 5.423 4.108 4.364 4.721 6.607 2.709 8.841-2.081 2.311-5.002 1.954-9.517-2.111-4.699-4.231-5.62-7.056-3.539-9.367.235-.26.455-.505.734-.753.295.349.756.792 1.23 1.219.505.455.98.882 1.36 1.168z" fill="#000"/><path d="m235.185 306.269-27.294-21.229c-4.483-3.486-10.761-3.486-15.244 0l-27.293 21.229" stroke="#000" stroke-linecap="round" stroke-linejoin="round" stroke-width="12.4144"/><path d="m947.46 306.269-27.294-21.229c-4.483-3.486-10.76-3.486-15.243 0l-27.294 21.229" stroke="#000" stroke-linecap="round" stroke-linejoin="round" stroke-width="12.4144"/><path d="m165.354 312.476h-159.06103c-3.42815 0-6.2070325-2.779-6.2070325-6.207 0-3.429 2.7788825-6.207 6.2070325-6.207h159.06103zm712.275 0h-642.444v-12.414h642.444zm227.661-12.407c3.28.167 5.89 2.879 5.89 6.2 0 3.32-2.61 6.032-5.89 6.199l-.32.008h-157.51v-12.414h157.51z" fill="#000"/></svg>