<svg width="1062" height="805" viewBox="0 0 1062 805" fill="none" xmlns="http://www.w3.org/2000/svg">
<path d="M1.99902 331.245V330.025H0.282543L0.84664 331.646L1.99902 331.245ZM1059.87 331.245L1061.03 331.646L1061.59 330.025H1059.87V331.245ZM895.721 803V804.22H896.589L896.874 803.401L895.721 803ZM166.152 803L165 803.401L165.285 804.22H166.152V803ZM519.537 330.025H1.99902V332.465H519.537V330.025ZM519.537 332.465H542.336V330.025H519.537V332.465ZM542.336 332.465H1059.87V330.025H542.336V332.465ZM1058.72 330.844L894.569 802.599L896.874 803.401L1061.03 331.646L1058.72 330.844ZM895.721 801.78H542.336V804.22H895.721V801.78ZM542.336 801.78H519.537V804.22H542.336V801.78ZM166.152 804.22H519.537V801.78H166.152V804.22ZM0.84664 331.646L165 803.401L167.304 802.599L3.15141 330.844L0.84664 331.646Z" fill="black"/>
<path d="M1.99902 331.245L166.152 803H895.721L1059.87 331.245" stroke="black" stroke-width="2.44031"/>
<path d="M42.5 451H1017.5" stroke="black" stroke-width="2.44031"/>
<path d="M85 573H975" stroke="black" stroke-width="2.44031"/>
<path d="M127.5 695H932.5" stroke="black" stroke-width="2.44031"/>
<line x1="190.87" y1="331" x2="190.87" y2="803" stroke="black" stroke-width="2.44031"/>
<line x1="327.209" y1="331" x2="327.209" y2="803" stroke="black" stroke-width="2.44031"/>
<line x1="463.55" y1="331" x2="463.55" y2="803" stroke="black" stroke-width="2.44031"/>
<line x1="599.89" y1="331" x2="599.89" y2="803" stroke="black" stroke-width="2.44031"/>
<line x1="736.231" y1="331" x2="736.231" y2="803" stroke="black" stroke-width="2.44031"/>
<line x1="872.571" y1="331" x2="872.571" y2="803" stroke="black" stroke-width="2.44031"/>
<path d="M530.499 12.0361L872.485 331.223H188.514L530.499 12.0361Z" stroke="black" stroke-width="2.44031"/>
<path d="M649.11 121.471L530.555 12.0361L412 121.471" stroke="black" stroke-width="17.0822"/>
<circle cx="190.607" cy="331.464" r="13.4217" stroke="black" stroke-width="2.44031"/>
<circle cx="870.233" cy="331.464" r="13.4217" stroke="black" stroke-width="2.44031"/>
</svg>
