<svg width="1112" height="801" viewBox="0 0 1112 801" fill="none" xmlns="http://www.w3.org/2000/svg">
<path d="M1106.86 312.833L1107.8 313.162V313.162L1106.86 312.833ZM937.78 798.733V799.733H938.491L938.725 799.062L937.78 798.733ZM173.581 798.733L172.637 799.062L172.87 799.733H173.581V798.733ZM4.50586 312.833L3.56139 313.162L3.5614 313.162L4.50586 312.833ZM1100.99 304.586V305.586C1104.58 305.586 1107.09 309.121 1105.91 312.504L1106.86 312.833L1107.8 313.162C1109.43 308.478 1105.95 303.586 1100.99 303.586V304.586ZM1106.86 312.833L1105.91 312.504L936.836 798.405L937.78 798.733L938.725 799.062L1107.8 313.162L1106.86 312.833ZM937.78 798.733V797.733H173.581V798.733V799.733H937.78V798.733ZM173.581 798.733L174.526 798.405L5.45032 312.504L4.50586 312.833L3.5614 313.162L172.637 799.062L173.581 798.733ZM4.50586 312.833L5.45033 312.504C4.27301 309.121 6.78604 305.586 10.3691 305.586V304.586V303.586C5.41024 303.586 1.93176 308.478 3.56139 313.162L4.50586 312.833ZM10.3691 304.586V305.586H1100.99V304.586V303.586H10.3691V304.586Z" fill="black"/>
<path d="M43.8848 430.025H1068.07" stroke="black" stroke-width="2" stroke-linecap="round"/>
<path d="M97.8105 585.205H1014.15" stroke="black" stroke-width="2" stroke-linecap="round"/>
<path d="M151.734 740.386H960.223" stroke="black" stroke-width="2" stroke-linecap="round"/>
<line x1="198.164" y1="304.329" x2="198.164" y2="798.733" stroke="black" stroke-width="2"/>
<line x1="341.705" y1="304.329" x2="341.705" y2="798.733" stroke="black" stroke-width="2"/>
<line x1="485.248" y1="304.329" x2="485.248" y2="798.733" stroke="black" stroke-width="2"/>
<line x1="628.789" y1="304.329" x2="628.789" y2="798.733" stroke="black" stroke-width="2"/>
<line x1="772.33" y1="304.329" x2="772.33" y2="798.733" stroke="black" stroke-width="2"/>
<line x1="915.873" y1="304.329" x2="915.873" y2="798.733" stroke="black" stroke-width="2"/>
<path d="M225.482 267.862C189.791 270.578 186.686 305.882 200.265 295.795C218.47 279.185 235.623 263.535 252 248.593M883.447 267.862C919.138 270.578 922.243 305.882 908.664 295.795L872.719 263M779.556 178L795.996 193M621 33.3376V33.3376C614.183 27.118 605.288 23.6699 596.06 23.6699H593.5M490.5 30.9918V30.9918C495.663 26.2813 502.4 23.6699 509.388 23.6699H519.5M391 121.773C382.822 129.235 374.672 136.67 366.5 144.126" stroke="black" stroke-width="2" stroke-linecap="round" stroke-linejoin="round"/>
<path d="M259.807 241.857L260.083 242.164C261.254 243.464 262.763 243.048 265.656 240.443C268.64 237.756 268.995 236.549 268.155 235.616C267.3 234.667 266.229 234.8 262.442 237.766C257.44 241.66 255.191 241.718 253.331 239.651C251.429 237.539 252.078 234.627 256.44 230.7C261.077 226.524 263.679 226.121 265.747 228.417C265.967 228.662 266.174 228.891 266.393 229.165C266.088 229.412 265.6 229.824 265.126 230.251C264.636 230.692 264.16 231.148 263.883 231.425C263.76 231.259 263.595 231.075 263.485 230.952C262.492 229.85 261.233 229.959 258.156 232.729C255.447 235.169 255.078 236.36 255.85 237.217C256.567 238.013 257.465 238.118 261.538 234.977C266.308 231.348 268.602 230.973 270.614 233.207C272.695 235.518 272.034 238.386 267.519 242.451C262.821 246.682 259.915 247.303 257.834 244.991C257.6 244.731 257.38 244.486 257.162 244.183C257.54 243.926 258.028 243.514 258.503 243.087C259.008 242.632 259.482 242.205 259.807 241.857ZM280.867 217.713L280.632 217.452C279.061 215.708 277.009 216.198 274.116 218.803C271.174 221.507 270.475 223.993 272.818 226.595C275.188 229.227 277.976 228.907 280.991 226.192C283.991 223.491 284.341 221.541 282.935 219.979L282.646 219.658C283.104 219.274 283.517 218.902 283.961 218.502C284.405 218.102 284.848 217.703 285.263 217.301C285.415 217.47 285.554 217.594 285.706 217.762C288.159 220.486 287.962 223.961 283.018 228.413C278.243 232.712 273.873 233.183 270.179 229.082C266.61 225.117 267.659 220.681 272.22 216.574C276.72 212.523 280.395 211.957 282.904 214.742C283.096 214.957 283.276 215.156 283.453 215.384C283.011 215.754 282.567 216.154 282.139 216.54C281.695 216.939 281.281 217.311 280.867 217.713ZM281.945 208.206L293.822 197.512C294.014 197.755 294.386 198.168 294.675 198.49C294.978 198.826 295.392 199.285 295.628 199.517C292.646 202.146 288.821 205.562 286.418 207.725L288.954 210.542C291.831 207.951 295.597 204.561 297.926 202.408C298.297 202.85 299.179 203.83 299.592 204.289C297.238 206.353 293.415 209.74 290.553 212.317L293.13 215.179C295.548 213.002 299.452 209.458 302.256 206.878C302.475 207.152 302.889 207.611 303.219 207.979C303.509 208.3 303.908 208.744 304.158 208.99L292.281 219.685C291.006 218.145 289.379 216.339 287.174 213.89C284.983 211.456 283.288 209.574 281.945 208.206ZM307.563 185.14L310.073 182.88C311.255 184.254 312.99 186.212 315.181 188.645C317.455 191.17 318.984 192.869 320.393 194.372L317.653 196.839C315.836 196.452 309.454 196.074 304.831 195.803C303.727 195.716 302.611 195.584 301.63 195.387C302.504 196.235 303.334 197.095 304.136 197.924C306.934 201.031 308.863 203.174 309.695 204.005L307.139 206.307C305.79 204.778 304.222 202.975 302.017 200.526C299.826 198.092 298.172 196.256 296.803 194.828L299.956 191.989C301.354 192.31 308.322 192.631 312.576 192.986C313.535 193.065 314.533 193.219 315.438 193.486L315.454 193.443C314.606 192.654 313.789 191.839 313.086 191.058C310.881 188.609 308.549 186.081 307.563 185.14ZM313.318 179.957L325.195 169.263C325.387 169.507 325.759 169.92 326.048 170.241C326.351 170.578 326.765 171.037 327.001 171.268C324.019 173.897 320.194 177.313 317.791 179.477L320.327 182.293C323.204 179.702 326.969 176.312 329.299 174.159C329.67 174.602 330.551 175.581 330.965 176.04C328.611 178.105 324.788 181.492 321.926 184.069L324.503 186.931C326.921 184.753 330.825 181.21 333.629 178.63C333.848 178.904 334.262 179.363 334.592 179.731C334.882 180.052 335.281 180.496 335.531 180.742L323.654 191.436C322.378 189.896 320.752 188.09 318.547 185.642C316.356 183.208 314.661 181.326 313.318 179.957ZM335.877 169.9C336.685 169.227 338.597 167.534 340.586 165.742C342.607 163.923 342.843 162.463 341.755 161.254C340.501 159.861 339.287 160.206 337.129 162.149C336.241 162.948 333.821 165.154 332.654 166.289C333.741 167.527 334.843 168.752 335.877 169.9ZM343.622 164.866L343.663 164.912C345.769 163.404 346.931 163.217 349.03 164.347C350.348 165.073 351.382 165.666 351.996 165.917L349.547 168.122C349.057 168.563 348.858 168.465 347.616 167.671C344.925 166.159 344.193 165.931 342.096 167.819L337.642 171.83C339.079 173.363 340.351 174.684 341.297 175.55L338.527 178.045C337.04 176.363 335.624 174.728 333.405 172.264C331.214 169.83 329.71 168.191 328.191 166.566L335.982 159.551C339.15 156.698 341.816 156.182 343.952 158.554C345.689 160.483 345.628 162.477 343.622 164.866ZM352.963 144.261L356.208 141.339C356.319 144.786 357.016 152.085 357.424 154.877C358.829 156.439 360.114 157.804 360.543 158.249C360.148 158.549 359.597 159.045 359.153 159.445C358.694 159.859 358.143 160.355 357.788 160.73C357.405 160.243 356.168 158.807 354.776 157.262C352.061 156.463 344.803 154.989 341.439 154.638L344.943 151.482C345.977 151.798 349.149 152.49 351.205 153.049C352.473 153.349 353.436 153.618 354.167 153.846L354.32 153.709C354.167 153.015 353.997 152.088 353.845 150.811C353.534 148.68 353.203 145.265 352.963 144.261Z" fill="black"/>
<path d="M412.993 107.392C414.784 105.78 415.143 104.763 414.068 103.57C413.131 102.529 412.026 102.748 410.113 104.471C408.705 105.738 406.96 107.309 405.212 108.939C406.177 110.01 407.114 111.051 407.93 111.896C409.993 110.093 411.6 108.646 412.993 107.392ZM409.772 99.0132C408.835 97.9724 407.772 98.2084 406.043 99.7657C404.528 101.13 402.904 102.62 401.066 104.303C401.795 105.143 402.732 106.184 403.71 107.27C405.587 105.692 407.212 104.173 408.666 102.863C410.443 101.236 410.695 100.039 409.772 99.0132ZM411.568 101.747L411.637 101.823C412.26 101.346 412.805 100.966 413.312 100.759C414.848 100.096 416.03 100.362 417.202 101.663C419.131 103.806 418.504 106.033 415.657 108.596L407.055 116.341C405.699 114.681 404.155 112.967 401.964 110.533C399.773 108.099 398.161 106.309 396.72 104.862L405.138 97.2828C408.061 94.6507 410.239 94.269 412.1 96.3352C413.23 97.5903 413.408 98.6496 412.874 99.9341C412.641 100.476 412.186 101.079 411.568 101.747ZM412.25 90.8789L424.127 80.1849C424.318 80.4282 424.69 80.8415 424.98 81.1629C425.283 81.4996 425.696 81.9587 425.932 82.1898C422.951 84.819 419.126 88.2351 416.723 90.3987L419.259 93.2149C422.136 90.6241 425.901 87.234 428.231 85.0811C428.601 85.5234 429.483 86.503 429.897 86.9621C427.543 89.0262 423.719 92.4133 420.857 94.9903L423.434 97.8524C425.853 95.675 429.757 92.1318 432.561 89.5517C432.78 89.8257 433.193 90.2848 433.524 90.6522C433.813 90.9736 434.213 91.4174 434.463 91.6638L422.586 102.358C421.31 100.818 419.684 99.0121 417.479 96.5633C415.288 94.1297 413.593 92.2472 412.25 90.8789ZM437.852 67.8268L440.622 65.3324C441.967 66.9487 443.536 68.7226 445.714 71.1408C447.905 73.5744 449.408 75.2135 450.958 76.8114L448.188 79.3058C447.16 78.0415 445.398 76.0533 444.199 74.7218C442.933 75.7783 441.493 77.1028 440.085 78.3707C438.692 79.6248 437.239 80.9049 436.056 82.0533C437.255 83.3848 439.062 85.3607 440.183 86.5132L437.428 88.9938C436.016 87.2719 434.513 85.6327 432.321 83.1992C430.144 80.7809 428.574 79.007 427.092 77.5148L429.847 75.0342C430.821 76.2081 432.652 78.2728 433.92 79.6809C435.186 78.6244 436.625 77.329 438.018 76.0749C439.426 74.807 440.88 73.4979 442.063 72.3495C440.795 70.9414 438.933 68.9042 437.852 67.8268ZM456.923 71.4406L454.198 73.8936C452.646 72.0768 451.268 70.5463 449.077 68.1128C446.872 65.6639 445.493 64.1334 443.863 62.4146L446.587 59.9616C448.097 61.7615 449.49 63.2783 451.695 65.7271C453.873 68.1454 455.249 69.705 456.923 71.4406ZM460.616 47.3299L463.126 45.0699C464.308 46.4443 466.043 48.4019 468.234 50.8354C470.508 53.3608 472.038 55.0597 473.446 56.5626L470.707 59.0294C468.89 58.6425 462.507 58.2643 457.884 57.9929C456.781 57.9058 455.664 57.7744 454.683 57.5772C455.557 58.4251 456.387 59.2852 457.19 60.1148C459.987 63.2217 461.917 65.3645 462.748 66.1955L460.192 68.497C458.843 66.968 457.275 65.165 455.07 62.7161C452.879 60.2826 451.225 58.4459 449.856 57.018L453.009 54.1791C454.407 54.5003 461.375 54.8217 465.63 55.1759C466.588 55.2553 467.586 55.4097 468.491 55.6759L468.508 55.633C467.659 54.8448 466.842 54.029 466.139 53.2485C463.934 50.7996 461.602 48.2712 460.616 47.3299ZM481.297 45.6422C484.067 43.1478 484.529 41.0137 482.034 38.2435C479.595 35.5344 477.625 35.8395 474.793 38.389C473.401 39.6431 472.144 40.8022 470.993 41.8939C471.982 43.0541 473.18 44.4147 474.255 45.6085C475.674 47.185 476.611 48.2258 477.384 49.0538C478.86 47.8915 479.797 46.9927 481.297 45.6422ZM466.341 42.1751L472.983 36.1942C477.759 31.8945 481.084 31.8938 484.625 35.8272C488.236 39.8372 488.156 43.3184 483.289 47.7007L476.677 53.6541C475.289 52.021 473.76 50.3221 471.569 47.8886C469.377 45.455 467.71 43.6031 466.341 42.1751Z" fill="black"/>
<path d="M541.478 17.2019H544.856C544.815 19.0143 544.794 21.6299 544.794 24.9046C544.794 28.3028 544.794 30.5889 544.835 32.6484H541.149C540.057 31.145 535.567 26.5934 532.313 23.2982C531.551 22.4949 530.81 21.6505 530.213 20.8473C530.295 22.0624 530.336 23.257 530.377 24.4103C530.377 28.5912 530.377 31.4745 530.439 32.6484H527C527.02 30.6095 527.062 28.2204 527.062 24.9252C527.062 21.6505 527.062 19.1791 527 17.2019H531.242C532.066 18.3759 537.03 23.2776 539.954 26.3875C540.613 27.0877 541.252 27.8703 541.746 28.6735L541.787 28.6529C541.684 27.4996 541.623 26.3463 541.623 25.2959C541.623 22.0006 541.581 18.5612 541.478 17.2019ZM562.487 17.2019H566.853C564.629 19.8381 560.262 25.7284 558.697 28.0763C558.697 30.177 558.738 32.0512 558.759 32.669C558.265 32.6278 557.523 32.6278 556.926 32.6278C556.308 32.6278 555.567 32.6278 555.052 32.669C555.093 32.0512 555.134 30.1564 555.134 28.0763C553.651 25.6666 549.244 19.7146 546.978 17.2019H551.695C552.251 18.1287 554.146 20.7649 555.299 22.5567C556.04 23.6277 556.576 24.4721 556.967 25.1311H557.173C557.523 24.5133 558.018 23.7101 558.759 22.6597C559.953 20.8679 561.992 18.1081 562.487 17.2019ZM582.145 23.5453V23.1952C582.145 20.8473 580.291 19.8381 576.399 19.8381C572.403 19.8793 570.22 21.2592 570.22 24.7604C570.22 28.3028 572.506 29.9299 576.563 29.9299C580.6 29.9299 582.165 28.7147 582.165 26.614V26.1815C582.762 26.2021 583.319 26.2021 583.916 26.2021C584.513 26.2021 585.11 26.2021 585.687 26.1815C585.687 26.4081 585.708 26.5934 585.708 26.82C585.708 30.4859 583.236 32.9368 576.584 32.9368C570.158 32.9368 566.595 30.3624 566.595 24.8428C566.595 19.5086 570.344 16.9136 576.481 16.9136C582.536 16.9136 585.646 18.9525 585.646 22.7009C585.646 22.9892 585.646 23.257 585.625 23.5453C585.049 23.5247 584.451 23.5247 583.875 23.5247C583.277 23.5247 582.721 23.5247 582.145 23.5453Z" fill="black"/>
<path d="M627.199 42.7555L626.924 43.0616C625.752 44.3625 626.324 45.82 629.217 48.4246C632.202 51.1119 633.439 51.3387 634.279 50.4051C635.134 49.4562 634.889 48.4045 631.543 44.9486C627.148 40.3811 626.856 38.1506 628.716 36.0844C630.618 33.9723 633.582 34.3128 637.944 38.2404C642.581 42.416 643.254 44.9619 641.187 47.2577C640.967 47.5026 640.76 47.7322 640.51 47.9786C640.233 47.7015 639.773 47.2589 639.298 46.8317C638.808 46.3907 638.305 45.9651 638 45.7185C638.153 45.5793 638.319 45.3956 638.429 45.2731C639.421 44.1712 639.181 42.9296 636.105 40.1596C633.396 37.7204 632.173 37.4782 631.401 38.3353C630.684 39.1312 630.673 40.0359 634.223 43.7582C638.33 48.122 638.944 50.3648 636.932 52.5994C634.851 54.9105 631.93 54.5532 627.415 50.4878C622.716 46.257 621.795 43.4324 623.876 41.1213C624.11 40.8611 624.331 40.6162 624.61 40.3683C624.905 40.7174 625.366 41.1599 625.84 41.5871C626.345 42.0419 626.82 42.4691 627.199 42.7555ZM645.582 45.5888L657.673 56.4758C657.396 56.7528 657.01 57.1813 656.652 57.5793C656.321 57.9466 655.894 58.4211 655.633 58.741C653.977 57.1944 652.338 55.6908 650.93 54.423C647.071 58.7084 643.462 62.7475 642.625 63.7393C642.3 63.3917 641.703 62.8543 641.305 62.496C640.907 62.1377 640.341 61.6278 639.931 61.3139C640.845 60.391 644.471 56.3948 648.343 52.094C646.92 50.8123 645.253 49.3393 643.542 47.854C643.833 47.5617 644.26 47.0872 644.591 46.7199C644.949 46.3219 645.321 45.9087 645.582 45.5888ZM668.271 76.2721C664.784 80.1443 660.172 80.0652 655.32 75.6967C650.483 71.3419 649.938 66.7768 653.425 62.9046C656.952 58.9864 661.539 59.4023 666.207 63.6055C670.89 67.8225 671.799 72.3539 668.271 76.2721ZM657.333 73.4912C660.502 76.3438 663.277 76.4317 665.551 73.9063C667.825 71.381 667.377 68.6774 664.224 65.8385C661.071 62.9996 658.334 62.8077 656.046 65.3484C653.772 67.8737 654.165 70.6385 657.333 73.4912ZM673.339 80.8353C674.092 81.5688 675.976 83.2929 677.965 85.0844C679.986 86.9035 681.463 86.9865 682.552 85.7774C683.806 84.3846 683.336 83.2134 681.178 81.2703C680.29 80.471 677.843 78.2951 676.592 77.2524C675.475 78.463 674.372 79.6874 673.339 80.8353ZM679.154 88.0117L679.113 88.0576C680.833 89.9945 681.141 91.1304 680.235 93.3362C679.652 94.723 679.169 95.8128 678.984 96.4496L676.535 94.2447C676.045 93.8037 676.122 93.5955 676.782 92.2776C678.004 89.4427 678.154 88.6911 676.058 86.8031L671.604 82.7929C670.229 84.3816 669.048 85.7851 668.286 86.8167L665.515 84.3224C667.033 82.6679 668.51 81.0884 670.729 78.6242C672.92 76.1907 674.393 74.5239 675.851 72.8434L683.641 79.8579C686.81 82.7105 687.602 85.3086 685.466 87.6809C683.73 89.6094 681.739 89.7574 679.154 88.0117ZM691.574 87.0002L703.451 97.6942C703.229 97.91 702.857 98.3233 702.567 98.6447C702.264 98.9814 701.851 99.4406 701.645 99.6992C698.719 97.0089 694.922 93.5621 692.519 91.3985L689.983 94.2147C692.861 96.8055 696.626 100.196 699.01 102.287C698.609 102.702 697.727 103.682 697.314 104.141C695.015 102.015 691.247 98.5671 688.385 95.9901L685.808 98.8522C688.226 101.03 692.158 104.542 695.017 107.061C694.767 107.307 694.354 107.767 694.023 108.134C693.734 108.455 693.334 108.899 693.115 109.173L681.238 98.4792C682.636 97.0497 684.262 95.2437 686.467 92.7948C688.658 90.3613 690.353 88.4787 691.574 87.0002ZM706.416 100.364L718.063 110.852C717.786 111.129 717.399 111.528 717.082 111.88C716.71 112.293 716.312 112.766 716.038 113.101C712.807 110.165 709.622 107.269 707.066 104.968C706.101 106.039 704.971 107.294 704.199 108.151L703.91 108.473C707.032 111.284 710.124 114.068 712.813 116.406C712.286 116.929 711.377 117.939 710.894 118.475C708.277 116.119 705.198 113.29 702.106 110.507C700.895 111.883 699.671 113.303 698.835 114.324L696.08 111.843C697.53 110.294 699.103 108.579 701.294 106.145C703.485 103.712 705.07 101.951 706.416 100.364ZM718.268 121.29C719.021 122.023 720.905 123.748 722.895 125.539C724.915 127.358 726.392 127.441 727.481 126.232C728.735 124.839 728.266 123.668 726.107 121.725C725.22 120.926 722.772 118.75 721.522 117.707C720.404 118.918 719.302 120.142 718.268 121.29ZM724.084 128.466L724.042 128.512C725.763 130.449 726.07 131.585 725.165 133.791C724.581 135.178 724.099 136.268 723.913 136.904L721.465 134.699C720.975 134.258 721.051 134.05 721.711 132.732C722.934 129.897 723.084 129.146 720.987 127.258L716.533 123.248C715.158 124.836 713.978 126.24 713.215 127.271L710.445 124.777C711.962 123.123 713.44 121.543 715.659 119.079C717.85 116.645 719.323 114.979 720.78 113.298L728.571 120.313C731.739 123.165 732.531 125.763 730.395 128.136C728.659 130.064 726.669 130.212 724.084 128.466ZM745.261 145.594C741.774 149.466 737.162 149.387 732.31 145.019C727.473 140.664 726.928 136.099 730.414 132.227C733.942 128.308 738.529 128.724 743.197 132.928C747.88 137.145 748.789 141.676 745.261 145.594ZM734.323 142.813C737.492 145.666 740.267 145.754 742.541 143.228C744.815 140.703 744.367 137.999 741.214 135.161C738.061 132.322 735.324 132.13 733.036 134.67C730.762 137.196 731.155 139.961 734.323 142.813ZM763.585 151.84L766.095 154.1C764.852 155.419 763.087 157.349 760.895 159.783C758.621 162.308 757.092 164.007 755.744 165.565L753.005 163.098C753.2 161.25 752.909 154.864 752.695 150.238C752.666 149.131 752.68 148.007 752.774 147.011C752.022 147.969 751.254 148.884 750.512 149.769C747.715 152.876 745.786 155.018 745.046 155.932L742.49 153.631C743.87 152.129 745.499 150.381 747.704 147.932C749.895 145.499 751.549 143.662 752.826 142.152L755.979 144.991C755.805 146.414 756.214 153.378 756.306 157.646C756.328 158.607 756.278 159.616 756.108 160.544L756.153 160.556C756.848 159.63 757.574 158.732 758.276 157.951C760.481 155.502 762.752 152.919 763.585 151.84ZM768.009 155.823L780.101 166.71C779.823 166.987 779.438 167.416 779.079 167.814C778.748 168.181 778.321 168.655 778.061 168.975C776.405 167.429 774.766 165.925 773.358 164.657C769.499 168.943 765.89 172.982 765.052 173.974C764.728 173.626 764.131 173.089 763.733 172.73C763.335 172.372 762.769 171.862 762.359 171.548C763.273 170.625 766.899 166.629 770.771 162.328C769.348 161.047 767.681 159.574 765.97 158.088C766.261 157.796 766.688 157.322 767.019 156.954C767.377 156.556 767.749 156.143 768.009 155.823Z" fill="black"/>
<path d="M802.726 200.8L802.451 201.106C801.279 202.407 801.852 203.865 804.744 206.469C807.729 209.156 808.966 209.383 809.806 208.45C810.661 207.501 810.416 206.449 807.071 202.993C802.675 198.426 802.383 196.195 804.244 194.129C806.145 192.017 809.109 192.357 813.471 196.285C818.108 200.461 818.781 203.006 816.714 205.302C816.494 205.547 816.287 205.777 816.038 206.023C815.76 205.746 815.3 205.303 814.825 204.876C814.336 204.435 813.832 204.01 813.527 203.763C813.681 203.624 813.846 203.44 813.956 203.318C814.948 202.216 814.708 200.974 811.632 198.204C808.923 195.765 807.7 195.523 806.928 196.38C806.211 197.176 806.201 198.08 809.75 201.803C813.858 206.167 814.471 208.409 812.459 210.644C810.378 212.955 807.457 212.598 802.942 208.532C798.243 204.302 797.322 201.477 799.403 199.166C799.638 198.906 799.858 198.661 800.137 198.413C800.432 198.762 800.893 199.204 801.367 199.632C801.872 200.086 802.347 200.514 802.726 200.8ZM814.86 218.792L812.135 216.339C813.78 214.605 815.158 213.074 817.349 210.641C819.554 208.192 820.932 206.661 822.471 204.86L825.195 207.313C823.563 209.003 822.2 210.547 819.995 212.996C817.818 215.414 816.411 216.946 814.86 218.792ZM836.896 227.548C833.492 231.882 830.369 233.227 824.491 227.935C819.808 223.718 819.039 219.063 822.539 215.175C826.136 211.181 830.658 211.76 835.234 215.881C839.78 219.974 840.535 223.536 838.317 226C838.165 226.169 838.055 226.291 837.874 226.461C837.597 226.184 837.121 225.728 836.647 225.3C836.111 224.818 835.621 224.377 835.288 224.132C835.384 224.025 835.496 223.932 835.579 223.84C836.86 222.416 836.195 220.57 833.317 217.979C830.302 215.264 827.671 214.863 825.19 217.618C822.806 220.265 823.213 223.015 826.427 225.909C829.381 228.569 831.215 228.779 833.038 226.846C831.492 225.454 829.152 223.374 827.808 222.22C827.975 222.065 828.278 221.729 828.43 221.56C828.747 221.208 829.023 220.902 829.228 220.643C830.714 222.009 832.26 223.401 833.377 224.407C834.311 225.248 835.628 226.462 836.896 227.548ZM855.337 234.452L857.847 236.712C856.604 238.032 854.838 239.962 852.647 242.395C850.373 244.921 848.843 246.619 847.496 248.177L844.756 245.711C844.951 243.863 844.66 237.476 844.447 232.85C844.418 231.743 844.432 230.62 844.526 229.623C843.774 230.581 843.005 231.496 842.264 232.381C839.466 235.488 837.537 237.631 836.797 238.545L834.241 236.243C835.621 234.742 837.25 232.994 839.455 230.545C841.646 228.111 843.3 226.275 844.577 224.764L847.73 227.603C847.557 229.027 847.965 235.991 848.058 240.259C848.079 241.22 848.03 242.229 847.86 243.156L847.904 243.169C848.599 242.243 849.325 241.344 850.028 240.564C852.233 238.115 854.504 235.531 855.337 234.452ZM856.46 249.181L856.184 249.488C855.013 250.788 855.585 252.246 858.477 254.851C861.462 257.538 862.699 257.765 863.539 256.831C864.394 255.882 864.149 254.83 860.804 251.375C856.408 246.807 856.116 244.577 857.977 242.51C859.878 240.398 862.842 240.739 867.204 244.666C871.841 248.842 872.514 251.388 870.447 253.684C870.227 253.929 870.02 254.158 869.771 254.405C869.493 254.127 869.033 253.685 868.558 253.258C868.069 252.817 867.565 252.391 867.26 252.144C867.414 252.005 867.579 251.822 867.689 251.699C868.681 250.597 868.441 249.356 865.365 246.586C862.656 244.146 861.433 243.904 860.661 244.761C859.945 245.557 859.934 246.462 863.483 250.184C867.591 254.548 868.204 256.791 866.192 259.025C864.111 261.336 861.19 260.979 856.675 256.914C851.976 252.683 851.055 249.858 853.136 247.547C853.371 247.287 853.591 247.042 853.87 246.794C854.165 247.143 854.626 247.586 855.1 248.013C855.605 248.468 856.08 248.895 856.46 249.181Z" fill="black"/>
<path d="M235.185 306.269L207.891 285.04C203.408 281.554 197.13 281.554 192.647 285.04L165.354 306.269" stroke="black" stroke-width="12.4144" stroke-linecap="round" stroke-linejoin="round"/>
<path d="M947.46 306.269L920.166 285.04C915.683 281.554 909.406 281.554 904.923 285.04L877.629 306.269" stroke="black" stroke-width="12.4144" stroke-linecap="round" stroke-linejoin="round"/>
<path d="M165.354 312.476H6.29297C2.86482 312.476 0.0859375 309.697 0.0859375 306.269C0.0859375 302.84 2.86482 300.062 6.29297 300.062H165.354V312.476ZM877.629 312.476H235.185V300.062H877.629V312.476ZM1105.29 300.069C1108.57 300.236 1111.18 302.948 1111.18 306.269C1111.18 309.589 1108.57 312.301 1105.29 312.468L1104.97 312.476H947.46V300.062H1104.97L1105.29 300.069Z" fill="black"/>
</svg>
