<svg width="1112" height="801" viewBox="0 0 1112 801" fill="none" xmlns="http://www.w3.org/2000/svg">
<path d="M1106.86 312.833L1107.8 313.162L1107.8 313.162L1106.86 312.833ZM937.78 798.733V799.733H938.491L938.725 799.062L937.78 798.733ZM173.581 798.733L172.637 799.062L172.87 799.733H173.581V798.733ZM4.50586 312.833L3.56139 313.162L3.5614 313.162L4.50586 312.833ZM1100.99 304.586V305.586C1104.58 305.586 1107.09 309.121 1105.91 312.504L1106.86 312.833L1107.8 313.162C1109.43 308.478 1105.95 303.586 1100.99 303.586V304.586ZM1106.86 312.833L1105.91 312.504L936.836 798.405L937.78 798.733L938.725 799.062L1107.8 313.162L1106.86 312.833ZM937.78 798.733V797.733H173.581V798.733V799.733H937.78V798.733ZM173.581 798.733L174.526 798.405L5.45032 312.504L4.50586 312.833L3.5614 313.162L172.637 799.062L173.581 798.733ZM4.50586 312.833L5.45033 312.504C4.27301 309.121 6.78604 305.586 10.3691 305.586V304.586V303.586C5.41024 303.586 1.93176 308.478 3.56139 313.162L4.50586 312.833ZM10.3691 304.586V305.586H1100.99V304.586V303.586H10.3691V304.586Z" fill="black"/>
<path d="M43.8848 430.025H1068.07" stroke="black" stroke-width="2" stroke-linecap="round"/>
<path d="M97.8105 585.205H1014.15" stroke="black" stroke-width="2" stroke-linecap="round"/>
<path d="M151.734 740.386H960.223" stroke="black" stroke-width="2" stroke-linecap="round"/>
<line x1="198.164" y1="304.329" x2="198.164" y2="798.733" stroke="black" stroke-width="2"/>
<line x1="341.705" y1="304.329" x2="341.705" y2="798.733" stroke="black" stroke-width="2"/>
<line x1="485.248" y1="304.329" x2="485.248" y2="798.733" stroke="black" stroke-width="2"/>
<line x1="628.789" y1="304.329" x2="628.789" y2="798.733" stroke="black" stroke-width="2"/>
<line x1="772.33" y1="304.329" x2="772.33" y2="798.733" stroke="black" stroke-width="2"/>
<line x1="915.873" y1="304.329" x2="915.873" y2="798.733" stroke="black" stroke-width="2"/>
<path d="M225.482 267.862C189.791 270.578 186.686 305.882 200.265 295.795C313.227 192.731 385.66 126.645 483.76 37.1411C493.246 28.4867 505.644 23.6699 518.484 23.6699H590.445C603.285 23.6699 615.663 28.4678 625.148 37.1222L908.664 295.795C922.243 305.882 919.138 270.578 883.447 267.862" stroke="black" stroke-width="2" stroke-linecap="round" stroke-linejoin="round"/>
<rect width="154.298" height="42.2977" transform="translate(234.152 228.764) rotate(-42)" fill="#EEEEEE"/>
<path d="M259.807 241.857L260.083 242.164C261.254 243.464 262.763 243.048 265.656 240.443C268.64 237.756 268.995 236.549 268.155 235.616C267.3 234.667 266.229 234.8 262.442 237.766C257.44 241.66 255.191 241.718 253.331 239.651C251.429 237.539 252.078 234.627 256.44 230.7C261.077 226.524 263.679 226.121 265.747 228.417C265.967 228.662 266.174 228.891 266.393 229.165C266.088 229.412 265.6 229.824 265.126 230.251C264.636 230.692 264.16 231.148 263.883 231.425C263.76 231.259 263.595 231.075 263.485 230.952C262.492 229.85 261.233 229.959 258.156 232.729C255.447 235.169 255.078 236.36 255.85 237.217C256.567 238.013 257.465 238.118 261.538 234.977C266.308 231.348 268.602 230.973 270.614 233.207C272.695 235.518 272.034 238.386 267.519 242.451C262.821 246.682 259.915 247.303 257.834 244.991C257.6 244.731 257.38 244.486 257.162 244.183C257.54 243.926 258.028 243.514 258.503 243.087C259.008 242.632 259.482 242.205 259.807 241.857ZM280.867 217.713L280.632 217.452C279.061 215.708 277.009 216.198 274.116 218.803C271.174 221.507 270.475 223.993 272.818 226.595C275.188 229.227 277.976 228.907 280.991 226.192C283.991 223.491 284.341 221.541 282.935 219.979L282.646 219.658C283.104 219.274 283.517 218.902 283.961 218.502C284.405 218.102 284.848 217.703 285.263 217.301C285.415 217.47 285.554 217.594 285.706 217.762C288.159 220.486 287.962 223.961 283.018 228.413C278.243 232.712 273.873 233.183 270.179 229.082C266.61 225.117 267.659 220.681 272.22 216.574C276.72 212.523 280.395 211.957 282.904 214.742C283.096 214.957 283.276 215.156 283.453 215.384C283.011 215.754 282.567 216.154 282.139 216.54C281.695 216.939 281.281 217.311 280.867 217.713ZM281.945 208.206L293.822 197.512C294.014 197.755 294.386 198.168 294.675 198.49C294.978 198.826 295.392 199.285 295.628 199.517C292.646 202.146 288.821 205.562 286.418 207.725L288.954 210.542C291.831 207.951 295.597 204.561 297.926 202.408C298.297 202.85 299.179 203.83 299.592 204.289C297.238 206.353 293.415 209.74 290.553 212.317L293.13 215.179C295.548 213.002 299.452 209.458 302.256 206.878C302.475 207.152 302.889 207.611 303.219 207.979C303.509 208.3 303.908 208.744 304.158 208.99L292.281 219.685C291.006 218.145 289.379 216.339 287.174 213.89C284.983 211.456 283.288 209.574 281.945 208.206ZM307.563 185.14L310.073 182.88C311.255 184.254 312.99 186.212 315.181 188.645C317.455 191.17 318.984 192.869 320.393 194.372L317.653 196.839C315.836 196.452 309.454 196.074 304.831 195.803C303.727 195.716 302.611 195.584 301.63 195.387C302.504 196.235 303.334 197.095 304.136 197.924C306.934 201.031 308.863 203.174 309.695 204.005L307.139 206.307C305.79 204.778 304.222 202.975 302.017 200.526C299.826 198.092 298.172 196.256 296.803 194.828L299.956 191.989C301.354 192.31 308.322 192.631 312.576 192.986C313.535 193.065 314.533 193.219 315.438 193.486L315.454 193.443C314.606 192.654 313.789 191.839 313.086 191.058C310.881 188.609 308.549 186.081 307.563 185.14ZM313.318 179.957L325.195 169.263C325.387 169.507 325.759 169.92 326.048 170.241C326.351 170.578 326.765 171.037 327.001 171.268C324.019 173.897 320.194 177.313 317.791 179.477L320.327 182.293C323.204 179.702 326.969 176.312 329.299 174.159C329.67 174.602 330.551 175.581 330.965 176.04C328.611 178.105 324.788 181.492 321.926 184.069L324.503 186.931C326.921 184.753 330.825 181.21 333.629 178.63C333.848 178.904 334.262 179.363 334.592 179.731C334.882 180.052 335.281 180.496 335.531 180.742L323.654 191.436C322.378 189.896 320.752 188.09 318.547 185.642C316.356 183.208 314.661 181.326 313.318 179.957ZM335.877 169.9C336.685 169.227 338.597 167.534 340.586 165.742C342.607 163.923 342.843 162.463 341.755 161.254C340.501 159.861 339.287 160.206 337.129 162.149C336.241 162.948 333.821 165.154 332.654 166.289C333.741 167.527 334.843 168.752 335.877 169.9ZM343.622 164.866L343.663 164.912C345.769 163.404 346.931 163.217 349.03 164.347C350.348 165.073 351.382 165.666 351.996 165.917L349.547 168.122C349.057 168.563 348.858 168.465 347.616 167.671C344.925 166.159 344.193 165.931 342.096 167.819L337.642 171.83C339.079 173.363 340.351 174.684 341.297 175.55L338.527 178.045C337.04 176.363 335.624 174.728 333.405 172.264C331.214 169.83 329.71 168.191 328.191 166.566L335.982 159.551C339.15 156.698 341.816 156.182 343.952 158.554C345.689 160.483 345.628 162.477 343.622 164.866ZM352.963 144.261L356.208 141.339C356.319 144.786 357.016 152.085 357.424 154.877C358.829 156.439 360.114 157.804 360.543 158.249C360.148 158.549 359.597 159.045 359.153 159.445C358.694 159.859 358.143 160.355 357.788 160.73C357.405 160.243 356.168 158.807 354.776 157.262C352.061 156.463 344.803 154.989 341.439 154.638L344.943 151.482C345.977 151.798 349.149 152.49 351.205 153.049C352.473 153.349 353.436 153.618 354.167 153.846L354.32 153.709C354.167 153.015 353.997 152.088 353.845 150.811C353.534 148.68 353.203 145.265 352.963 144.261Z" fill="black"/>
<rect width="134.298" height="42.2977" transform="translate(373.689 103.124) rotate(-42)" fill="#EEEEEE"/>
<path d="M412.993 107.392C414.784 105.78 415.143 104.763 414.068 103.57C413.131 102.529 412.026 102.748 410.113 104.471C408.705 105.738 406.96 107.309 405.212 108.939C406.177 110.01 407.114 111.051 407.93 111.896C409.993 110.093 411.6 108.646 412.993 107.392ZM409.772 99.0132C408.835 97.9724 407.772 98.2084 406.043 99.7657C404.528 101.13 402.904 102.62 401.066 104.303C401.795 105.143 402.732 106.184 403.71 107.27C405.587 105.692 407.212 104.173 408.666 102.863C410.443 101.236 410.695 100.039 409.772 99.0132ZM411.568 101.747L411.637 101.823C412.26 101.346 412.805 100.966 413.312 100.759C414.848 100.096 416.03 100.362 417.202 101.663C419.131 103.806 418.504 106.033 415.657 108.596L407.055 116.341C405.699 114.681 404.155 112.967 401.964 110.533C399.773 108.099 398.161 106.309 396.72 104.862L405.138 97.2828C408.061 94.6507 410.239 94.269 412.1 96.3352C413.23 97.5903 413.408 98.6496 412.874 99.9341C412.641 100.476 412.186 101.079 411.568 101.747ZM412.25 90.8789L424.127 80.1849C424.318 80.4282 424.69 80.8415 424.98 81.1629C425.283 81.4996 425.696 81.9587 425.932 82.1898C422.951 84.819 419.126 88.2351 416.723 90.3987L419.259 93.2149C422.136 90.6241 425.901 87.234 428.231 85.0811C428.601 85.5234 429.483 86.503 429.897 86.9621C427.543 89.0262 423.719 92.4133 420.857 94.9903L423.434 97.8524C425.853 95.675 429.757 92.1318 432.561 89.5517C432.78 89.8257 433.193 90.2848 433.524 90.6522C433.813 90.9736 434.213 91.4174 434.463 91.6638L422.586 102.358C421.31 100.818 419.684 99.0121 417.479 96.5633C415.288 94.1297 413.593 92.2472 412.25 90.8789ZM437.852 67.8268L440.622 65.3324C441.967 66.9487 443.536 68.7226 445.714 71.1408C447.905 73.5744 449.408 75.2135 450.958 76.8114L448.188 79.3058C447.16 78.0415 445.398 76.0533 444.199 74.7218C442.933 75.7783 441.493 77.1028 440.085 78.3707C438.692 79.6248 437.239 80.9049 436.056 82.0533C437.255 83.3848 439.062 85.3607 440.183 86.5132L437.428 88.9938C436.016 87.2719 434.513 85.6327 432.321 83.1992C430.144 80.7809 428.574 79.007 427.092 77.5148L429.847 75.0342C430.821 76.2081 432.652 78.2728 433.92 79.6809C435.186 78.6244 436.625 77.329 438.018 76.0749C439.426 74.807 440.88 73.4979 442.063 72.3495C440.795 70.9414 438.933 68.9042 437.852 67.8268ZM456.923 71.4406L454.198 73.8936C452.646 72.0768 451.268 70.5463 449.077 68.1128C446.872 65.6639 445.493 64.1334 443.863 62.4146L446.587 59.9616C448.097 61.7615 449.49 63.2783 451.695 65.7271C453.873 68.1454 455.249 69.705 456.923 71.4406ZM460.616 47.3299L463.126 45.0699C464.308 46.4443 466.043 48.4019 468.234 50.8354C470.508 53.3608 472.038 55.0597 473.446 56.5626L470.707 59.0294C468.89 58.6425 462.507 58.2643 457.884 57.9929C456.781 57.9058 455.664 57.7744 454.683 57.5772C455.557 58.4251 456.387 59.2852 457.19 60.1148C459.987 63.2217 461.917 65.3645 462.748 66.1955L460.192 68.497C458.843 66.968 457.275 65.165 455.07 62.7161C452.879 60.2826 451.225 58.4459 449.856 57.018L453.009 54.1791C454.407 54.5003 461.375 54.8217 465.63 55.1759C466.588 55.2553 467.586 55.4097 468.491 55.6759L468.508 55.633C467.659 54.8448 466.842 54.029 466.139 53.2485C463.934 50.7996 461.602 48.2712 460.616 47.3299ZM481.297 45.6422C484.067 43.1478 484.529 41.0137 482.034 38.2435C479.595 35.5344 477.625 35.8395 474.793 38.389C473.401 39.6431 472.144 40.8022 470.993 41.8939C471.982 43.0541 473.18 44.4147 474.255 45.6085C475.674 47.185 476.611 48.2258 477.384 49.0538C478.86 47.8915 479.797 46.9927 481.297 45.6422ZM466.341 42.1751L472.983 36.1942C477.759 31.8945 481.084 31.8938 484.625 35.8272C488.236 39.8372 488.156 43.3184 483.289 47.7007L476.677 53.6541C475.289 52.021 473.76 50.3221 471.569 47.8886C469.377 45.455 467.71 43.6031 466.341 42.1751Z" fill="black"/>
<rect width="73.2977" height="42.2977" transform="translate(519.322 0.5)" fill="#EEEEEE"/>
<path d="M541.478 17.2019H544.856C544.815 19.0143 544.794 21.6299 544.794 24.9046C544.794 28.3028 544.794 30.5889 544.835 32.6484H541.149C540.057 31.145 535.567 26.5934 532.313 23.2982C531.551 22.4949 530.81 21.6505 530.213 20.8473C530.295 22.0624 530.336 23.257 530.377 24.4103C530.377 28.5912 530.377 31.4745 530.439 32.6484H527C527.02 30.6095 527.062 28.2204 527.062 24.9252C527.062 21.6505 527.062 19.1791 527 17.2019H531.242C532.066 18.3759 537.03 23.2776 539.954 26.3875C540.613 27.0877 541.252 27.8703 541.746 28.6735L541.787 28.6529C541.684 27.4996 541.623 26.3463 541.623 25.2959C541.623 22.0006 541.581 18.5612 541.478 17.2019ZM562.487 17.2019H566.853C564.629 19.8381 560.262 25.7284 558.697 28.0763C558.697 30.177 558.738 32.0512 558.759 32.669C558.265 32.6278 557.523 32.6278 556.926 32.6278C556.308 32.6278 555.567 32.6278 555.052 32.669C555.093 32.0512 555.134 30.1564 555.134 28.0763C553.651 25.6666 549.244 19.7146 546.978 17.2019H551.695C552.251 18.1287 554.146 20.7649 555.299 22.5567C556.04 23.6277 556.576 24.4721 556.967 25.1311H557.173C557.523 24.5133 558.018 23.7101 558.759 22.6597C559.953 20.8679 561.992 18.1081 562.487 17.2019ZM582.145 23.5453V23.1952C582.145 20.8473 580.291 19.8381 576.399 19.8381C572.403 19.8793 570.22 21.2592 570.22 24.7604C570.22 28.3028 572.506 29.9299 576.563 29.9299C580.6 29.9299 582.165 28.7147 582.165 26.614V26.1815C582.762 26.2021 583.319 26.2021 583.916 26.2021C584.513 26.2021 585.11 26.2021 585.687 26.1815C585.687 26.4081 585.708 26.5934 585.708 26.82C585.708 30.4859 583.236 32.9368 576.584 32.9368C570.158 32.9368 566.595 30.3624 566.595 24.8428C566.595 19.5086 570.344 16.9136 576.481 16.9136C582.536 16.9136 585.646 18.9525 585.646 22.7009C585.646 22.9892 585.646 23.257 585.625 23.5453C585.049 23.5247 584.451 23.5247 583.875 23.5247C583.277 23.5247 582.721 23.5247 582.145 23.5453Z" fill="black"/>
<rect width="213.298" height="42.2977" transform="translate(638.223 16.5869) rotate(42)" fill="#EEEEEE"/>
<path d="M628.199 43.7555L627.924 44.0616C626.752 45.3625 627.324 46.82 630.217 49.4246C633.202 52.1119 634.439 52.3387 635.279 51.4051C636.134 50.4562 635.889 49.4045 632.543 45.9486C628.148 41.3811 627.856 39.1506 629.716 37.0844C631.618 34.9723 634.582 35.3128 638.944 39.2404C643.581 43.416 644.254 45.9619 642.187 48.2577C641.967 48.5026 641.76 48.7322 641.51 48.9786C641.233 48.7015 640.773 48.2589 640.298 47.8317C639.808 47.3907 639.305 46.9651 639 46.7185C639.153 46.5793 639.319 46.3956 639.429 46.2731C640.421 45.1712 640.181 43.9296 637.105 41.1596C634.396 38.7204 633.173 38.4782 632.401 39.3353C631.684 40.1312 631.673 41.0359 635.223 44.7582C639.33 49.122 639.944 51.3648 637.932 53.5994C635.851 55.9105 632.93 55.5532 628.415 51.4878C623.716 47.257 622.795 44.4324 624.876 42.1213C625.11 41.8611 625.331 41.6162 625.61 41.3683C625.905 41.7174 626.366 42.1599 626.84 42.5871C627.345 43.0419 627.82 43.4691 628.199 43.7555ZM646.582 46.5888L658.673 57.4758C658.396 57.7528 658.01 58.1813 657.652 58.5793C657.321 58.9466 656.894 59.4211 656.633 59.741C654.977 58.1944 653.338 56.6908 651.93 55.423C648.071 59.7084 644.462 63.7475 643.625 64.7393C643.3 64.3917 642.703 63.8543 642.305 63.496C641.907 63.1377 641.341 62.6278 640.931 62.3139C641.845 61.391 645.471 57.3948 649.343 53.094C647.92 51.8123 646.253 50.3393 644.542 48.854C644.833 48.5617 645.26 48.0872 645.591 47.7199C645.949 47.3219 646.321 46.9087 646.582 46.5888ZM669.271 77.2721C665.784 81.1443 661.172 81.0652 656.32 76.6967C651.483 72.3419 650.938 67.7768 654.425 63.9046C657.952 59.9864 662.539 60.4023 667.207 64.6055C671.89 68.8225 672.799 73.3539 669.271 77.2721ZM658.333 74.4912C661.502 77.3438 664.277 77.4317 666.551 74.9063C668.825 72.381 668.377 69.6774 665.224 66.8385C662.071 63.9996 659.334 63.8077 657.046 66.3484C654.772 68.8737 655.165 71.6385 658.333 74.4912ZM674.339 81.8353C675.092 82.5688 676.976 84.2929 678.965 86.0844C680.986 87.9035 682.463 87.9865 683.552 86.7774C684.806 85.3846 684.336 84.2134 682.178 82.2703C681.29 81.471 678.843 79.2951 677.592 78.2524C676.475 79.463 675.372 80.6874 674.339 81.8353ZM680.154 89.0117L680.113 89.0576C681.833 90.9945 682.141 92.1304 681.235 94.3362C680.652 95.723 680.169 96.8128 679.984 97.4496L677.535 95.2447C677.045 94.8037 677.122 94.5955 677.782 93.2776C679.004 90.4427 679.154 89.6911 677.058 87.8031L672.604 83.7929C671.229 85.3816 670.048 86.7851 669.286 87.8167L666.515 85.3224C668.033 83.6679 669.51 82.0884 671.729 79.6242C673.92 77.1907 675.393 75.5239 676.851 73.8434L684.641 80.8579C687.81 83.7105 688.602 86.3086 686.466 88.6809C684.73 90.6094 682.739 90.7574 680.154 89.0117ZM692.574 88.0002L704.451 98.6942C704.229 98.91 703.857 99.3233 703.567 99.6447C703.264 99.9814 702.851 100.441 702.645 100.699C699.719 98.0089 695.922 94.5621 693.519 92.3985L690.983 95.2147C693.861 97.8055 697.626 101.196 700.01 103.287C699.609 103.702 698.727 104.682 698.314 105.141C696.015 103.015 692.247 99.5671 689.385 96.9901L686.808 99.8522C689.226 102.03 693.158 105.542 696.017 108.061C695.767 108.307 695.354 108.767 695.023 109.134C694.734 109.455 694.334 109.899 694.115 110.173L682.238 99.4792C683.636 98.0497 685.262 96.2437 687.467 93.7948C689.658 91.3613 691.353 89.4787 692.574 88.0002ZM707.416 101.364L719.063 111.852C718.786 112.129 718.399 112.528 718.082 112.88C717.71 113.293 717.312 113.766 717.038 114.101C713.807 111.165 710.622 108.269 708.066 105.968C707.101 107.039 705.971 108.294 705.199 109.151L704.91 109.473C708.032 112.284 711.124 115.068 713.813 117.406C713.286 117.929 712.377 118.939 711.894 119.475C709.277 117.119 706.198 114.29 703.106 111.507C701.895 112.883 700.671 114.303 699.835 115.324L697.08 112.843C698.53 111.294 700.103 109.579 702.294 107.145C704.485 104.712 706.07 102.951 707.416 101.364ZM719.268 122.29C720.021 123.023 721.905 124.748 723.895 126.539C725.915 128.358 727.392 128.441 728.481 127.232C729.735 125.839 729.266 124.668 727.107 122.725C726.22 121.926 723.772 119.75 722.522 118.707C721.404 119.918 720.302 121.142 719.268 122.29ZM725.084 129.466L725.042 129.512C726.763 131.449 727.07 132.585 726.165 134.791C725.581 136.178 725.099 137.268 724.913 137.904L722.465 135.699C721.975 135.258 722.051 135.05 722.711 133.732C723.934 130.897 724.084 130.146 721.987 128.258L717.533 124.248C716.158 125.836 714.978 127.24 714.215 128.271L711.445 125.777C712.962 124.123 714.44 122.543 716.659 120.079C718.85 117.645 720.323 115.979 721.78 114.298L729.571 121.313C732.739 124.165 733.531 126.763 731.395 129.136C729.659 131.064 727.669 131.212 725.084 129.466ZM746.261 146.594C742.774 150.466 738.162 150.387 733.31 146.019C728.473 141.664 727.928 137.099 731.414 133.227C734.942 129.308 739.529 129.724 744.197 133.928C748.88 138.145 749.789 142.676 746.261 146.594ZM735.323 143.813C738.492 146.666 741.267 146.754 743.541 144.228C745.815 141.703 745.367 138.999 742.214 136.161C739.061 133.322 736.324 133.13 734.036 135.67C731.762 138.196 732.155 140.961 735.323 143.813ZM764.585 152.84L767.095 155.1C765.852 156.419 764.087 158.349 761.895 160.783C759.621 163.308 758.092 165.007 756.744 166.565L754.005 164.098C754.2 162.25 753.909 155.864 753.695 151.238C753.666 150.131 753.68 149.007 753.774 148.011C753.022 148.969 752.254 149.884 751.512 150.769C748.715 153.876 746.786 156.018 746.046 156.932L743.49 154.631C744.87 153.129 746.499 151.381 748.704 148.932C750.895 146.499 752.549 144.662 753.826 143.152L756.979 145.991C756.805 147.414 757.214 154.378 757.306 158.646C757.328 159.607 757.278 160.616 757.108 161.544L757.153 161.556C757.848 160.63 758.574 159.732 759.276 158.951C761.481 156.502 763.752 153.919 764.585 152.84ZM769.009 156.823L781.101 167.71C780.823 167.987 780.438 168.416 780.079 168.814C779.748 169.181 779.321 169.655 779.061 169.975C777.405 168.429 775.766 166.925 774.358 165.657C770.499 169.943 766.89 173.982 766.052 174.974C765.728 174.626 765.131 174.089 764.733 173.73C764.335 173.372 763.769 172.862 763.359 172.548C764.273 171.625 767.899 167.629 771.771 163.328C770.348 162.047 768.681 160.574 766.97 159.088C767.261 158.796 767.688 158.322 768.019 157.954C768.377 157.556 768.749 157.143 769.009 156.823Z" fill="black"/>
<rect width="103.298" height="42.2977" transform="translate(813.953 174.814) rotate(42)" fill="#EEEEEE"/>
<path d="M803.726 201.8L803.451 202.106C802.279 203.407 802.852 204.865 805.744 207.469C808.729 210.156 809.966 210.383 810.806 209.45C811.661 208.501 811.416 207.449 808.071 203.993C803.675 199.426 803.383 197.195 805.244 195.129C807.145 193.017 810.109 193.357 814.471 197.285C819.108 201.461 819.781 204.006 817.714 206.302C817.494 206.547 817.287 206.777 817.038 207.023C816.76 206.746 816.3 206.303 815.825 205.876C815.336 205.435 814.832 205.01 814.527 204.763C814.681 204.624 814.846 204.44 814.956 204.318C815.948 203.216 815.708 201.974 812.632 199.204C809.923 196.765 808.7 196.523 807.928 197.38C807.211 198.176 807.201 199.08 810.75 202.803C814.858 207.167 815.471 209.409 813.459 211.644C811.378 213.955 808.457 213.598 803.942 209.532C799.243 205.302 798.322 202.477 800.403 200.166C800.638 199.906 800.858 199.661 801.137 199.413C801.432 199.762 801.893 200.204 802.367 200.632C802.872 201.086 803.347 201.514 803.726 201.8ZM815.86 219.792L813.135 217.339C814.78 215.605 816.158 214.074 818.349 211.641C820.554 209.192 821.932 207.661 823.471 205.86L826.195 208.313C824.563 210.003 823.2 211.547 820.995 213.996C818.818 216.414 817.411 217.946 815.86 219.792ZM837.896 228.548C834.492 232.882 831.369 234.227 825.491 228.935C820.808 224.718 820.039 220.063 823.539 216.175C827.136 212.181 831.658 212.76 836.234 216.881C840.78 220.974 841.535 224.536 839.317 227C839.165 227.169 839.055 227.291 838.874 227.461C838.597 227.184 838.121 226.728 837.647 226.3C837.111 225.818 836.621 225.377 836.288 225.132C836.384 225.025 836.496 224.932 836.579 224.84C837.86 223.416 837.195 221.57 834.317 218.979C831.302 216.264 828.671 215.863 826.19 218.618C823.806 221.265 824.213 224.015 827.427 226.909C830.381 229.569 832.215 229.779 834.038 227.846C832.492 226.454 830.152 224.374 828.808 223.22C828.975 223.065 829.278 222.729 829.43 222.56C829.747 222.208 830.023 221.902 830.228 221.643C831.714 223.009 833.26 224.401 834.377 225.407C835.311 226.248 836.628 227.462 837.896 228.548ZM856.337 235.452L858.847 237.712C857.604 239.032 855.838 240.962 853.647 243.395C851.373 245.921 849.843 247.619 848.496 249.177L845.756 246.711C845.951 244.863 845.66 238.476 845.447 233.85C845.418 232.743 845.432 231.62 845.526 230.623C844.774 231.581 844.005 232.496 843.264 233.381C840.466 236.488 838.537 238.631 837.797 239.545L835.241 237.243C836.621 235.742 838.25 233.994 840.455 231.545C842.646 229.111 844.3 227.275 845.577 225.764L848.73 228.603C848.557 230.027 848.965 236.991 849.058 241.259C849.079 242.22 849.03 243.229 848.86 244.156L848.904 244.169C849.599 243.243 850.325 242.344 851.028 241.564C853.233 239.115 855.504 236.531 856.337 235.452ZM857.46 250.181L857.184 250.488C856.013 251.788 856.585 253.246 859.477 255.851C862.462 258.538 863.699 258.765 864.539 257.831C865.394 256.882 865.149 255.83 861.804 252.375C857.408 247.807 857.116 245.577 858.977 243.51C860.878 241.398 863.842 241.739 868.204 245.666C872.841 249.842 873.514 252.388 871.447 254.684C871.227 254.929 871.02 255.158 870.771 255.405C870.493 255.127 870.033 254.685 869.558 254.258C869.069 253.817 868.565 253.391 868.26 253.144C868.414 253.005 868.579 252.822 868.689 252.699C869.681 251.597 869.441 250.356 866.365 247.586C863.656 245.146 862.433 244.904 861.661 245.761C860.945 246.557 860.934 247.462 864.483 251.184C868.591 255.548 869.204 257.791 867.192 260.025C865.111 262.336 862.19 261.979 857.675 257.914C852.976 253.683 852.055 250.858 854.136 248.547C854.371 248.287 854.591 248.042 854.87 247.794C855.165 248.143 855.626 248.586 856.1 249.013C856.605 249.468 857.08 249.895 857.46 250.181Z" fill="black"/>
<path d="M235.185 306.269L207.891 285.04C203.408 281.554 197.13 281.554 192.647 285.04L165.354 306.269" stroke="black" stroke-width="12.4144" stroke-linecap="round" stroke-linejoin="round"/>
<path d="M947.46 306.269L920.166 285.04C915.683 281.554 909.406 281.554 904.923 285.04L877.629 306.269" stroke="black" stroke-width="12.4144" stroke-linecap="round" stroke-linejoin="round"/>
<path d="M165.354 312.476H6.29297C2.86482 312.476 0.0859375 309.697 0.0859375 306.269C0.0859375 302.84 2.86482 300.062 6.29297 300.062H165.354V312.476ZM877.629 312.476H235.185V300.062H877.629V312.476ZM1105.29 300.069C1108.57 300.236 1111.18 302.948 1111.18 306.269C1111.18 309.589 1108.57 312.301 1105.29 312.468L1104.97 312.476H947.46V300.062H1104.97L1105.29 300.069Z" fill="black"/>
</svg>
