<svg width="257" height="145" viewBox="0 0 257 145" fill="none" xmlns="http://www.w3.org/2000/svg">
<path d="M128.5 0L143.576 18.7944L168.209 3.5484L172.253 24.0515L204.03 13.8463L196.647 34.0511L232.459 29.8856L214.371 47.8143L250.711 50.0963L223.688 63.9939L257 72.5L223.688 81.0061L250.711 94.9037L214.371 97.1857L232.459 115.114L196.647 110.949L204.03 131.154L172.253 120.948L168.209 141.452L143.576 126.206L128.5 145L113.424 126.206L88.7913 141.452L84.7467 120.948L52.9696 131.154L60.3526 110.949L24.5413 115.114L42.6292 97.1857L6.28924 94.9037L33.3115 81.0061L0 72.5L33.3115 63.9939L6.28924 50.0963L42.6292 47.8143L24.5413 29.8856L60.3526 34.0511L52.9696 13.8463L84.7467 24.0515L88.7913 3.5484L113.424 18.7944L128.5 0Z" fill="white"/>
</svg>
