<svg fill="none" height="480" viewBox="0 0 1280 480" width="1280" xmlns="http://www.w3.org/2000/svg"><g stroke="#000"><path d="m-.5 277.5h1281v161h-1281z"/><path d="m-.5 257.5h1281v201h-1281z"/><rect height="112" rx="1.5" width="319" x="866.5" y="145.5"/><rect height="66" rx="1.5" width="109" x="1076.5" y=".5"/><rect height="48" rx="1.5" width="93" x="1084.5" y="9.5"/><path d="m1144.5 66.5h79v23h-79z" transform="matrix(0 1 -1 0 1211 -1078)"/><path d="m302.454 134.98c.905.001 1.54.894 1.243 1.749l-35.853 120.634h-162.05l-35.8528-120.634c-.2971-.855.3374-1.748 1.2425-1.749z"/><path d="m78.1802 161.895h217.1808" stroke-linecap="round"/><path d="m87.9009 194.801 197.7401.279" stroke-linecap="round"/><path d="m97.0806 227.986 179.3804.004" stroke-linecap="round"/><path d="m111.5 134.355v123.008"/><path d="m141.938 134.355v123.008"/><path d="m172.376 134.355v123.008"/><path d="m202.815 134.355v123.008"/><path d="m233.253 134.355v123.008"/><path d="m263.691 134.355v123.008"/><path d="m116.798 127.194c-7.569.576-8.227 8.062-5.348 5.923l75.109-68.5272 75.109 68.5272c2.879 2.139 2.221-5.347-5.348-5.923" stroke-linecap="round" stroke-linejoin="round"/><path d="m224.116 98.8535-37.555-34.2637-37.554 34.2637" stroke-linecap="round" stroke-linejoin="round" stroke-width="3"/><path d="m118.856 135.339-5.788-4.502c-.951-.739-2.282-.739-3.232 0l-5.788 4.502" stroke-linecap="round" stroke-linejoin="round" stroke-width="3"/><path d="m269.894 135.339-5.788-4.502c-.951-.739-2.282-.739-3.232 0l-5.788 4.502" stroke-linecap="round" stroke-linejoin="round" stroke-width="3"/></g><path d="m104.045 136.652h-33.7281c-.727 0-1.3174-.589-1.3174-1.316s.5904-1.316 1.3174-1.316h33.7281zm151.041 0h-136.233v-2.632h136.233zm48.342-2.626c.663.068 1.182.629 1.182 1.31s-.519 1.242-1.182 1.31l-.135.006h-33.399v-2.632h33.399z" fill="#000"/></svg>