<svg fill="none" height="60" viewBox="0 0 187 60" width="187" xmlns="http://www.w3.org/2000/svg"><g fill="#000"><path d="m1.81739 39.4549c-.4698 0-.865422-.0928-1.186866-.2782-.321444-.1855-.506892-.3709-.5563447-.5564l-.0741793-.2781c1.49595-1.3847 2.24392-3.5792 2.24392-6.5834 0-2.5716-.2349-4.3643-.7047-5.378-.32144-.6677-.61816-1.1189-.890151-1.3538-.284354-.2473-.426531-.4327-.426531-.5564 0-.1112.067998-.2349.203993-.3709.135995-.1359.302899-.3214.50071-.5563.210179-.2473.414169-.5934.611979-1.0385.4698-1.0509.7047-2.6457.7047-4.7846 0-1.4341-.07418-2.5653-.22253-3.3937-.136-.8407-.36472-1.533-.68616-2.077-.32145-.544-.766522-1.0756-1.33523-1.5948 0-.4575.339988-.78511 1.01997-.98292.28435-.07418.66143-.11127 1.13123-.11127s.97669.15454 1.52068.46359c.55634.3091.95814.6182 1.20541.9273l.37089.4636c1.08797-1.2363 3.16499-1.85449 6.23102-1.85449 2.3367 0 4.0861.54399 5.2482 1.63199 1.496 1.3846 2.244 3.5358 2.244 6.4535 0 3.301.4821 5.4646 1.4465 6.4907.2225.2349.2225.4637 0 .6862-.1113.1236-.2473.3091-.408.5563-.1484.2473-.3029.5811-.4637 1.0015-.3832.989-.5748 2.757-.5748 5.3038 0 2.5344-.6553 4.4631-1.9658 5.786-1.2981 1.3228-3.0908 1.9843-5.378 1.9843-3.05371 0-5.18018-.7109-6.37942-2.1327-.53161.8778-1.25486 1.5145-2.16974 1.9101-.3709.1484-.79125.2226-1.26105.2226zm8.60481-3.4123c.8407 0 1.3785-.1298 1.6134-.3894.2473-.2597.4142-.476.5007-.6491.0989-.1854.1731-.4698.2225-.8531.0248-.2719.0433-.5934.0557-.9643.0247-.3832.0371-.816.0371-1.2981v-.2411c0-2.9301-.2349-4.8649-.7047-5.8045-.0866-.1731-.1731-.3277-.2597-.4637-.0741-.136-.1483-.2658-.2225-.3894-.1484-.2225-.2225-.4018-.2225-.5378 0-.1236.0494-.2534.1483-.3894s.2164-.3338.3524-.5935c.136-.2596.272-.6305.408-1.1127.3338-1.1745.5007-3.3133.5007-6.4165 0-1.9039-.7542-2.8559-2.2625-2.8559-1.32287 0-2.12648.4389-2.41083 1.3167-.08655.2844-.14218.7294-.16691 1.3352-.02472.6058-.0309 1.2673-.01854 1.9843.02473.7047.06182 1.3723.11127 2.0029.06181.6181.11745 1.0941.1669 1.4279.136.8407.27199 1.4465.40799 1.8174.13599.3585.28435.6553.44507.8902.18545.272.27818.4759.27818.6119s-.08037.3277-.24109.5749c-.14836.2349-.3029.5131-.46362.8346-.4698.9643-.7047 2.9424-.7047 5.9343 0 1.8545.18545 3.0166.55634 3.4864.40799.4945 1.03233.7418 1.87304.7418z"/><path d="m32.4905 39.8258c-2.3243 0-4.1911-.7109-5.6005-2.1327-1.4094-1.4341-2.2439-3.5977-2.5036-6.4907-.1483-1.7927-.7912-3.0537-1.9286-3.7831l-.3709-.2411c0-.0618.1607-.1669.4821-.3153.3215-.1607.6553-.4574 1.0015-.8901.544-.68.8159-1.6629.8159-2.9487 0-5.8848 2.5778-8.8273 7.7332-8.8273 2.448 0 4.3024.7913 5.5635 2.3737 1.0879 1.3476 1.6319 3.3196 1.6319 5.9158 0 1.5949.0557 2.6087.1669 3.0414.0989.4327.2287.7727.3895 1.02.1607.2472.2843.4636.3709.649-.4822.5564-1.0076.8345-1.5763.8345-.1979 0-.3833-.037-.5564-.1112-.9767-.5193-2.3057-.7789-3.9871-.7789s-2.8312.1174-3.4494.3524c-.5069.6552-.7603 1.8421-.7603 3.5606 0 1.7184.3091 3.0537.9272 4.0056.6306.9396 1.5393 1.4094 2.7261 1.4094 1.1869 0 2.0338-.445 2.5407-1.3352.5192-.8901.7789-2.2377.7789-4.0428 0-.2472.1359-.4265.4079-.5378.2844-.1236.6058-.1792.9644-.1669.3709.0124.6923.0804.9643.204.2844.1237.4265.3091.4265.5564 0 3.9809-1.1683 6.6143-3.5049 7.9001-.7666.4203-1.4774.6552-2.1327.7047-.6429.0494-1.1498.0742-1.5207.0742zm-2.0584-14.5763c1.0014-.0371 1.8792-.1731 2.6333-.408.7665-.2225 1.1498-.4883 1.1498-.7974l.0371-2.3737c0-2.7447-.612-4.117-1.8359-4.117-.8531 0-1.4713.2287-1.8545.6862-.3091.3585-.4698.8592-.4822 1.5021-.0124.4575-.0309 1.0323-.0556 1.7247-.0124.6923.0062 1.3847.0556 2.077.0618.68.1793 1.2487.3524 1.7061z"/><path d="m51.9626 39.8258c-4.9206 0-7.7147-2.6025-8.3823-7.8074-.2101-1.632-.4512-2.6952-.7232-3.1897-.2844-.4822-.5069-.8222-.6676-1.02-.1237-.1483-.2411-.272-.3524-.3709-.1112-.0989-.1669-.1793-.1669-.2411v-.0371c0-.0865.136-.2287.408-.4265.2844-.1978.544-.5069.7789-.9272.4327-.7295.6491-1.8978.6491-3.505.0618-2.5468.7974-4.5311 2.2068-5.9529s3.2886-2.1326 5.6376-2.1326c1.4712 0 2.9795.4574 4.5249 1.3723.7542.445 1.3724 1.0632 1.8545 1.8545.4946.7788.7418 1.533.7418 2.2624 0 .9273-.0865 1.7185-.2596 2.3738-.1731.6552-.2596 1.2857-.2596 1.8915 0 .4327.1916.9396.5749 1.5207-.1113.2967-.408.4451-.8902.4451s-.9705-.1607-1.465-.4822c-.4946-.3338-.8655-.6614-1.1127-.9829l-.3709-.4821c-.4945.3214-.9953.4821-1.5021.4821-.5069-.0123-.884-.0556-1.1313-.1298-.2596-.0618-.4574-.1421-.5934-.2411-.136-.0989-.2473-.2101-.3338-.3338-.136-.173-.204-.3276-.204-.4636l.0185-.0927c.4451 0 .8655-.1855 1.2611-.5563.3956-.3709.717-.8222.9643-1.3538.2473-.544.3709-1.0571.3709-1.5392 0-1.4713-.7171-2.2069-2.1512-2.2069-.7665 0-1.261.1484-1.4836.4451-.2349.3091-.4018.5687-.5007.7789-.0865.1978-.1545.5131-.204.9458-.0247.2843-.0433.6243-.0556 1.0199-.0124.3833-.0186.8222-.0186 1.3167 0 .9891.0619 1.7989.1855 2.4294.1236.6181.2782 1.0756.4636 1.3723.2596.408.5193.7109.7789.9087.272.1855.408.3214.408.408 0 .0742-.136.204-.408.3894-.2596.1731-.5193.4575-.7789.8531-.4327.68-.6491 1.7927-.6491 3.3381 0 1.5577.2906 2.7322.8716 3.5235.5935.7789 1.428 1.1683 2.5036 1.1683 1.1869 0 2.0276-.4327 2.5221-1.2981.5192-.8902.7789-2.2316.7789-4.0243 0-.2472.1483-.4265.445-.5378.2968-.1236.6368-.1792 1.02-.1669.3956.0124.7418.0804 1.0385.204.2967.1237.4451.3091.4451.5564 0 2.9919-.6985 5.2358-2.0956 6.7317-1.1992 1.2735-2.7631 1.9102-4.6918 1.9102z"/><path d="m70.4332 39.7887c-2.1017 0-3.9376-.6491-5.5078-1.9472-.7541-.6306-1.3661-1.4589-1.8359-2.485-.4575-1.0262-.6862-2.0462-.6862-3.0599 0-1.0262-.068-1.836-.204-2.4294s-.309-1.0447-.5192-1.3538c-.3338-.5069-.6429-.8469-.9273-1.0199-.2843-.1731-.4265-.2844-.4265-.3339 0-.0494.1546-.1792.4636-.3894.3091-.2225.5996-.544.8716-.9643.4946-.7295.7418-1.836.7418-3.3196 0-1.4835.2287-2.7384.6862-3.7646.6552-1.5083 1.6567-2.6333 3.0043-3.3751 1.3475-.7542 2.794-1.1312 4.3394-1.1312 2.0771 0 3.913.6614 5.5078 1.9843.7666.6428 1.3785 1.4835 1.836 2.522.4574 1.0386.6862 2.0833.6862 3.1341 0 1.0509.0618 1.8854.1854 2.5036.136.6181.2967 1.0879.4822 1.4094.2472.4451.5069.7789.7788 1.0014.272.2102.408.3462.408.408l-.3152.2411c-.2349.1978-.408.3647-.5193.5007-.1607.1978-.3152.4512-.4636.7603-.1855.3338-.3276.7789-.4265 1.3352-.0866.5564-.1298 1.3291-.1298 2.3181 0 1.0015-.2288 2.0153-.6862 3.0414-.4575 1.0138-1.0694 1.8359-1.836 2.4665-1.5824 1.2981-3.4184 1.9472-5.5078 1.9472zm-.0556-3.3381c1.6443 0 2.4665-1.6258 2.4665-4.8773 0-.8531-.0742-1.5948-.2226-2.2254-.136-.6429-.2905-1.0817-.4636-1.3167-.1607-.2101-.34-.3832-.5378-.5192s-.3276-.2473-.3894-.3338c0-.0742.0865-.1916.2596-.3524.1731-.173.3585-.377.5563-.6119.2226-.2844.408-.8098.5564-1.5764.1607-.7665.2411-1.6443.2411-2.6333 0-2.9672-.7975-4.4508-2.3923-4.4508-1.6072 0-2.4108 1.4836-2.4108 4.4508 0 1.0014.0741 1.8854.2225 2.6519.1607.7541.3524 1.2734.5749 1.5578.1854.2349.3647.4327.5378.5934s.2596.272.2596.3338-.1113.1793-.3338.3524c-.2225.173-.4451.4759-.6676.9086-.3833.7171-.5749 1.836-.5749 3.3567 0 3.1279.7727 4.6918 2.3181 4.6918z"/><path d="m84.1564 39.4734c-.4945 0-.9025-.0742-1.224-.2225-.4203-.2102-.6799-.4698-.7788-.7789.853-.7789 1.4588-1.632 1.8174-2.5592.2349-.6058.3832-1.2734.445-2.0028.0742-.7418.0989-1.4465.0742-2.1142-.0247-.6799-.068-1.2301-.1298-1.6504-.0865-.5811-.2225-1.0386-.408-1.3724-.1731-.3461-.3276-.6119-.4636-.7974-.1607-.2102-.2905-.3338-.3895-.3709-.0865-.0371-.241-.1669-.4636-.3894 0-.0495.1298-.1731.3895-.3709.2596-.1978.5316-.544.8159-1.0385.4327-.7665.6491-1.9596.6491-3.5792s-.1854-2.9115-.5563-3.8758c-.3709-.9644-1.0385-1.8854-2.0029-2.7632.3091-.6429 1.1003-.9644 2.3738-.9644 1.2487 0 2.4355.952 3.5606 2.8559 1.6443-2.1635 3.5297-3.2453 5.6561-3.2453 2.584 0 4.1603.952 4.729 2.8559.1607.4945.2411 1.0694.2411 1.7247 0 1.397-.4513 2.8126-1.3538 4.2467-.0618.1237-.0804.2473-.0557.3709.0371.1237.0866.2411.1484.3524.0989.1854.1978.3462.2967.4822.0989.1359.1731.2534.2226.3523l-.5007.1669c-1.0138 0-1.7433-.5378-2.1883-1.6134-.1855-.4327-.2782-.7418-.2782-.9272v-.0186c-.6553.3586-1.2672.4822-1.836.3709-.5563-.1236-.9334-.3029-1.1312-.5378-.272-.3462-.4327-.6923-.4821-1.0385.037.0124.1359.0186.2967.0186.7047 0 1.2857-.2659 1.7432-.7975.4698-.5316.7047-1.0261.7047-1.4836 0-.445-.0495-.7912-.1484-1.0385-.0865-.2472-.2101-.4574-.3709-.6305-.3338-.3709-.6861-.5563-1.057-.5563s-.6862.0865-.9458.2596-.5069.4327-.7418.7789c-.4945.7665-.7418 1.9843-.7418 3.6533 0 1.3105.1484 2.3676.4451 3.1712.3091.7912.5625 1.3723.7603 1.7432.3956.7418.6614 1.1127.7974 1.1127l-.3709.3338c-.2596.2349-.4821.4821-.6676.7418-.2349.3214-.445.853-.6305 1.5948-.1731.7295-.2596 1.6567-.2596 2.7817 0 1.2611.1669 2.3367.5007 3.2268.3338.8902.9396 1.7371 1.8174 2.5407-.0866.2472-.3029.476-.6491.6861-.3338.2102-.7109.3153-1.1312.3153-1.224 0-2.3861-.6614-3.4864-1.9843-.9891 1.3229-2.0029 1.9843-3.0414 1.9843z"/><path d="m103.888 39.3436c-.519-.1978-.983-.4636-1.391-.7974-.395-.3215-.76-.7666-1.094-1.3353-.346-.5934-.581-1.2486-.705-1.9657-.123-.7171-.537-1.5021-1.2421-2.3552-.2225-.2596-.3338-.4204-.3338-.4822 0-.0865.1051-.2287.3152-.4265.2102-.2102.4328-.476.6677-.7974.247-.3215.414-.7047.501-1.1498.346-1.6567 1.162-2.8312 2.448-3.5235.568-.3215 1.168-.5811 1.798-.7789.668-.2102 1.286-.3956 1.855-.5564.581-.173 1.131-.3894 1.65-.649.495-.2349.891-.5873 1.187-1.0571.322-.4821.476-1.1683.464-2.0585-.012-.9025-.05-1.7246-.111-2.4664-.05-.6553-.204-1.224-.464-1.7061-.26-.4822-.754-.7233-1.484-.7233-.494 0-.908.1793-1.242.5378-.322.3585-.482.8098-.482 1.3538 0 .3585.08.7851.241 1.2796.173.4821.42.9272.742 1.3352.321.3956.698.6491 1.131.7603-.334.7913-.884 1.1869-1.651 1.1869-.779 0-1.496-.2534-2.151-.7603.062.0618-.074.3647-.408.9087-.21.3585-.519.6985-.927 1.0199-.396.3215-.797.5317-1.205.6306s-.736 0-.983-.2968c.643-.6428.964-1.2486.964-1.8173 0-.1855-.087-.6368-.26-1.3538-.173-.7171-.259-1.224-.259-1.5207 0-1.5083.575-2.7261 1.724-3.6533.507-.4204 1.212-.8469 2.115-1.2796.902-.4327 1.941-.6491 3.115-.6491 4.933 0 7.399 2.6952 7.399 8.0856 0 1.3228.248 2.485.742 3.4864.247.4821.767.9519 1.558 1.4094 0 .0494-.068.1236-.204.2225-.148.0989-.328.2597-.538.4822-.21.2102-.42.4822-.63.816-.235.3832-.421.9087-.557 1.5763-.123.6676-.185 1.5516-.185 2.6519 0 2.3861.63 4.2467 1.891 5.582-.111.1978-.346.4018-.704.612-.272.1359-.711.241-1.317.3152-.606.0866-1.193-.0123-1.762-.2967-1.038-.5069-1.867-1.3723-2.485-2.5963-.358 1.2487-1.032 2.1203-2.021 2.6148-.816.408-1.725.6306-2.726.6677-1.002.0494-1.997-.1113-2.986-.4822zm3.802-2.4665c.507 0 .878-.0927 1.112-.2781.149-.0989.279-.1979.39-.2968s.21-.2534.297-.4636l.315-.7974c.136-.3338.204-1.3785.204-3.1341v-6.0456c-.161.1607-.371.3524-.631.5749-.247.2102-.55.4513-.908.7232-.693.5317-1.255 1.0695-1.688 1.6134-.569.7171-.853 1.8916-.853 3.5236v.4079c0 2.7818.587 4.1726 1.762 4.1726z"/><path d="m130.463 39.8258c-2.077 0-3.752-.6367-5.026-1.9102-.68 1.0386-1.601 1.5578-2.763 1.5578-.631 0-1.045-.0804-1.242-.2411-.322-.2843-.501-.5378-.538-.7603.704-.3833 1.162-.7665 1.372-1.1498.185-.3585.315-.6429.389-.8531.087-.2225.149-.5748.186-1.057.025-.3215.043-.6985.056-1.1312.012-.4451.018-.9335.018-1.4651 0-1.0756-.062-1.9472-.185-2.6148-.124-.68-.272-1.1869-.445-1.5207-.174-.3214-.359-.5872-.557-.7974-.161-.1731-.309-.3091-.445-.408-.136-.1113-.204-.2164-.204-.3153s.062-.2039.186-.3152c.123-.0989.278-.2473.463-.4451.186-.1978.365-.4822.538-.8531.433-.8901.649-2.1821.649-3.8758 0-1.7185-.018-3.0476-.056-3.9872l-1.817.2782c-.408 0-.711-.1731-.909-.5192-.235-.3586-.352-.7789-.352-1.2611.012-.4945.185-.7789.519-.8531.903-.1854 1.725-.5625 2.467-1.1312s1.316-1.1869 1.724-1.8545c.829-1.3723 1.348-2.57152 1.558-3.59767l.149-.64906c.123-.32145.37-.5378.741-.64907.384-.12364.742-.12364 1.076 0 .346.11127.519.37089.519.77888l-.148 4.84022c0 .8036.055 1.5577.167 2.2624l3.041-.445c.482 0 .878.1421 1.187.4265.309.272.464.6676.464 1.1869 0 .5316-.155.9396-.464 1.2239-.309.272-.705.408-1.187.408l-3.041-.4451c-.013.3091-.025.7109-.037 1.2055v1.7061c0 1.3105.055 2.3737.167 3.1897.111.7789.284 1.3723.519 1.7803s.451.7232.649.9458c.21.2225.315.4389.315.649 0 .0989-.093.2349-.278.408-.173.1731-.352.3833-.538.6306-.235.2843-.433.8221-.593 1.6134-.161.7912-.241 1.7123-.241 2.7631 0 3.2145.828 4.8217 2.485 4.8217 1.829 0 2.744-2.3552 2.744-7.0656 0-.2225.136-.3894.408-.5007.285-.1236.606-.1855.965-.1855.37-.0123.692.0433.964.167.284.1112.426.3029.426.5748 0 5.242-1.378 8.2958-4.135 9.1612-.593.1854-1.23.2782-1.91.2782z"/><path d="m142.128 6 3.894 3.41225-3.913 3.52355-.983-.8531c-.321-.2844-.649-.5625-.983-.8345-.321-.2844-.643-.5687-.964-.8531l-.983-.85304c0-.03709.185-.2349.556-.59343.384-.3709.823-.77889 1.317-1.22396.507-.45744.964-.85924 1.372-1.20541s.637-.51926.687-.51926zm-2.745 8.2339c1.075 0 2.003.476 2.782 1.428.395-.5811 1.007-1.0076 1.836-1.2796.321-.0989.649-.1484.982-.1484.606 0 1.045.1175 1.317.3524.247.2101.39.4265.427.649-.792.7789-1.323 1.5702-1.595 2.3738-.124.3585-.235.8716-.334 1.5392-.087.6552-.13 1.3847-.13 2.1883 0 .4327.013.8778.037 1.3352.037.4574.093.9149.167 1.3723.136.7913.334 1.3723.594 1.7432.259.3586.5.6244.723.7975.222.1607.334.3523.334.5748 0 .0989-.062.1917-.186.2782-.123.0866-.278.2349-.463.4451-.173.1978-.353.4636-.538.7974-.433.7913-.649 2.0214-.649 3.6904 0 1.1127.062 2.04.185 2.7818.124.7294.334 1.3476.631 1.8544.309.5069.717.9953 1.224 1.4651 0 .3832-.316.68-.946.8901-.235.0742-.563.1113-.983.1113s-.865-.1236-1.335-.3709c-.458-.2349-.785-.4698-.983-.7047l-.315-.3523c-.384.5563-.996.9766-1.836 1.261-.309.1113-.631.1669-.965.1669-.408 0-.779-.0742-1.112-.2225-.322-.136-.513-.3153-.575-.5378l-.074-.2411c.766-.6924 1.298-1.4651 1.594-2.3181.174-.4698.291-1.0014.353-1.5949.074-.6058.111-1.2116.111-1.8174 0-.4698-.018-.921-.056-1.3537-.037-.4451-.086-.8346-.148-1.1684-.124-.6923-.321-1.2239-.593-1.5948-.26-.3833-.501-.68-.724-.8902-.222-.2101-.333-.4018-.333-.5749 0-.136.136-.2905.408-.4636.284-.1854.544-.5069.778-.9643.433-.8283.65-2.1759.65-4.0428 0-1.261-.062-2.2686-.186-3.0228-.124-.7541-.334-1.3847-.63-1.8916-.297-.5192-.705-1.0323-1.224-1.5392 0-.3956.315-.6923.945-.8901.248-.0742.526-.1113.835-.1113z"/><path d="m155.591 39.4734c-.643 0-1.082-.0804-1.317-.2411-.408-.2843-.655-.5378-.741-.7603.605-.6924.908-1.4898.908-2.3923 0-.8901-.167-1.9287-.5-3.1155-.334-1.1869-.668-2.1389-1.002-2.8559-.334-.7171-.643-1.2364-.927-1.5578-.359-.408-.68-.7047-.964-.8901-.285-.1855-.476-.3339-.575-.4451-.087-.1113-.019-.2473.204-.408.42-.3338.63-.9396.63-1.8174 0-.8531-.216-2.0956-.649-3.7275-.297-1.0632-.606-1.9472-.927-2.6519-.322-.7047-.705-1.3167-1.15-1.836-.433-.5192-.983-1.0323-1.65-1.5392-.075-.1483 0-.3523.222-.612.21-.2596.637-.3894 1.28-.3894 1.52 0 3.066.7232 4.636 2.1697.111-.581.383-1.0879.816-1.5206s.896-.6491 1.391-.6491c.618 0 1.063.1175 1.335.3524.272.2101.451.4265.538.649-.631.8284-.946 1.6876-.946 2.5778 0 .9148.192 2.0461.575 3.3937.47 2.3737.884 4.4136 1.242 6.1197.359 1.7062.662 3.0785.909 4.117.544-1.0138.816-1.8236.816-2.4294 0-.5934-.086-1.1992-.26-1.8174 0-.0741.087-.2534.26-.5378.186-.2967.377-.6985.575-1.2054.247-.6305.451-1.3847.612-2.2624.161-.8778.278-1.768.352-2.6705.087-.9149.13-1.7247.13-2.4294 0-1.0756-.315-2.0275-.946-2.8559.334-.6676.958-1.0014 1.873-1.0014.421 0 .779.1484 1.076.4451.309.2967.513.5934.612.8901l.148.4636c.557-.717 1.274-1.2548 2.152-1.6134.469-.173.927-.2287 1.372-.1669.457.0619.76.1855.909.3709.148.1855.222.3648.222.5378v.0742c-.742.4822-1.465 1.4218-2.17 2.8188-.704 1.4094-1.248 2.825-1.632 4.2468-.383 1.4218-.575 2.5468-.575 3.3752l.167 1.5577c0 .0866-.024.136-.074.1484h-.037c-.198 0-.439.2163-.723.649-.284.4204-.569.9582-.853 1.6134-.285.6553-.532 1.3353-.742 2.04-.371 1.2239-.556 2.4046-.556 3.542 0 1.1375.34 2.2192 1.02 3.2454v.0185c0 .408-.211.6738-.631.7975-.408.1236-.884.1854-1.428.1854-.395 0-.797-.1236-1.205-.3709-.408-.2349-.717-.4698-.928-.7047l-.315-.3523c-.63.9519-1.483 1.4279-2.559 1.4279z"/><path d="m178.438 39.8258c-2.324 0-4.191-.7109-5.6-2.1327-1.41-1.4341-2.244-3.5977-2.504-6.4907-.148-1.7927-.791-3.0537-1.928-3.7831l-.371-.2411c0-.0618.16-.1669.482-.3153.321-.1607.655-.4574 1.001-.8901.544-.68.816-1.6629.816-2.9487 0-5.8848 2.578-8.8273 7.733-8.8273 2.448 0 4.303.7913 5.564 2.3737 1.088 1.3476 1.632 3.3196 1.632 5.9158 0 1.5949.055 2.6087.167 3.0414.099.4327.228.7727.389 1.02.161.2472.284.4636.371.649-.482.5564-1.008.8345-1.576.8345-.198 0-.384-.037-.557-.1112-.976-.5193-2.305-.7789-3.987-.7789-1.681 0-2.831.1174-3.449.3524-.507.6552-.76 1.8421-.76 3.5606 0 1.7184.309 3.0537.927 4.0056.63.9396 1.539 1.4094 2.726 1.4094s2.034-.445 2.541-1.3352c.519-.8901.778-2.2377.778-4.0428 0-.2472.136-.4265.408-.5378.285-.1236.606-.1792.965-.1669.371.0124.692.0804.964.204.284.1237.427.3091.427.5564 0 3.9809-1.169 6.6143-3.505 7.9001-.767.4203-1.478.6552-2.133.7047-.643.0494-1.15.0742-1.521.0742zm-2.058-14.5763c1.001-.0371 1.879-.1731 2.633-.408.767-.2225 1.15-.4883 1.15-.7974l.037-2.3737c0-2.7447-.612-4.117-1.836-4.117-.853 0-1.471.2287-1.854.6862-.309.3585-.47.8592-.483 1.5021-.012.4575-.03 1.0323-.055 1.7247-.013.6923.006 1.3847.055 2.077.062.68.18 1.2487.353 1.7061z"/></g></svg>