<svg fill="none" height="60" viewBox="0 0 194 60" width="194" xmlns="http://www.w3.org/2000/svg"><g fill="#000"><path d="m7.04004 33.52c0 .96.17333 1.7733.51999 2.44.34667.6667.8 1.2133 1.36 1.64.58667.4 1.26667.7067 2.03997.92.7734.1867 1.5734.28 2.4.28.56 0 1.16-.04 1.8-.12.64-.1067 1.24-.2933 1.8-.56s1.0267-.6267 1.4-1.08c.3734-.48.56-1.08.56-1.8 0-.7733-.2533-1.4-.76-1.88-.48-.48-1.12-.88-1.92-1.2s-1.7066-.6-2.72-.84c-1.0133-.24-2.04-.5067-3.08-.8-1.06663-.2667-2.10663-.5867-3.11997-.96-1.01333-.4-1.92-.9067-2.72-1.52s-1.45333-1.3733-1.96-2.28c-.48-.9333-.72-2.0533-.72-3.36 0-1.4667.30667-2.7333.92-3.8.64-1.0933 1.46667-2 2.48-2.72 1.01334-.72 2.16-1.2533 3.44001-1.6 1.27996-.3467 2.55996-.52 3.83996-.52 1.4934 0 2.92.1733 4.28.52 1.3867.32 2.6134.8533 3.68 1.6 1.0667.7467 1.9067 1.7067 2.52 2.88.64 1.1467.96 2.5467.96 4.2h-6.08c-.0533-.8533-.24-1.56-.56-2.12-.2933-.56-.6933-1-1.2-1.32-.5066-.32-1.0933-.5467-1.76-.68-.64-.1333-1.3466-.2-2.12-.2-.5066 0-1.0133.0533-1.52.16-.5066.1067-.9733.2933-1.39997.56-.39999.2667-.73333.6-1 1-.26666.4-.4.9067-.4 1.52 0 .56.10667 1.0133.32 1.36.21334.3467.62667.6667 1.24.96.63997.2933 1.50667.5867 2.59997.88 1.12.2933 2.5734.6667 4.36 1.12.5334.1067 1.2667.3067 2.2.6.96.2667 1.9067.7067 2.84 1.32.9334.6133 1.7334 1.44 2.4 2.48.6934 1.0133 1.04 2.32 1.04 3.92 0 1.3067-.2533 2.52-.76 3.64-.5066 1.12-1.2666 2.0933-2.28 2.92-.9866.8-2.2266 1.4267-3.72 1.88-1.4666.4533-3.1733.68-5.12.68-1.5733 0-3.1066-.2-4.59996-.6-1.46667-.3733-2.77334-.9733-3.92001-1.8-1.12-.8267-2.01333-1.88-2.68-3.16-.66666-1.28-.986662-2.8-.959995-4.56z"/><path d="m27.8966 28.68c.08-1.3333.4133-2.44 1-3.32s1.3333-1.5867 2.24-2.12 1.92-.9067 3.04-1.12c1.1467-.24 2.2933-.36 3.44-.36 1.04 0 2.0933.08 3.16.24 1.0667.1333 2.04.4133 2.92.84s1.6 1.0267 2.16 1.8c.56.7467.84 1.7467.84 3v10.76c0 .9333.0533 1.8267.16 2.68s.2933 1.4933.56 1.92h-5.76c-.1067-.32-.2-.64-.28-.96-.0533-.3467-.0933-.6933-.12-1.04-.9067.9333-1.9733 1.5867-3.2 1.96s-2.48.56-3.76.56c-.9867 0-1.9067-.12-2.76-.36s-1.6-.6133-2.24-1.12-1.1467-1.1467-1.52-1.92c-.3467-.7733-.52-1.6933-.52-2.76 0-1.1733.2-2.1333.6-2.88.4267-.7733.96-1.3867 1.6-1.84.6667-.4533 1.4133-.7867 2.24-1 .8533-.24 1.7067-.4267 2.56-.56s1.6933-.24 2.52-.32 1.56-.2 2.2-.36 1.1467-.3867 1.52-.68c.3733-.32.5467-.7733.52-1.36 0-.6133-.1067-1.0933-.32-1.44-.1867-.3733-.4533-.6533-.8-.84-.32-.2133-.7067-.3467-1.16-.4-.4267-.08-.8933-.12-1.4-.12-1.12 0-2 .24-2.64.72s-1.0133 1.28-1.12 2.4zm13.12 4.2c-.24.2133-.5467.3867-.92.52-.3467.1067-.7333.2-1.16.28-.4.08-.8267.1467-1.28.2s-.9067.12-1.36.2c-.4267.08-.8533.1867-1.28.32-.4.1333-.76.32-1.08.56-.2933.2133-.5333.4933-.72.84s-.28.7867-.28 1.32c0 .5067.0933.9333.28 1.28s.44.6267.76.84c.32.1867.6933.32 1.12.4s.8667.12 1.32.12c1.12 0 1.9867-.1867 2.6-.56s1.0667-.8133 1.36-1.32c.2933-.5333.4667-1.0667.52-1.6.08-.5333.12-.96.12-1.28z"/><path d="m51.1053 22.32h5.4v2.88h.12c.72-1.2 1.6534-2.0667 2.8-2.6 1.1467-.56 2.32-.84 3.52-.84 1.52 0 2.76.2133 3.72.64.9867.4 1.7601.9733 2.3201 1.72.5599.72.9466 1.6133 1.1599 2.68.24 1.04.36 2.2.36 3.48v12.72h-5.68v-11.68c0-1.7067-.2666-2.9733-.8-3.8-.5333-.8533-1.48-1.28-2.84-1.28-1.5466 0-2.6666.4667-3.36 1.4-.6933.9067-1.04 2.4133-1.04 4.52v10.84h-5.68z"/><path d="m79.2163 36.28c0 .6133.12 1.1467.36 1.6.2667.4267.6.7867 1 1.08.4.2667.8533.4667 1.36.6.5333.1333 1.08.2 1.64.2.4 0 .8133-.04 1.24-.12.4533-.1067.8533-.2533 1.2-.44.3733-.2133.68-.48.92-.8.24-.3467.36-.7733.36-1.28 0-.8533-.5733-1.4933-1.72-1.92-1.12-.4267-2.6934-.8533-4.72-1.28-.8267-.1867-1.64-.4-2.44-.64-.7733-.2667-1.4667-.6-2.08-1-.6133-.4267-1.1067-.9467-1.48-1.56-.3734-.64-.56-1.4133-.56-2.32 0-1.3333.2533-2.4267.76-3.28.5333-.8533 1.2267-1.52 2.08-2 .8533-.5067 1.8133-.8533 2.88-1.04 1.0667-.2133 2.16-.32 3.28-.32s2.2.1067 3.24.32c1.0667.2133 2.0133.5733 2.84 1.08.8266.5067 1.5066 1.1867 2.04 2.04.56.8267.8933 1.88 1 3.16h-5.4c-.08-1.0933-.4934-1.8267-1.24-2.2-.7467-.4-1.6267-.6-2.64-.6-.32 0-.6667.0267-1.04.08-.3734.0267-.72.1067-1.04.24-.2934.1333-.5467.3333-.76.6-.2133.24-.32.5733-.32 1 0 .5067.1866.92.56 1.24.3733.32.8533.5867 1.44.8.6133.1867 1.3067.36 2.08.52s1.56.3333 2.36.52c.8267.1867 1.6267.4133 2.4.68.8.2667 1.5067.6267 2.12 1.08.6133.4267 1.1066.9733 1.48 1.64.3733.64.56 1.44.56 2.4 0 1.36-.28 2.5067-.84 3.44-.5333.9067-1.24 1.64-2.12 2.2s-1.8933.9467-3.04 1.16c-1.12.24-2.2667.36-3.44.36-1.2 0-2.3733-.12-3.52-.36s-2.1733-.64-3.08-1.2c-.88-.56-1.6133-1.2933-2.2-2.2-.56-.9333-.8667-2.0933-.92-3.48z"/><path d="m112.313 33.52c0 .96.174 1.7733.52 2.44.347.6667.8 1.2133 1.36 1.64.587.4 1.267.7067 2.04.92.774.1867 1.574.28 2.4.28.56 0 1.16-.04 1.8-.12.64-.1067 1.24-.2933 1.8-.56s1.027-.6267 1.4-1.08c.374-.48.56-1.08.56-1.8 0-.7733-.253-1.4-.76-1.88-.48-.48-1.12-.88-1.92-1.2s-1.706-.6-2.72-.84c-1.013-.24-2.04-.5067-3.08-.8-1.066-.2667-2.106-.5867-3.12-.96-1.013-.4-1.92-.9067-2.72-1.52s-1.453-1.3733-1.96-2.28c-.48-.9333-.72-2.0533-.72-3.36 0-1.4667.307-2.7333.92-3.8.64-1.0933 1.467-2 2.48-2.72 1.014-.72 2.16-1.2533 3.44-1.6s2.56-.52 3.84-.52c1.494 0 2.92.1733 4.28.52 1.387.32 2.614.8533 3.68 1.6 1.067.7467 1.907 1.7067 2.52 2.88.64 1.1467.96 2.5467.96 4.2h-6.08c-.053-.8533-.24-1.56-.56-2.12-.293-.56-.693-1-1.2-1.32-.506-.32-1.093-.5467-1.76-.68-.64-.1333-1.346-.2-2.12-.2-.506 0-1.013.0533-1.52.16-.506.1067-.973.2933-1.4.56-.4.2667-.733.6-1 1-.266.4-.4.9067-.4 1.52 0 .56.107 1.0133.32 1.36.214.3467.627.6667 1.24.96.64.2933 1.507.5867 2.6.88 1.12.2933 2.574.6667 4.36 1.12.534.1067 1.267.3067 2.2.6.96.2667 1.907.7067 2.84 1.32.934.6133 1.734 1.44 2.4 2.48.694 1.0133 1.04 2.32 1.04 3.92 0 1.3067-.253 2.52-.76 3.64-.506 1.12-1.266 2.0933-2.28 2.92-.986.8-2.226 1.4267-3.72 1.88-1.466.4533-3.173.68-5.12.68-1.573 0-3.106-.2-4.6-.6-1.466-.3733-2.773-.9733-3.92-1.8-1.12-.8267-2.013-1.88-2.68-3.16-.666-1.28-.986-2.8-.96-4.56z"/><path d="m147.33 30.44c-.267-1.44-.747-2.5333-1.44-3.28-.667-.7467-1.693-1.12-3.08-1.12-.907 0-1.667.16-2.28.48-.587.2933-1.067.6667-1.44 1.12-.347.4533-.6.9333-.76 1.44-.133.5067-.213.96-.24 1.36zm-9.24 3.6c.08 1.84.547 3.1733 1.4 4s2.08 1.24 3.68 1.24c1.147 0 2.133-.28 2.96-.84.827-.5867 1.333-1.2 1.52-1.84h5c-.8 2.48-2.027 4.2533-3.68 5.32s-3.653 1.6-6 1.6c-1.627 0-3.093-.2533-4.4-.76-1.307-.5333-2.413-1.28-3.32-2.24s-1.613-2.1067-2.12-3.44c-.48-1.3333-.72-2.8-.72-4.4 0-1.5467.253-2.9867.76-4.32s1.227-2.48 2.16-3.44c.933-.9867 2.04-1.76 3.32-2.32 1.307-.56 2.747-.84 4.32-.84 1.76 0 3.293.3467 4.6 1.04 1.307.6667 2.373 1.5733 3.2 2.72.853 1.1467 1.467 2.4533 1.84 3.92s.507 3 .4 4.6z"/><path d="m156.379 22.32h5.4v3.84h.08c.266-.64.626-1.2267 1.08-1.76.453-.56.973-1.0267 1.56-1.4.586-.4 1.213-.7067 1.88-.92.666-.2133 1.36-.32 2.08-.32.373 0 .786.0667 1.24.2v5.28c-.267-.0533-.587-.0933-.96-.12-.374-.0533-.734-.08-1.08-.08-1.04 0-1.92.1733-2.64.52s-1.307.8267-1.76 1.44c-.427.5867-.734 1.28-.92 2.08-.187.8-.28 1.6667-.28 2.6v9.32h-5.68z"/><path d="m177.766 19.12h-5.68v-4.68h5.68zm-5.68 3.2h5.68v20.68h-5.68z"/><path d="m183.478 26.12h-3.4v-3.8h3.4v-1.6c0-1.84.573-3.3467 1.72-4.52s2.88-1.76 5.2-1.76c.507 0 1.013.0267 1.52.08.507.0267 1 .0533 1.48.08v4.24c-.667-.08-1.36-.12-2.08-.12-.773 0-1.333.1867-1.68.56-.32.3467-.48.9467-.48 1.8v1.24h3.92v3.8h-3.92v16.88h-5.68z"/></g></svg>