<svg fill="none" height="60" viewBox="0 0 112 60" width="112" xmlns="http://www.w3.org/2000/svg"><g fill="#000"><path d="m1.59226 39.903c-1.061506-1.9943-1.59226-4.3425-1.59226-7.0445 0-2.509.418169-4.7446 1.25451-6.7068.8685-1.9944 1.80134-3.5866 2.79852-4.7768 1.02934-1.2223 2.26776-2.1873 3.71527-2.895 1.47968-.7399 3.0398-1.1098 4.6803-1.1098 2.316 0 4.1656.6594 5.5488 1.9783l6.3208-5.3076c-.1287-1.1258-.193-2.2356-.193-3.3292 0-7.14107 1.8817-10.7116 5.6453-10.7116.965 0 1.7209.337753 2.2677 1.01326.5469.6755.8524 1.54401.9168 2.60552.0321 1.54401-.4664 3.08802-1.4958 4.63203-.9972 1.54401-2.4768 3.23279-4.439 5.06629.9972 6.6585 1.4957 11.1941 1.4957 13.6066 0 2.3803-.3055 4.6964-.9167 6.948-.6112 2.2196-1.544 4.2461-2.7985 6.0796s-2.9755 3.2649-5.1628 4.2943c-2.1874 1.0293-4.7285 1.544-7.6236 1.544-4.1495 0-7.28577-1.4154-9.40878-4.2461-.57901 2.0266-.86851 4.3265-.86851 6.8998 0 2.6056.67551 4.9377 2.02652 6.9963 1.38317 2.0909 3.15235 3.1363 5.30753 3.1363.16084 0 .24125.1608.24125.4825.03217.3217-.04825.4825-.24125.4825-2.54118 0-4.63203-1.2062-6.27254-3.6188-1.64051-2.3803-2.460768-5.0341-2.460768-7.9613s.41817-5.6131 1.254508-8.0578zm17.22534-19.6379c.9007 1.2224 1.351 2.6056 1.351 4.1496 0 1.5118-.2412 2.8789-.7237 4.1012-.4504 1.1902-1.2706 2.2517-2.4608 3.1846-1.158.9006-2.509 1.351-4.053 1.351-.3217 0-.579-.0804-.772-.2413-.1609-.1608-.2734-.4181-.3378-.772 1.3832 0 2.6538-.6433 3.8118-1.93 1.6727-1.8013 2.509-3.8279 2.509-6.0795 0-.9329-.1769-1.8335-.5307-2.7021-3.6027 3.0881-6.6425 6.1118-9.11934 9.0711-2.47685 2.9594-4.29428 6.176-5.45229 9.6501 1.83351 2.9593 4.71245 4.439 8.63683 4.439 2.4125 0 4.5194-.5147 6.3208-1.544 1.8335-.9972 3.2649-2.3643 4.2943-4.1013 2.0265-3.4097 3.0397-7.5431 3.0397-12.4003 0-1.1902-.2895-4.809-.8685-10.8563zm-1.93.0483c-1.0293-1.0937-2.4447-1.6405-4.246-1.6405-1.8014 0-3.42579.4342-4.8733 1.3027-2.66985 1.6084-4.58378 4.3104-5.74179 8.1061-.51467 1.6083-.772 3.2649-.772 4.9698 0 1.8978.30558 3.6509.91676 5.2593 2.21951-5.5649 7.12496-11.564 14.71633-17.9974zm9.6983-12.06259c0 .86851.0804 2.02649.2413 3.47399 3.1845-3.12016 4.7768-5.75784 4.7768-7.91302 0-1.67268-.6112-2.50902-1.8335-2.50902-2.1231 0-3.1846 2.31602-3.1846 6.94805z"/><path d="m36.5276 32.4725c0 3.7635 1.3027 5.6453 3.9083 5.6453 1.0293 0 2.1069-.4504 3.2327-1.351 1.158-.9329 2.2035-2.0426 3.1363-3.3293 2.0587-2.9594 3.5062-5.3719 4.3425-7.2376l.6273-1.351h1.3027c-.5468 1.2867-1.351 2.879-2.4125 4.7768-1.0615 1.8657-2.0747 3.4419-3.0397 4.7285-.9651 1.2867-2.107 2.4608-3.4258 3.5223-1.3189 1.0293-2.5734 1.544-3.7635 1.544-3.3454 0-5.4684-1.5279-6.3691-4.5838-.2895-.965-.4342-2.1712-.4342-3.6187 0-1.4797.4503-3.2811 1.351-5.4041 1.3188-3.1523 3.1202-5.2753 5.404-6.369.9007-.4182 1.7853-.6273 2.6538-.6273.9006 0 1.6083.2413 2.123.7238.6112.579.9167 1.2545.9167 2.0265 0 .7398-.0804 1.4314-.2412 2.0748-.1608.6433-.4986 1.2223-1.0133 1.737-.4825.4825-1.0293.7237-1.6405.7237-.2573 0-.4503-.1769-.579-.5307.2574 0 .5951-.4504 1.0133-1.351.4503-.9329.6755-1.8496.6755-2.7503s-.386-1.351-1.158-1.351c-1.6727 0-3.2006 1.3992-4.5838 4.1978-1.351 2.7985-2.0265 5.5166-2.0265 8.1543z"/><path d="m51.0681 39.324c-.9007 0-1.351-.6916-1.351-2.0747 0-.7399.9006-6.1278 2.702-16.1639.1286-.6755.4182-1.0133.8685-1.0133.579 0 1.0132.4182 1.3027 1.2545.1609.4504.2413.949.2413 1.4958 0 .5147-.0643 1.0776-.193 1.6888l-.772 3.9565h.2412c2.7664-6.4334 5.3076-9.6501 7.6236-9.6501 1.2867 0 2.1391.6273 2.5573 1.8818.1608.4825.2412 1.0454.2412 1.6888 0 .6111-.1769 1.2866-.5307 2.0265-.6112 1.2545-1.528 1.8817-2.7503 1.8817-.2573 0-.4664-.0643-.6273-.193-.1286-.1286-.209-.3056-.2412-.5307.2573 0 .5951-.4664 1.0132-1.3993.4182-.965.6595-1.8496.7238-2.6538.0643-.8041-.2091-1.2705-.8203-1.3992-1.1258 0-2.4607 1.4636-4.0047 4.3908s-2.7825 5.7257-3.7153 8.3955c-.9328 2.6699-1.4797 4.4069-1.6405 5.2111-.1609.8041-.4504 1.2062-.8685 1.2062z"/><path d="m72.4558 10.4221c.7398 0 1.1097.4986 1.1097 1.4957 0 .9972-.4825 1.8014-1.4475 2.4126-.4825.3216-.9006.4825-1.2545.4825-.5146 0-.8202-.1609-.9167-.4825l-.0483-.1448c.2895 0 .4986-.3056.6273-.9168.1286-.6433.3216-1.2705.579-1.8817.2895-.6434.7398-.965 1.351-.965zm-3.088 27.7439c.8363 0 2.0104-1.1097 3.5222-3.3293 1.5119-2.2195 2.8146-4.439 3.9083-6.6585l1.6405-3.3293h1.3028c-.193.386-.4503.9168-.772 1.5923-.2895.6433-.8846 1.8174-1.7853 3.5223-.9007 1.6726-1.7692 3.1523-2.6055 4.439-.8042 1.2867-1.7209 2.4608-2.7503 3.5223-.9971 1.0293-1.8656 1.544-2.6055 1.544-2.3803 0-3.5705-1.544-3.5705-4.6321 0-2.316.6594-6.0795 1.9783-11.2905.1286-.5469.2251-.965.2895-1.2545.0965-.2895.193-.6595.2895-1.1098.0965-.4825.193-.9168.2895-1.3028.1608-.6755.4503-1.0132.8685-1.0132.579 0 .9971.4182 1.2545 1.2545.1286.386.193.8524.193 1.3992 0 .5469-.0644 1.1259-.193 1.7371-.1287.579-.3378 1.4475-.6273 2.6055s-.5146 2.1069-.6755 2.8467c-.1608.7399-.3377 1.6406-.5307 2.7021-.3539 1.7691-.5308 3.3453-.5308 4.7285 0 1.351.3699 2.0265 1.1098 2.0265z"/><path d="m84.2526 38.0213c1.2224 0 2.5573-1.6566 4.0048-4.9698 1.4797-3.5062 2.2195-6.7068 2.2195-9.6018 0-1.9944-.5147-3.0076-1.544-3.0398-.9972 0-2.1391.8042-3.4258 2.4125-1.2545 1.6084-2.3964 3.5062-3.4257 5.6935-2.2196 4.7929-3.6027 8.3795-4.1496 10.7599-1.7048 7.72-2.8789 12.5129-3.5223 14.3786-1.1258 3.281-2.4125 4.9215-3.86 4.9215-1.1258 0-1.6887-.772-1.6887-2.316 0-.9007.193-2.0909.579-3.5705.9971-3.5706 2.5572-6.9963 4.6802-10.2774l1.3028-1.7852c.2895-1.4475.6755-3.5384 1.158-6.2726.965-5.5005 1.6566-9.1354 2.0748-10.9045.4503-1.8014.965-3.0237 1.544-3.6671.6112-.6755 1.1258-1.0132 1.544-1.0132.8042 0 1.0937.3217.8685.965-.8042 2.6377-1.6405 5.7579-2.509 9.3606h.3377c3.1524-6.8516 5.9992-10.2774 8.5403-10.2774 2.0587 0 3.3454 1.3189 3.8601 3.9566.1608.8363.2412 1.6887.2412 2.5572 0 2.123-.4825 4.423-1.4475 6.8998-1.351 3.5384-3.1523 5.774-5.404 6.7068-.6755.2895-1.351.4343-2.0265.4343-1.5762 0-2.493-.8685-2.7503-2.6055-.0322-.2895.0322-.5147.193-.6755.1608-.1609.3538-.2091.579-.1448s.3538.2252.386.4825c.1608 1.0615.7077 1.5923 1.6405 1.5923zm-13.8478 19.2518c1.2545 0 2.7985-4.8572 4.632-14.5716-1.8978 2.9594-3.4258 6.2404-4.5838 9.8431-.5147 1.6084-.772 2.7985-.772 3.5705s.2413 1.158.7238 1.158z"/><path d="m96.5696 18.2386c0-.3538.2252-.5307.6756-.5307h2.509c.1608-.6434.3698-1.4475.6268-2.4125l.676-2.5091c.193-.7398.354-1.4153.482-2.0265.161-.6111.451-.91673.869-.91673.547 0 .933.41813 1.158 1.25453.096.3538.145.7881.145 1.3027 0 .5147-.097 1.1741-.29 1.9783l-.917 3.3293h2.992c.289 0 .482.0965.579.2895.129.193.129.386 0 .579-.097.1608-.29.2412-.579.2412h-3.281c-1.994 7.4949-2.9916 12.8025-2.9916 15.9226 0 2.2839.5147 3.4258 1.5436 3.4258.837 0 2.011-1.1097 3.523-3.3293 1.512-2.2195 2.814-4.439 3.908-6.6585l1.64-3.3293h1.303c-.193.386-.45.9168-.772 1.5923-.289.6433-.884 1.8174-1.785 3.5223-.901 1.6726-1.769 3.1523-2.606 4.439-.804 1.2867-1.72 2.4608-2.75 3.5223-.997 1.0293-1.93 1.544-2.798 1.544-.8688 0-1.6247-.2734-2.2681-.8203-.6112-.579-.9972-1.3832-1.158-2.4125-.193-1.0615-.2895-2.1391-.2895-3.2328 0-2.5412.9007-7.2697 2.702-14.1856h-2.1712c-.2574 0-.4343-.0643-.5308-.193-.0965-.1608-.1448-.2895-.1448-.386z"/></g></svg>