<svg width="1201" height="508" viewBox="0 0 1201 508" fill="none" xmlns="http://www.w3.org/2000/svg">
<rect x="4.06641" y="232" width="1192" height="272" fill="white"/>
<rect x="4.06641" y="232" width="1192" height="272" stroke="black" stroke-width="8" stroke-linejoin="round"/>
<path d="M110.501 394.797V396.773C110.501 405.335 116.428 408.793 137.01 408.793C158.251 408.793 162.367 405.664 162.367 400.066C162.367 393.644 158.909 389.528 127.79 387.387C76.4172 383.436 64.5621 371.416 64.5621 348.364C64.5621 322.184 85.4733 309.012 137.175 309.012C194.31 309.012 210.611 320.043 210.611 344.577C210.611 347.047 210.611 349.517 210.447 352.151C204.025 351.657 192.993 351.328 183.608 351.328C176.528 351.328 169.777 351.493 165.66 351.657C165.825 350.669 165.825 349.517 165.825 348.694C165.825 341.613 161.544 338.156 138.986 338.156C119.557 338.156 115.276 341.119 115.276 346.059C115.276 351.822 118.24 355.609 151.994 358.573C198.591 362.689 213.081 372.733 213.081 398.584C213.081 425.094 194.64 438.431 139.48 438.431C81.8509 438.431 64.2328 427.399 64.2328 402.865C64.2328 400.066 64.3974 397.102 64.7267 393.974C72.3009 394.632 83.1681 395.291 93.5414 395.291C99.9629 395.291 105.891 395.126 110.501 394.797ZM285.055 435.467H232.365C232.859 417.025 232.859 399.901 232.859 373.721C232.859 347.541 232.859 330.252 232.365 311.975L285.055 311.975C284.561 330.087 284.561 347.212 284.561 373.556C284.561 399.572 284.725 416.861 285.055 435.467ZM466.781 366.806C469.91 415.214 459.042 438.431 388.735 438.431C332.423 438.431 303.773 417.849 303.773 372.404C303.773 326.63 332.587 309.012 388.405 309.012C445.047 309.012 467.111 324.489 467.111 351.328C467.111 353.304 467.111 355.28 466.946 357.256C459.701 356.926 449.986 356.762 440.601 356.762C431.051 356.762 422.16 356.926 415.738 357.256C415.738 356.103 415.903 354.95 415.903 353.962C415.903 343.918 407.505 339.802 388.241 339.802C365.848 339.802 356.627 348.364 356.627 373.227C356.627 396.444 365.354 406.981 390.052 406.981C407.999 406.981 415.903 402.042 418.043 390.187C405.694 390.187 392.028 390.351 381.49 390.681C381.655 388.211 381.655 381.625 381.655 378.99C381.655 374.215 381.655 370.099 381.49 366.806C397.955 367.135 414.75 367.135 427.099 367.135C438.131 367.135 452.127 367.3 466.781 366.806ZM600.459 311.975H646.069C645.74 325.148 645.41 347.376 645.41 373.556C645.41 400.889 645.41 419.495 645.904 435.467H591.568C585.147 424.764 562.753 400.395 547.111 382.612C542.171 375.532 537.396 368.452 533.609 361.372C534.433 371.416 534.762 380.801 535.091 390.516C535.421 413.238 535.421 428.881 535.75 435.467L489.482 435.467C489.646 418.837 489.976 400.066 489.976 373.721C489.976 347.541 490.14 328.606 489.482 311.975L548.428 311.975C552.215 319.55 578.231 348.364 592.227 365.818C596.014 371.416 599.801 377.508 602.765 383.93L603.094 383.765C602.271 374.709 601.941 366.147 601.777 358.902C601.777 340.461 601.283 321.031 600.459 311.975ZM671.338 311.975H804.38C804.215 315.598 804.05 321.855 804.05 326.959C804.05 332.228 804.05 338.979 804.38 342.766C779.023 342.601 745.433 342.437 723.534 342.437V359.067C748.891 359.067 782.316 359.067 802.733 358.573C802.569 364.83 802.569 378.99 802.569 385.741C782.645 385.412 748.726 385.082 723.534 385.082V402.371C745.598 402.371 781.163 402.206 804.38 402.042C804.215 406.158 804.215 413.238 804.215 419.331C804.215 424.6 804.215 431.186 804.38 435.467H671.338C671.997 418.672 671.997 400.066 671.997 373.721C671.997 347.541 671.997 328.441 671.338 311.975ZM909.458 370.593C924.112 370.593 930.04 365.982 930.04 355.774C930.04 344.248 923.618 341.284 908.141 341.284C902.378 341.284 887.888 341.449 878.174 341.778C878.174 351.328 878.174 361.043 878.338 370.263C885.254 370.593 896.78 370.593 909.458 370.593ZM943.542 384.094V385.082C965.605 387.552 974.991 392.821 979.272 410.769C981.742 419.989 984.047 430.198 985.858 435.467H941.072C933.004 435.467 931.028 433.326 928.229 419.495C924.606 401.054 921.478 397.596 906 397.596H878.668C878.997 413.074 879.655 426.246 880.643 435.467H827.954C828.283 417.519 828.777 400.231 828.777 373.721C828.777 347.541 828.448 329.758 827.954 311.975H922.795C960.007 311.975 979.766 322.678 979.766 348.529C979.766 370.593 969.393 380.801 943.542 384.094ZM1093.96 311.975H1146.65C1132.16 332.393 1103.35 381.46 1094.13 398.913C1094.29 416.861 1094.62 430.692 1094.79 435.631C1086.72 435.302 1074.37 435.302 1064.65 435.302C1055.27 435.302 1042.59 435.302 1034.69 435.631C1035.18 430.527 1035.51 416.531 1035.51 398.255C1026.45 380.143 997.475 331.569 982.986 311.975L1041.77 311.975C1044.9 318.562 1052.63 334.533 1058.23 347.87C1061.86 356.432 1064.65 364.006 1066.8 370.099H1068.44C1070.25 364.171 1072.72 356.926 1076.67 348.694C1082.6 335.027 1091.49 318.562 1093.96 311.975Z" fill="black"/>
<circle cx="534.455" cy="235.983" r="35.1367" fill="white"/>
<mask id="path-4-outside-1_364_1559" maskUnits="userSpaceOnUse" x="84.542" y="0.103516" width="1056" height="294" fill="black">
<rect fill="white" x="84.542" y="0.103516" width="1056" height="294"/>
<path d="M157.342 230.677C151.782 230.677 146.938 229.407 142.808 226.865C138.837 224.165 135.978 220.591 134.231 216.144C132.483 211.537 132.086 206.534 133.039 201.133C125.256 195.256 121.365 185.329 121.365 171.351C121.365 154.99 125.971 136.168 135.184 114.883C144.396 93.5983 156.071 75.4111 170.208 60.3213C184.345 45.0726 198.164 37.4483 211.665 37.4483C216.748 37.4483 220.719 38.5602 223.578 40.784C226.437 43.0077 227.787 45.9463 227.629 49.5996L219.29 46.2639C226.755 43.4048 233.347 41.9753 239.065 41.9753C246.848 41.9753 253.122 44.5961 257.888 49.8379C262.812 54.9207 265.274 62.4657 265.274 72.4726C265.274 80.8911 263.685 88.436 260.509 95.1073C257.491 101.62 253.202 106.464 247.643 109.641C242.242 112.818 236.285 113.612 229.773 112.024C233.744 104.082 236.603 95.7427 238.35 87.0065C240.098 78.1114 240.018 70.6459 238.112 64.61C236.206 58.5741 231.997 55.5561 225.484 55.5561C214.048 55.3973 202.373 62.6245 190.46 77.2378C178.547 91.6922 168.62 109.006 160.678 129.179C152.894 149.192 149.003 166.506 149.003 181.119C149.003 189.22 150.353 195.574 153.053 200.18C155.912 204.628 160.201 206.851 165.919 206.851C170.684 206.851 175.767 204.945 181.168 201.133C186.568 197.162 191.651 191.444 196.417 183.978C201.341 176.354 205.312 167.3 208.33 156.817C212.301 157.611 212.142 164.441 207.853 177.307C203.723 190.173 196.972 202.324 187.601 213.761C178.229 225.039 168.143 230.677 157.342 230.677ZM203.326 256.648C193.001 255.377 186.807 251.565 184.742 245.211C182.677 238.858 183.709 230.439 187.839 219.956C189.904 215.191 191.89 210.425 193.796 205.66C198.561 194.065 202.294 184.693 204.994 177.545C207.694 170.398 209.362 164.123 209.997 158.723C216.986 159.04 222.149 160.311 225.484 162.535C228.82 164.759 230.726 167.618 231.203 171.112C231.838 174.448 231.282 178.657 229.535 183.74C227.629 189.141 225.405 195.097 222.863 201.61C218.098 213.523 213.968 224.165 210.474 233.537C207.138 242.908 204.756 250.612 203.326 256.648ZM174.02 166.824C175.45 159.517 179.738 153.481 186.886 148.716C194.193 143.792 202.373 140.297 211.427 138.232C220.64 136.009 229.058 134.897 236.683 134.897C245.101 134.897 250.581 136.644 253.122 140.139C255.664 143.474 256.14 149.51 254.552 158.246C243.91 158.723 233.823 159.438 224.293 160.391C214.921 161.185 206.265 162.138 198.323 163.25C190.381 164.203 182.915 165.315 175.926 166.585L174.02 166.824ZM330.613 157.77C326.324 157.77 322.671 156.976 319.653 155.387C316.635 153.64 314.491 151.416 313.22 148.716C311.949 146.016 311.711 143.077 312.505 139.9C328.071 139.265 341.255 135.056 352.056 127.272C363.016 119.33 370.8 109.641 375.406 98.2047C380.171 86.7682 381.283 75.7288 378.742 65.0865C371.435 63.4981 363.096 63.101 353.724 63.8952C344.353 64.6894 334.584 66.9132 324.418 70.5665C314.252 74.2198 304.643 79.3821 295.589 86.0534C292.571 77.4761 293.603 69.4546 298.686 61.9891C303.928 54.5236 311.552 48.5671 321.559 44.1196C331.566 39.6721 341.97 37.4483 352.771 37.4483C363.731 37.4483 372.626 39.7515 379.456 44.3579C386.286 48.9642 390.099 56.2709 390.893 66.2778L379.695 54.6031C386.048 55.3973 391.369 57.3033 395.658 60.3213C399.947 63.3393 403.123 67.2309 405.188 71.9961C407.253 76.7613 408.286 82.1618 408.286 88.1978C408.286 98.2047 404.553 108.688 397.088 119.648C389.622 130.449 379.853 139.503 367.782 146.81C355.71 154.116 343.32 157.77 330.613 157.77ZM352.056 230.439C342.367 230.439 335.06 226.468 330.136 218.526C325.212 210.425 322.353 200.26 321.559 188.029C320.924 175.798 321.638 162.297 323.703 147.525L340.62 147.048C340.779 164.52 342.447 177.784 345.623 186.838C348.959 195.891 354.042 200.418 360.872 200.418C364.366 200.418 368.02 198.989 371.832 196.13C375.644 193.271 378.9 189.538 381.601 184.931C385.73 188.426 386.842 193.906 384.936 201.371C383.189 208.678 379.218 215.349 373.023 221.385C366.829 227.421 359.84 230.439 352.056 230.439ZM286.058 229.248C280.817 228.136 276.448 226.786 272.954 225.197C269.618 223.609 267.077 221.703 265.33 219.479C263.741 217.255 262.947 214.555 262.947 211.378C262.947 207.248 265.488 198.115 270.571 183.978C275.654 169.842 283.437 149.192 293.921 122.031C298.845 109.482 303.61 97.0928 308.216 84.8621C312.982 72.6314 316.317 63.4187 318.223 57.2239C323.624 58.3358 327.992 59.6859 331.328 61.2743C334.822 62.8627 337.364 64.7688 338.952 66.9926C340.699 69.2164 341.573 71.9961 341.573 75.3317C341.573 77.5555 339.985 82.7178 336.808 90.8186C333.79 98.9195 328.469 112.818 320.844 132.514C311.632 155.546 304.007 175.163 297.971 191.364C292.094 207.407 288.123 220.035 286.058 229.248ZM459.811 230.677C447.104 230.677 437.733 226.548 431.697 218.288C425.82 210.028 422.881 199.386 422.881 186.361C422.881 173.654 425.343 161.185 430.267 148.954C435.191 136.565 441.307 127.987 448.613 123.222C455.92 118.298 462.909 119.33 469.58 126.319C462.115 134.579 456.317 144.189 452.187 155.149C448.057 165.95 445.992 176.036 445.992 185.408C445.992 192.397 447.104 197.956 449.328 202.086C451.711 206.057 455.205 208.043 459.811 208.043C468.389 208.043 477.681 200.815 487.688 186.361C497.695 171.907 506.193 154.672 513.182 134.659C520.171 114.486 523.665 97.3311 523.665 83.1943C523.665 75.8876 522.394 70.1694 519.853 66.0395C517.47 61.9097 513.817 59.8448 508.893 59.8448C499.998 59.8448 489.832 66.6749 478.396 80.3352C467.118 93.8366 457.191 111.15 448.613 132.276C440.195 153.243 435.191 174.051 433.603 194.7C429.632 196.289 425.978 196.686 422.643 195.891C419.307 194.938 416.607 192.715 414.542 189.22C412.477 185.567 411.445 180.484 411.445 173.971C411.445 158.405 415.574 139.741 423.834 117.98C432.253 96.0604 443.769 77.1584 458.382 61.2743C473.154 45.3903 489.594 37.4483 507.702 37.4483C521.044 37.4483 531.766 41.5782 539.867 49.8379C548.127 58.0975 552.256 70.3282 552.256 86.5299C552.256 104.32 547.968 124.731 539.39 147.763C530.813 170.636 519.376 190.173 505.081 206.375C490.944 222.577 475.854 230.677 459.811 230.677ZM611.384 230.201C602.648 230.201 595.182 228.374 588.988 224.721C582.952 221.068 578.663 216.302 576.122 210.425C573.739 204.389 573.262 198.274 574.692 192.079C570.403 190.332 567.226 186.917 565.162 181.834C563.097 176.592 562.064 170.477 562.064 163.488C562.064 148.557 566.273 131.085 574.692 111.071C583.269 90.898 593.991 73.6639 606.857 59.3683C619.882 44.9138 632.748 37.6866 645.455 37.6866C649.267 37.6866 652.524 38.4808 655.224 40.0692C657.924 41.4987 659.83 43.6431 660.942 46.5022C673.014 44.755 682.783 46.4228 690.248 51.5057C697.873 56.5886 701.685 65.8013 701.685 79.1439C701.685 89.7862 699.223 99.6343 694.299 108.688C689.375 117.742 683.259 124.254 675.953 128.225C668.805 132.196 662.372 132.594 656.654 129.417C661.26 122.269 665.31 113.533 668.805 103.208C672.458 92.8835 674.285 83.7502 674.285 75.8082C674.285 69.9311 673.093 65.2454 670.711 61.7509C668.487 58.2564 664.834 56.5091 659.751 56.5091C649.426 56.5091 638.784 63.4187 627.824 77.2378C616.864 91.0569 607.731 107.497 600.424 126.558C593.117 145.618 589.464 161.741 589.464 174.925C589.464 185.09 591.688 192.635 596.135 197.559C600.742 202.483 606.619 204.945 613.767 204.945C622.344 204.945 630.842 201.689 639.261 195.177C647.679 188.664 654.509 180.246 659.751 169.921C661.816 171.192 663.404 173.098 664.516 175.639C665.787 178.181 666.422 180.96 666.422 183.978C666.422 190.65 663.96 197.639 659.036 204.945C654.112 212.252 647.441 218.288 639.022 223.053C630.763 227.818 621.55 230.201 611.384 230.201ZM737.159 80.0969C733.506 74.6963 733.427 68.7398 736.921 62.2274C740.574 55.7149 747.007 50.235 756.22 45.7874C765.592 41.1811 776.393 38.8779 788.624 38.8779C802.284 38.8779 811.894 41.2605 817.453 46.0257C823.171 50.6321 825.713 56.8268 825.077 64.61C811.258 63.9746 795.851 65.1659 778.855 68.1839C761.859 71.2019 747.961 75.1729 737.159 80.0969ZM704.279 225.197C713.81 215.349 723.976 207.963 734.777 203.039C745.737 198.115 755.347 195.653 763.606 195.653C771.707 195.653 776.711 198.433 778.617 203.992C780.523 209.393 780.92 216.064 779.808 224.006C754.87 224.165 731.521 226.071 709.759 229.724L704.279 225.197ZM797.439 143.712C791.562 143.554 786.559 143.871 782.429 144.665C778.458 145.46 773.534 146.73 767.657 148.478C763.686 149.748 760.35 150.781 757.65 151.575C755.108 152.21 752.329 152.528 749.311 152.528C745.499 152.528 742.322 151.178 739.78 148.478C737.239 145.777 735.809 140.615 735.492 132.991C738.668 132.673 741.845 131.879 745.022 130.608C748.358 129.337 752.408 127.59 757.173 125.366C762.574 122.666 767.18 120.681 770.992 119.41C774.963 117.98 778.934 117.266 782.905 117.266C787.512 117.266 791.086 119.33 793.627 123.46C796.169 127.431 797.439 134.182 797.439 143.712ZM709.759 229.724C704.359 228.612 699.911 227.262 696.417 225.674C693.081 224.086 690.54 222.179 688.793 219.956C687.204 217.732 686.41 215.032 686.41 211.855C686.41 207.725 688.951 198.592 694.034 184.455C699.117 170.318 706.98 149.589 717.622 122.269C730.806 88.5949 738.907 66.9132 741.925 57.2239C747.325 58.3358 751.693 59.6859 755.029 61.2743C758.523 62.8627 761.065 64.7688 762.653 66.9926C764.242 69.2164 765.036 71.9961 765.036 75.3317C765.036 77.5555 763.527 82.7972 760.509 91.0569C757.491 99.1577 752.09 113.136 744.307 132.991C735.253 155.705 727.708 175.242 721.672 191.603C715.637 207.804 711.666 220.512 709.759 229.724ZM879.03 157.77C874.742 157.77 871.088 156.976 868.07 155.387C865.052 153.64 862.908 151.416 861.637 148.716C860.367 146.016 860.128 143.077 860.923 139.9C876.489 139.265 889.673 135.056 900.474 127.272C911.434 119.33 919.217 109.641 923.823 98.2047C928.589 86.7682 929.7 75.7288 927.159 65.0865C919.852 63.4981 911.513 63.101 902.142 63.8952C892.77 64.6894 883.001 66.9132 872.836 70.5665C862.67 74.2198 853.06 79.3821 844.006 86.0534C840.988 77.4761 842.021 69.4546 847.104 61.9891C852.345 54.5236 859.97 48.5671 869.977 44.1196C879.983 39.6721 890.388 37.4483 901.189 37.4483C912.149 37.4483 921.044 39.7515 927.874 44.3579C934.704 48.9642 938.516 56.2709 939.31 66.2778L928.112 54.6031C934.466 55.3973 939.787 57.3033 944.075 60.3213C948.364 63.3393 951.541 67.2309 953.606 71.9961C955.671 76.7613 956.703 82.1618 956.703 88.1978C956.703 98.2047 952.971 108.688 945.505 119.648C938.04 130.449 928.271 139.503 916.199 146.81C904.127 154.116 891.738 157.77 879.03 157.77ZM900.474 230.439C890.785 230.439 883.478 226.468 878.554 218.526C873.63 210.425 870.771 200.26 869.977 188.029C869.341 175.798 870.056 162.297 872.121 147.525L889.037 147.048C889.196 164.52 890.864 177.784 894.041 186.838C897.376 195.891 902.459 200.418 909.289 200.418C912.784 200.418 916.437 198.989 920.249 196.13C924.062 193.271 927.318 189.538 930.018 184.931C934.148 188.426 935.26 193.906 933.354 201.371C931.607 208.678 927.636 215.349 921.441 221.385C915.246 227.421 908.257 230.439 900.474 230.439ZM834.476 229.248C829.234 228.136 824.866 226.786 821.371 225.197C818.036 223.609 815.494 221.703 813.747 219.479C812.159 217.255 811.365 214.555 811.365 211.378C811.365 207.248 813.906 198.115 818.989 183.978C824.072 169.842 831.855 149.192 842.338 122.031C847.262 109.482 852.028 97.0928 856.634 84.8621C861.399 72.6314 864.735 63.4187 866.641 57.2239C872.041 58.3358 876.41 59.6859 879.745 61.2743C883.24 62.8627 885.781 64.7688 887.37 66.9926C889.117 69.2164 889.99 71.9961 889.99 75.3317C889.99 77.5555 888.402 82.7178 885.225 90.8186C882.207 98.9195 876.886 112.818 869.262 132.514C860.049 155.546 852.425 175.163 846.389 191.364C840.512 207.407 836.541 220.035 834.476 229.248ZM982.957 234.251C975.332 234.251 968.582 232.504 962.704 229.01C956.827 225.674 953.095 220.909 951.506 214.714C949.918 208.36 951.347 201.133 955.795 193.032C960.401 197.162 966.437 200.577 973.903 203.277C981.368 205.978 988.993 207.804 996.776 208.757C1004.56 209.552 1010.99 209.234 1016.07 207.804C1015.92 213.682 1014.41 218.606 1011.55 222.577C1008.85 226.548 1005.11 229.486 1000.35 231.392C995.584 233.298 989.787 234.251 982.957 234.251ZM1019.41 194.7C1011.15 196.289 1004.96 196.209 1000.83 194.462C996.696 192.556 993.917 189.379 992.487 184.931C991.216 180.325 990.66 174.21 990.819 166.585C991.296 126.081 991.534 97.887 991.534 82.003C991.693 71.043 991.613 62.2274 991.296 55.5561C991.137 48.8848 990.819 43.6431 990.343 39.8309C998.126 39.0367 1004.16 39.4338 1008.45 41.0222C1012.9 42.4518 1016 45.3109 1017.74 49.5996C1019.49 53.7294 1020.52 59.6859 1020.84 67.4691C1021.32 80.1763 1021.16 108.291 1020.36 151.813C1020.05 166.903 1019.73 181.199 1019.41 194.7ZM1035.61 205.66C1031.8 212.331 1028.15 216.938 1024.65 219.479C1021.16 221.862 1017.66 222.735 1014.17 222.1C1010.67 221.306 1006.62 219.32 1002.02 216.144L1000.59 215.191C1009.64 200.418 1020.13 181.596 1032.04 158.723C1043.95 135.85 1054.59 113.374 1063.97 91.2951C1073.34 69.2164 1078.98 51.7439 1080.88 38.8779C1088.35 40.1486 1093.99 42.5312 1097.8 46.0257C1101.77 49.3613 1103.6 53.9677 1103.28 59.8448C1103.12 69.534 1098.2 84.7827 1088.51 105.591C1078.98 126.399 1068.97 146.333 1058.49 165.394C1048 184.296 1040.38 197.718 1035.61 205.66Z"/>
</mask>
<path d="M157.342 230.677C151.782 230.677 146.938 229.407 142.808 226.865C138.837 224.165 135.978 220.591 134.231 216.144C132.483 211.537 132.086 206.534 133.039 201.133C125.256 195.256 121.365 185.329 121.365 171.351C121.365 154.99 125.971 136.168 135.184 114.883C144.396 93.5983 156.071 75.4111 170.208 60.3213C184.345 45.0726 198.164 37.4483 211.665 37.4483C216.748 37.4483 220.719 38.5602 223.578 40.784C226.437 43.0077 227.787 45.9463 227.629 49.5996L219.29 46.2639C226.755 43.4048 233.347 41.9753 239.065 41.9753C246.848 41.9753 253.122 44.5961 257.888 49.8379C262.812 54.9207 265.274 62.4657 265.274 72.4726C265.274 80.8911 263.685 88.436 260.509 95.1073C257.491 101.62 253.202 106.464 247.643 109.641C242.242 112.818 236.285 113.612 229.773 112.024C233.744 104.082 236.603 95.7427 238.35 87.0065C240.098 78.1114 240.018 70.6459 238.112 64.61C236.206 58.5741 231.997 55.5561 225.484 55.5561C214.048 55.3973 202.373 62.6245 190.46 77.2378C178.547 91.6922 168.62 109.006 160.678 129.179C152.894 149.192 149.003 166.506 149.003 181.119C149.003 189.22 150.353 195.574 153.053 200.18C155.912 204.628 160.201 206.851 165.919 206.851C170.684 206.851 175.767 204.945 181.168 201.133C186.568 197.162 191.651 191.444 196.417 183.978C201.341 176.354 205.312 167.3 208.33 156.817C212.301 157.611 212.142 164.441 207.853 177.307C203.723 190.173 196.972 202.324 187.601 213.761C178.229 225.039 168.143 230.677 157.342 230.677ZM203.326 256.648C193.001 255.377 186.807 251.565 184.742 245.211C182.677 238.858 183.709 230.439 187.839 219.956C189.904 215.191 191.89 210.425 193.796 205.66C198.561 194.065 202.294 184.693 204.994 177.545C207.694 170.398 209.362 164.123 209.997 158.723C216.986 159.04 222.149 160.311 225.484 162.535C228.82 164.759 230.726 167.618 231.203 171.112C231.838 174.448 231.282 178.657 229.535 183.74C227.629 189.141 225.405 195.097 222.863 201.61C218.098 213.523 213.968 224.165 210.474 233.537C207.138 242.908 204.756 250.612 203.326 256.648ZM174.02 166.824C175.45 159.517 179.738 153.481 186.886 148.716C194.193 143.792 202.373 140.297 211.427 138.232C220.64 136.009 229.058 134.897 236.683 134.897C245.101 134.897 250.581 136.644 253.122 140.139C255.664 143.474 256.14 149.51 254.552 158.246C243.91 158.723 233.823 159.438 224.293 160.391C214.921 161.185 206.265 162.138 198.323 163.25C190.381 164.203 182.915 165.315 175.926 166.585L174.02 166.824ZM330.613 157.77C326.324 157.77 322.671 156.976 319.653 155.387C316.635 153.64 314.491 151.416 313.22 148.716C311.949 146.016 311.711 143.077 312.505 139.9C328.071 139.265 341.255 135.056 352.056 127.272C363.016 119.33 370.8 109.641 375.406 98.2047C380.171 86.7682 381.283 75.7288 378.742 65.0865C371.435 63.4981 363.096 63.101 353.724 63.8952C344.353 64.6894 334.584 66.9132 324.418 70.5665C314.252 74.2198 304.643 79.3821 295.589 86.0534C292.571 77.4761 293.603 69.4546 298.686 61.9891C303.928 54.5236 311.552 48.5671 321.559 44.1196C331.566 39.6721 341.97 37.4483 352.771 37.4483C363.731 37.4483 372.626 39.7515 379.456 44.3579C386.286 48.9642 390.099 56.2709 390.893 66.2778L379.695 54.6031C386.048 55.3973 391.369 57.3033 395.658 60.3213C399.947 63.3393 403.123 67.2309 405.188 71.9961C407.253 76.7613 408.286 82.1618 408.286 88.1978C408.286 98.2047 404.553 108.688 397.088 119.648C389.622 130.449 379.853 139.503 367.782 146.81C355.71 154.116 343.32 157.77 330.613 157.77ZM352.056 230.439C342.367 230.439 335.06 226.468 330.136 218.526C325.212 210.425 322.353 200.26 321.559 188.029C320.924 175.798 321.638 162.297 323.703 147.525L340.62 147.048C340.779 164.52 342.447 177.784 345.623 186.838C348.959 195.891 354.042 200.418 360.872 200.418C364.366 200.418 368.02 198.989 371.832 196.13C375.644 193.271 378.9 189.538 381.601 184.931C385.73 188.426 386.842 193.906 384.936 201.371C383.189 208.678 379.218 215.349 373.023 221.385C366.829 227.421 359.84 230.439 352.056 230.439ZM286.058 229.248C280.817 228.136 276.448 226.786 272.954 225.197C269.618 223.609 267.077 221.703 265.33 219.479C263.741 217.255 262.947 214.555 262.947 211.378C262.947 207.248 265.488 198.115 270.571 183.978C275.654 169.842 283.437 149.192 293.921 122.031C298.845 109.482 303.61 97.0928 308.216 84.8621C312.982 72.6314 316.317 63.4187 318.223 57.2239C323.624 58.3358 327.992 59.6859 331.328 61.2743C334.822 62.8627 337.364 64.7688 338.952 66.9926C340.699 69.2164 341.573 71.9961 341.573 75.3317C341.573 77.5555 339.985 82.7178 336.808 90.8186C333.79 98.9195 328.469 112.818 320.844 132.514C311.632 155.546 304.007 175.163 297.971 191.364C292.094 207.407 288.123 220.035 286.058 229.248ZM459.811 230.677C447.104 230.677 437.733 226.548 431.697 218.288C425.82 210.028 422.881 199.386 422.881 186.361C422.881 173.654 425.343 161.185 430.267 148.954C435.191 136.565 441.307 127.987 448.613 123.222C455.92 118.298 462.909 119.33 469.58 126.319C462.115 134.579 456.317 144.189 452.187 155.149C448.057 165.95 445.992 176.036 445.992 185.408C445.992 192.397 447.104 197.956 449.328 202.086C451.711 206.057 455.205 208.043 459.811 208.043C468.389 208.043 477.681 200.815 487.688 186.361C497.695 171.907 506.193 154.672 513.182 134.659C520.171 114.486 523.665 97.3311 523.665 83.1943C523.665 75.8876 522.394 70.1694 519.853 66.0395C517.47 61.9097 513.817 59.8448 508.893 59.8448C499.998 59.8448 489.832 66.6749 478.396 80.3352C467.118 93.8366 457.191 111.15 448.613 132.276C440.195 153.243 435.191 174.051 433.603 194.7C429.632 196.289 425.978 196.686 422.643 195.891C419.307 194.938 416.607 192.715 414.542 189.22C412.477 185.567 411.445 180.484 411.445 173.971C411.445 158.405 415.574 139.741 423.834 117.98C432.253 96.0604 443.769 77.1584 458.382 61.2743C473.154 45.3903 489.594 37.4483 507.702 37.4483C521.044 37.4483 531.766 41.5782 539.867 49.8379C548.127 58.0975 552.256 70.3282 552.256 86.5299C552.256 104.32 547.968 124.731 539.39 147.763C530.813 170.636 519.376 190.173 505.081 206.375C490.944 222.577 475.854 230.677 459.811 230.677ZM611.384 230.201C602.648 230.201 595.182 228.374 588.988 224.721C582.952 221.068 578.663 216.302 576.122 210.425C573.739 204.389 573.262 198.274 574.692 192.079C570.403 190.332 567.226 186.917 565.162 181.834C563.097 176.592 562.064 170.477 562.064 163.488C562.064 148.557 566.273 131.085 574.692 111.071C583.269 90.898 593.991 73.6639 606.857 59.3683C619.882 44.9138 632.748 37.6866 645.455 37.6866C649.267 37.6866 652.524 38.4808 655.224 40.0692C657.924 41.4987 659.83 43.6431 660.942 46.5022C673.014 44.755 682.783 46.4228 690.248 51.5057C697.873 56.5886 701.685 65.8013 701.685 79.1439C701.685 89.7862 699.223 99.6343 694.299 108.688C689.375 117.742 683.259 124.254 675.953 128.225C668.805 132.196 662.372 132.594 656.654 129.417C661.26 122.269 665.31 113.533 668.805 103.208C672.458 92.8835 674.285 83.7502 674.285 75.8082C674.285 69.9311 673.093 65.2454 670.711 61.7509C668.487 58.2564 664.834 56.5091 659.751 56.5091C649.426 56.5091 638.784 63.4187 627.824 77.2378C616.864 91.0569 607.731 107.497 600.424 126.558C593.117 145.618 589.464 161.741 589.464 174.925C589.464 185.09 591.688 192.635 596.135 197.559C600.742 202.483 606.619 204.945 613.767 204.945C622.344 204.945 630.842 201.689 639.261 195.177C647.679 188.664 654.509 180.246 659.751 169.921C661.816 171.192 663.404 173.098 664.516 175.639C665.787 178.181 666.422 180.96 666.422 183.978C666.422 190.65 663.96 197.639 659.036 204.945C654.112 212.252 647.441 218.288 639.022 223.053C630.763 227.818 621.55 230.201 611.384 230.201ZM737.159 80.0969C733.506 74.6963 733.427 68.7398 736.921 62.2274C740.574 55.7149 747.007 50.235 756.22 45.7874C765.592 41.1811 776.393 38.8779 788.624 38.8779C802.284 38.8779 811.894 41.2605 817.453 46.0257C823.171 50.6321 825.713 56.8268 825.077 64.61C811.258 63.9746 795.851 65.1659 778.855 68.1839C761.859 71.2019 747.961 75.1729 737.159 80.0969ZM704.279 225.197C713.81 215.349 723.976 207.963 734.777 203.039C745.737 198.115 755.347 195.653 763.606 195.653C771.707 195.653 776.711 198.433 778.617 203.992C780.523 209.393 780.92 216.064 779.808 224.006C754.87 224.165 731.521 226.071 709.759 229.724L704.279 225.197ZM797.439 143.712C791.562 143.554 786.559 143.871 782.429 144.665C778.458 145.46 773.534 146.73 767.657 148.478C763.686 149.748 760.35 150.781 757.65 151.575C755.108 152.21 752.329 152.528 749.311 152.528C745.499 152.528 742.322 151.178 739.78 148.478C737.239 145.777 735.809 140.615 735.492 132.991C738.668 132.673 741.845 131.879 745.022 130.608C748.358 129.337 752.408 127.59 757.173 125.366C762.574 122.666 767.18 120.681 770.992 119.41C774.963 117.98 778.934 117.266 782.905 117.266C787.512 117.266 791.086 119.33 793.627 123.46C796.169 127.431 797.439 134.182 797.439 143.712ZM709.759 229.724C704.359 228.612 699.911 227.262 696.417 225.674C693.081 224.086 690.54 222.179 688.793 219.956C687.204 217.732 686.41 215.032 686.41 211.855C686.41 207.725 688.951 198.592 694.034 184.455C699.117 170.318 706.98 149.589 717.622 122.269C730.806 88.5949 738.907 66.9132 741.925 57.2239C747.325 58.3358 751.693 59.6859 755.029 61.2743C758.523 62.8627 761.065 64.7688 762.653 66.9926C764.242 69.2164 765.036 71.9961 765.036 75.3317C765.036 77.5555 763.527 82.7972 760.509 91.0569C757.491 99.1577 752.09 113.136 744.307 132.991C735.253 155.705 727.708 175.242 721.672 191.603C715.637 207.804 711.666 220.512 709.759 229.724ZM879.03 157.77C874.742 157.77 871.088 156.976 868.07 155.387C865.052 153.64 862.908 151.416 861.637 148.716C860.367 146.016 860.128 143.077 860.923 139.9C876.489 139.265 889.673 135.056 900.474 127.272C911.434 119.33 919.217 109.641 923.823 98.2047C928.589 86.7682 929.7 75.7288 927.159 65.0865C919.852 63.4981 911.513 63.101 902.142 63.8952C892.77 64.6894 883.001 66.9132 872.836 70.5665C862.67 74.2198 853.06 79.3821 844.006 86.0534C840.988 77.4761 842.021 69.4546 847.104 61.9891C852.345 54.5236 859.97 48.5671 869.977 44.1196C879.983 39.6721 890.388 37.4483 901.189 37.4483C912.149 37.4483 921.044 39.7515 927.874 44.3579C934.704 48.9642 938.516 56.2709 939.31 66.2778L928.112 54.6031C934.466 55.3973 939.787 57.3033 944.075 60.3213C948.364 63.3393 951.541 67.2309 953.606 71.9961C955.671 76.7613 956.703 82.1618 956.703 88.1978C956.703 98.2047 952.971 108.688 945.505 119.648C938.04 130.449 928.271 139.503 916.199 146.81C904.127 154.116 891.738 157.77 879.03 157.77ZM900.474 230.439C890.785 230.439 883.478 226.468 878.554 218.526C873.63 210.425 870.771 200.26 869.977 188.029C869.341 175.798 870.056 162.297 872.121 147.525L889.037 147.048C889.196 164.52 890.864 177.784 894.041 186.838C897.376 195.891 902.459 200.418 909.289 200.418C912.784 200.418 916.437 198.989 920.249 196.13C924.062 193.271 927.318 189.538 930.018 184.931C934.148 188.426 935.26 193.906 933.354 201.371C931.607 208.678 927.636 215.349 921.441 221.385C915.246 227.421 908.257 230.439 900.474 230.439ZM834.476 229.248C829.234 228.136 824.866 226.786 821.371 225.197C818.036 223.609 815.494 221.703 813.747 219.479C812.159 217.255 811.365 214.555 811.365 211.378C811.365 207.248 813.906 198.115 818.989 183.978C824.072 169.842 831.855 149.192 842.338 122.031C847.262 109.482 852.028 97.0928 856.634 84.8621C861.399 72.6314 864.735 63.4187 866.641 57.2239C872.041 58.3358 876.41 59.6859 879.745 61.2743C883.24 62.8627 885.781 64.7688 887.37 66.9926C889.117 69.2164 889.99 71.9961 889.99 75.3317C889.99 77.5555 888.402 82.7178 885.225 90.8186C882.207 98.9195 876.886 112.818 869.262 132.514C860.049 155.546 852.425 175.163 846.389 191.364C840.512 207.407 836.541 220.035 834.476 229.248ZM982.957 234.251C975.332 234.251 968.582 232.504 962.704 229.01C956.827 225.674 953.095 220.909 951.506 214.714C949.918 208.36 951.347 201.133 955.795 193.032C960.401 197.162 966.437 200.577 973.903 203.277C981.368 205.978 988.993 207.804 996.776 208.757C1004.56 209.552 1010.99 209.234 1016.07 207.804C1015.92 213.682 1014.41 218.606 1011.55 222.577C1008.85 226.548 1005.11 229.486 1000.35 231.392C995.584 233.298 989.787 234.251 982.957 234.251ZM1019.41 194.7C1011.15 196.289 1004.96 196.209 1000.83 194.462C996.696 192.556 993.917 189.379 992.487 184.931C991.216 180.325 990.66 174.21 990.819 166.585C991.296 126.081 991.534 97.887 991.534 82.003C991.693 71.043 991.613 62.2274 991.296 55.5561C991.137 48.8848 990.819 43.6431 990.343 39.8309C998.126 39.0367 1004.16 39.4338 1008.45 41.0222C1012.9 42.4518 1016 45.3109 1017.74 49.5996C1019.49 53.7294 1020.52 59.6859 1020.84 67.4691C1021.32 80.1763 1021.16 108.291 1020.36 151.813C1020.05 166.903 1019.73 181.199 1019.41 194.7ZM1035.61 205.66C1031.8 212.331 1028.15 216.938 1024.65 219.479C1021.16 221.862 1017.66 222.735 1014.17 222.1C1010.67 221.306 1006.62 219.32 1002.02 216.144L1000.59 215.191C1009.64 200.418 1020.13 181.596 1032.04 158.723C1043.95 135.85 1054.59 113.374 1063.97 91.2951C1073.34 69.2164 1078.98 51.7439 1080.88 38.8779C1088.35 40.1486 1093.99 42.5312 1097.8 46.0257C1101.77 49.3613 1103.6 53.9677 1103.28 59.8448C1103.12 69.534 1098.2 84.7827 1088.51 105.591C1078.98 126.399 1068.97 146.333 1058.49 165.394C1048 184.296 1040.38 197.718 1035.61 205.66Z" fill="white"/>
<path d="M142.808 226.865L122.268 257.072C122.726 257.383 123.191 257.685 123.663 257.975L142.808 226.865ZM134.231 216.144L100.076 229.099C100.127 229.233 100.179 229.367 100.232 229.5L134.231 216.144ZM133.039 201.133L169.012 207.481C171.397 193.965 166.005 180.253 155.052 171.982L133.039 201.133ZM135.184 114.883L168.707 129.393L168.707 129.393L135.184 114.883ZM170.208 60.3213L196.866 85.2954C196.909 85.249 196.952 85.2025 196.996 85.1558L170.208 60.3213ZM223.578 40.784L246.005 11.9501L246.005 11.95L223.578 40.784ZM227.629 49.5996L214.062 83.5156C225.056 87.913 237.499 86.7091 247.446 80.2855C257.392 73.8619 263.608 63.0156 264.123 51.1863L227.629 49.5996ZM219.29 46.2639L206.225 12.1514C192.185 17.5287 182.873 30.9597 182.762 45.9944C182.651 61.0291 191.763 74.596 205.723 80.1799L219.29 46.2639ZM257.888 49.8379L230.859 74.4097C231.118 74.6954 231.383 74.977 231.651 75.2543L257.888 49.8379ZM260.509 95.1073L227.528 79.4024C227.474 79.5175 227.419 79.6328 227.366 79.7485L260.509 95.1073ZM247.643 109.641L229.519 77.9254C229.386 78.0014 229.254 78.0783 229.122 78.1559L247.643 109.641ZM229.773 112.024L197.101 95.6877C192.129 105.631 191.956 117.297 196.63 127.383C201.304 137.469 210.317 144.878 221.117 147.512L229.773 112.024ZM238.35 87.0065L274.17 94.1704C274.178 94.1293 274.186 94.0882 274.194 94.0472L238.35 87.0065ZM238.112 64.61L203.279 75.6099L203.279 75.6099L238.112 64.61ZM225.484 55.5561L224.977 92.0812C225.146 92.0836 225.315 92.0847 225.484 92.0847L225.484 55.5561ZM190.46 77.2378L218.649 100.47C218.69 100.42 218.731 100.369 218.773 100.319L190.46 77.2378ZM160.678 129.179L126.688 115.797C126.67 115.844 126.651 115.892 126.633 115.939L160.678 129.179ZM153.053 200.18L121.54 218.653C121.793 219.085 122.055 219.512 122.326 219.933L153.053 200.18ZM181.168 201.133L202.233 230.976C202.426 230.84 202.617 230.702 202.807 230.562L181.168 201.133ZM196.417 183.978L165.731 164.161C165.696 164.215 165.661 164.27 165.626 164.325L196.417 183.978ZM208.33 156.817L215.493 120.997C196.861 117.271 178.483 128.451 173.227 146.711L208.33 156.817ZM207.853 177.307L173.199 165.756C173.156 165.885 173.114 166.014 173.072 166.143L207.853 177.307ZM187.601 213.761L215.695 237.107C215.749 237.043 215.802 236.978 215.855 236.914L187.601 213.761ZM203.326 256.648L198.864 292.903C217.345 295.177 234.58 283.186 238.871 265.066L203.326 256.648ZM184.742 245.211L219.482 233.921L219.482 233.921L184.742 245.211ZM187.839 219.956L154.322 205.432C154.159 205.807 154.003 206.186 153.853 206.567L187.839 219.956ZM193.796 205.66L160.009 191.775C159.965 191.881 159.922 191.987 159.88 192.094L193.796 205.66ZM204.994 177.545L170.822 164.636L170.822 164.636L204.994 177.545ZM209.997 158.723L211.656 122.232C192.517 121.362 175.958 135.427 173.719 154.455L209.997 158.723ZM225.484 162.535L245.747 132.141L245.747 132.141L225.484 162.535ZM231.203 171.112L195.009 176.048C195.096 176.684 195.199 177.317 195.319 177.947L231.203 171.112ZM229.535 183.74L263.981 195.898C264.014 195.803 264.047 195.709 264.079 195.615L229.535 183.74ZM222.863 201.61L256.779 215.176C256.818 215.081 256.855 214.985 256.893 214.889L222.863 201.61ZM210.474 233.537L176.247 220.774C176.184 220.945 176.121 221.116 176.06 221.288L210.474 233.537ZM174.02 166.824L138.171 159.81C135.922 171.307 139.323 183.185 147.317 191.749C155.31 200.313 166.926 204.523 178.551 203.07L174.02 166.824ZM186.886 148.716L207.149 179.11C207.199 179.076 207.25 179.042 207.3 179.008L186.886 148.716ZM211.427 138.232L219.549 173.847C219.699 173.812 219.849 173.777 219.998 173.741L211.427 138.232ZM253.122 140.139L223.58 161.624C223.74 161.843 223.902 162.061 224.066 162.276L253.122 140.139ZM254.552 158.246L256.186 194.738C273.209 193.976 287.443 181.546 290.491 164.781L254.552 158.246ZM224.293 160.391L227.378 196.789C227.561 196.773 227.744 196.756 227.928 196.738L224.293 160.391ZM198.323 163.25L202.675 199.518C202.913 199.49 203.15 199.459 203.387 199.426L198.323 163.25ZM175.926 166.585L180.457 202.832C181.128 202.748 181.796 202.646 182.461 202.525L175.926 166.585ZM157.342 194.149C157.351 194.149 157.893 194.151 158.807 194.391C159.751 194.639 160.851 195.078 161.953 195.755L123.663 257.975C134.354 264.554 146.033 267.206 157.342 267.206V194.149ZM163.348 196.659C164.229 197.257 165.251 198.143 166.209 199.34C167.168 200.539 167.823 201.751 168.23 202.787L100.232 229.5C104.681 240.827 112.249 250.259 122.268 257.072L163.348 196.659ZM168.385 203.189C168.76 204.177 168.967 205.168 169.036 206.046C169.104 206.9 169.024 207.412 169.012 207.481L97.0665 194.785C95.1027 205.914 95.7383 217.662 100.076 229.099L168.385 203.189ZM155.052 171.982C155.928 172.644 156.702 173.435 157.313 174.262C157.911 175.071 158.195 175.701 158.292 175.948C158.38 176.173 158.274 175.978 158.148 175.205C158.022 174.427 157.893 173.172 157.893 171.351H84.8359C84.8359 191.552 90.6078 214.866 111.027 230.284L155.052 171.982ZM157.893 171.351C157.893 161.606 160.709 147.87 168.707 129.393L101.661 100.373C91.2326 124.465 84.8359 148.374 84.8359 171.351H157.893ZM168.707 129.393C176.451 111.5 185.93 96.9687 196.866 85.2954L143.55 35.3472C126.213 53.8535 112.341 75.6966 101.661 100.373L168.707 129.393ZM196.996 85.1558C207.913 73.3794 212.722 73.9769 211.665 73.9769V0.919692C183.605 0.919692 160.776 16.7659 143.42 35.4868L196.996 85.1558ZM211.665 73.9769C211.617 73.9769 210.469 73.9795 208.606 73.458C206.656 72.9118 203.946 71.7911 201.152 69.6179L246.005 11.95C234.593 3.07435 221.663 0.919692 211.665 0.919692V73.9769ZM201.152 69.6179C198.518 67.569 195.596 64.3752 193.542 59.9064C191.495 55.4506 190.995 51.2162 191.135 48.0129L264.123 51.1863C264.79 35.8478 258.309 21.52 246.005 11.9501L201.152 69.6179ZM241.195 15.6836L232.856 12.348L205.723 80.1799L214.062 83.5156L241.195 15.6836ZM232.354 80.3765C237.186 78.5259 239.206 78.5039 239.065 78.5039V5.44665C227.487 5.44665 216.324 8.28373 206.225 12.1514L232.354 80.3765ZM239.065 78.5039C238.817 78.5039 237.45 78.4499 235.528 77.647C233.525 76.8103 231.918 75.5747 230.859 74.4097L284.917 25.2661C272.501 11.6087 256.006 5.44665 239.065 5.44665V78.5039ZM231.651 75.2543C230.777 74.3514 230.094 73.4192 229.588 72.5544C229.09 71.7021 228.826 71.0239 228.701 70.6405C228.473 69.9436 228.745 70.3607 228.745 72.4726H301.802C301.802 56.931 297.965 38.7094 284.124 24.4214L231.651 75.2543ZM228.745 72.4726C228.745 76.216 228.063 78.2787 227.528 79.4024L293.489 110.812C299.307 98.5933 301.802 85.5663 301.802 72.4726H228.745ZM227.366 79.7485C227.186 80.1357 227.231 79.9172 227.677 79.4125C228.15 78.8783 228.797 78.3382 229.519 77.9254L265.766 141.357C278.693 133.97 287.848 122.989 293.651 110.466L227.366 79.7485ZM229.122 78.1559C230.442 77.3794 232.235 76.6861 234.297 76.4113C236.309 76.1429 237.782 76.3778 238.429 76.5355L221.117 147.512C236.153 151.179 251.96 149.481 266.163 141.126L229.122 78.1559ZM262.445 128.36C267.873 117.504 271.788 106.079 274.17 94.1704L202.531 79.8426C201.418 85.4059 199.615 90.6595 197.101 95.6877L262.445 128.36ZM274.194 94.0472C276.643 81.5819 277.318 67.4589 272.945 53.6101L203.279 75.6099C202.973 74.6423 203.067 74.3654 203.075 75.1247C203.083 75.9015 202.998 77.4647 202.507 79.9658L274.194 94.0472ZM272.945 53.6101C270.154 44.7723 264.651 35.1881 254.81 28.1329C245.064 21.1451 234.396 19.0275 225.484 19.0275V92.0847C223.085 92.0847 217.778 91.4761 212.241 87.5062C206.61 83.469 204.164 78.4117 203.279 75.6099L272.945 53.6101ZM225.992 19.031C197.816 18.6397 176.601 36.4267 162.147 54.1568L218.773 100.319C223.053 95.0687 226.012 92.7621 227.378 91.9164C228.492 91.2264 227.511 92.1164 224.977 92.0812L225.992 19.031ZM162.271 54.0054C147.571 71.8425 135.818 92.6063 126.688 115.797L194.667 142.56C201.421 125.405 209.524 111.542 218.649 100.47L162.271 54.0054ZM126.633 115.939C117.909 138.371 112.474 160.379 112.474 181.119H185.531C185.531 172.633 187.88 160.014 194.722 142.418L126.633 115.939ZM112.474 181.119C112.474 192.615 114.28 206.269 121.54 218.653L184.566 181.707C185.571 183.421 185.777 184.515 185.746 184.367C185.735 184.314 185.678 184.028 185.626 183.47C185.574 182.913 185.531 182.138 185.531 181.119H112.474ZM122.326 219.933C132.535 235.814 148.981 243.38 165.919 243.38V170.323C167.841 170.323 171.303 170.72 175.229 172.755C179.275 174.853 182.094 177.804 183.78 180.427L122.326 219.933ZM165.919 243.38C180.643 243.38 192.99 237.5 202.233 230.976L160.102 171.29C158.544 172.39 160.726 170.323 165.919 170.323V243.38ZM202.807 230.562C212.793 223.22 220.755 213.74 227.207 203.632L165.626 164.325C162.548 169.147 160.344 171.104 159.529 171.704L202.807 230.562ZM227.102 203.796C234.311 192.634 239.618 180.172 243.433 166.922L173.227 146.711C171.005 154.429 168.37 160.074 165.731 164.161L227.102 203.796ZM201.166 192.636C196.54 191.711 191.597 189.679 187.091 186.148C182.637 182.656 179.699 178.556 177.861 174.88C174.533 168.224 174.646 162.719 174.67 161.686C174.723 159.423 175.091 160.08 173.199 165.756L242.507 188.858C244.904 181.669 247.496 172.478 247.707 163.384C247.811 158.936 247.487 150.77 243.206 142.208C237.995 131.787 228.196 123.538 215.493 120.997L201.166 192.636ZM173.072 166.143C170.472 174.243 166.084 182.387 159.347 190.608L215.855 236.914C227.861 222.262 236.974 206.103 242.634 188.471L173.072 166.143ZM159.506 190.415C156.951 193.49 155.411 194.436 155.182 194.564C155.102 194.609 155.312 194.482 155.788 194.354C156.277 194.222 156.822 194.149 157.342 194.149V267.206C182.531 267.206 202.01 253.576 215.695 237.107L159.506 190.415ZM207.788 220.393C205.757 220.143 207.219 219.964 210.081 221.726C211.649 222.69 213.585 224.213 215.415 226.465C217.275 228.754 218.637 231.322 219.482 233.921L150.002 256.502C158.64 283.08 183.184 290.973 198.864 292.903L207.788 220.393ZM219.482 233.921C220.479 236.991 220.188 238.875 220.224 238.579C220.238 238.466 220.31 237.973 220.561 237.055C220.81 236.141 221.208 234.912 221.826 233.344L153.853 206.567C148.569 219.979 144.041 238.16 150.002 256.502L219.482 233.921ZM221.356 234.48C223.557 229.401 225.676 224.317 227.712 219.226L159.88 192.094C158.104 196.534 156.251 200.98 154.322 205.432L221.356 234.48ZM227.582 219.545C232.408 207.802 236.289 198.069 239.165 190.455L170.822 164.636C168.298 171.317 164.714 180.327 160.009 191.775L227.582 219.545ZM239.165 190.455C242.529 181.551 245.184 172.269 246.276 162.991L173.719 154.455C173.54 155.978 172.859 159.244 170.822 164.636L239.165 190.455ZM208.339 195.214C210.148 195.296 210.711 195.465 210.38 195.384C210.177 195.334 209.598 195.179 208.748 194.83C207.896 194.479 206.66 193.887 205.222 192.929L245.747 132.141C234.143 124.405 220.968 122.655 211.656 122.232L208.339 195.214ZM205.222 192.929C203.537 191.805 201.152 189.804 199.022 186.61C196.823 183.312 195.498 179.634 195.009 176.048L267.396 166.177C265.303 150.827 256.474 139.293 245.747 132.141L205.222 192.929ZM195.319 177.947C194.751 174.965 194.938 172.823 195.048 171.988C195.16 171.142 195.27 171.05 194.99 171.865L264.079 195.615C266.803 187.692 269.412 176.488 267.086 164.277L195.319 177.947ZM195.089 171.583C193.34 176.536 191.261 182.112 188.834 188.33L256.893 214.889C259.549 208.083 261.917 201.746 263.981 195.898L195.089 171.583ZM188.947 188.043C184.104 200.153 179.866 211.071 176.247 220.774L244.7 246.299C248.071 237.259 252.093 226.893 256.779 215.176L188.947 188.043ZM176.06 221.288C172.509 231.263 169.644 240.364 167.781 248.229L238.871 265.066C239.868 260.86 241.767 254.553 244.888 245.785L176.06 221.288ZM209.869 173.838C209.593 175.248 208.964 176.738 208.086 177.974C207.271 179.122 206.698 179.41 207.149 179.11L166.624 118.322C152.724 127.589 141.762 141.458 138.171 159.81L209.869 173.838ZM207.3 179.008C210.674 176.734 214.646 174.965 219.549 173.847L203.304 102.618C190.1 105.63 177.711 110.85 166.472 118.424L207.3 179.008ZM219.998 173.741C227.052 172.039 232.544 171.425 236.683 171.425V98.3682C225.573 98.3682 214.227 99.9788 202.856 102.724L219.998 173.741ZM236.683 171.425C238.704 171.425 238.103 171.677 236.01 171.01C233.773 170.296 228.186 167.956 223.58 161.624L282.665 118.653C268.883 99.7041 246.542 98.3682 236.683 98.3682V171.425ZM224.066 162.276C219.592 156.404 219.052 151.073 218.971 150.042C218.875 148.826 219.079 149.146 218.613 151.712L290.491 164.781C291.613 158.61 292.374 151.544 291.801 144.292C291.243 137.225 289.194 127.209 282.179 118.001L224.066 162.276ZM252.918 121.754C241.681 122.257 230.923 123.017 220.658 124.043L227.928 196.738C236.724 195.858 246.139 195.188 256.186 194.738L252.918 121.754ZM221.208 123.992C211.284 124.833 201.958 125.856 193.258 127.074L203.387 199.426C210.571 198.42 218.558 197.536 227.378 196.789L221.208 123.992ZM193.97 126.981C185.387 128.011 177.188 129.228 169.392 130.646L182.461 202.525C188.642 201.401 195.374 200.394 202.675 199.518L193.97 126.981ZM171.395 130.339L169.489 130.577L178.551 203.07L180.457 202.832L171.395 130.339ZM319.653 155.387L301.351 187C301.776 187.246 302.205 187.483 302.64 187.712L319.653 155.387ZM313.22 148.716L346.272 133.162L346.272 133.162L313.22 148.716ZM312.505 139.9L311.015 103.402C294.821 104.063 280.998 115.317 277.067 131.041L312.505 139.9ZM352.056 127.272L373.412 156.908C373.438 156.889 373.464 156.871 373.49 156.852L352.056 127.272ZM375.406 98.2047L341.687 84.1552C341.631 84.2889 341.577 84.4229 341.522 84.5572L375.406 98.2047ZM378.742 65.0865L414.271 56.6019C411.011 42.9499 400.217 32.3733 386.501 29.3916L378.742 65.0865ZM353.724 63.8952L350.64 27.4971L350.64 27.4971L353.724 63.8952ZM295.589 86.0534L261.131 98.1775C264.974 109.102 273.771 117.556 284.838 120.964C295.906 124.372 307.934 122.331 317.257 115.461L295.589 86.0534ZM298.686 61.9891L268.791 40.9987C268.69 41.1421 268.59 41.2863 268.492 41.4312L298.686 61.9891ZM321.559 44.1196L336.395 77.4999L336.395 77.4999L321.559 44.1196ZM379.456 44.3579L359.032 74.6427L359.032 74.6427L379.456 44.3579ZM390.893 66.2778L364.531 91.5638C375.22 102.708 391.762 105.927 405.851 99.6036C419.939 93.2804 428.529 78.7815 427.307 63.3878L390.893 66.2778ZM379.695 54.6031L384.225 18.3565C368.879 16.4383 353.988 24.3919 347.049 38.2133C340.11 52.0346 342.627 68.7279 353.333 79.8891L379.695 54.6031ZM405.188 71.9961L371.671 86.5201L371.671 86.5201L405.188 71.9961ZM397.088 119.648L427.137 140.418C427.184 140.349 427.231 140.281 427.278 140.212L397.088 119.648ZM367.782 146.81L386.696 178.06L386.696 178.06L367.782 146.81ZM330.136 218.526L298.922 237.5C298.978 237.592 299.034 237.683 299.091 237.775L330.136 218.526ZM321.559 188.029L285.08 189.924C285.088 190.081 285.097 190.239 285.107 190.396L321.559 188.029ZM323.703 147.525L322.675 111.01C304.851 111.513 289.995 124.809 287.527 142.468L323.703 147.525ZM340.62 147.048L377.147 146.716C377.058 136.908 373.028 127.547 365.964 120.742C358.9 113.936 349.396 110.258 339.591 110.534L340.62 147.048ZM345.623 186.838L311.155 198.932C311.218 199.11 311.282 199.288 311.347 199.466L345.623 186.838ZM371.832 196.13L393.749 225.353L393.749 225.353L371.832 196.13ZM381.601 184.931L405.196 157.046C396.965 150.082 386.079 147.109 375.451 148.924C364.823 150.739 355.54 157.157 350.087 166.458L381.601 184.931ZM384.936 201.371L349.543 192.335C349.497 192.515 349.453 192.695 349.409 192.876L384.936 201.371ZM373.023 221.385L398.515 247.548L398.515 247.548L373.023 221.385ZM286.058 229.248L278.478 264.981C298.054 269.134 317.326 256.763 321.703 237.237L286.058 229.248ZM272.954 225.197L257.249 258.178C257.445 258.271 257.641 258.362 257.838 258.452L272.954 225.197ZM265.33 219.479L235.605 240.711C235.929 241.164 236.263 241.61 236.606 242.047L265.33 219.479ZM270.571 183.978L236.197 171.619L236.197 171.619L270.571 183.978ZM293.921 122.031L259.917 108.687C259.892 108.751 259.867 108.814 259.842 108.878L293.921 122.031ZM308.216 84.8621L274.18 71.6011C274.13 71.7296 274.081 71.8584 274.032 71.9874L308.216 84.8621ZM318.223 57.2239L325.59 21.4457C307.151 17.6495 288.846 28.4883 283.31 46.4814L318.223 57.2239ZM331.328 61.2743L315.623 94.2546C315.818 94.3477 316.015 94.4391 316.212 94.5288L331.328 61.2743ZM338.952 66.9926L309.227 88.2244C309.551 88.6774 309.885 89.123 310.229 89.5608L338.952 66.9926ZM336.808 90.8186L302.801 77.4825C302.724 77.6764 302.65 77.871 302.577 78.0661L336.808 90.8186ZM320.844 132.514L354.76 146.081C354.811 145.954 354.861 145.828 354.91 145.701L320.844 132.514ZM297.971 191.364L263.741 178.612C263.718 178.674 263.695 178.737 263.672 178.799L297.971 191.364ZM330.613 121.241C330.758 121.241 333.259 121.269 336.666 123.062L302.64 187.712C312.083 192.682 321.89 194.298 330.613 194.298V121.241ZM337.955 123.774C340.259 125.108 343.868 128.054 346.272 133.162L280.168 164.27C285.113 174.778 293.011 182.171 301.351 187L337.955 123.774ZM346.272 133.162C347.479 135.727 348.258 138.582 348.497 141.535C348.733 144.442 348.405 146.914 347.943 148.76L277.067 131.041C274.443 141.539 274.956 153.195 280.168 164.27L346.272 133.162ZM313.995 176.398C335.469 175.522 355.87 169.549 373.412 156.908L330.701 97.6365C326.64 100.563 320.674 103.008 311.015 103.402L313.995 176.398ZM373.49 156.852C389.453 145.285 401.867 130.281 409.289 111.852L341.522 84.5572C339.733 89.0012 336.58 93.3762 330.622 97.6934L373.49 156.852ZM409.125 112.254C416.451 94.671 418.84 75.7327 414.271 56.6019L343.212 73.5712C343.726 75.7249 343.891 78.8654 341.687 84.1552L409.125 112.254ZM386.501 29.3916C374.856 26.86 362.75 26.4708 350.64 27.4971L356.809 100.293C363.442 99.7312 368.014 100.136 370.982 100.781L386.501 29.3916ZM350.64 27.4971C337.676 28.5957 324.786 31.6186 312.064 36.1903L336.772 104.943C344.382 102.208 351.03 100.783 356.809 100.293L350.64 27.4971ZM312.064 36.1903C298.434 41.0885 285.704 47.9628 273.92 56.6458L317.257 115.461C323.581 110.801 330.07 107.351 336.772 104.943L312.064 36.1903ZM330.047 73.9294C330.193 74.3461 330.627 75.9513 330.329 78.2676C330.03 80.5933 329.191 82.0913 328.881 82.5471L268.492 41.4312C256.822 58.5709 254.29 78.7357 261.131 98.1775L330.047 73.9294ZM328.582 82.9796C329.32 81.9284 331.22 79.8 336.395 77.4999L306.723 10.7393C291.885 17.3343 278.536 27.1189 268.791 40.9987L328.582 82.9796ZM336.395 77.4999C341.798 75.0985 347.153 73.9769 352.771 73.9769V0.919692C336.787 0.919692 321.334 4.24565 306.723 10.7394L336.395 77.4999ZM352.771 73.9769C358.814 73.9769 359.934 75.2515 359.032 74.6427L399.881 14.073C385.318 4.25147 368.648 0.919692 352.771 0.919692V73.9769ZM359.032 74.6427C358.308 74.1549 357.521 73.4937 356.771 72.6548C356.022 71.816 355.454 70.9603 355.052 70.1895C354.251 68.6534 354.387 68.0163 354.479 69.1678L427.307 63.3878C425.845 44.9723 417.955 26.2627 399.881 14.073L359.032 74.6427ZM417.255 40.9918L406.057 29.317L353.333 79.8891L364.531 91.5638L417.255 40.9918ZM375.164 90.8496C376.029 90.9577 376.298 91.0767 376.132 91.0172C375.941 90.9487 375.377 90.716 374.636 90.1947L416.68 30.448C406.531 23.3063 395.218 19.7306 384.225 18.3565L375.164 90.8496ZM374.636 90.1947C374.178 89.8722 373.567 89.3474 372.96 88.6033C372.351 87.8573 371.93 87.1178 371.671 86.5201L438.705 57.472C433.94 46.4746 426.41 37.2951 416.68 30.448L374.636 90.1947ZM371.671 86.5201C371.577 86.3026 371.591 86.2594 371.633 86.4796C371.677 86.7118 371.757 87.2605 371.757 88.1978H444.814C444.814 77.9683 443.053 67.505 438.705 57.472L371.671 86.5201ZM371.757 88.1978C371.757 88.8275 371.555 92.2458 366.897 99.0838L427.278 140.212C437.551 125.13 444.814 107.582 444.814 88.1978H371.757ZM367.038 98.8786C362.718 105.13 356.864 110.719 348.867 115.56L386.696 178.06C402.843 168.287 416.527 155.769 427.137 140.418L367.038 98.8786ZM348.867 115.56C341.852 119.806 335.933 121.241 330.613 121.241V194.298C350.708 194.298 369.568 188.427 386.696 178.06L348.867 115.56ZM352.056 193.911C352.294 193.911 354.229 193.995 356.752 195.366C359.335 196.769 360.724 198.538 361.182 199.278L299.091 237.775C310.969 256.934 330.292 266.968 352.056 266.968V193.911ZM361.351 199.553C360.25 197.741 358.532 193.684 358.011 185.662L285.107 190.396C286.175 206.835 290.175 223.109 298.922 237.5L361.351 199.553ZM358.038 186.134C357.546 176.662 358.07 165.529 359.88 152.582L287.527 142.468C285.207 159.064 284.301 174.935 285.08 189.924L358.038 186.134ZM324.732 184.039L341.648 183.562L339.591 110.534L322.675 111.01L324.732 184.039ZM304.093 147.38C304.263 166.136 305.979 184.179 311.155 198.932L380.092 174.743C378.914 171.388 377.294 162.905 377.147 146.716L304.093 147.38ZM311.347 199.466C314.275 207.413 319.143 216.731 327.642 224.301C336.899 232.546 348.533 236.947 360.872 236.947V163.89C363.278 163.89 366.107 164.304 369.053 165.423C372 166.543 374.408 168.12 376.232 169.745C379.649 172.788 380.308 175.316 379.9 174.209L311.347 199.466ZM360.872 236.947C374.697 236.947 385.879 231.255 393.749 225.353L349.915 166.907C350.16 166.723 354.036 163.89 360.872 163.89V236.947ZM393.749 225.353C401.884 219.252 408.256 211.692 413.114 203.405L350.087 166.458C349.802 166.946 349.625 167.152 349.606 167.173C349.594 167.187 349.694 167.072 349.915 166.907L393.749 225.353ZM358.005 212.817C353.575 209.068 350.751 203.944 349.733 198.926C348.862 194.632 349.62 192.035 349.543 192.335L420.33 210.408C424.013 195.982 424.362 173.263 405.196 157.046L358.005 212.817ZM349.409 192.876C349.409 192.878 349.409 192.878 349.409 192.878C349.408 192.879 349.406 192.886 349.4 192.901C349.39 192.927 349.352 193.015 349.259 193.171C349.077 193.476 348.601 194.18 347.531 195.222L398.515 247.548C408.893 237.436 416.878 224.862 420.463 209.867L349.409 192.876ZM347.531 195.222C347.194 195.551 347.542 195.12 348.654 194.64C349.836 194.13 351.082 193.911 352.056 193.911V266.968C370.46 266.968 386.327 259.424 398.515 247.548L347.531 195.222ZM293.638 193.514C290.054 192.754 288.411 192.098 288.07 191.943L257.838 258.452C264.486 261.473 271.579 263.518 278.478 264.981L293.638 193.514ZM288.659 192.217C288.908 192.336 291.423 193.564 294.053 196.911L236.606 242.047C242.73 249.842 250.328 254.882 257.249 258.178L288.659 192.217ZM295.054 198.247C298.58 203.183 299.476 208.219 299.476 211.378H226.418C226.418 220.891 228.903 231.328 235.605 240.711L295.054 198.247ZM299.476 211.378C299.476 213.637 299.18 214.841 299.299 214.217C299.371 213.844 299.58 212.895 300.045 211.223C300.978 207.87 302.555 202.987 304.946 196.338L236.197 171.619C233.505 179.107 231.27 185.859 229.662 191.639C228.349 196.357 226.418 203.887 226.418 211.378H299.476ZM304.946 196.338C309.882 182.609 317.542 162.277 327.999 135.184L259.842 108.878C249.333 136.108 241.427 157.074 236.197 171.619L304.946 196.338ZM327.925 135.374C332.908 122.675 337.734 110.129 342.401 97.7368L274.032 71.9874C269.486 84.0566 264.781 96.2899 259.917 108.687L327.925 135.374ZM342.253 98.1231C347.085 85.7212 350.822 75.49 353.137 67.9665L283.31 46.4814C281.813 51.3474 278.878 59.5416 274.18 71.6011L342.253 98.1231ZM310.857 93.0021C312.63 93.367 313.905 93.7048 314.763 93.97C315.641 94.2415 315.867 94.3708 315.623 94.2546L347.033 28.2941C340.084 24.9852 332.607 22.8906 325.59 21.4457L310.857 93.0021ZM316.212 94.5288C316.109 94.4817 312.578 92.9155 309.227 88.2244L368.677 45.7608C362.149 36.6222 353.536 31.2438 346.443 28.0199L316.212 94.5288ZM310.229 89.5608C306.05 84.2425 305.044 78.6532 305.044 75.3317H378.102C378.102 65.3389 375.348 54.1902 367.675 44.4244L310.229 89.5608ZM305.044 75.3317C305.044 73.5426 305.196 72.178 305.295 71.4438C305.4 70.6583 305.511 70.1104 305.563 69.8705C305.658 69.4286 305.675 69.4579 305.468 70.1287C305.279 70.7456 304.974 71.667 304.515 72.9429C304.062 74.2049 303.495 75.7116 302.801 77.4825L370.815 104.155C372.563 99.6978 374.12 95.4328 375.295 91.6138C376.066 89.109 378.102 82.5239 378.102 75.3317H305.044ZM302.577 78.0661C299.649 85.9258 294.404 99.6294 286.779 119.328L354.91 145.701C362.533 126.007 367.93 111.913 371.038 103.571L302.577 78.0661ZM286.928 118.948C277.65 142.145 269.911 162.049 263.741 178.612L332.202 204.117C338.103 188.276 345.614 168.947 354.76 146.081L286.928 118.948ZM263.672 178.799C257.609 195.348 252.999 209.725 250.414 221.259L321.703 237.237C323.247 230.346 326.579 219.466 332.271 203.93L263.672 178.799ZM431.697 218.288L401.934 239.466C402.023 239.591 402.113 239.716 402.204 239.84L431.697 218.288ZM430.267 148.954L464.153 162.596C464.173 162.546 464.193 162.496 464.213 162.445L430.267 148.954ZM448.613 123.222L468.568 153.819C468.722 153.718 468.875 153.617 469.027 153.514L448.613 123.222ZM469.58 126.319L496.68 150.813C509.507 136.621 509.212 114.935 496.003 101.097L469.58 126.319ZM452.187 155.149L486.307 168.195C486.328 168.14 486.349 168.084 486.37 168.029L452.187 155.149ZM449.328 202.086L417.166 219.404C417.434 219.903 417.714 220.395 418.005 220.88L449.328 202.086ZM487.688 186.361L517.721 207.153L517.721 207.153L487.688 186.361ZM513.182 134.659L547.668 146.701C547.678 146.673 547.688 146.645 547.698 146.617L513.182 134.659ZM519.853 66.0395L488.212 84.2937C488.385 84.593 488.562 84.8898 488.743 85.1841L519.853 66.0395ZM478.396 80.3352L450.387 56.8861C450.378 56.8966 450.37 56.9072 450.361 56.9177L478.396 80.3352ZM448.613 132.276L414.768 118.534C414.75 118.578 414.733 118.622 414.715 118.665L448.613 132.276ZM433.603 194.7L447.169 228.616C460.093 223.446 468.956 211.381 470.024 197.502L433.603 194.7ZM422.643 195.891L412.608 231.015C413.129 231.164 413.654 231.301 414.182 231.427L422.643 195.891ZM414.542 189.22L382.742 207.194C382.857 207.398 382.974 207.601 383.094 207.803L414.542 189.22ZM423.834 117.98L389.734 104.884C389.717 104.928 389.7 104.973 389.683 105.018L423.834 117.98ZM458.382 61.2743L431.633 36.3979C431.588 36.4459 431.544 36.4941 431.499 36.5424L458.382 61.2743ZM539.867 49.8379L513.788 75.4155C513.87 75.4999 513.954 75.5839 514.037 75.6675L539.867 49.8379ZM539.39 147.763L573.593 160.589C573.603 160.563 573.613 160.537 573.622 160.511L539.39 147.763ZM505.081 206.375L477.69 182.207C477.646 182.257 477.601 182.308 477.557 182.359L505.081 206.375ZM459.811 194.149C457.344 194.149 457.052 193.743 457.983 194.153C458.46 194.363 459.086 194.716 459.74 195.242C460.394 195.767 460.876 196.307 461.19 196.735L402.204 239.84C416.787 259.797 438.599 267.206 459.811 267.206V194.149ZM461.46 197.11C461.09 196.59 459.41 193.957 459.41 186.361H386.352C386.352 204.815 390.55 223.466 401.934 239.466L461.46 197.11ZM459.41 186.361C459.41 178.504 460.908 170.657 464.153 162.596L396.382 135.312C389.779 151.713 386.352 168.804 386.352 186.361H459.41ZM464.213 162.445C465.862 158.297 467.319 155.796 468.29 154.435C469.235 153.109 469.438 153.251 468.568 153.819L428.659 92.6253C412.497 103.165 402.652 119.534 396.321 135.463L464.213 162.445ZM469.027 153.514C467.072 154.831 461.595 157.562 453.997 156.44C446.94 155.397 443.397 151.793 443.157 151.542L496.003 101.097C489.092 93.8572 478.719 86.2418 464.673 84.1669C450.086 82.0119 437.461 86.6886 428.199 92.9301L469.027 153.514ZM442.48 101.826C431.79 113.653 423.662 127.254 418.005 142.269L486.37 168.029C488.971 161.124 492.439 155.505 496.68 150.813L442.48 101.826ZM418.067 142.103C412.705 156.128 409.464 170.67 409.464 185.408H482.521C482.521 181.403 483.41 175.772 486.307 168.195L418.067 142.103ZM409.464 185.408C409.464 195.708 411.012 207.976 417.166 219.404L481.49 184.768C482.407 186.471 482.635 187.602 482.645 187.655C482.655 187.701 482.621 187.547 482.587 187.158C482.552 186.77 482.521 186.194 482.521 185.408H409.464ZM418.005 220.88C426.946 235.781 442.29 244.571 459.811 244.571V171.514C462.898 171.514 467.267 172.228 471.781 174.794C476.287 177.353 479.105 180.715 480.651 183.292L418.005 220.88ZM459.811 244.571C474.775 244.571 486.939 238.223 495.64 231.456C504.278 224.738 511.54 216.082 517.721 207.153L457.654 165.569C455.827 168.208 454.278 170.16 453.031 171.56C451.771 172.976 451.007 173.618 450.787 173.788C450.196 174.248 453.425 171.514 459.811 171.514V244.571ZM517.721 207.153C529.937 189.509 539.81 169.204 547.668 146.701L478.695 122.616C472.576 140.14 465.453 154.304 457.654 165.569L517.721 207.153ZM547.698 146.617C555.41 124.356 560.194 102.919 560.194 83.1943H487.137C487.137 91.7436 484.931 104.616 478.666 122.7L547.698 146.617ZM560.194 83.1943C560.194 72.3114 558.41 58.996 550.963 46.895L488.743 85.1841C487.494 83.1536 487.122 81.6588 487.053 81.3498C486.989 81.0611 487.137 81.5817 487.137 83.1943H560.194ZM551.494 47.7854C542.328 31.898 526.344 23.3162 508.893 23.3162V96.3734C506.155 96.3734 501.892 95.76 497.352 93.194C492.754 90.5951 489.831 87.0994 488.212 84.2937L551.494 47.7854ZM508.893 23.3162C482.278 23.3162 462.564 42.3412 450.387 56.8861L506.404 103.784C508.534 101.24 510.361 99.3075 511.873 97.8733C513.398 96.4276 514.435 95.6465 514.969 95.288C516.23 94.4408 513.965 96.3734 508.893 96.3734V23.3162ZM450.361 56.9177C436.061 74.0374 424.371 94.8818 414.768 118.534L482.459 146.018C490.01 127.419 498.175 113.636 506.431 103.753L450.361 56.9177ZM414.715 118.665C405.035 142.773 399.08 167.217 397.182 191.899L470.024 197.502C471.302 180.884 475.354 163.712 482.511 145.887L414.715 118.665ZM420.036 160.784C421.319 160.271 425.467 159.014 431.104 160.356L414.182 231.427C426.49 234.357 437.945 232.306 447.169 228.616L420.036 160.784ZM432.678 160.768C435.876 161.682 438.848 163.261 441.337 165.311C443.748 167.296 445.201 169.301 445.99 170.637L383.094 207.803C389.05 217.884 398.768 227.06 412.608 231.015L432.678 160.768ZM446.342 171.246C447.579 173.434 447.943 175.033 448.017 175.397C448.091 175.764 447.973 175.375 447.973 173.971H374.916C374.916 183.613 376.322 195.836 382.742 207.194L446.342 171.246ZM447.973 173.971C447.973 164.457 450.595 150.414 457.985 130.943L389.683 105.018C380.554 129.069 374.916 152.353 374.916 173.971H447.973ZM457.934 131.077C464.848 113.076 474.033 98.2145 485.264 86.0063L431.499 36.5424C413.504 56.1023 399.658 79.0448 389.734 104.884L457.934 131.077ZM485.131 86.1508C494.474 76.1043 501.73 73.9769 507.702 73.9769V0.919692C477.458 0.919692 451.834 14.6763 431.633 36.3979L485.131 86.1508ZM507.702 73.9769C510.596 73.9769 512.066 74.4196 512.62 74.633C513.071 74.8066 513.369 74.9889 513.788 75.4155L565.946 24.2602C549.91 7.90937 529.221 0.919692 507.702 0.919692V73.9769ZM514.037 75.6675C513.788 75.4183 514.092 75.5361 514.55 76.8918C515.067 78.4225 515.728 81.4342 515.728 86.5299H588.785C588.785 64.4588 583.102 41.4139 565.696 24.0082L514.037 75.6675ZM515.728 86.5299C515.728 98.6543 512.755 114.616 505.159 135.014L573.622 160.511C583.18 134.846 588.785 109.986 588.785 86.5299H515.728ZM505.188 134.937C497.969 154.185 488.685 169.746 477.69 182.207L532.471 230.543C550.068 210.601 563.657 187.086 573.593 160.589L505.188 134.937ZM477.557 182.359C467.868 193.462 462.03 194.149 459.811 194.149V267.206C489.678 267.206 514.02 251.691 532.605 230.391L477.557 182.359ZM588.988 224.721L570.073 255.971C570.192 256.043 570.312 256.115 570.432 256.185L588.988 224.721ZM576.122 210.425L542.144 223.837C542.288 224.202 542.438 224.564 542.593 224.924L576.122 210.425ZM574.692 192.079L610.285 200.293C614.316 182.825 605.076 165.014 588.474 158.25L574.692 192.079ZM565.162 181.834L531.175 195.223C531.222 195.343 531.27 195.463 531.319 195.583L565.162 181.834ZM574.692 111.071L541.076 96.7773C541.058 96.8207 541.039 96.8641 541.021 96.9075L574.692 111.071ZM606.857 59.3683L579.72 34.9154C579.716 34.9209 579.711 34.9264 579.706 34.9319L606.857 59.3683ZM655.224 40.0692L636.703 71.5545C637.174 71.8312 637.65 72.0974 638.133 72.3527L655.224 40.0692ZM660.942 46.5022L626.897 59.7419C633.061 75.5906 649.345 85.09 666.175 82.6541L660.942 46.5022ZM690.248 51.5057L669.69 81.7002C669.788 81.7671 669.887 81.8334 669.986 81.8993L690.248 51.5057ZM694.299 108.688L726.388 126.141L726.388 126.141L694.299 108.688ZM675.953 128.225L658.51 96.1306C658.41 96.1845 658.311 96.2389 658.213 96.2937L675.953 128.225ZM656.654 129.417L625.949 109.629C620.476 118.121 618.765 128.5 621.221 138.299C623.678 148.098 630.083 156.442 638.914 161.349L656.654 129.417ZM668.805 103.208L634.368 91.023C634.313 91.1807 634.258 91.3388 634.204 91.4972L668.805 103.208ZM670.711 61.7509L639.893 81.3622C640.1 81.6878 640.313 82.01 640.53 82.3289L670.711 61.7509ZM627.824 77.2378L656.444 99.9365L656.444 99.9365L627.824 77.2378ZM600.424 126.558L634.533 139.633L634.533 139.633L600.424 126.558ZM596.135 197.559L569.027 222.044C569.17 222.202 569.314 222.359 569.46 222.514L596.135 197.559ZM639.261 195.177L661.611 224.069L661.611 224.069L639.261 195.177ZM659.751 169.921L678.895 138.811C670.202 133.462 659.668 131.993 649.843 134.762C640.018 137.53 631.8 144.283 627.18 153.385L659.751 169.921ZM664.516 175.639L631.05 190.281C631.3 190.852 631.565 191.417 631.844 191.975L664.516 175.639ZM659.036 204.945L689.328 225.359L689.328 225.359L659.036 204.945ZM639.022 223.053L621.028 191.264C620.941 191.313 620.855 191.363 620.768 191.413L639.022 223.053ZM611.384 193.672C609.551 193.672 608.45 193.48 607.915 193.349C607.414 193.226 607.36 193.148 607.544 193.256L570.432 256.185C583.343 263.8 597.521 266.73 611.384 266.73V193.672ZM607.902 193.471C607.644 193.314 607.916 193.437 608.396 193.971C608.898 194.529 609.346 195.224 609.65 195.927L542.593 224.924C548.454 238.476 558.237 248.808 570.073 255.971L607.902 193.471ZM610.099 197.013C610.166 197.182 610.335 197.7 610.395 198.474C610.456 199.255 610.375 199.903 610.285 200.293L539.099 183.865C535.97 197.424 537.106 211.074 542.144 223.837L610.099 197.013ZM588.474 158.25C591.287 159.396 593.835 161.174 595.839 163.328C597.754 165.386 598.655 167.227 599.004 168.086L531.319 195.583C536.352 207.971 545.831 219.765 560.91 225.908L588.474 158.25ZM599.148 168.445C599.113 168.357 598.593 166.959 598.593 163.488H525.536C525.536 173.995 527.08 184.827 531.175 195.223L599.148 168.445ZM598.593 163.488C598.593 155.104 601.045 142.631 608.363 125.234L541.021 96.9075C531.502 119.538 525.536 142.01 525.536 163.488H598.593ZM608.308 125.364C615.523 108.395 624.191 94.7127 634.009 83.8046L579.706 34.9319C563.791 52.6151 551.015 73.4012 541.076 96.7773L608.308 125.364ZM633.994 83.8211C643.757 72.9859 647.534 74.2152 645.455 74.2152V1.15796C617.963 1.15796 596.007 16.8417 579.72 34.9154L633.994 83.8211ZM645.455 74.2152C644.164 74.2152 640.718 73.9163 636.703 71.5545L673.745 8.5839C664.329 3.04524 654.37 1.15796 645.455 1.15796V74.2152ZM638.133 72.3527C635.88 71.1603 633.505 69.4124 631.377 67.0179C629.25 64.6252 627.806 62.078 626.897 59.7419L694.987 33.2626C690.709 22.2617 682.805 13.3391 672.315 7.78564L638.133 72.3527ZM666.175 82.6541C669.27 82.2061 670.805 82.3871 671.175 82.4502C671.336 82.4777 671.215 82.4717 670.894 82.3462C670.565 82.2171 670.14 82.0067 669.69 81.7002L710.806 21.3111C693.477 9.51275 673.605 7.76023 655.71 10.3503L666.175 82.6541ZM669.986 81.8993C668.768 81.0875 667.648 80.0624 666.728 78.9114C665.823 77.7807 665.32 76.7918 665.073 76.1942C664.64 75.149 665.156 75.7351 665.156 79.1439H738.213C738.213 59.5569 732.422 35.7194 710.511 21.112L669.986 81.8993ZM665.156 79.1439C665.156 83.8961 664.123 87.7164 662.209 91.2358L726.388 126.141C734.323 111.552 738.213 95.6762 738.213 79.1439H665.156ZM662.209 91.2358C661.014 93.4323 660.015 94.6925 659.39 95.3579C659.081 95.6871 658.855 95.88 658.724 95.9827C658.595 96.0834 658.525 96.122 658.51 96.1306L693.396 160.32C708.229 152.259 718.904 139.902 726.388 126.141L662.209 91.2358ZM658.213 96.2937C658.216 96.2917 658.665 96.0414 659.541 95.7595C660.435 95.4718 661.785 95.1492 663.516 95.0423C667.368 94.8046 671.254 95.7409 674.393 97.485L638.914 161.349C658.499 172.229 678.68 168.498 693.692 160.157L658.213 96.2937ZM687.358 149.204C693.971 138.943 699.204 127.332 703.405 114.919L634.204 91.4972C631.417 99.7336 628.549 105.595 625.949 109.629L687.358 149.204ZM703.241 115.393C707.793 102.531 710.813 89.145 710.813 75.8082H637.756C637.756 78.3555 637.124 83.2364 634.368 91.023L703.241 115.393ZM710.813 75.8082C710.813 65.3583 708.735 52.6758 700.892 41.1729L640.53 82.3289C637.452 77.8149 637.756 74.504 637.756 75.8082H710.813ZM701.529 42.1396C691.017 25.6218 674.059 19.9805 659.751 19.9805V93.0378C658.192 93.0378 654.727 92.7746 650.543 90.7733C646.053 88.6263 642.364 85.2452 639.893 81.3622L701.529 42.1396ZM659.751 19.9805C632.377 19.9805 612.33 37.9894 599.204 54.5391L656.444 99.9365C660.35 95.0122 662.932 92.9689 663.917 92.3289C664.679 91.8347 663.114 93.0378 659.751 93.0378V19.9805ZM599.204 54.5391C585.606 71.6847 574.747 91.4873 566.316 113.483L634.533 139.633C640.714 123.506 648.122 110.429 656.444 99.9365L599.204 54.5391ZM566.316 113.483C558.191 134.678 552.936 155.512 552.936 174.925H625.993C625.993 167.97 628.044 156.559 634.533 139.633L566.316 113.483ZM552.936 174.925C552.936 189.49 555.993 207.613 569.027 222.044L623.243 173.075C625.311 175.364 626.018 177.364 626.17 177.88C626.287 178.275 625.993 177.475 625.993 174.925H552.936ZM569.46 222.514C581.425 235.305 597.19 241.474 613.767 241.474V168.417C614.45 168.417 616.067 168.55 618.112 169.407C620.205 170.284 621.8 171.523 622.811 172.604L569.46 222.514ZM613.767 241.474C632.222 241.474 648.368 234.314 661.611 224.069L616.91 166.284C615.057 167.717 613.912 168.236 613.503 168.393C613.169 168.521 613.32 168.417 613.767 168.417V241.474ZM661.611 224.069C674.676 213.963 684.849 201.176 692.322 186.457L627.18 153.385C624.169 159.315 620.682 163.366 616.91 166.284L661.611 224.069ZM640.606 201.031C635.447 197.856 632.478 193.543 631.05 190.281L697.982 160.998C694.331 152.652 688.184 144.527 678.895 138.811L640.606 201.031ZM631.844 191.975C630.422 189.131 629.894 186.27 629.894 183.978H702.951C702.951 175.651 701.152 167.23 697.188 159.303L631.844 191.975ZM629.894 183.978C629.894 183.388 629.949 182.907 630.011 182.562C630.072 182.222 630.132 182.059 630.122 182.087C630.094 182.167 629.789 182.98 628.744 184.531L689.328 225.359C697.034 213.925 702.951 199.924 702.951 183.978H629.894ZM628.744 184.531C627.283 186.699 625.012 189.009 621.028 191.264L657.016 254.842C669.87 247.567 680.941 237.805 689.328 225.359L628.744 184.531ZM620.768 191.413C618.427 192.763 615.58 193.672 611.384 193.672V266.73C627.519 266.73 643.098 262.873 657.276 254.694L620.768 191.413ZM737.159 80.0969L706.903 100.564C716.894 115.333 736.088 120.731 752.312 113.335L737.159 80.0969ZM736.921 62.2274L705.063 44.3557C704.951 44.5548 704.841 44.7549 704.734 44.956L736.921 62.2274ZM756.22 45.7874L772.101 78.6833C772.179 78.6458 772.256 78.6081 772.334 78.57L756.22 45.7874ZM817.453 46.0257L793.681 73.7603C793.963 74.002 794.248 74.2395 794.538 74.4725L817.453 46.0257ZM825.077 64.61L823.4 101.1C843.049 102.003 859.885 87.1863 861.485 67.582L825.077 64.61ZM778.855 68.1839L772.468 32.2179L772.468 32.2179L778.855 68.1839ZM704.279 225.197L678.03 199.795C670.946 207.114 667.241 217.06 667.807 227.23C668.374 237.4 673.162 246.872 681.015 253.36L704.279 225.197ZM734.777 203.039L719.807 169.719C719.746 169.746 719.685 169.774 719.624 169.802L734.777 203.039ZM778.617 203.992L744.063 215.839C744.098 215.943 744.134 216.046 744.171 216.15L778.617 203.992ZM779.808 224.006L780.041 260.534C798.169 260.419 813.47 247.025 815.984 229.071L779.808 224.006ZM709.759 229.724L686.495 257.887C694.663 264.634 705.359 267.503 715.807 265.749L709.759 229.724ZM797.439 143.712L796.452 180.228C806.308 180.494 815.853 176.765 822.918 169.889C829.983 163.012 833.968 153.572 833.968 143.712H797.439ZM782.429 144.665L775.531 108.794C775.442 108.811 775.353 108.829 775.265 108.846L782.429 144.665ZM767.657 148.478L757.247 113.464C757.005 113.536 756.764 113.61 756.524 113.687L767.657 148.478ZM757.65 151.575L766.509 187.013C766.994 186.892 767.477 186.76 767.957 186.619L757.65 151.575ZM739.78 148.478L713.18 173.513L713.18 173.513L739.78 148.478ZM735.492 132.991L731.857 96.6434C712.602 98.5689 698.189 115.177 698.995 134.511L735.492 132.991ZM745.022 130.608L732.018 96.4725C731.83 96.5442 731.642 96.6174 731.456 96.6921L745.022 130.608ZM757.173 125.366L772.621 158.468C772.919 158.329 773.215 158.186 773.509 158.039L757.173 125.366ZM770.992 119.41L782.544 154.064C782.819 153.972 783.093 153.877 783.365 153.779L770.992 119.41ZM793.627 123.46L762.517 142.605C762.63 142.788 762.744 142.97 762.86 143.151L793.627 123.46ZM709.759 229.724L702.393 265.503C722.14 269.568 741.446 256.867 745.531 237.125L709.759 229.724ZM696.417 225.674L680.712 258.654C680.908 258.747 681.104 258.839 681.301 258.928L696.417 225.674ZM688.793 219.956L659.068 241.188C659.392 241.641 659.725 242.086 660.069 242.524L688.793 219.956ZM717.622 122.269L683.607 108.952C683.6 108.971 683.592 108.991 683.585 109.01L717.622 122.269ZM741.925 57.2239L749.291 21.4457C730.899 17.6592 712.633 28.4331 707.049 46.3609L741.925 57.2239ZM755.029 61.2743L739.324 94.2546C739.52 94.3477 739.716 94.4391 739.913 94.5288L755.029 61.2743ZM762.653 66.9926L732.929 88.2244L732.929 88.2245L762.653 66.9926ZM760.509 91.0569L794.739 103.809C794.766 103.737 794.793 103.665 794.819 103.593L760.509 91.0569ZM744.307 132.991L778.24 146.516C778.265 146.452 778.291 146.387 778.316 146.322L744.307 132.991ZM721.672 191.603L755.903 204.355C755.916 204.319 755.93 204.283 755.943 204.246L721.672 191.603ZM767.415 59.6296C769.19 62.2534 770.821 66.2702 770.885 71.0921C770.946 75.6262 769.594 78.595 769.109 79.4988L704.734 44.956C700.754 52.3723 697.695 61.5756 697.834 72.0661C697.978 82.8445 701.475 92.5398 706.903 100.564L767.415 59.6296ZM768.779 80.099C768.232 81.0741 767.818 81.3433 768.173 81.0402C768.58 80.6943 769.736 79.8251 772.101 78.6833L740.339 12.8915C726.82 19.418 713.508 29.302 705.063 44.3557L768.779 80.099ZM772.334 78.57C775.901 76.8166 781.027 75.4065 788.624 75.4065V2.34926C771.759 2.34926 755.283 5.54556 740.107 13.0049L772.334 78.57ZM788.624 75.4065C793.523 75.4065 796.21 75.8534 797.286 76.12C798.416 76.4001 796.472 76.153 793.681 73.7603L841.226 18.2911C825.326 4.66314 804.368 2.34926 788.624 2.34926V75.4065ZM794.538 74.4725C793.073 73.2928 791.142 71.1329 789.853 67.9912C788.601 64.9407 788.597 62.5321 788.67 61.6379L861.485 67.582C863.031 48.6465 856.199 30.3315 840.369 17.5789L794.538 74.4725ZM826.755 28.1199C809.669 27.3344 791.5 28.8384 772.468 32.2179L785.241 104.15C800.202 101.493 812.847 100.615 823.4 101.1L826.755 28.1199ZM772.468 32.2179C753.685 35.5533 736.554 40.2276 722.007 46.8592L752.312 113.335C759.367 110.118 770.033 106.85 785.241 104.15L772.468 32.2179ZM730.529 250.6C737.367 243.534 743.875 239.037 749.929 236.277L719.624 169.802C704.077 176.889 690.252 187.165 678.03 199.795L730.529 250.6ZM749.747 236.359C757.969 232.666 762.3 232.182 763.606 232.182V159.125C748.393 159.125 733.505 163.565 719.807 169.719L749.747 236.359ZM763.606 232.182C763.594 232.182 762.829 232.185 761.521 231.908C760.192 231.626 758.109 231.011 755.695 229.67C750.071 226.546 745.952 221.351 744.063 215.839L813.171 192.145C809.375 181.074 801.801 171.71 791.174 165.806C781.457 160.407 771.433 159.125 763.606 159.125V232.182ZM744.171 216.15C743.817 215.148 743.851 214.735 743.88 215.217C743.91 215.715 743.917 216.908 743.632 218.941L815.984 229.071C817.601 217.518 817.538 204.515 813.063 191.835L744.171 216.15ZM779.575 187.478C752.935 187.648 727.623 189.686 703.712 193.7L715.807 265.749C735.418 262.457 756.805 260.682 780.041 260.534L779.575 187.478ZM733.024 201.562L727.544 197.035L681.015 253.36L686.495 257.887L733.024 201.562ZM798.426 107.197C790.864 106.993 783.055 107.347 775.531 108.794L789.327 180.537C790.062 180.395 792.261 180.114 796.452 180.228L798.426 107.197ZM775.265 108.846C769.798 109.94 763.711 111.542 757.247 113.464L778.066 183.492C783.357 181.919 787.117 180.98 789.593 180.485L775.265 108.846ZM756.524 113.687C752.71 114.907 749.67 115.846 747.343 116.531L767.957 186.619C771.03 185.715 774.661 184.589 778.79 183.268L756.524 113.687ZM748.79 116.137C749.546 115.948 749.784 115.999 749.311 115.999V189.057C754.873 189.057 760.671 188.473 766.509 187.013L748.79 116.137ZM749.311 115.999C751.8 115.999 754.976 116.46 758.357 117.897C761.76 119.344 764.446 121.387 766.38 123.442L713.18 173.513C722.84 183.777 735.746 189.057 749.311 189.057V115.999ZM766.38 123.442C770.581 127.906 771.793 132.064 772.006 132.832C772.274 133.801 772.076 133.569 771.989 131.47L698.995 134.511C699.353 143.124 700.85 160.413 713.18 173.513L766.38 123.442ZM739.126 169.338C745.947 168.656 752.459 166.976 758.588 164.524L731.456 96.6921C731.332 96.7417 731.314 96.7396 731.397 96.7188C731.482 96.6976 731.639 96.6651 731.857 96.6434L739.126 169.338ZM758.026 164.744C762.475 163.049 767.39 160.909 772.621 158.468L741.726 92.2647C737.426 94.2714 734.241 95.6259 732.018 96.4725L758.026 164.744ZM773.509 158.039C778.05 155.768 780.966 154.59 782.544 154.064L759.441 84.7558C753.394 86.7713 747.098 89.5638 740.837 92.6942L773.509 158.039ZM783.365 153.779C783.519 153.724 783.532 153.732 783.42 153.752C783.304 153.773 783.124 153.794 782.905 153.794V80.7369C774.458 80.7369 766.308 82.2726 758.619 85.0405L783.365 153.779ZM782.905 153.794C779.554 153.794 775.159 152.981 770.766 150.443C766.457 147.953 763.867 144.798 762.517 142.605L824.737 104.316C815.972 90.0732 800.987 80.7369 782.905 80.7369V153.794ZM762.86 143.151C761.729 141.385 761.146 139.954 760.877 139.197C760.605 138.431 760.552 138.066 760.588 138.259C760.622 138.438 760.708 138.97 760.783 139.928C760.857 140.877 760.911 142.126 760.911 143.712H833.968C833.968 133.041 832.937 117.117 824.394 103.769L762.86 143.151ZM717.126 193.946C715.324 193.575 713.965 193.222 712.984 192.924C712.501 192.778 712.142 192.654 711.892 192.562C711.642 192.469 711.529 192.418 711.533 192.42L681.301 258.928C688.093 262.016 695.375 264.058 702.393 265.503L717.126 193.946ZM712.122 192.694C712.371 192.813 714.886 194.041 717.516 197.388L660.069 242.524C666.193 250.318 673.791 255.359 680.712 258.654L712.122 192.694ZM718.517 198.724C722.043 203.66 722.939 208.696 722.939 211.855H649.881C649.881 221.368 652.366 231.804 659.068 241.188L718.517 198.724ZM722.939 211.855C722.939 214.114 722.643 215.317 722.762 214.694C722.834 214.32 723.042 213.372 723.508 211.7C724.441 208.346 726.018 203.463 728.409 196.814L659.66 172.096C656.968 179.583 654.733 186.335 653.124 192.115C651.812 196.833 649.881 204.363 649.881 211.855H722.939ZM728.409 196.814C733.324 183.142 741.046 162.773 751.659 135.528L683.585 109.01C672.913 136.406 664.91 157.495 659.66 172.096L728.409 196.814ZM751.637 135.586C764.681 102.267 773.316 79.2736 776.801 68.0869L707.049 46.3609C704.497 54.5527 696.93 74.9225 683.607 108.952L751.637 135.586ZM734.558 93.0021C736.331 93.367 737.606 93.7048 738.464 93.97C739.342 94.2415 739.568 94.3708 739.324 94.2546L770.734 28.2941C763.785 24.9852 756.309 22.8906 749.291 21.4457L734.558 93.0021ZM739.913 94.5288C739.81 94.4817 736.279 92.9155 732.929 88.2244L792.378 45.7608C785.85 36.6222 777.237 31.2438 770.145 28.0199L739.913 94.5288ZM732.929 88.2245C729.193 82.9944 728.507 77.9012 728.507 75.3317H801.564C801.564 66.0909 799.29 55.4383 792.378 45.7607L732.929 88.2245ZM728.507 75.3317C728.507 73.6507 728.642 72.3783 728.726 71.7168C728.816 71.004 728.91 70.5183 728.948 70.3283C729.018 69.9833 729.012 70.0945 728.801 70.8254C728.38 72.2876 727.569 74.7718 726.199 78.5205L794.819 103.593C796.467 99.0823 797.919 94.8158 799.007 91.0362C799.732 88.5198 801.564 82.1642 801.564 75.3317H728.507ZM726.279 78.3044C723.381 86.0824 718.083 99.7993 710.298 119.659L778.316 146.322C786.097 126.472 791.601 112.233 794.739 103.809L726.279 78.3044ZM710.375 119.465C701.247 142.366 693.58 162.213 687.402 178.959L755.943 204.246C761.837 188.272 769.26 169.044 778.24 146.516L710.375 119.465ZM687.442 178.85C681.199 195.609 676.462 210.37 673.988 222.323L745.531 237.125C746.87 230.653 750.074 220 755.903 204.355L687.442 178.85ZM868.07 155.387L849.768 187C850.193 187.246 850.623 187.483 851.057 187.712L868.07 155.387ZM861.637 148.716L894.689 133.162L894.689 133.162L861.637 148.716ZM860.923 139.9L859.433 103.402C843.238 104.063 829.416 115.317 825.485 131.041L860.923 139.9ZM900.474 127.272L921.829 156.908C921.855 156.889 921.882 156.871 921.908 156.852L900.474 127.272ZM923.823 98.2047L890.105 84.1552C890.049 84.2889 889.994 84.4229 889.94 84.5572L923.823 98.2047ZM927.159 65.0865L962.689 56.6019C959.428 42.9499 948.634 32.3733 934.919 29.3916L927.159 65.0865ZM902.142 63.8952L899.057 27.4971L899.057 27.4971L902.142 63.8952ZM844.006 86.0534L809.548 98.1775C813.392 109.102 822.188 117.556 833.256 120.964C844.324 124.372 856.352 122.331 865.675 115.461L844.006 86.0534ZM847.104 61.9891L817.208 40.9987C817.107 41.1421 817.008 41.2863 816.909 41.4312L847.104 61.9891ZM869.977 44.1196L884.812 77.4999L884.812 77.4999L869.977 44.1196ZM927.874 44.3579L907.449 74.6427L907.449 74.6427L927.874 44.3579ZM939.31 66.2778L912.948 91.5638C923.638 102.708 940.18 105.927 954.268 99.6036C968.356 93.2804 976.946 78.7815 975.724 63.3878L939.31 66.2778ZM928.112 54.6031L932.643 18.3565C917.297 16.4383 902.406 24.3919 895.467 38.2133C888.528 52.0346 891.044 68.7279 901.75 79.8891L928.112 54.6031ZM953.606 71.9961L920.089 86.5201L920.089 86.5201L953.606 71.9961ZM945.505 119.648L975.554 140.418C975.602 140.349 975.649 140.281 975.695 140.212L945.505 119.648ZM916.199 146.81L935.114 178.06L935.114 178.06L916.199 146.81ZM878.554 218.526L847.339 237.5C847.395 237.592 847.451 237.683 847.508 237.775L878.554 218.526ZM869.977 188.029L833.497 189.924C833.505 190.081 833.514 190.239 833.525 190.396L869.977 188.029ZM872.121 147.525L871.092 111.01C853.269 111.513 838.412 124.809 835.944 142.468L872.121 147.525ZM889.037 147.048L925.564 146.716C925.475 136.908 921.445 127.547 914.381 120.742C907.318 113.936 897.814 110.258 888.009 110.534L889.037 147.048ZM894.041 186.838L859.572 198.932C859.635 199.11 859.699 199.288 859.764 199.466L894.041 186.838ZM920.249 196.13L942.167 225.353L942.167 225.353L920.249 196.13ZM930.018 184.931L953.614 157.046C945.383 150.082 934.496 147.109 923.868 148.924C913.241 150.739 903.957 157.157 898.505 166.458L930.018 184.931ZM933.354 201.371L897.961 192.335C897.915 192.515 897.87 192.695 897.827 192.876L933.354 201.371ZM921.441 221.385L946.933 247.548L946.933 247.548L921.441 221.385ZM834.476 229.248L826.896 264.981C846.471 269.134 865.743 256.763 870.12 237.237L834.476 229.248ZM821.371 225.197L805.667 258.178C805.862 258.271 806.059 258.362 806.256 258.452L821.371 225.197ZM813.747 219.479L784.023 240.711C784.346 241.164 784.68 241.61 785.024 242.047L813.747 219.479ZM818.989 183.978L784.615 171.619L784.615 171.619L818.989 183.978ZM842.338 122.031L808.334 108.687C808.309 108.751 808.284 108.814 808.26 108.878L842.338 122.031ZM856.634 84.8621L822.597 71.6011C822.547 71.7296 822.498 71.8584 822.449 71.9874L856.634 84.8621ZM866.641 57.2239L874.007 21.4457C855.568 17.6495 837.264 28.4883 831.728 46.4814L866.641 57.2239ZM879.745 61.2743L864.04 94.2546C864.236 94.3477 864.432 94.4391 864.63 94.5288L879.745 61.2743ZM887.37 66.9926L857.645 88.2244C857.969 88.6774 858.302 89.123 858.646 89.5608L887.37 66.9926ZM885.225 90.8186L851.218 77.4825C851.142 77.6764 851.068 77.871 850.995 78.0661L885.225 90.8186ZM869.262 132.514L903.178 146.081C903.228 145.954 903.278 145.828 903.327 145.701L869.262 132.514ZM846.389 191.364L812.158 178.612C812.135 178.674 812.112 178.737 812.089 178.799L846.389 191.364ZM879.03 121.241C879.176 121.241 881.676 121.269 885.084 123.062L851.057 187.712C860.501 192.682 870.308 194.298 879.03 194.298V121.241ZM886.373 123.774C888.677 125.108 892.286 128.054 894.689 133.162L828.586 164.27C833.531 174.778 841.428 182.171 849.768 187L886.373 123.774ZM894.689 133.162C895.896 135.727 896.675 138.582 896.915 141.535C897.151 144.442 896.822 146.914 896.361 148.76L825.485 131.041C822.86 141.539 823.374 153.195 828.586 164.27L894.689 133.162ZM862.412 176.398C883.886 175.522 904.288 169.549 921.829 156.908L879.119 97.6365C875.058 100.563 869.092 103.008 859.433 103.402L862.412 176.398ZM921.908 156.852C937.87 145.285 950.284 130.281 957.707 111.852L889.94 84.5572C888.15 89.0012 884.997 93.3762 879.04 97.6934L921.908 156.852ZM957.542 112.254C964.868 94.671 967.257 75.7327 962.689 56.6019L891.629 73.5712C892.144 75.7249 892.309 78.8654 890.105 84.1552L957.542 112.254ZM934.919 29.3916C923.273 26.86 911.167 26.4708 899.057 27.4971L905.226 100.293C911.859 99.7312 916.431 100.136 919.399 100.781L934.919 29.3916ZM899.057 27.4971C886.093 28.5957 873.203 31.6186 860.482 36.1903L885.19 104.943C892.8 102.208 899.447 100.783 905.226 100.293L899.057 27.4971ZM860.482 36.1903C846.852 41.0885 834.122 47.9628 822.337 56.6458L865.675 115.461C871.999 110.801 878.488 107.351 885.19 104.943L860.482 36.1903ZM878.464 73.9294C878.611 74.3461 879.045 75.9513 878.747 78.2676C878.447 80.5933 877.608 82.0913 877.298 82.5471L816.909 41.4312C805.239 58.5709 802.708 78.7357 809.548 98.1775L878.464 73.9294ZM876.999 82.9796C877.737 81.9284 879.637 79.8 884.812 77.4999L855.141 10.7393C840.302 17.3343 826.953 27.1189 817.208 40.9987L876.999 82.9796ZM884.812 77.4999C890.215 75.0985 895.571 73.9769 901.189 73.9769V0.919692C885.204 0.919692 869.752 4.24565 855.141 10.7394L884.812 77.4999ZM901.189 73.9769C907.232 73.9769 908.352 75.2515 907.449 74.6427L948.298 14.073C933.736 4.25147 917.065 0.919692 901.189 0.919692V73.9769ZM907.449 74.6427C906.726 74.1549 905.938 73.4937 905.189 72.6548C904.44 71.816 903.872 70.9603 903.47 70.1895C902.668 68.6534 902.805 68.0163 902.896 69.1678L975.724 63.3878C974.263 44.9723 966.373 26.2627 948.298 14.073L907.449 74.6427ZM965.672 40.9918L954.474 29.317L901.75 79.8891L912.948 91.5638L965.672 40.9918ZM923.581 90.8496C924.446 90.9577 924.716 91.0767 924.55 91.0172C924.358 90.9487 923.794 90.716 923.054 90.1947L965.097 30.448C954.949 23.3063 943.635 19.7306 932.643 18.3565L923.581 90.8496ZM923.054 90.1947C922.595 89.8722 921.985 89.3474 921.377 88.6033C920.768 87.8573 920.348 87.1178 920.089 86.5201L987.123 57.472C982.357 46.4746 974.828 37.2951 965.097 30.448L923.054 90.1947ZM920.089 86.5201C919.995 86.3026 920.008 86.2594 920.05 86.4796C920.094 86.7118 920.175 87.2605 920.175 88.1978H993.232C993.232 77.9683 991.471 67.505 987.123 57.472L920.089 86.5201ZM920.175 88.1978C920.175 88.8275 919.973 92.2458 915.315 99.0838L975.695 140.212C985.968 125.13 993.232 107.582 993.232 88.1978H920.175ZM915.456 98.8786C911.135 105.13 905.281 110.719 897.284 115.56L935.114 178.06C951.261 168.287 964.944 155.769 975.554 140.418L915.456 98.8786ZM897.284 115.56C890.269 119.806 884.35 121.241 879.03 121.241V194.298C899.125 194.298 917.985 188.427 935.114 178.06L897.284 115.56ZM900.474 193.911C900.711 193.911 902.646 193.995 905.17 195.366C907.752 196.769 909.141 198.538 909.6 199.278L847.508 237.775C859.387 256.934 878.71 266.968 900.474 266.968V193.911ZM909.768 199.553C908.667 197.741 906.949 193.684 906.428 185.662L833.525 190.396C834.592 206.835 838.592 223.109 847.339 237.5L909.768 199.553ZM906.456 186.134C905.964 176.662 906.488 165.529 908.298 152.582L835.944 142.468C833.624 159.064 832.718 174.935 833.497 189.924L906.456 186.134ZM873.149 184.039L890.066 183.562L888.009 110.534L871.092 111.01L873.149 184.039ZM852.51 147.38C852.681 166.136 854.396 184.179 859.572 198.932L928.509 174.743C927.332 171.388 925.712 162.905 925.564 146.716L852.51 147.38ZM859.764 199.466C862.692 207.413 867.56 216.731 876.06 224.301C885.317 232.546 896.95 236.947 909.289 236.947V163.89C911.695 163.89 914.525 164.304 917.47 165.423C920.417 166.543 922.825 168.12 924.649 169.745C928.066 172.788 928.725 175.316 928.317 174.209L859.764 199.466ZM909.289 236.947C923.115 236.947 934.297 231.255 942.167 225.353L898.332 166.907C898.578 166.723 902.453 163.89 909.289 163.89V236.947ZM942.167 225.353C950.301 219.252 956.673 211.692 961.531 203.405L898.505 166.458C898.219 166.946 898.042 167.152 898.024 167.173C898.012 167.187 898.112 167.072 898.332 166.907L942.167 225.353ZM906.423 212.817C901.993 209.068 899.168 203.944 898.15 198.926C897.279 194.632 898.037 192.035 897.961 192.335L968.747 210.408C972.43 195.982 972.779 173.263 953.614 157.046L906.423 212.817ZM897.827 192.876C897.826 192.878 897.826 192.878 897.826 192.878C897.826 192.879 897.824 192.886 897.817 192.901C897.807 192.927 897.769 193.015 897.676 193.171C897.495 193.476 897.019 194.18 895.949 195.222L946.933 247.548C957.311 237.436 965.295 224.862 968.881 209.867L897.827 192.876ZM895.949 195.222C895.611 195.551 895.96 195.12 897.072 194.64C898.254 194.13 899.499 193.911 900.474 193.911V266.968C918.877 266.968 934.745 259.424 946.933 247.548L895.949 195.222ZM842.056 193.514C838.472 192.754 836.829 192.098 836.487 191.943L806.256 258.452C812.903 261.473 819.996 263.518 826.896 264.981L842.056 193.514ZM837.076 192.217C837.326 192.336 839.841 193.564 842.47 196.911L785.024 242.047C791.148 249.842 798.746 254.882 805.667 258.178L837.076 192.217ZM843.472 198.247C846.997 203.183 847.893 208.219 847.893 211.378H774.836C774.836 220.891 777.32 231.328 784.023 240.711L843.472 198.247ZM847.893 211.378C847.893 213.637 847.597 214.841 847.717 214.217C847.789 213.844 847.997 212.895 848.462 211.223C849.395 207.87 850.972 202.987 853.363 196.338L784.615 171.619C781.922 179.107 779.687 185.859 778.079 191.639C776.766 196.357 774.836 203.887 774.836 211.378H847.893ZM853.363 196.338C858.299 182.609 865.96 162.277 876.417 135.184L808.26 108.878C797.75 136.108 789.844 157.074 784.615 171.619L853.363 196.338ZM876.343 135.374C881.326 122.675 886.151 110.129 890.818 97.7368L822.449 71.9874C817.904 84.0566 813.199 96.2899 808.334 108.687L876.343 135.374ZM890.671 98.1231C895.502 85.7212 899.239 75.49 901.554 67.9665L831.728 46.4814C830.23 51.3474 827.296 59.5416 822.597 71.6011L890.671 98.1231ZM859.275 93.0021C861.047 93.367 862.322 93.7048 863.18 93.97C864.059 94.2415 864.284 94.3708 864.04 94.2546L895.45 28.2941C888.501 24.9852 881.025 22.8906 874.007 21.4457L859.275 93.0021ZM864.63 94.5288C864.526 94.4817 860.996 92.9155 857.645 88.2244L917.094 45.7608C910.567 36.6222 901.953 31.2438 894.861 28.0199L864.63 94.5288ZM858.646 89.5608C854.468 84.2425 853.462 78.6532 853.462 75.3317H926.519C926.519 65.3389 923.766 54.1902 916.093 44.4244L858.646 89.5608ZM853.462 75.3317C853.462 73.5426 853.613 72.178 853.712 71.4438C853.817 70.6583 853.929 70.1104 853.98 69.8705C854.075 69.4286 854.092 69.4579 853.886 70.1287C853.696 70.7456 853.391 71.667 852.933 72.9429C852.479 74.2049 851.913 75.7116 851.218 77.4825L919.232 104.155C920.98 99.6978 922.537 95.4328 923.712 91.6138C924.483 89.109 926.519 82.5239 926.519 75.3317H853.462ZM850.995 78.0661C848.067 85.9258 842.821 99.6294 835.196 119.328L903.327 145.701C910.951 126.007 916.348 111.913 919.456 103.571L850.995 78.0661ZM835.346 118.948C826.067 142.145 818.329 162.049 812.158 178.612L880.619 204.117C886.52 188.276 894.031 168.947 903.178 146.081L835.346 118.948ZM812.089 178.799C806.027 195.348 801.417 209.725 798.832 221.259L870.12 237.237C871.665 230.346 874.997 219.466 880.688 203.93L812.089 178.799ZM962.704 229.01L981.373 197.612C981.162 197.486 980.949 197.363 980.735 197.241L962.704 229.01ZM951.506 214.714L916.068 223.573C916.086 223.645 916.104 223.716 916.122 223.787L951.506 214.714ZM955.795 193.032L980.179 165.834C971.881 158.395 960.641 155.15 949.655 157.023C938.668 158.897 929.138 165.683 923.775 175.453L955.795 193.032ZM973.903 203.277L961.478 237.628L961.478 237.628L973.903 203.277ZM996.776 208.757L992.336 245.015C992.58 245.045 992.823 245.072 993.068 245.097L996.776 208.757ZM1016.07 207.804L1052.59 208.791C1052.9 197.186 1047.68 186.123 1038.52 178.988C1029.37 171.853 1017.36 169.497 1006.18 172.64L1016.07 207.804ZM1011.55 222.577L981.904 201.233C981.713 201.498 981.525 201.766 981.341 202.036L1011.55 222.577ZM1000.35 231.392L1013.92 265.308L1013.92 265.308L1000.35 231.392ZM1019.41 194.7L1026.31 230.571C1043.19 227.325 1055.52 212.746 1055.93 195.559L1019.41 194.7ZM1000.83 194.462L985.519 227.628C985.874 227.792 986.232 227.951 986.593 228.104L1000.83 194.462ZM992.487 184.931L957.274 194.645C957.409 195.136 957.555 195.625 957.711 196.11L992.487 184.931ZM990.819 166.585L1027.34 167.346C1027.34 167.236 1027.34 167.126 1027.35 167.015L990.819 166.585ZM991.534 82.003L955.009 81.4737C955.007 81.6501 955.005 81.8265 955.005 82.003L991.534 82.003ZM991.296 55.5561L954.777 56.4256C954.784 56.715 954.795 57.0044 954.808 57.2936L991.296 55.5561ZM990.343 39.8309L986.635 3.49101C976.854 4.48904 967.888 9.38756 961.765 17.0792C955.641 24.7708 952.877 34.6061 954.096 44.3618L990.343 39.8309ZM1008.45 41.0222L995.764 75.2769C996.263 75.4617 996.766 75.6357 997.272 75.7985L1008.45 41.0222ZM1017.74 49.5996L983.914 63.3818C983.975 63.5325 984.038 63.6827 984.101 63.8326L1017.74 49.5996ZM1020.84 67.4691L1057.34 66.1003C1057.34 66.06 1057.34 66.0197 1057.34 65.9794L1020.84 67.4691ZM1020.36 151.813L1056.88 152.582C1056.88 152.548 1056.89 152.514 1056.89 152.48L1020.36 151.813ZM1035.61 205.66L1004.29 186.866C1004.16 187.088 1004.02 187.312 1003.9 187.537L1035.61 205.66ZM1024.65 219.479L1045.23 249.66C1045.54 249.452 1045.84 249.239 1046.14 249.021L1024.65 219.479ZM1014.17 222.1L1006.07 257.72C1006.59 257.838 1007.11 257.944 1007.63 258.039L1014.17 222.1ZM1002.02 216.144L1022.76 186.073C1022.6 185.964 1022.44 185.856 1022.28 185.75L1002.02 216.144ZM1000.59 215.191L969.444 196.102C959.185 212.84 963.991 234.694 980.325 245.584L1000.59 215.191ZM1032.04 158.723L999.64 141.849L999.64 141.849L1032.04 158.723ZM1063.97 91.2951L1097.59 105.568L1097.59 105.568L1063.97 91.2951ZM1080.88 38.8779L1087.01 2.86719C1077.33 1.2187 1067.39 3.54082 1059.43 9.30935C1051.48 15.0779 1046.19 23.8065 1044.75 33.5247L1080.88 38.8779ZM1097.8 46.0257L1073.11 72.9529C1073.5 73.3091 1073.9 73.6568 1074.3 73.9958L1097.8 46.0257ZM1103.28 59.8448L1066.8 57.8731C1066.78 58.3304 1066.76 58.7881 1066.75 59.246L1103.28 59.8448ZM1088.51 105.591L1055.39 90.171C1055.36 90.2405 1055.33 90.31 1055.3 90.3797L1088.51 105.591ZM1058.49 165.394L1090.43 183.111C1090.45 183.073 1090.47 183.036 1090.49 182.998L1058.49 165.394ZM982.957 197.723C981.947 197.723 981.45 197.609 981.328 197.578C981.229 197.552 981.284 197.559 981.373 197.612L944.036 260.407C956.192 267.636 969.537 270.78 982.957 270.78V197.723ZM980.735 197.241C981.458 197.652 982.858 198.627 984.253 200.408C985.677 202.226 986.502 204.126 986.89 205.641L916.122 223.787C920.326 240.181 930.717 252.857 944.674 260.778L980.735 197.241ZM986.944 205.854C987.61 208.518 987.42 210.613 987.221 211.616C987.052 212.471 986.956 212.177 987.815 210.612L923.775 175.453C916.719 188.303 911.474 205.195 916.068 223.573L986.944 205.854ZM931.41 220.23C940.342 228.238 950.798 233.765 961.478 237.628L986.327 168.927C982.077 167.389 980.46 166.086 980.179 165.834L931.41 220.23ZM961.478 237.628C971.493 241.25 981.794 243.724 992.336 245.015L1001.22 172.5C996.191 171.884 991.244 170.705 986.327 168.927L961.478 237.628ZM993.068 245.097C1003.42 246.154 1014.87 246.088 1025.96 242.969L1006.18 172.64C1006.78 172.472 1006.69 172.579 1005.64 172.631C1004.6 172.682 1002.92 172.666 1000.48 172.418L993.068 245.097ZM979.559 206.818C979.557 206.917 979.562 206.301 979.898 205.202C980.25 204.054 980.884 202.649 981.904 201.233L1041.19 243.92C1049.13 232.895 1052.27 220.49 1052.59 208.791L979.559 206.818ZM981.341 202.036C982.072 200.961 983.022 199.927 984.128 199.057C985.217 198.199 986.182 197.717 986.783 197.476L1013.92 265.308C1024.95 260.895 1034.68 253.525 1041.75 243.117L981.341 202.036ZM986.783 197.476C987.187 197.315 987.153 197.385 986.502 197.492C985.847 197.599 984.698 197.723 982.957 197.723V270.78C992.982 270.78 1003.67 269.408 1013.92 265.308L986.783 197.476ZM1012.51 158.829C1011.32 159.058 1010.43 159.183 1009.81 159.248C1009.18 159.313 1008.95 159.305 1009.04 159.306C1009.12 159.307 1009.71 159.318 1010.67 159.49C1011.64 159.661 1013.18 160.026 1015.06 160.82L986.593 228.104C1001.06 234.222 1016.25 232.506 1026.31 230.571L1012.51 158.829ZM1016.13 161.295C1018.36 162.322 1020.89 164.033 1023.13 166.595C1025.36 169.139 1026.62 171.741 1027.26 173.753L957.711 196.11C962.172 209.989 971.827 221.309 985.519 227.628L1016.13 161.295ZM1027.7 175.217C1027.78 175.504 1027.63 175.052 1027.5 173.583C1027.37 172.154 1027.28 170.11 1027.34 167.346L954.298 165.825C954.104 175.148 954.674 185.222 957.274 194.645L1027.7 175.217ZM1027.35 167.015C1027.82 126.52 1028.06 98.128 1028.06 82.003H955.005C955.005 97.646 954.77 125.642 954.293 166.156L1027.35 167.015ZM1028.06 82.5323C1028.22 71.2283 1028.15 61.5673 1027.78 53.8186L954.808 57.2936C955.075 62.8875 955.163 70.8577 955.009 81.4737L1028.06 82.5323ZM1027.81 54.6866C1027.64 47.5405 1027.29 40.8947 1026.59 35.3001L954.096 44.3618C954.35 46.3915 954.63 50.2291 954.777 56.4256L1027.81 54.6866ZM994.051 76.1708C995.226 76.051 996.169 75.9933 996.902 75.9722C997.638 75.951 998.095 75.9689 998.309 75.9829C998.527 75.9973 998.406 76.0021 998.008 75.9256C997.613 75.8497 996.827 75.6708 995.764 75.2769L1021.14 6.76756C1009.14 2.32345 996.551 2.47911 986.635 3.49101L994.051 76.1708ZM997.272 75.7985C994.992 75.0657 992.091 73.6261 989.333 71.0801C986.567 68.5275 984.861 65.7068 983.914 63.3818L1051.57 35.8174C1045.71 21.4248 1034.25 10.947 1019.63 6.24594L997.272 75.7985ZM984.101 63.8326C983.588 62.6197 983.642 62.2874 983.835 63.403C984.015 64.4388 984.23 66.2314 984.342 68.9588L1057.34 65.9794C1056.95 56.5538 1055.66 45.4662 1051.38 35.3666L984.101 63.8326ZM984.337 68.838C984.768 80.3273 984.64 107.356 983.841 151.147L1056.89 152.48C1057.68 109.226 1057.87 80.0254 1057.34 66.1003L984.337 68.838ZM983.843 151.044C983.526 166.108 983.209 180.373 982.892 193.841L1055.93 195.559C1056.25 182.025 1056.57 167.699 1056.88 152.582L983.843 151.044ZM1003.9 187.537C1002.64 189.728 1001.79 190.922 1001.39 191.42C1001.21 191.647 1001.23 191.596 1001.47 191.356C1001.71 191.121 1002.26 190.593 1003.17 189.937L1046.14 249.021C1055.89 241.928 1062.64 231.983 1067.33 223.783L1003.9 187.537ZM1004.07 189.298C1005.28 188.474 1007.45 187.258 1010.55 186.483C1013.77 185.679 1017.27 185.536 1020.7 186.161L1007.63 258.039C1022.34 260.713 1035.43 256.345 1045.23 249.66L1004.07 189.298ZM1022.26 186.48C1023.1 186.67 1023.71 186.871 1024.07 187.005C1024.43 187.138 1024.61 187.226 1024.59 187.215C1024.57 187.206 1024.4 187.121 1024.08 186.929C1023.76 186.738 1023.32 186.459 1022.76 186.073L981.279 246.214C987.799 250.711 996.235 255.484 1006.07 257.72L1022.26 186.48ZM1022.28 185.75L1020.85 184.797L980.325 245.584L981.755 246.537L1022.28 185.75ZM1031.73 234.279C1041.39 218.527 1052.3 198.897 1064.44 175.597L999.64 141.849C987.95 164.294 977.897 182.31 969.444 196.102L1031.73 234.279ZM1064.44 175.597C1076.76 151.936 1087.82 128.592 1097.59 105.568L1030.34 77.0227C1021.37 98.1557 1011.14 119.764 999.64 141.849L1064.44 175.597ZM1097.59 105.568C1107.34 82.6024 1114.42 61.7333 1117.02 44.2311L1044.75 33.5247C1043.53 41.7546 1039.34 55.8303 1030.34 77.0227L1097.59 105.568ZM1074.75 74.8886C1076.33 75.1577 1076.8 75.394 1076.49 75.2661C1076.15 75.1232 1074.79 74.4928 1073.11 72.9529L1122.48 19.0985C1111.61 9.13016 1098.37 4.80039 1087.01 2.86719L1074.75 74.8886ZM1074.3 73.9958C1071.88 71.9579 1069.61 69.0366 1068.19 65.4476C1066.83 62.0131 1066.73 59.2253 1066.8 57.8731L1139.75 61.8165C1140.6 46.2415 1135.33 29.846 1121.29 18.0555L1074.3 73.9958ZM1066.75 59.246C1066.76 58.8969 1066.68 61.2035 1064.7 67.3233C1062.85 73.0519 1059.85 80.6008 1055.39 90.171L1121.62 121.01C1131.3 100.233 1139.5 78.6771 1139.8 60.4435L1066.75 59.246ZM1055.3 90.3797C1046.12 110.418 1036.51 129.551 1026.48 147.79L1090.49 182.998C1101.43 163.115 1111.83 142.38 1121.72 120.802L1055.3 90.3797ZM1026.54 147.677C1016.07 166.565 1008.7 179.507 1004.29 186.866L1066.94 224.454C1072.05 215.929 1079.94 202.028 1090.43 183.111L1026.54 147.677Z" fill="black" mask="url(#path-4-outside-1_364_1559)"/>
</svg>
