<svg fill="none" height="508" viewBox="0 0 1201 508" width="1201" xmlns="http://www.w3.org/2000/svg" xmlns:xlink="http://www.w3.org/1999/xlink"><mask id="a" fill="#000" height="294" maskUnits="userSpaceOnUse" width="1056" x="84.542" y=".103516"><path d="m84.542.103516h1056v294h-1056z" fill="#fff"/><path d="m157.342 230.677c-5.56 0-10.404-1.27-14.534-3.812-3.971-2.7-6.83-6.274-8.577-10.721-1.748-4.607-2.145-9.61-1.192-15.011-7.783-5.877-11.674-15.804-11.674-29.782 0-16.361 4.606-35.183 13.819-56.468 9.212-21.2847 20.887-39.4719 35.024-54.5617 14.137-15.2487 27.956-22.873 41.457-22.873 5.083 0 9.054 1.1119 11.913 3.3357 2.859 2.2237 4.209 5.1623 4.051 8.8156l-8.339-3.3357c7.465-2.8591 14.057-4.2886 19.775-4.2886 7.783 0 14.057 2.6208 18.823 7.8626 4.924 5.0828 7.386 12.6278 7.386 22.6347 0 8.4185-1.589 15.9634-4.765 22.6347-3.018 6.5127-7.307 11.3567-12.866 14.5337-5.401 3.177-11.358 3.971-17.87 2.383 3.971-7.942 6.83-16.2813 8.577-25.0175 1.748-8.8951 1.668-16.3606-.238-22.3965s-6.115-9.0539-12.628-9.0539c-11.436-.1588-23.111 7.0684-35.024 21.6817-11.913 14.4544-21.84 31.7682-29.782 51.9412-7.784 20.013-11.675 37.327-11.675 51.94 0 8.101 1.35 14.455 4.05 19.061 2.859 4.448 7.148 6.671 12.866 6.671 4.765 0 9.848-1.906 15.249-5.718 5.4-3.971 10.483-9.689 15.249-17.155 4.924-7.624 8.895-16.678 11.913-27.161 3.971.794 3.812 7.624-.477 20.49-4.13 12.866-10.881 25.017-20.252 36.454-9.372 11.278-19.458 16.916-30.259 16.916zm45.984 25.971c-10.325-1.271-16.519-5.083-18.584-11.437-2.065-6.353-1.033-14.772 3.097-25.255 2.065-4.765 4.051-9.531 5.957-14.296 4.765-11.595 8.498-20.967 11.198-28.115 2.7-7.147 4.368-13.422 5.003-18.822 6.989.317 12.152 1.588 15.487 3.812 3.336 2.224 5.242 5.083 5.719 8.577.635 3.336.079 7.545-1.668 12.628-1.906 5.401-4.13 11.357-6.672 17.87-4.765 11.913-8.895 22.555-12.389 31.927-3.336 9.371-5.718 17.075-7.148 23.111zm-29.306-89.824c1.43-7.307 5.718-13.343 12.866-18.108 7.307-4.924 15.487-8.419 24.541-10.484 9.213-2.223 17.631-3.335 25.256-3.335 8.418 0 13.898 1.747 16.439 5.242 2.542 3.335 3.018 9.371 1.43 18.107-10.642.477-20.729 1.192-30.259 2.145-9.372.794-18.028 1.747-25.97 2.859-7.942.953-15.408 2.065-22.397 3.335zm156.593-9.054c-4.289 0-7.942-.794-10.96-2.383-3.018-1.747-5.162-3.971-6.433-6.671s-1.509-5.639-.715-8.816c15.566-.635 28.75-4.844 39.551-12.628 10.96-7.942 18.744-17.631 23.35-29.0673 4.765-11.4365 5.877-22.4759 3.336-33.1182-7.307-1.5884-15.646-1.9855-25.018-1.1913-9.371.7942-19.14 3.018-29.306 6.6713s-19.775 8.8156-28.829 15.4869c-3.018-8.5773-1.986-16.5988 3.097-24.0643 5.242-7.4655 12.866-13.422 22.873-17.8695s20.411-6.6713 31.212-6.6713c10.96 0 19.855 2.3032 26.685 6.9096 6.83 4.6063 10.643 11.913 11.437 21.9199l-11.198-11.6747c6.353.7942 11.674 2.7002 15.963 5.7182s7.465 6.9096 9.53 11.6748 3.098 10.1657 3.098 16.2017c0 10.0069-3.733 20.4902-11.198 31.4502-7.466 10.801-17.235 19.855-29.306 27.162-12.072 7.306-24.462 10.96-37.169 10.96zm21.443 72.669c-9.689 0-16.996-3.971-21.92-11.913-4.924-8.101-7.783-18.266-8.577-30.497-.635-12.231.079-25.732 2.144-40.504l16.917-.477c.159 17.472 1.827 30.736 5.003 39.79 3.336 9.053 8.419 13.58 15.249 13.58 3.494 0 7.148-1.429 10.96-4.288s7.068-6.592 9.769-11.199c4.129 3.495 5.241 8.975 3.335 16.44-1.747 7.307-5.718 13.978-11.913 20.014-6.194 6.036-13.183 9.054-20.967 9.054zm-65.998-1.191c-5.241-1.112-9.61-2.462-13.104-4.051-3.336-1.588-5.877-3.494-7.624-5.718-1.589-2.224-2.383-4.924-2.383-8.101 0-4.13 2.541-13.263 7.624-27.4 5.083-14.136 12.866-34.786 23.35-61.947 4.924-12.549 9.689-24.9382 14.295-37.1689 4.766-12.2307 8.101-21.4434 10.007-27.6382 5.401 1.1119 9.769 2.462 13.105 4.0504 3.494 1.5884 6.036 3.4945 7.624 5.7183 1.747 2.2238 2.621 5.0035 2.621 8.3391 0 2.2238-1.588 7.3861-4.765 15.4869-3.018 8.1009-8.339 21.9994-15.964 41.6954-9.212 23.032-16.837 42.649-22.873 58.85-5.877 16.043-9.848 28.671-11.913 37.884zm173.753 1.429c-12.707 0-22.078-4.129-28.114-12.389-5.877-8.26-8.816-18.902-8.816-31.927 0-12.707 2.462-25.176 7.386-37.407 4.924-12.389 11.04-20.967 18.346-25.732 7.307-4.924 14.296-3.892 20.967 3.097-7.465 8.26-13.263 17.87-17.393 28.83-4.13 10.801-6.195 20.887-6.195 30.259 0 6.989 1.112 12.548 3.336 16.678 2.383 3.971 5.877 5.957 10.483 5.957 8.578 0 17.87-7.228 27.877-21.682s18.505-31.689 25.494-51.702c6.989-20.173 10.483-37.3279 10.483-51.4647 0-7.3067-1.271-13.0249-3.812-17.1548-2.383-4.1298-6.036-6.1947-10.96-6.1947-8.895 0-19.061 6.8301-30.497 20.4904-11.278 13.5014-21.205 30.8148-29.783 51.9408-8.418 20.967-13.422 41.775-15.01 62.424-3.971 1.589-7.625 1.986-10.96 1.191-3.336-.953-6.036-3.176-8.101-6.671-2.065-3.653-3.097-8.736-3.097-15.249 0-15.566 4.129-34.23 12.389-55.991 8.419-21.9196 19.935-40.8216 34.548-56.7057 14.772-15.884 31.212-23.826 49.32-23.826 13.342 0 24.064 4.1299 32.165 12.3896 8.26 8.2596 12.389 20.4903 12.389 36.692 0 17.7901-4.288 38.2011-12.866 61.2331-8.577 22.873-20.014 42.41-34.309 58.612-14.137 16.202-29.227 24.302-45.27 24.302zm151.573-.476c-8.736 0-16.202-1.827-22.396-5.48-6.036-3.653-10.325-8.419-12.866-14.296-2.383-6.036-2.86-12.151-1.43-18.346-4.289-1.747-7.466-5.162-9.53-10.245-2.065-5.242-3.098-11.357-3.098-18.346 0-14.931 4.209-32.403 12.628-52.417 8.577-20.173 19.299-37.4071 32.165-51.7027 13.025-14.4545 25.891-21.6817 38.598-21.6817 3.812 0 7.069.7942 9.769 2.3826 2.7 1.4295 4.606 3.5739 5.718 6.433 12.072-1.7472 21.841-.0794 29.306 5.0035 7.625 5.0829 11.437 14.2956 11.437 27.6382 0 10.6423-2.462 20.4904-7.386 29.5441-4.924 9.054-11.04 15.566-18.346 19.537-7.148 3.971-13.581 4.369-19.299 1.192 4.606-7.148 8.656-15.884 12.151-26.209 3.653-10.3245 5.48-19.4578 5.48-27.3998 0-5.8771-1.192-10.5628-3.574-14.0573-2.224-3.4945-5.877-5.2418-10.96-5.2418-10.325 0-20.967 6.9096-31.927 20.7287s-20.093 30.2592-27.4 49.3202c-7.307 19.06-10.96 35.183-10.96 48.367 0 10.165 2.224 17.71 6.671 22.634 4.607 4.924 10.484 7.386 17.632 7.386 8.577 0 17.075-3.256 25.494-9.768 8.418-6.513 15.248-14.931 20.49-25.256 2.065 1.271 3.653 3.177 4.765 5.718 1.271 2.542 1.906 5.321 1.906 8.339 0 6.672-2.462 13.661-7.386 20.967-4.924 7.307-11.595 13.343-20.014 18.108-8.259 4.765-17.472 7.148-27.638 7.148zm125.775-150.1041c-3.653-5.4006-3.732-11.3571-.238-17.8695 3.653-6.5125 10.086-11.9924 19.299-16.44 9.372-4.6063 20.173-6.9095 32.404-6.9095 13.66 0 23.27 2.3826 28.829 7.1478 5.718 4.6064 8.26 10.8011 7.624 18.5843-13.819-.6354-29.226.5559-46.222 3.5739s-30.894 6.989-41.696 11.913zm-32.88 145.1001c9.531-9.848 19.697-17.234 30.498-22.158 10.96-4.924 20.57-7.386 28.829-7.386 8.101 0 13.105 2.78 15.011 8.339 1.906 5.401 2.303 12.072 1.191 20.014-24.938.159-48.287 2.065-70.049 5.718zm93.16-81.485c-5.877-.158-10.88.159-15.01.953-3.971.795-8.895 2.065-14.772 3.813-3.971 1.27-7.307 2.303-10.007 3.097-2.542.635-5.321.953-8.339.953-3.812 0-6.989-1.35-9.531-4.05-2.541-2.701-3.971-7.863-4.288-15.487 3.176-.318 6.353-1.112 9.53-2.383 3.336-1.271 7.386-3.018 12.151-5.242 5.401-2.7 10.007-4.685 13.819-5.956 3.971-1.43 7.942-2.144 11.913-2.144 4.607 0 8.181 2.064 10.722 6.194 2.542 3.971 3.812 10.722 3.812 20.252zm-87.68 86.012c-5.4-1.112-9.848-2.462-13.342-4.05-3.336-1.588-5.877-3.495-7.624-5.718-1.589-2.224-2.383-4.924-2.383-8.101 0-4.13 2.541-13.263 7.624-27.4s12.946-34.866 23.588-62.186c13.184-33.6741 21.285-55.3558 24.303-65.0451 5.4 1.1119 9.768 2.462 13.104 4.0504 3.494 1.5884 6.036 3.4945 7.624 5.7183 1.589 2.2238 2.383 5.0035 2.383 8.3391 0 2.2238-1.509 7.4655-4.527 15.7252-3.018 8.1008-8.419 22.0791-16.202 41.9341-9.054 22.714-16.599 42.251-22.635 58.612-6.035 16.201-10.006 28.909-11.913 38.121zm169.271-71.954c-4.288 0-7.942-.794-10.96-2.383-3.018-1.747-5.162-3.971-6.433-6.671-1.27-2.7-1.509-5.639-.714-8.816 15.566-.635 28.75-4.844 39.551-12.628 10.96-7.942 18.743-17.631 23.349-29.0673 4.766-11.4365 5.877-22.4759 3.336-33.1182-7.307-1.5884-15.646-1.9855-25.017-1.1913-9.372.7942-19.141 3.018-29.306 6.6713-10.166 3.6533-19.776 8.8156-28.83 15.4869-3.018-8.5773-1.985-16.5988 3.098-24.0643 5.241-7.4655 12.866-13.422 22.873-17.8695 10.006-4.4475 20.411-6.6713 31.212-6.6713 10.96 0 19.855 2.3032 26.685 6.9096 6.83 4.6063 10.642 11.913 11.436 21.9199l-11.198-11.6747c6.354.7942 11.675 2.7002 15.963 5.7182 4.289 3.018 7.466 6.9096 9.531 11.6748s3.097 10.1657 3.097 16.2017c0 10.0069-3.732 20.4902-11.198 31.4502-7.465 10.801-17.234 19.855-29.306 27.162-12.072 7.306-24.461 10.96-37.169 10.96zm21.444 72.669c-9.689 0-16.996-3.971-21.92-11.913-4.924-8.101-7.783-18.266-8.577-30.497-.636-12.231.079-25.732 2.144-40.504l16.916-.477c.159 17.472 1.827 30.736 5.004 39.79 3.335 9.053 8.418 13.58 15.248 13.58 3.495 0 7.148-1.429 10.96-4.288 3.813-2.859 7.069-6.592 9.769-11.199 4.13 3.495 5.242 8.975 3.336 16.44-1.747 7.307-5.718 13.978-11.913 20.014s-13.184 9.054-20.967 9.054zm-65.998-1.191c-5.242-1.112-9.61-2.462-13.105-4.051-3.335-1.588-5.877-3.494-7.624-5.718-1.588-2.224-2.382-4.924-2.382-8.101 0-4.13 2.541-13.263 7.624-27.4 5.083-14.136 12.866-34.786 23.349-61.947 4.924-12.549 9.69-24.9382 14.296-37.1689 4.765-12.2307 8.101-21.4434 10.007-27.6382 5.4 1.1119 9.769 2.462 13.104 4.0504 3.495 1.5884 6.036 3.4945 7.625 5.7183 1.747 2.2238 2.62 5.0035 2.62 8.3391 0 2.2238-1.588 7.3861-4.765 15.4869-3.018 8.1009-8.339 21.9994-15.963 41.6954-9.213 23.032-16.837 42.649-22.873 58.85-5.877 16.043-9.848 28.671-11.913 37.884zm148.481 5.003c-7.625 0-14.375-1.747-20.253-5.241-5.877-3.336-9.609-8.101-11.198-14.296-1.588-6.354-.159-13.581 4.289-21.682 4.606 4.13 10.642 7.545 18.108 10.245 7.465 2.701 15.09 4.527 22.873 5.48 7.784.795 14.214.477 19.294-.953-.15 5.878-1.66 10.802-4.52 14.773-2.7 3.971-6.44 6.909-11.2 8.815-4.766 1.906-10.563 2.859-17.393 2.859zm36.453-39.551c-8.26 1.589-14.45 1.509-18.58-.238-4.134-1.906-6.913-5.083-8.343-9.531-1.271-4.606-1.827-10.721-1.668-18.346.477-40.504.715-68.698.715-84.582.159-10.96.079-19.7756-.238-26.4469-.159-6.6713-.477-11.913-.953-15.7252 7.783-.7942 13.817-.3971 18.107 1.1913 4.45 1.4296 7.55 4.2887 9.29 8.5774 1.75 4.1298 2.78 10.0863 3.1 17.8695.48 12.7072.32 40.8219-.48 84.3439-.31 15.09-.63 29.386-.95 42.887zm16.2 10.96c-3.81 6.671-7.46 11.278-10.96 13.819-3.49 2.383-6.99 3.256-10.48 2.621-3.5-.794-7.55-2.78-12.15-5.956l-1.43-.953c9.05-14.773 19.54-33.595 31.45-56.468s22.55-45.349 31.93-67.4279c9.37-22.0787 15.01-39.5512 16.91-52.4172 7.47 1.2707 13.11 3.6533 16.92 7.1478 3.97 3.3356 5.8 7.942 5.48 13.8191-.16 9.6892-5.08 24.9379-14.77 45.7462-9.53 20.808-19.54 40.742-30.02 59.803-10.49 18.902-18.11 32.324-22.88 40.266z" fill="#000"/></mask><path d="m4.06641 232h1192v272h-1192z" fill="#fff"/><path d="m4.06641 232h1192v272h-1192z" stroke="#000" stroke-linejoin="round" stroke-width="8"/><path d="m110.501 394.797v1.976c0 8.562 5.927 12.02 26.509 12.02 21.241 0 25.357-3.129 25.357-8.727 0-6.422-3.458-10.538-34.577-12.679-51.3728-3.951-63.2279-15.971-63.2279-39.023 0-26.18 20.9112-39.352 72.6129-39.352 57.135 0 73.436 11.031 73.436 35.565 0 2.47 0 4.94-.164 7.574-6.422-.494-17.454-.823-26.839-.823-7.08 0-13.831.165-17.948.329.165-.988.165-2.14.165-2.963 0-7.081-4.281-10.538-26.839-10.538-19.429 0-23.71 2.963-23.71 7.903 0 5.763 2.964 9.55 36.718 12.514 46.597 4.116 61.087 14.16 61.087 40.011 0 26.51-18.441 39.847-73.601 39.847-57.6291 0-75.2472-11.032-75.2472-35.566 0-2.799.1646-5.763.4939-8.891 7.5742.658 18.4414 1.317 28.8147 1.317 6.4215 0 12.3496-.165 16.9596-.494zm174.554 40.67h-52.69c.494-18.442.494-35.566.494-61.746s0-43.469-.494-61.746h52.69c-.494 18.112-.494 35.237-.494 61.581 0 26.016.164 43.305.494 61.911zm181.726-68.661c3.129 48.408-7.739 71.625-78.046 71.625-56.312 0-84.962-20.582-84.962-66.027 0-45.774 28.814-63.392 84.632-63.392 56.642 0 78.706 15.477 78.706 42.316 0 1.976 0 3.952-.165 5.928-7.245-.33-16.96-.494-26.345-.494-9.55 0-18.441.164-24.863.494 0-1.153.165-2.306.165-3.294 0-10.044-8.398-14.16-27.662-14.16-22.393 0-31.614 8.562-31.614 33.425 0 23.217 8.727 33.754 33.425 33.754 17.947 0 25.851-4.939 27.991-16.794-12.349 0-26.015.164-36.553.494.165-2.47.165-9.056.165-11.691 0-4.775 0-8.891-.165-12.184 16.465.329 33.26.329 45.609.329 11.032 0 25.028.165 39.682-.329zm133.678-54.831h45.61c-.329 13.173-.659 35.401-.659 61.581 0 27.333 0 45.939.494 61.911h-54.336c-6.421-10.703-28.815-35.072-44.457-52.855-4.94-7.08-9.715-14.16-13.502-21.24.824 10.044 1.153 19.429 1.482 29.144.33 22.722.33 38.365.659 44.951h-46.268c.164-16.63.494-35.401.494-61.746 0-26.18.164-45.115-.494-61.746h58.946c3.787 7.575 29.803 36.389 43.799 53.843 3.787 5.598 7.574 11.69 10.538 18.112l.329-.165c-.823-9.056-1.153-17.618-1.317-24.863 0-18.441-.494-37.871-1.318-46.927zm70.879 0h133.042c-.165 3.623-.33 9.88-.33 14.984 0 5.269 0 12.02.33 15.807-25.357-.165-58.947-.329-80.846-.329v16.63c25.357 0 58.782 0 79.199-.494-.164 6.257-.164 20.417-.164 27.168-19.924-.329-53.843-.659-79.035-.659v17.289c22.064 0 57.629-.165 80.846-.329-.165 4.116-.165 11.196-.165 17.289 0 5.269 0 11.855.165 16.136h-133.042c.659-16.795.659-35.401.659-61.746 0-26.18 0-45.28-.659-61.746zm238.12 58.618c14.654 0 20.582-4.611 20.582-14.819 0-11.526-6.422-14.49-21.899-14.49-5.763 0-20.253.165-29.967.494 0 9.55 0 19.265.164 28.485 6.916.33 18.442.33 31.12.33zm34.084 13.501v.988c22.063 2.47 31.449 7.739 35.73 25.687 2.47 9.22 4.775 19.429 6.586 24.698h-44.786c-8.068 0-10.044-2.141-12.843-15.972-3.623-18.441-6.751-21.899-22.229-21.899h-27.332c.329 15.478.987 28.65 1.975 37.871h-52.689c.329-17.948.823-35.236.823-61.746 0-26.18-.329-43.963-.823-61.746h94.841c37.212 0 56.971 10.703 56.971 36.554 0 22.064-10.373 32.272-36.224 35.565zm150.418-72.119h52.69c-14.49 20.418-43.3 69.485-52.52 86.938.16 17.948.49 31.779.66 36.718-8.07-.329-20.42-.329-30.14-.329-9.38 0-22.06 0-29.96.329.49-5.104.82-19.1.82-37.376-9.06-18.112-38.035-66.686-52.524-86.28h58.784c3.13 6.587 10.86 22.558 16.46 35.895 3.63 8.562 6.42 16.136 8.57 22.229h1.64c1.81-5.928 4.28-13.173 8.23-21.405 5.93-13.667 14.82-30.132 17.29-36.719z" fill="#000"/><circle cx="534.455" cy="235.983" fill="#fff" r="35.1367"/><path d="m157.342 230.677c-5.56 0-10.404-1.27-14.534-3.812-3.971-2.7-6.83-6.274-8.577-10.721-1.748-4.607-2.145-9.61-1.192-15.011-7.783-5.877-11.674-15.804-11.674-29.782 0-16.361 4.606-35.183 13.819-56.468 9.212-21.2847 20.887-39.4719 35.024-54.5617 14.137-15.2487 27.956-22.873 41.457-22.873 5.083 0 9.054 1.1119 11.913 3.3357 2.859 2.2237 4.209 5.1623 4.051 8.8156l-8.339-3.3357c7.465-2.8591 14.057-4.2886 19.775-4.2886 7.783 0 14.057 2.6208 18.823 7.8626 4.924 5.0828 7.386 12.6278 7.386 22.6347 0 8.4185-1.589 15.9634-4.765 22.6347-3.018 6.5127-7.307 11.3567-12.866 14.5337-5.401 3.177-11.358 3.971-17.87 2.383 3.971-7.942 6.83-16.2813 8.577-25.0175 1.748-8.8951 1.668-16.3606-.238-22.3965s-6.115-9.0539-12.628-9.0539c-11.436-.1588-23.111 7.0684-35.024 21.6817-11.913 14.4544-21.84 31.7682-29.782 51.9412-7.784 20.013-11.675 37.327-11.675 51.94 0 8.101 1.35 14.455 4.05 19.061 2.859 4.448 7.148 6.671 12.866 6.671 4.765 0 9.848-1.906 15.249-5.718 5.4-3.971 10.483-9.689 15.249-17.155 4.924-7.624 8.895-16.678 11.913-27.161 3.971.794 3.812 7.624-.477 20.49-4.13 12.866-10.881 25.017-20.252 36.454-9.372 11.278-19.458 16.916-30.259 16.916zm45.984 25.971c-10.325-1.271-16.519-5.083-18.584-11.437-2.065-6.353-1.033-14.772 3.097-25.255 2.065-4.765 4.051-9.531 5.957-14.296 4.765-11.595 8.498-20.967 11.198-28.115 2.7-7.147 4.368-13.422 5.003-18.822 6.989.317 12.152 1.588 15.487 3.812 3.336 2.224 5.242 5.083 5.719 8.577.635 3.336.079 7.545-1.668 12.628-1.906 5.401-4.13 11.357-6.672 17.87-4.765 11.913-8.895 22.555-12.389 31.927-3.336 9.371-5.718 17.075-7.148 23.111zm-29.306-89.824c1.43-7.307 5.718-13.343 12.866-18.108 7.307-4.924 15.487-8.419 24.541-10.484 9.213-2.223 17.631-3.335 25.256-3.335 8.418 0 13.898 1.747 16.439 5.242 2.542 3.335 3.018 9.371 1.43 18.107-10.642.477-20.729 1.192-30.259 2.145-9.372.794-18.028 1.747-25.97 2.859-7.942.953-15.408 2.065-22.397 3.335zm156.593-9.054c-4.289 0-7.942-.794-10.96-2.383-3.018-1.747-5.162-3.971-6.433-6.671s-1.509-5.639-.715-8.816c15.566-.635 28.75-4.844 39.551-12.628 10.96-7.942 18.744-17.631 23.35-29.0673 4.765-11.4365 5.877-22.4759 3.336-33.1182-7.307-1.5884-15.646-1.9855-25.018-1.1913-9.371.7942-19.14 3.018-29.306 6.6713s-19.775 8.8156-28.829 15.4869c-3.018-8.5773-1.986-16.5988 3.097-24.0643 5.242-7.4655 12.866-13.422 22.873-17.8695s20.411-6.6713 31.212-6.6713c10.96 0 19.855 2.3032 26.685 6.9096 6.83 4.6063 10.643 11.913 11.437 21.9199l-11.198-11.6747c6.353.7942 11.674 2.7002 15.963 5.7182s7.465 6.9096 9.53 11.6748 3.098 10.1657 3.098 16.2017c0 10.0069-3.733 20.4902-11.198 31.4502-7.466 10.801-17.235 19.855-29.306 27.162-12.072 7.306-24.462 10.96-37.169 10.96zm21.443 72.669c-9.689 0-16.996-3.971-21.92-11.913-4.924-8.101-7.783-18.266-8.577-30.497-.635-12.231.079-25.732 2.144-40.504l16.917-.477c.159 17.472 1.827 30.736 5.003 39.79 3.336 9.053 8.419 13.58 15.249 13.58 3.494 0 7.148-1.429 10.96-4.288s7.068-6.592 9.769-11.199c4.129 3.495 5.241 8.975 3.335 16.44-1.747 7.307-5.718 13.978-11.913 20.014-6.194 6.036-13.183 9.054-20.967 9.054zm-65.998-1.191c-5.241-1.112-9.61-2.462-13.104-4.051-3.336-1.588-5.877-3.494-7.624-5.718-1.589-2.224-2.383-4.924-2.383-8.101 0-4.13 2.541-13.263 7.624-27.4 5.083-14.136 12.866-34.786 23.35-61.947 4.924-12.549 9.689-24.9382 14.295-37.1689 4.766-12.2307 8.101-21.4434 10.007-27.6382 5.401 1.1119 9.769 2.462 13.105 4.0504 3.494 1.5884 6.036 3.4945 7.624 5.7183 1.747 2.2238 2.621 5.0035 2.621 8.3391 0 2.2238-1.588 7.3861-4.765 15.4869-3.018 8.1009-8.339 21.9994-15.964 41.6954-9.212 23.032-16.837 42.649-22.873 58.85-5.877 16.043-9.848 28.671-11.913 37.884zm173.753 1.429c-12.707 0-22.078-4.129-28.114-12.389-5.877-8.26-8.816-18.902-8.816-31.927 0-12.707 2.462-25.176 7.386-37.407 4.924-12.389 11.04-20.967 18.346-25.732 7.307-4.924 14.296-3.892 20.967 3.097-7.465 8.26-13.263 17.87-17.393 28.83-4.13 10.801-6.195 20.887-6.195 30.259 0 6.989 1.112 12.548 3.336 16.678 2.383 3.971 5.877 5.957 10.483 5.957 8.578 0 17.87-7.228 27.877-21.682s18.505-31.689 25.494-51.702c6.989-20.173 10.483-37.3279 10.483-51.4647 0-7.3067-1.271-13.0249-3.812-17.1548-2.383-4.1298-6.036-6.1947-10.96-6.1947-8.895 0-19.061 6.8301-30.497 20.4904-11.278 13.5014-21.205 30.8148-29.783 51.9408-8.418 20.967-13.422 41.775-15.01 62.424-3.971 1.589-7.625 1.986-10.96 1.191-3.336-.953-6.036-3.176-8.101-6.671-2.065-3.653-3.097-8.736-3.097-15.249 0-15.566 4.129-34.23 12.389-55.991 8.419-21.9196 19.935-40.8216 34.548-56.7057 14.772-15.884 31.212-23.826 49.32-23.826 13.342 0 24.064 4.1299 32.165 12.3896 8.26 8.2596 12.389 20.4903 12.389 36.692 0 17.7901-4.288 38.2011-12.866 61.2331-8.577 22.873-20.014 42.41-34.309 58.612-14.137 16.202-29.227 24.302-45.27 24.302zm151.573-.476c-8.736 0-16.202-1.827-22.396-5.48-6.036-3.653-10.325-8.419-12.866-14.296-2.383-6.036-2.86-12.151-1.43-18.346-4.289-1.747-7.466-5.162-9.53-10.245-2.065-5.242-3.098-11.357-3.098-18.346 0-14.931 4.209-32.403 12.628-52.417 8.577-20.173 19.299-37.4071 32.165-51.7027 13.025-14.4545 25.891-21.6817 38.598-21.6817 3.812 0 7.069.7942 9.769 2.3826 2.7 1.4295 4.606 3.5739 5.718 6.433 12.072-1.7472 21.841-.0794 29.306 5.0035 7.625 5.0829 11.437 14.2956 11.437 27.6382 0 10.6423-2.462 20.4904-7.386 29.5441-4.924 9.054-11.04 15.566-18.346 19.537-7.148 3.971-13.581 4.369-19.299 1.192 4.606-7.148 8.656-15.884 12.151-26.209 3.653-10.3245 5.48-19.4578 5.48-27.3998 0-5.8771-1.192-10.5628-3.574-14.0573-2.224-3.4945-5.877-5.2418-10.96-5.2418-10.325 0-20.967 6.9096-31.927 20.7287s-20.093 30.2592-27.4 49.3202c-7.307 19.06-10.96 35.183-10.96 48.367 0 10.165 2.224 17.71 6.671 22.634 4.607 4.924 10.484 7.386 17.632 7.386 8.577 0 17.075-3.256 25.494-9.768 8.418-6.513 15.248-14.931 20.49-25.256 2.065 1.271 3.653 3.177 4.765 5.718 1.271 2.542 1.906 5.321 1.906 8.339 0 6.672-2.462 13.661-7.386 20.967-4.924 7.307-11.595 13.343-20.014 18.108-8.259 4.765-17.472 7.148-27.638 7.148zm125.775-150.1041c-3.653-5.4006-3.732-11.3571-.238-17.8695 3.653-6.5125 10.086-11.9924 19.299-16.44 9.372-4.6063 20.173-6.9095 32.404-6.9095 13.66 0 23.27 2.3826 28.829 7.1478 5.718 4.6064 8.26 10.8011 7.624 18.5843-13.819-.6354-29.226.5559-46.222 3.5739s-30.894 6.989-41.696 11.913zm-32.88 145.1001c9.531-9.848 19.697-17.234 30.498-22.158 10.96-4.924 20.57-7.386 28.829-7.386 8.101 0 13.105 2.78 15.011 8.339 1.906 5.401 2.303 12.072 1.191 20.014-24.938.159-48.287 2.065-70.049 5.718zm93.16-81.485c-5.877-.158-10.88.159-15.01.953-3.971.795-8.895 2.065-14.772 3.813-3.971 1.27-7.307 2.303-10.007 3.097-2.542.635-5.321.953-8.339.953-3.812 0-6.989-1.35-9.531-4.05-2.541-2.701-3.971-7.863-4.288-15.487 3.176-.318 6.353-1.112 9.53-2.383 3.336-1.271 7.386-3.018 12.151-5.242 5.401-2.7 10.007-4.685 13.819-5.956 3.971-1.43 7.942-2.144 11.913-2.144 4.607 0 8.181 2.064 10.722 6.194 2.542 3.971 3.812 10.722 3.812 20.252zm-87.68 86.012c-5.4-1.112-9.848-2.462-13.342-4.05-3.336-1.588-5.877-3.495-7.624-5.718-1.589-2.224-2.383-4.924-2.383-8.101 0-4.13 2.541-13.263 7.624-27.4s12.946-34.866 23.588-62.186c13.184-33.6741 21.285-55.3558 24.303-65.0451 5.4 1.1119 9.768 2.462 13.104 4.0504 3.494 1.5884 6.036 3.4945 7.624 5.7183 1.589 2.2238 2.383 5.0035 2.383 8.3391 0 2.2238-1.509 7.4655-4.527 15.7252-3.018 8.1008-8.419 22.0791-16.202 41.9341-9.054 22.714-16.599 42.251-22.635 58.612-6.035 16.201-10.006 28.909-11.913 38.121zm169.271-71.954c-4.288 0-7.942-.794-10.96-2.383-3.018-1.747-5.162-3.971-6.433-6.671-1.27-2.7-1.509-5.639-.714-8.816 15.566-.635 28.75-4.844 39.551-12.628 10.96-7.942 18.743-17.631 23.349-29.0673 4.766-11.4365 5.877-22.4759 3.336-33.1182-7.307-1.5884-15.646-1.9855-25.017-1.1913-9.372.7942-19.141 3.018-29.306 6.6713-10.166 3.6533-19.776 8.8156-28.83 15.4869-3.018-8.5773-1.985-16.5988 3.098-24.0643 5.241-7.4655 12.866-13.422 22.873-17.8695 10.006-4.4475 20.411-6.6713 31.212-6.6713 10.96 0 19.855 2.3032 26.685 6.9096 6.83 4.6063 10.642 11.913 11.436 21.9199l-11.198-11.6747c6.354.7942 11.675 2.7002 15.963 5.7182 4.289 3.018 7.466 6.9096 9.531 11.6748s3.097 10.1657 3.097 16.2017c0 10.0069-3.732 20.4902-11.198 31.4502-7.465 10.801-17.234 19.855-29.306 27.162-12.072 7.306-24.461 10.96-37.169 10.96zm21.444 72.669c-9.689 0-16.996-3.971-21.92-11.913-4.924-8.101-7.783-18.266-8.577-30.497-.636-12.231.079-25.732 2.144-40.504l16.916-.477c.159 17.472 1.827 30.736 5.004 39.79 3.335 9.053 8.418 13.58 15.248 13.58 3.495 0 7.148-1.429 10.96-4.288 3.813-2.859 7.069-6.592 9.769-11.199 4.13 3.495 5.242 8.975 3.336 16.44-1.747 7.307-5.718 13.978-11.913 20.014s-13.184 9.054-20.967 9.054zm-65.998-1.191c-5.242-1.112-9.61-2.462-13.105-4.051-3.335-1.588-5.877-3.494-7.624-5.718-1.588-2.224-2.382-4.924-2.382-8.101 0-4.13 2.541-13.263 7.624-27.4 5.083-14.136 12.866-34.786 23.349-61.947 4.924-12.549 9.69-24.9382 14.296-37.1689 4.765-12.2307 8.101-21.4434 10.007-27.6382 5.4 1.1119 9.769 2.462 13.104 4.0504 3.495 1.5884 6.036 3.4945 7.625 5.7183 1.747 2.2238 2.62 5.0035 2.62 8.3391 0 2.2238-1.588 7.3861-4.765 15.4869-3.018 8.1009-8.339 21.9994-15.963 41.6954-9.213 23.032-16.837 42.649-22.873 58.85-5.877 16.043-9.848 28.671-11.913 37.884zm148.481 5.003c-7.625 0-14.375-1.747-20.253-5.241-5.877-3.336-9.609-8.101-11.198-14.296-1.588-6.354-.159-13.581 4.289-21.682 4.606 4.13 10.642 7.545 18.108 10.245 7.465 2.701 15.09 4.527 22.873 5.48 7.784.795 14.214.477 19.294-.953-.15 5.878-1.66 10.802-4.52 14.773-2.7 3.971-6.44 6.909-11.2 8.815-4.766 1.906-10.563 2.859-17.393 2.859zm36.453-39.551c-8.26 1.589-14.45 1.509-18.58-.238-4.134-1.906-6.913-5.083-8.343-9.531-1.271-4.606-1.827-10.721-1.668-18.346.477-40.504.715-68.698.715-84.582.159-10.96.079-19.7756-.238-26.4469-.159-6.6713-.477-11.913-.953-15.7252 7.783-.7942 13.817-.3971 18.107 1.1913 4.45 1.4296 7.55 4.2887 9.29 8.5774 1.75 4.1298 2.78 10.0863 3.1 17.8695.48 12.7072.32 40.8219-.48 84.3439-.31 15.09-.63 29.386-.95 42.887zm16.2 10.96c-3.81 6.671-7.46 11.278-10.96 13.819-3.49 2.383-6.99 3.256-10.48 2.621-3.5-.794-7.55-2.78-12.15-5.956l-1.43-.953c9.05-14.773 19.54-33.595 31.45-56.468s22.55-45.349 31.93-67.4279c9.37-22.0787 15.01-39.5512 16.91-52.4172 7.47 1.2707 13.11 3.6533 16.92 7.1478 3.97 3.3356 5.8 7.942 5.48 13.8191-.16 9.6892-5.08 24.9379-14.77 45.7462-9.53 20.808-19.54 40.742-30.02 59.803-10.49 18.902-18.11 32.324-22.88 40.266z" fill="#fff"/><path d="m142.808 226.865-20.54 30.207c.458.311.923.613 1.395.903zm-8.577-10.721-34.155 12.955c.051.134.103.268.156.401zm-1.192-15.011 35.973 6.348c2.385-13.516-3.007-27.228-13.96-35.499zm2.145-86.25 33.523 14.51zm35.024-54.5617 26.658 24.9741c.043-.0464.086-.0929.13-.1396zm53.37-19.5373 22.427-28.8339v-.0001zm4.051 8.8156-13.567 33.916c10.994 4.3974 23.437 3.1935 33.384-3.2301 9.946-6.4236 16.162-17.2699 16.677-29.0992zm-8.339-3.3357-13.065-34.1125c-14.04 5.3773-23.352 18.8083-23.463 33.843s9.001 28.6016 22.961 34.1855zm38.598 3.574-27.029 24.5718c.259.2857.524.5673.792.8446zm2.621 45.2694-32.981-15.7049c-.054.1151-.109.2304-.162.3461zm-12.866 14.5337-18.124-31.7156c-.133.076-.265.1529-.397.2305zm-17.87 2.383-32.672-16.3363c-4.972 9.9433-5.145 21.6093-.471 31.6953s13.687 17.495 24.487 20.129zm8.577-25.0175 35.82 7.1639c.008-.0411.016-.0822.024-.1232zm-.238-22.3965-34.833 10.9999zm-12.628-9.0539-.507 36.5251c.169.0024.338.0035.507.0035zm-35.024 21.6817 28.189 23.2322c.041-.05.082-.101.124-.151zm-29.782 51.9412-33.99-13.382c-.018.047-.037.095-.055.142zm-7.625 71.001-31.513 18.473c.253.432.515.859.786 1.28zm28.115.953 21.065 29.843c.193-.136.384-.274.574-.414zm15.249-17.155-30.686-19.817c-.035.054-.07.109-.105.164zm11.913-27.161 7.163-35.82c-18.632-3.726-37.01 7.454-42.266 25.714zm-.477 20.49-34.654-11.551c-.043.129-.085.258-.127.387zm-20.252 36.454 28.094 23.346c.054-.064.107-.129.16-.193zm15.725 42.887-4.462 36.255c18.481 2.274 35.716-9.717 40.007-27.837zm-18.584-11.437 34.74-11.29zm3.097-25.255-33.517-14.524c-.163.375-.319.754-.469 1.135zm5.957-14.296-33.787-13.885c-.044.106-.087.212-.129.319zm11.198-28.115-34.172-12.909zm5.003-18.822 1.659-36.491c-19.139-.87-35.698 13.195-37.937 32.223zm15.487 3.812 20.263-30.394zm5.719 8.577-36.194 4.936c.087.636.19 1.269.31 1.899zm-1.668 12.628 34.446 12.158c.033-.095.066-.189.098-.283zm-6.672 17.87 33.916 13.566c.039-.095.076-.191.114-.287zm-12.389 31.927-34.227-12.763c-.063.171-.126.342-.187.514zm-36.454-66.713-35.849-7.014c-2.249 11.497 1.152 23.375 9.146 31.939 7.993 8.564 19.609 12.774 31.234 11.321zm12.866-18.108 20.263 30.394c.05-.034.101-.068.151-.102zm24.541-10.484 8.122 35.615c.15-.035.3-.07.449-.106zm41.695 1.907-29.542 21.485c.16.219.322.437.486.652zm1.43 18.107 1.634 36.492c17.023-.762 31.257-13.192 34.305-29.957zm-30.259 2.145 3.085 36.398c.183-.016.366-.033.55-.051zm-25.97 2.859 4.352 36.268c.238-.028.475-.059.712-.092zm-22.397 3.335 4.531 36.247c.671-.084 1.339-.186 2.004-.307zm-18.584 27.564c.009 0 .551.002 1.465.242.944.248 2.044.687 3.146 1.364l-38.29 62.22c10.691 6.579 22.37 9.231 33.679 9.231zm6.006 2.51c.881.598 1.903 1.484 2.861 2.681.959 1.199 1.614 2.411 2.021 3.447l-67.998 26.713c4.449 11.327 12.017 20.759 22.036 27.572zm5.037 6.53c.375.988.582 1.979.651 2.857.068.854-.012 1.366-.024 1.435l-71.9455-12.696c-1.9638 11.129-1.3282 22.877 3.0095 34.314zm-13.333-31.207c.876.662 1.65 1.453 2.261 2.28.598.809.882 1.439.979 1.686.088.225-.018.03-.144-.743-.126-.778-.255-2.033-.255-3.854h-73.0571c0 20.201 5.7719 43.515 26.1911 58.933zm2.841-.631c0-9.745 2.816-23.481 10.814-41.958l-67.046-29.02c-10.4284 24.092-16.8251 48.001-16.8251 70.978zm10.814-41.958c7.744-17.893 17.223-32.4243 28.159-44.0976l-53.316-49.9482c-17.337 18.5063-31.209 40.3494-41.889 65.0258zm28.289-44.2372c10.917-11.7764 15.726-11.1789 14.669-11.1789v-73.057208c-28.06 0-50.889 15.846208-68.245 34.567108zm14.669-11.1789c-.048 0-1.196.0026-3.059-.5189-1.95-.5462-4.66-1.6669-7.454-3.8401l44.853-57.6679c-11.412-8.87565-24.342-11.030308-34.34-11.030308zm-10.513-4.359c-2.634-2.0489-5.556-5.2427-7.61-9.7115-2.047-4.4558-2.547-8.6902-2.407-11.8935l72.988 3.1734c.667-15.3385-5.814-29.6663-18.118-39.2362zm40.043-53.9343-8.339-3.3356-27.133 67.8319 8.339 3.3357zm-8.841 64.6929c4.832-1.8506 6.852-1.8726 6.711-1.8726v-73.05725c-11.578 0-22.741 2.83708-32.84 6.70475zm6.711-1.8726c-.248 0-1.615-.054-3.537-.8569-2.003-.8367-3.61-2.0723-4.669-3.2373l54.058-49.1436c-12.416-13.6574-28.911-19.81945-45.852-19.81945zm-7.414-3.2496c-.874-.9029-1.557-1.8351-2.063-2.6999-.498-.8523-.762-1.5305-.887-1.9139-.228-.6969.044-.2798.044 1.8321h73.057c0-15.5416-3.837-33.7632-17.678-48.0512zm-2.906-2.7817c0 3.7434-.682 5.8061-1.217 6.9298l65.961 31.4096c5.818-12.2187 8.313-25.2457 8.313-38.3394zm-1.379 7.2759c-.18.3872-.135.1687.311-.336.473-.5342 1.12-1.0743 1.842-1.4871l36.247 63.4316c12.927-7.387 22.082-18.368 27.885-30.891zm1.756-1.5926c1.32-.7765 3.113-1.4698 5.175-1.7446 2.012-.2684 3.485-.0335 4.132.1242l-17.312 70.9765c15.036 3.667 30.843 1.969 45.046-6.386zm33.323 50.2041c5.428-10.856 9.343-22.281 11.725-34.1896l-71.639-14.3278c-1.113 5.5633-2.916 10.8169-5.43 15.8451zm11.749-34.3128c2.449-12.4653 3.124-26.5883-1.249-40.4371l-69.666 21.9998c-.306-.9676-.212-1.2445-.204-.4852.008.7768-.077 2.34-.568 4.8411zm-1.249-40.4371c-2.791-8.8378-8.294-18.422-18.135-25.4772-9.746-6.9878-20.414-9.1054-29.326-9.1054v73.0572c-2.399 0-7.706-.6086-13.243-4.5785-5.631-4.0372-8.077-9.0945-8.962-11.8963zm-46.953-34.5791c-28.176-.3913-49.391 17.3957-63.845 35.1258l56.626 46.1622c4.28-5.2503 7.239-7.5569 8.605-8.4026 1.114-.69.133.2-2.401.1648zm-63.721 34.9744c-14.7 17.8371-26.453 38.6009-35.583 61.7916l67.979 26.763c6.754-17.155 14.857-31.018 23.982-42.09zm-35.638 61.9336c-8.724 22.432-14.159 44.44-14.159 65.18h73.057c0-8.486 2.349-21.105 9.191-38.701zm-14.159 65.18c0 11.496 1.806 25.15 9.066 37.534l63.026-36.946c1.005 1.714 1.211 2.808 1.18 2.66-.011-.053-.068-.339-.12-.897-.052-.557-.095-1.332-.095-2.351zm9.852 38.814c10.209 15.881 26.655 23.447 43.593 23.447v-73.057c1.922 0 5.384.397 9.31 2.432 4.046 2.098 6.865 5.049 8.551 7.672zm43.593 23.447c14.724 0 27.071-5.88 36.314-12.404l-42.131-59.686c-1.558 1.1.624-.967 5.817-.967zm36.888-12.818c9.986-7.342 17.948-16.822 24.4-26.93l-61.581-39.307c-3.078 4.822-5.282 6.779-6.097 7.379zm24.295-26.766c7.209-11.162 12.516-23.624 16.331-36.874l-70.206-20.211c-2.222 7.718-4.857 13.363-7.496 17.45zm-25.936-11.16c-4.626-.925-9.569-2.957-14.075-6.488-4.454-3.492-7.392-7.592-9.23-11.268-3.328-6.656-3.215-12.161-3.191-13.194.053-2.263.421-1.606-1.471 4.07l69.308 23.102c2.397-7.189 4.989-16.38 5.2-25.474.104-4.448-.22-12.614-4.501-21.176-5.211-10.421-15.01-18.67-27.713-21.211zm-28.094-26.493c-2.6 8.1-6.988 16.244-13.725 24.465l56.508 46.306c12.006-14.652 21.119-30.811 26.779-48.443zm-13.566 24.272c-2.555 3.075-4.095 4.021-4.324 4.149-.08.045.13-.082.606-.21.489-.132 1.034-.205 1.554-.205v73.057c25.189 0 44.668-13.63 58.353-30.099zm48.282 29.978c-2.031-.25-.569-.429 2.293 1.333 1.568.964 3.504 2.487 5.334 4.739 1.86 2.289 3.222 4.857 4.067 7.456l-69.48 22.581c8.638 26.578 33.182 34.471 48.862 36.401zm11.694 13.528c.997 3.07.706 4.954.742 4.658.014-.113.086-.606.337-1.524.249-.914.647-2.143 1.265-3.711l-67.973-26.777c-5.284 13.412-9.812 31.593-3.851 49.935zm1.874.559c2.201-5.079 4.32-10.163 6.356-15.254l-67.832-27.132c-1.776 4.44-3.629 8.886-5.558 13.338zm6.226-14.935c4.826-11.743 8.707-21.476 11.583-29.09l-68.343-25.819c-2.524 6.681-6.108 15.691-10.813 27.139zm11.583-29.09c3.364-8.904 6.019-18.186 7.111-27.464l-72.557-8.536c-.179 1.523-.86 4.789-2.897 10.181zm-30.826 4.759c1.809.082 2.372.251 2.041.17-.203-.05-.782-.205-1.632-.554-.852-.351-2.088-.943-3.526-1.901l40.525-60.788c-11.604-7.736-24.779-9.486-34.091-9.909zm-3.117-2.285c-1.685-1.124-4.07-3.125-6.2-6.319-2.199-3.298-3.524-6.976-4.013-10.562l72.387-9.871c-2.093-15.35-10.922-26.884-21.649-34.036zm-9.903-14.982c-.568-2.982-.381-5.124-.271-5.959.112-.846.222-.938-.058-.123l69.089 23.75c2.724-7.923 5.333-19.127 3.007-31.338zm-.23-6.364c-1.749 4.953-3.828 10.529-6.255 16.747l68.059 26.559c2.656-6.806 5.024-13.143 7.088-18.991zm-6.142 16.46c-4.843 12.11-9.081 23.028-12.7 32.731l68.453 25.525c3.371-9.04 7.393-19.406 12.079-31.123zm-12.887 33.245c-3.551 9.975-6.416 19.076-8.279 26.941l71.09 16.837c.997-4.206 2.896-10.513 6.017-19.281zm33.809-47.45c-.276 1.41-.905 2.9-1.783 4.136-.815 1.148-1.388 1.436-.937 1.136l-40.525-60.788c-13.9 9.267-24.862 23.136-28.453 41.488zm-2.569 5.17c3.374-2.274 7.346-4.043 12.249-5.161l-16.245-71.229c-13.204 3.012-25.593 8.232-36.832 15.806zm12.698-5.267c7.054-1.702 12.546-2.316 16.685-2.316v-73.0568c-11.11 0-22.456 1.6106-33.827 4.3558zm16.685-2.316c2.021 0 1.42.252-.673-.415-2.237-.714-7.824-3.054-12.43-9.386l59.085-42.971c-13.782-18.9489-36.123-20.2848-45.982-20.2848zm-12.617-9.149c-4.474-5.872-5.014-11.203-5.095-12.234-.096-1.216.108-.896-.358 1.67l71.878 13.069c1.122-6.171 1.883-13.237 1.31-20.489-.558-7.067-2.607-17.083-9.622-26.291zm28.852-40.522c-11.237.503-21.995 1.263-32.26 2.289l7.27 72.695c8.796-.88 18.211-1.55 28.258-2zm-31.71 2.238c-9.924.841-19.25 1.864-27.95 3.082l10.129 72.352c7.184-1.006 15.171-1.89 23.991-2.637zm-27.238 2.989c-8.583 1.03-16.782 2.247-24.578 3.665l13.069 71.879c6.181-1.124 12.913-2.131 20.214-3.007zm-22.575 3.358-1.906.238 9.062 72.493 1.906-.238zm148.258 25.048-18.302 31.613c.425.246.854.483 1.289.712zm-6.433-6.671 33.052-15.554zm-.715-8.816-1.49-36.498c-16.194.661-30.017 11.915-33.948 27.639zm39.551-12.628 21.356 29.636c.026-.019.052-.037.078-.056zm23.35-29.0673-33.719-14.0495c-.056.1337-.11.2677-.165.402zm3.336-33.1182 35.529-8.4846c-3.26-13.652-14.054-24.2286-27.77-27.2103zm-25.018-1.1913-3.084-36.3981zm-58.135 22.1582-34.458 12.1241c3.843 10.9245 12.64 19.3785 23.707 22.7865 11.068 3.408 23.096 1.367 32.419-5.503zm3.097-24.0643-29.895-20.9904c-.101.1434-.201.2876-.299.4325zm22.873-17.8695 14.836 33.3803zm57.897.2383-20.424 30.2848zm11.437 21.9199-26.362 25.286c10.689 11.1442 27.231 14.3632 41.32 8.0398 14.088-6.3232 22.678-20.8221 21.456-36.2158zm-11.198-11.6747 4.53-36.2466c-15.346-1.9182-30.237 6.0354-37.176 19.8568-6.939 13.8213-4.422 30.5146 6.284 41.6758zm25.493 17.393-33.517 14.524zm-8.1 47.6519 30.049 20.77c.047-.069.094-.137.141-.206zm-29.306 27.162 18.914 31.25zm-37.646 71.716-31.214 18.974c.056.092.112.183.169.275zm-8.577-30.497-36.479 1.895c.008.157.017.315.027.472zm2.144-40.504-1.028-36.515c-17.824.503-32.68 13.799-35.148 31.458zm16.917-.477 36.527-.332c-.089-9.808-4.119-19.169-11.183-25.974-7.064-6.806-16.568-10.484-26.373-10.208zm5.003 39.79-34.468 12.094c.063.178.127.356.192.534zm26.209 9.292 21.917 29.223zm9.769-11.199 23.595-27.885c-8.231-6.964-19.117-9.937-29.745-8.122s-19.911 8.233-25.364 17.534zm3.335 16.44-35.393-9.036c-.046.18-.09.36-.134.541zm-11.913 20.014 25.492 26.163zm-86.965 7.863-7.58 35.733c19.576 4.153 38.848-8.218 43.225-27.744zm-13.104-4.051-15.705 32.981c.196.093.392.184.589.274zm-7.624-5.718-29.725 21.232c.324.453.658.899 1.001 1.336zm5.241-35.501-34.374-12.359zm23.35-61.947-34.004-13.344c-.025.064-.05.127-.075.191zm14.295-37.1689-34.036-13.261c-.05.1285-.099.2573-.148.3863zm10.007-27.6382 7.367-35.7782c-18.439-3.7962-36.744 7.0426-42.28 25.0357zm13.105 4.0504-15.705 32.9803c.195.0931.392.1845.589.2742zm7.624 5.7183-29.725 21.2318c.324.453.658.8986 1.002 1.3364zm-2.144 23.826-34.007-13.3361c-.077.1939-.151.3885-.224.5836zm-15.964 41.6954 33.916 13.567c.051-.127.101-.253.15-.38zm-22.873 58.85-34.23-12.752c-.023.062-.046.125-.069.187zm32.642-70.123c.145 0 2.646.028 6.053 1.821l-34.026 64.65c9.443 4.97 19.25 6.586 27.973 6.586zm7.342 2.533c2.304 1.334 5.913 4.28 8.317 9.388l-66.104 31.108c4.945 10.508 12.843 17.901 21.183 22.73zm8.317 9.388c1.207 2.565 1.986 5.42 2.225 8.373.236 2.907-.092 5.379-.554 7.225l-70.876-17.719c-2.624 10.498-2.111 22.154 3.101 33.229zm-32.277 43.236c21.474-.876 41.875-6.849 59.417-19.49l-42.711-59.2715c-4.061 2.9265-10.027 5.3715-19.686 5.7655zm59.495-19.546c15.963-11.567 28.377-26.571 35.799-45l-67.767-27.2948c-1.789 4.444-4.942 8.819-10.9 13.1362zm35.635-44.598c7.326-17.583 9.715-36.5213 5.146-55.6521l-71.059 16.9693c.514 2.1537.679 5.2942-1.525 10.584zm-22.624-82.8624c-11.645-2.5316-23.751-2.9208-35.861-1.8945l6.169 72.7959c6.633-.5618 11.205-.157 14.173.488zm-35.861-1.8945c-12.964 1.0986-25.854 4.1215-38.576 8.6932l24.708 68.7527c7.61-2.735 14.258-4.16 20.037-4.65zm-38.576 8.6932c-13.63 4.8982-26.36 11.7725-38.144 20.4555l43.337 58.8152c6.324-4.66 12.813-8.11 19.515-10.518zm17.983 37.7391c.146.4167.58 2.0219.282 4.3382-.299 2.3257-1.138 3.8237-1.448 4.2795l-60.389-41.1159c-11.67 17.1397-14.202 37.3045-7.361 56.7463zm-1.465 9.0502c.738-1.0512 2.638-3.1796 7.813-5.4797l-29.672-66.7606c-14.838 6.595-28.187 16.3796-37.932 30.2594zm7.813-5.4797c5.403-2.4014 10.758-3.523 16.376-3.523v-73.057208c-15.984 0-31.437 3.325958-46.048 9.819708zm16.376-3.523c6.043 0 7.163 1.2746 6.261.6658l40.849-60.5697c-14.563-9.82153-31.233-13.153308-47.11-13.153308zm6.261.6658c-.724-.4878-1.511-1.149-2.261-1.9879-.749-.8388-1.317-1.6945-1.719-2.4653-.801-1.5361-.665-2.1732-.573-1.0217l72.828-5.78c-1.462-18.4155-9.352-37.1251-27.426-49.3148zm58.223-33.6509-11.198-11.6748-52.724 50.5721 11.198 11.6747zm-42.091 49.8578c.865.1081 1.134.2271.968.1676-.191-.0685-.755-.3012-1.496-.8225l42.044-59.7467c-10.149-7.1417-21.462-10.7174-32.455-12.0915zm-.528-.6549c-.458-.3225-1.069-.8473-1.676-1.5914-.609-.746-1.03-1.4855-1.289-2.0832l67.034-29.0481c-4.765-10.9974-12.295-20.1769-22.025-27.024zm-2.965-3.6746c-.094-.2175-.08-.2607-.038-.0405.044.2322.124.7809.124 1.7182h73.057c0-10.2295-1.761-20.6928-6.109-30.7258zm.086 1.6777c0 .6297-.202 4.048-4.86 10.886l60.381 41.1282c10.273-15.082 17.536-32.63 17.536-52.0142zm-4.719 10.6808c-4.32 6.2514-10.174 11.8404-18.171 16.6814l37.829 62.5c16.147-9.773 29.831-22.291 40.441-37.642zm-18.171 16.6814c-7.015 4.246-12.934 5.681-18.254 5.681v73.057c20.095 0 38.955-5.871 56.083-16.238zm3.189 78.351c.238 0 2.173.084 4.696 1.455 2.583 1.403 3.972 3.172 4.43 3.912l-62.091 38.497c11.878 19.159 31.201 29.193 52.965 29.193zm9.295 5.642c-1.101-1.812-2.819-5.869-3.34-13.891l-72.904 4.734c1.068 16.439 5.068 32.713 13.815 47.104zm-3.313-13.419c-.492-9.472.032-20.605 1.842-33.552l-72.353-10.114c-2.32 16.596-3.226 32.467-2.447 47.456zm-33.306-2.095 16.916-.477-2.057-73.028-16.916.476zm-20.639-36.659c.17 18.756 1.886 36.799 7.062 51.552l68.937-24.189c-1.178-3.355-2.798-11.838-2.945-28.027zm7.254 52.086c2.928 7.947 7.796 17.265 16.295 24.835 9.257 8.245 20.891 12.646 33.23 12.646v-73.057c2.406 0 5.235.414 8.181 1.533 2.947 1.12 5.355 2.697 7.179 4.322 3.417 3.043 4.076 5.571 3.668 4.464zm49.525 37.481c13.825 0 25.007-5.692 32.877-11.594l-43.834-58.446c.245-.184 4.121-3.017 10.957-3.017zm32.877-11.594c8.135-6.101 14.507-13.661 19.365-21.948l-63.027-36.947c-.285.488-.462.694-.481.715-.012.014.088-.101.309-.266zm-35.744-12.536c-4.43-3.749-7.254-8.873-8.272-13.891-.871-4.294-.113-6.891-.19-6.591l70.787 18.073c3.683-14.426 4.032-37.145-15.134-53.362zm-8.596-19.941v.002c-.001.001-.003.008-.009.023-.01.026-.048.114-.141.27-.182.305-.658 1.009-1.728 2.051l50.984 52.326c10.378-10.112 18.363-22.686 21.948-37.681zm-1.878 2.346c-.337.329.011-.102 1.123-.582 1.182-.51 2.428-.729 3.402-.729v73.057c18.404 0 34.271-7.544 46.459-19.42zm-53.893-1.708c-3.584-.76-5.227-1.416-5.568-1.571l-30.232 66.509c6.648 3.021 13.741 5.066 20.64 6.529zm-4.979-1.297c.249.119 2.764 1.347 5.394 4.694l-57.447 45.136c6.124 7.795 13.722 12.835 20.643 16.131zm6.395 6.03c3.526 4.936 4.422 9.972 4.422 13.131h-73.058c0 9.513 2.485 19.95 9.187 29.333zm4.422 13.131c0 2.259-.296 3.463-.177 2.839.072-.373.281-1.322.746-2.994.933-3.353 2.51-8.236 4.901-14.885l-68.749-24.719c-2.692 7.488-4.927 14.24-6.535 20.02-1.313 4.718-3.244 12.248-3.244 19.739zm5.47-15.04c4.936-13.729 12.596-34.061 23.053-61.154l-68.157-26.306c-10.509 27.23-18.415 48.196-23.645 62.741zm22.979-60.964c4.983-12.699 9.809-25.245 14.476-37.6372l-68.369-25.7494c-4.546 12.0692-9.251 24.3025-14.115 36.6996zm14.328-37.2509c4.832-12.4019 8.569-22.6331 10.884-30.1566l-69.827-21.4851c-1.497 4.866-4.432 13.0602-9.13 25.1197zm-31.396-5.121c1.773.3649 3.048.7027 3.906.9679.878.2715 1.104.4008.86.2846l31.41-65.9605c-6.949-3.3089-14.426-5.4035-21.443-6.8484zm5.355 1.5267c-.103-.0471-3.634-1.6133-6.985-6.3044l59.45-42.4636c-6.528-9.1386-15.141-14.517-22.234-17.7409zm-5.983-4.968c-4.179-5.3183-5.185-10.9076-5.185-14.2291h73.058c0-9.9928-2.754-21.1415-10.427-30.9073zm-5.185-14.2291c0-1.7891.152-3.1537.251-3.8879.105-.7855.216-1.3334.268-1.5733.095-.4419.112-.4126-.095.2582-.189.6169-.494 1.5383-.953 2.8142-.453 1.262-1.02 2.7687-1.714 4.5396l68.014 26.6725c1.748-4.4572 3.305-8.7222 4.48-12.5412.771-2.5048 2.807-9.0899 2.807-16.2821zm-2.467 2.7344c-2.928 7.8597-8.173 21.5633-15.798 41.2619l68.131 26.373c7.623-19.694 13.02-33.788 16.128-42.13zm-15.649 40.8819c-9.278 23.197-17.017 43.101-23.187 59.664l68.461 25.505c5.901-15.841 13.412-35.17 22.558-58.036zm-23.256 59.851c-6.063 16.549-10.673 30.926-13.258 42.46l71.289 15.978c1.544-6.891 4.876-17.771 10.568-33.307zm168.025 39.489-29.763 21.178c.089.125.179.25.27.374zm-1.43-69.334 33.886 13.642c.02-.05.04-.1.06-.151zm18.346-25.732 19.955 30.597c.154-.101.307-.202.459-.305zm20.967 3.097 27.1 24.494c12.827-14.192 12.532-35.878-.677-49.716zm-17.393 28.83 34.12 13.046c.021-.055.042-.111.063-.166zm-2.859 46.937-32.162 17.318c.268.499.548.991.839 1.476zm38.36-15.725 30.033 20.792zm25.494-51.702 34.486 12.042c.01-.028.02-.056.03-.084zm6.671-68.6195-31.641 18.2542c.173.2993.35.5961.531.8904zm-41.457 14.2957-28.009-23.4491c-.009.0105-.017.0211-.026.0316zm-29.783 51.9408-33.845-13.742c-.018.044-.035.088-.053.131zm-15.01 62.424 13.566 33.916c12.924-5.17 21.787-17.235 22.855-31.114zm-10.96 1.191-10.035 35.124c.521.149 1.046.286 1.574.412zm-8.101-6.671-31.8 17.974c.115.204.232.407.352.609zm9.292-71.24-34.1-13.096c-.017.044-.034.089-.051.134zm34.548-56.7057-26.749-24.8764c-.045.048-.089.0962-.134.1445zm81.485-11.4364-26.079 25.5776c.082.0844.166.1684.249.252zm-.477 97.9251 34.203 12.826c.01-.026.02-.052.029-.078zm-34.309 58.612-27.391-24.168c-.044.05-.089.101-.133.152zm-45.27-12.226c-2.467 0-2.759-.406-1.828.004.477.21 1.103.563 1.757 1.089.654.525 1.136 1.065 1.45 1.493l-58.986 43.105c14.583 19.957 36.395 27.366 57.607 27.366zm1.649 2.961c-.37-.52-2.05-3.153-2.05-10.749h-73.058c0 18.454 4.198 37.105 15.582 53.105zm-2.05-10.749c0-7.857 1.498-15.704 4.743-23.765l-67.771-27.284c-6.603 16.401-10.03 33.492-10.03 51.049zm4.803-23.916c1.649-4.148 3.106-6.649 4.077-8.01.945-1.326 1.148-1.184.278-.616l-39.909-61.1937c-16.162 10.5397-26.007 26.9087-32.338 42.8377zm4.814-8.931c-1.955 1.317-7.432 4.048-15.03 2.926-7.057-1.043-10.6-4.647-10.84-4.898l52.846-50.445c-6.911-7.2398-17.284-14.8552-31.33-16.9301-14.587-2.155-27.212 2.5217-36.474 8.7632zm-26.547-51.688c-10.69 11.827-18.818 25.428-24.475 40.443l68.365 25.76c2.601-6.905 6.069-12.524 10.31-17.216zm-24.413 40.277c-5.362 14.025-8.603 28.567-8.603 43.305h73.057c0-4.005.889-9.636 3.786-17.213zm-8.603 43.305c0 10.3 1.548 22.568 7.702 33.996l64.324-34.636c.917 1.703 1.145 2.834 1.155 2.887.01.046-.024-.108-.058-.497-.035-.388-.066-.964-.066-1.75zm8.541 35.472c8.941 14.901 24.285 23.691 41.806 23.691v-73.057c3.087 0 7.456.714 11.97 3.28 4.506 2.559 7.324 5.921 8.87 8.498zm41.806 23.691c14.964 0 27.128-6.348 35.829-13.115 8.638-6.718 15.9-15.374 22.081-24.303l-60.067-41.584c-1.827 2.639-3.376 4.591-4.623 5.991-1.26 1.416-2.024 2.058-2.244 2.228-.591.46 2.638-2.274 9.024-2.274zm57.91-37.418c12.216-17.644 22.089-37.949 29.947-60.452l-68.973-24.085c-6.119 17.524-13.242 31.688-21.041 42.953zm29.977-60.536c7.712-22.261 12.496-43.698 12.496-63.4227h-73.057c0 8.5493-2.206 21.4217-8.471 39.5057zm12.496-63.4227c0-10.8829-1.784-24.1983-9.231-36.2993l-62.22 38.2891c-1.249-2.0305-1.621-3.5253-1.69-3.8343-.064-.2887.084.2319.084 1.8445zm-8.7-35.4089c-9.166-15.8874-25.15-24.4692-42.601-24.4692v73.0572c-2.738 0-7.001-.6134-11.541-3.1794-4.598-2.5989-7.521-6.0946-9.14-8.9003zm-42.601-24.4692c-26.615 0-46.329 19.025-58.506 33.5699l56.017 46.8979c2.13-2.544 3.957-4.4765 5.469-5.9107 1.525-1.4457 2.562-2.2268 3.096-2.5853 1.261-.8472-1.004 1.0854-6.076 1.0854zm-58.532 33.6015c-14.3 17.1197-25.99 37.9641-35.593 61.6163l67.691 27.484c7.551-18.599 15.716-32.382 23.972-42.265zm-35.646 61.7473c-9.68 24.108-15.635 48.552-17.533 73.234l72.842 5.603c1.278-16.618 5.33-33.79 12.487-51.615zm5.321 42.119c1.283-.513 5.431-1.77 11.068-.428l-16.922 71.071c12.308 2.93 23.763.879 32.987-2.811zm12.642-.016c3.198.914 6.17 2.493 8.659 4.543 2.411 1.985 3.864 3.99 4.653 5.326l-62.896 37.166c5.956 10.081 15.674 19.257 29.514 23.212zm13.664 10.478c1.237 2.188 1.601 3.787 1.675 4.151.074.367-.044-.022-.044-1.426h-73.057c0 9.642 1.406 21.865 7.826 33.223zm1.631 2.725c0-9.514 2.622-23.557 10.012-43.028l-68.302-25.925c-9.129 24.051-14.767 47.335-14.767 68.953zm9.961-42.894c6.914-18.001 16.099-32.8625 27.33-45.0707l-53.765-49.4639c-17.995 19.5599-31.841 42.5024-41.765 68.3416zm27.197-44.9262c9.343-10.0465 16.599-12.1739 22.571-12.1739v-73.057208c-30.244 0-55.868 13.756608-76.069 35.478208zm22.571-12.1739c2.894 0 4.364.4427 4.918.6561.451.1736.749.3559 1.168.7825l52.158-51.1553c-16.036-16.35083-36.725-23.340508-58.244-23.340508zm6.335 1.6906c-.249-.2492.055-.1314.513 1.2243.517 1.5307 1.178 4.5424 1.178 9.6381h73.057c0-22.0711-5.683-45.116-23.089-62.5217zm1.691 10.8624c0 12.1244-2.973 28.0861-10.569 48.4841l68.463 25.497c9.558-25.665 15.163-50.525 15.163-73.9811zm-10.54 48.4071c-7.219 19.248-16.503 34.809-27.498 47.27l54.781 48.336c17.597-19.942 31.186-43.457 41.122-69.954zm-27.631 47.422c-9.689 11.103-15.527 11.79-17.746 11.79v73.057c29.867 0 54.209-15.515 72.794-36.815zm111.431 42.362-18.915 31.25c.119.072.239.144.359.214zm-12.866-14.296-33.978 13.412c.144.365.294.727.449 1.087zm-1.43-18.346 35.593 8.214c4.031-17.468-5.209-35.279-21.811-42.043zm-9.53-10.245-33.987 13.389c.047.12.095.24.144.36zm9.53-70.763-33.616-14.2937c-.018.0434-.037.0868-.055.1302zm32.165-51.7027-27.137-24.4529c-.004.0055-.009.011-.014.0165zm48.367-19.2991-18.521 31.4853c.471.2767.947.5429 1.43.7982zm5.718 6.433-34.045 13.2397c6.164 15.8487 22.448 25.3481 39.278 22.9122zm29.306 5.0035-20.558 30.1945c.098.0669.197.1332.296.1991zm4.051 57.1823 32.089 17.453zm-18.346 19.537-17.443-32.0944c-.1.0539-.199.1083-.297.1631zm-19.299 1.192-30.705-19.788c-5.473 8.492-7.184 18.871-4.728 28.67 2.457 9.799 8.862 18.143 17.693 23.05zm12.151-26.209-34.437-12.185c-.055.1577-.11.3158-.164.4742zm1.906-41.4571-30.818 19.6113c.207.3256.42.6478.637.9667zm-42.887 15.4869 28.62 22.6987zm-27.4 49.3202 34.109 13.075zm-4.289 71.001-27.108 24.485c.143.158.287.315.433.47zm43.126-2.382 22.35 28.892zm20.49-25.256 19.144-31.11c-8.693-5.349-19.227-6.818-29.052-4.049-9.825 2.768-18.043 9.521-22.663 18.623zm4.765 5.718-33.466 14.642c.25.571.515 1.136.794 1.694zm-5.48 29.306 30.292 20.414zm-20.014 18.108-17.994-31.789c-.087.049-.173.099-.26.149zm-27.638-29.381c-1.833 0-2.934-.192-3.469-.323-.501-.123-.555-.201-.371-.093l-37.112 62.929c12.911 7.615 27.089 10.545 40.952 10.545zm-3.482-.201c-.258-.157.014-.034.494.5.502.558.95 1.253 1.254 1.956l-67.057 28.997c5.861 13.552 15.644 23.884 27.48 31.047zm2.197 3.542c.067.169.236.687.296 1.461.061.781-.02 1.429-.11 1.819l-71.186-16.428c-3.129 13.559-1.993 27.209 3.045 39.972zm-21.625-38.763c2.813 1.146 5.361 2.924 7.365 5.078 1.915 2.058 2.816 3.899 3.165 4.758l-67.685 27.497c5.033 12.388 14.512 24.182 29.591 30.325zm10.674 10.195c-.035-.088-.555-1.486-.555-4.957h-73.057c0 10.507 1.544 21.339 5.639 31.735zm-.555-4.957c0-8.384 2.452-20.857 9.77-38.254l-67.342-28.3265c-9.519 22.6305-15.485 45.1025-15.485 66.5805zm9.715-38.124c7.215-16.969 15.883-30.6513 25.701-41.5594l-54.303-48.8727c-15.915 17.6832-28.691 38.4693-38.63 61.8454zm25.686-41.5429c9.763-10.8352 13.54-9.6059 11.461-9.6059v-73.05724c-27.492 0-49.448 15.68374-65.735 33.75744zm11.461-9.6059c-1.291 0-4.737-.2989-8.752-2.6607l37.042-62.9706c-9.416-5.53866-19.375-7.42594-28.29-7.42594zm-7.322-1.8625c-2.253-1.1924-4.628-2.9403-6.756-5.3348-2.127-2.3927-3.571-4.9399-4.48-7.276l68.09-26.4793c-4.278-11.0009-12.182-19.9235-22.672-25.47696zm28.042 10.3014c3.095-.448 4.63-.267 5-.2039.161.0275.04.0215-.281-.104-.329-.1291-.754-.3395-1.204-.646l41.116-60.3891c-17.329-11.79835-37.201-13.55087-55.096-10.9608zm3.811-.7548c-1.218-.8118-2.338-1.8369-3.258-2.9879-.905-1.1307-1.408-2.1196-1.655-2.7172-.433-1.0452.083-.4591.083 2.9497h73.057c0-19.587-5.791-43.4245-27.702-58.0319zm-4.83-2.7554c0 4.7522-1.033 8.5725-2.947 12.0919l64.179 34.9052c7.935-14.589 11.825-30.4648 11.825-46.9971zm-2.947 12.0919c-1.195 2.1965-2.194 3.4567-2.819 4.1221-.309.3292-.535.5221-.666.6248-.129.1007-.199.1393-.214.1479l34.886 64.1894c14.833-8.061 25.508-20.418 32.992-34.179zm-3.996 5.0579c.003-.002.452-.2523 1.328-.5342.894-.2877 2.244-.6103 3.975-.7172 3.852-.2377 7.738.6986 10.877 2.4427l-35.479 63.864c19.585 10.88 39.766 7.149 54.778-1.192zm29.145 52.9103c6.613-10.261 11.846-21.872 16.047-34.285l-69.201-23.4218c-2.787 8.2364-5.655 14.0978-8.255 18.1318zm15.883-33.811c4.552-12.862 7.572-26.248 7.572-39.5848h-73.057c0 2.5473-.632 7.4282-3.388 15.2148zm7.572-39.5848c0-10.4499-2.078-23.1324-9.921-34.6353l-60.362 41.156c-3.078-4.514-2.774-7.8249-2.774-6.5207zm-9.284-33.6686c-10.512-16.5178-27.47-22.1591-41.778-22.1591v73.0573c-1.559 0-5.024-.2632-9.208-2.2645-4.49-2.147-8.179-5.5281-10.65-9.4111zm-41.778-22.1591c-27.374 0-47.421 18.0089-60.547 34.5586l57.24 45.3974c3.906-4.9243 6.488-6.9676 7.473-7.6076.762-.4942-.803.7089-4.166.7089zm-60.547 34.5586c-13.598 17.1456-24.457 36.9482-32.888 58.9439l68.217 26.15c6.181-16.127 13.589-29.204 21.911-39.6965zm-32.888 58.9439c-8.125 21.195-13.38 42.029-13.38 61.442h73.057c0-6.955 2.051-18.366 8.54-35.292zm-13.38 61.442c0 14.565 3.057 32.688 16.091 47.119l54.216-48.969c2.068 2.289 2.775 4.289 2.927 4.805.117.395-.177-.405-.177-2.955zm16.524 47.589c11.965 12.791 27.73 18.96 44.307 18.96v-73.057c.683 0 2.3.133 4.345.99 2.093.877 3.688 2.116 4.699 3.197zm44.307 18.96c18.455 0 34.601-7.16 47.844-17.405l-44.701-57.785c-1.853 1.433-2.998 1.952-3.407 2.109-.334.128-.183.024.264.024zm47.844-17.405c13.065-10.106 23.238-22.893 30.711-37.612l-65.142-33.072c-3.011 5.93-6.498 9.981-10.27 12.899zm-21.005-23.038c-5.159-3.175-8.128-7.488-9.556-10.75l66.932-29.283c-3.651-8.346-9.798-16.471-19.087-22.187zm-8.762-9.056c-1.422-2.844-1.95-5.705-1.95-7.997h73.057c0-8.327-1.799-16.748-5.763-24.675zm-1.95-7.997c0-.59.055-1.071.117-1.416.061-.34.121-.503.111-.475-.028.08-.333.893-1.378 2.444l60.584 40.828c7.706-11.434 13.623-25.435 13.623-41.381zm-1.15.553c-1.461 2.168-3.732 4.478-7.716 6.733l35.988 63.578c12.854-7.275 23.925-17.037 32.312-29.483zm-7.976 6.882c-2.341 1.35-5.188 2.259-9.384 2.259v73.058c16.135 0 31.714-3.857 45.892-12.036zm116.391-111.3161-30.256 20.4671c9.991 14.769 29.185 20.167 45.409 12.771zm-.238-17.8695-31.858-17.8717c-.112.1991-.222.3992-.329.6003zm19.299-16.44 15.881 32.8959c.078-.0375.155-.0752.233-.1133zm61.233.2383-23.772 27.7346c.282.2417.567.4792.857.7122zm7.624 18.5843-1.677 36.49c19.649.903 36.485-13.9137 38.085-33.518zm-46.222 3.5739-6.387-35.966zm-74.576 157.0131-26.249-25.402c-7.084 7.319-10.789 17.265-10.223 27.435.567 10.17 5.355 19.642 13.208 26.13zm30.498-22.158-14.97-33.32c-.061.027-.122.055-.183.083zm43.84.953-34.554 11.847c.035.104.071.207.108.311zm1.191 20.014.233 36.528c18.128-.115 33.429-13.509 35.943-31.463zm-70.049 5.718-23.264 28.163c8.168 6.747 18.864 9.616 29.312 7.862zm87.68-86.012-.987 36.516c9.856.266 19.401-3.463 26.466-10.339 7.065-6.877 11.05-16.317 11.05-26.177zm-15.01.953-6.898-35.871c-.089.017-.178.035-.266.052zm-14.772 3.813-10.41-35.014c-.242.072-.483.146-.723.223zm-10.007 3.097 8.859 35.438c.485-.121.968-.253 1.448-.394zm-17.87-3.097-26.6 25.035zm-4.288-15.487-3.635-36.3476c-19.255 1.9255-33.668 18.5336-32.862 37.8676zm9.53-2.383-13.004-34.1355c-.188.0717-.376.1449-.562.2196zm12.151-5.242 15.448 33.102c.298-.139.594-.282.888-.429zm13.819-5.956 11.552 34.654c.275-.092.549-.187.821-.285zm22.635 4.05-31.11 19.145c.113.183.227.365.343.546zm-83.868 106.264-7.366 35.779c19.747 4.065 39.053-8.636 43.138-28.378zm-13.342-4.05-15.705 32.98c.196.093.392.185.589.274zm-7.624-5.718-29.725 21.232c.324.453.657.898 1.001 1.336zm28.829-97.687-34.015-13.317c-.007.019-.015.039-.022.058zm24.303-65.0451 7.366-35.7782c-18.392-3.7865-36.658 6.9874-42.242 24.9152zm13.104 4.0504-15.705 32.9803c.196.0931.392.1845.589.2742zm7.624 5.7183-29.724 21.2318v.0001zm-2.144 24.0643 34.23 12.7521c.027-.072.054-.144.08-.216zm-16.202 41.9341 33.933 13.525c.025-.064.051-.129.076-.194zm-22.635 58.612 34.231 12.752c.013-.036.027-.072.04-.109zm45.743-131.9734c1.775 2.6238 3.406 6.6406 3.47 11.4625.061 4.5341-1.291 7.5029-1.776 8.4067l-64.375-34.5428c-3.98 7.4163-7.039 16.6196-6.9 27.1101.144 10.7784 3.641 20.4737 9.069 28.4979zm1.364 20.4694c-.547.9751-.961 1.2443-.606.9412.407-.3459 1.563-1.2151 3.928-2.3569l-31.762-65.7918c-13.519 6.5265-26.831 16.4105-35.276 31.4642zm3.555-1.529c3.567-1.7534 8.693-3.1635 16.29-3.1635v-73.05724c-16.865 0-33.341 3.1963-48.517 10.65564zm16.29-3.1635c4.899 0 7.586.4469 8.662.7135 1.13.2801-.814.033-3.605-2.3597l47.545-55.4692c-15.9-13.62796-36.858-15.94184-52.602-15.94184zm5.914-.934c-1.465-1.1797-3.396-3.3396-4.685-6.4813-1.252-3.0505-1.256-5.4591-1.183-6.3533l72.815 5.9441c1.546-18.9355-5.286-37.2505-21.116-50.0031zm32.217-46.3526c-17.086-.7855-35.255.7185-54.287 4.098l12.773 71.9321c14.961-2.657 27.606-3.535 38.159-3.05zm-54.287 4.098c-18.783 3.3354-35.914 8.0097-50.461 14.6413l30.305 66.4758c7.055-3.217 17.721-6.485 32.929-9.185zm-41.939 218.3821c6.838-7.066 13.346-11.563 19.4-14.323l-30.305-66.475c-15.547 7.087-29.372 17.363-41.594 29.993zm19.218-14.241c8.222-3.693 12.553-4.177 13.859-4.177v-73.057c-15.213 0-30.101 4.44-43.799 10.594zm13.859-4.177c-.012 0-.777.003-2.085-.274-1.329-.282-3.412-.897-5.826-2.238-5.624-3.124-9.743-8.319-11.632-13.831l69.108-23.694c-3.796-11.071-11.37-20.435-21.997-26.339-9.717-5.399-19.741-6.681-27.568-6.681zm-19.435-16.032c-.354-1.002-.32-1.415-.291-.933.03.498.037 1.691-.248 3.724l72.352 10.13c1.617-11.553 1.554-24.556-2.921-37.236zm35.404-28.672c-26.64.17-51.952 2.208-75.863 6.222l12.095 72.049c19.611-3.292 40.998-5.067 64.234-5.215zm-46.551 14.084-5.48-4.527-46.529 56.325 5.48 4.527zm65.402-94.365c-7.562-.204-15.371.15-22.895 1.597l13.796 71.743c.735-.142 2.934-.423 7.125-.309zm-23.161 1.649c-5.467 1.094-11.554 2.696-18.018 4.618l20.819 70.028c5.291-1.573 9.051-2.512 11.527-3.007zm-18.741 4.841c-3.814 1.22-6.854 2.159-9.181 2.844l20.614 70.088c3.073-.904 6.704-2.03 10.833-3.351zm-7.734 2.45c.756-.189.994-.138.521-.138v73.058c5.562 0 11.36-.584 17.198-2.044zm.521-.138c2.489 0 5.665.461 9.046 1.898 3.403 1.447 6.089 3.49 8.023 5.545l-53.2 50.071c9.66 10.264 22.566 15.544 36.131 15.544zm17.069 7.443c4.201 4.464 5.413 8.622 5.626 9.39.268.969.07.737-.017-1.362l-72.994 3.041c.358 8.613 1.855 25.902 14.185 39.002zm-27.254 45.896c6.821-.682 13.333-2.362 19.462-4.814l-27.132-67.8319c-.124.0496-.142.0475-.059.0267.085-.0212.242-.0537.46-.0754zm18.9-4.594c4.449-1.695 9.364-3.835 14.595-6.276l-30.895-66.2033c-4.3 2.0067-7.485 3.3612-9.708 4.2078zm15.483-6.705c4.541-2.271 7.457-3.449 9.035-3.975l-23.103-69.3082c-6.047 2.0155-12.343 4.808-18.604 7.9384zm9.856-4.26c.154-.055.167-.047.055-.027-.116.021-.296.042-.515.042v-73.0571c-8.447 0-16.597 1.5357-24.286 4.3036zm-.46.015c-3.351 0-7.746-.813-12.139-3.351-4.309-2.49-6.899-5.645-8.249-7.838l62.22-38.289c-8.765-14.2428-23.75-23.5791-41.832-23.5791zm-20.045-10.643c-1.131-1.766-1.714-3.197-1.983-3.954-.272-.766-.325-1.131-.289-.938.034.179.12.711.195 1.669.074.949.128 2.198.128 3.784h73.057c0-10.671-1.031-26.595-9.574-39.943zm-45.734 50.795c-1.802-.371-3.161-.724-4.142-1.022-.483-.146-.842-.27-1.092-.362-.25-.093-.363-.144-.359-.142l-30.232 66.508c6.792 3.088 14.074 5.13 21.092 6.575zm-5.004-1.252c.249.119 2.764 1.347 5.394 4.694l-57.447 45.136c6.124 7.794 13.722 12.835 20.643 16.13zm6.395 6.03c3.526 4.936 4.422 9.972 4.422 13.131h-73.058c0 9.513 2.485 19.949 9.187 29.333zm4.422 13.131c0 2.259-.296 3.462-.177 2.839.072-.374.28-1.322.746-2.994.933-3.354 2.51-8.237 4.901-14.886l-68.749-24.718c-2.692 7.487-4.927 14.239-6.536 20.019-1.312 4.718-3.243 12.248-3.243 19.74zm5.47-15.041c4.915-13.672 12.637-34.041 23.25-61.286l-68.074-26.518c-10.672 27.396-18.675 48.485-23.925 63.086zm23.228-61.228c13.044-33.319 21.679-56.3124 25.164-67.4991l-69.752-21.726c-2.552 8.1918-10.119 28.5616-23.442 62.5911zm-17.079-42.5839c1.773.3649 3.048.7027 3.906.9679.878.2715 1.104.4008.86.2846l31.41-65.9605c-6.949-3.3089-14.425-5.4035-21.443-6.8484zm5.355 1.5267c-.103-.0471-3.634-1.6133-6.984-6.3044l59.449-42.4636c-6.528-9.1386-15.141-14.517-22.233-17.7409zm-6.984-6.3043c-3.736-5.2301-4.422-10.3233-4.422-12.8928h73.057c0-9.2408-2.274-19.8934-9.186-29.571zm-4.422-12.8928c0-1.681.135-2.9534.219-3.6149.09-.7128.184-1.1985.222-1.3885.07-.345.064-.2338-.147.4971-.421 1.4622-1.232 3.9464-2.602 7.6951l68.62 25.0725c1.648-4.5107 3.1-8.7772 4.188-12.5568.725-2.5164 2.557-8.872 2.557-15.7045zm-2.228 2.9727c-2.898 7.778-8.196 21.4949-15.981 41.3546l68.018 26.663c7.781-19.85 13.285-34.089 16.423-42.513zm-15.904 41.1606c-9.128 22.901-16.795 42.748-22.973 59.494l68.541 25.287c5.894-15.974 13.317-35.202 22.297-57.73zm-22.933 59.385c-6.243 16.759-10.98 31.52-13.454 43.473l71.543 14.802c1.339-6.472 4.543-17.125 10.372-32.77zm180.628-23.463-18.302 31.613c.425.246.855.483 1.289.712zm-6.433-6.671 33.052-15.554zm-.714-8.816-1.49-36.498c-16.195.661-30.017 11.915-33.948 27.639zm39.551-12.628 21.355 29.636c.026-.019.053-.037.079-.056zm23.349-29.0673-33.718-14.0495c-.056.1337-.111.2677-.165.402zm3.336-33.1182 35.53-8.4846c-3.261-13.652-14.055-24.2286-27.77-27.2103zm-25.017-1.1913-3.085-36.3981zm-58.136 22.1582-34.458 12.1241c3.844 10.9245 12.64 19.3785 23.708 22.7865s23.096 1.367 32.419-5.503zm3.098-24.0643-29.896-20.9904c-.101.1434-.2.2876-.299.4325zm22.873-17.8695 14.835 33.3803zm57.897.2383-20.425 30.2848zm11.436 21.9199-26.362 25.286c10.69 11.1442 27.232 14.3632 41.32 8.0398 14.088-6.3232 22.678-20.8221 21.456-36.2158zm-11.198-11.6747 4.531-36.2466c-15.346-1.9182-30.237 6.0354-37.176 19.8568-6.939 13.8213-4.423 30.5146 6.283 41.6758zm25.494 17.393-33.517 14.524zm-8.101 47.6519 30.049 20.77c.048-.069.095-.137.141-.206zm-29.306 27.162 18.915 31.25zm-37.645 71.716-31.215 18.974c.056.092.112.183.169.275zm-8.577-30.497-36.48 1.895c.008.157.017.315.028.472zm2.144-40.504-1.029-36.515c-17.823.503-32.68 13.799-35.148 31.458zm16.916-.477 36.527-.332c-.089-9.808-4.119-19.169-11.183-25.974-7.063-6.806-16.567-10.484-26.372-10.208zm5.004 39.79-34.469 12.094c.063.178.127.356.192.534zm26.208 9.292 21.918 29.223zm9.769-11.199 23.596-27.885c-8.231-6.964-19.118-9.937-29.746-8.122-10.627 1.815-19.911 8.233-25.363 17.534zm3.336 16.44-35.393-9.036c-.046.18-.091.36-.134.541zm-11.913 20.014 25.492 26.163zm-86.965 7.863-7.58 35.733c19.575 4.153 38.847-8.218 43.224-27.744zm-13.105-4.051-15.704 32.981c.195.093.392.184.589.274zm-7.624-5.718-29.724 21.232c.323.453.657.899 1.001 1.336zm5.242-35.501-34.374-12.359zm23.349-61.947-34.004-13.344c-.025.064-.05.127-.074.191zm14.296-37.1689-34.037-13.261c-.05.1285-.099.2573-.148.3863zm10.007-27.6382 7.366-35.7782c-18.439-3.7962-36.743 7.0426-42.279 25.0357zm13.104 4.0504-15.705 32.9803c.196.0931.392.1845.59.2742zm7.625 5.7183-29.725 21.2318c.324.453.657.8986 1.001 1.3364zm-2.145 23.826-34.007-13.3361c-.076.1939-.15.3885-.223.5836zm-15.963 41.6954 33.916 13.567c.05-.127.1-.253.149-.38zm-22.873 58.85-34.231-12.752c-.023.062-.046.125-.069.187zm32.641-70.123c.146 0 2.646.028 6.054 1.821l-34.027 64.65c9.444 4.97 19.251 6.586 27.973 6.586zm7.343 2.533c2.304 1.334 5.913 4.28 8.316 9.388l-66.103 31.108c4.945 10.508 12.842 17.901 21.182 22.73zm8.316 9.388c1.207 2.565 1.986 5.42 2.226 8.373.236 2.907-.093 5.379-.554 7.225l-70.876-17.719c-2.625 10.498-2.111 22.154 3.101 33.229zm-32.277 43.236c21.474-.876 41.876-6.849 59.417-19.49l-42.71-59.2715c-4.061 2.9265-10.027 5.3715-19.686 5.7655zm59.496-19.546c15.962-11.567 28.376-26.571 35.799-45l-67.767-27.2948c-1.79 4.444-4.943 8.819-10.9 13.1362zm35.634-44.598c7.326-17.583 9.715-36.5213 5.147-55.6521l-71.06 16.9693c.515 2.1537.68 5.2942-1.524 10.584zm-22.623-82.8624c-11.646-2.5316-23.752-2.9208-35.862-1.8945l6.169 72.7959c6.633-.5618 11.205-.157 14.173.488zm-35.862-1.8945c-12.964 1.0986-25.854 4.1215-38.575 8.6932l24.708 68.7527c7.61-2.735 14.257-4.16 20.036-4.65zm-38.575 8.6932c-13.63 4.8982-26.36 11.7725-38.145 20.4555l43.338 58.8152c6.324-4.66 12.813-8.11 19.515-10.518zm17.982 37.7391c.147.4167.581 2.0219.283 4.3382-.3 2.3257-1.139 3.8237-1.449 4.2795l-60.389-41.1159c-11.67 17.1397-14.201 37.3045-7.361 56.7463zm-1.465 9.0502c.738-1.0512 2.638-3.1796 7.813-5.4797l-29.671-66.7606c-14.839 6.595-28.188 16.3796-37.933 30.2594zm7.813-5.4797c5.403-2.4014 10.759-3.523 16.377-3.523v-73.057208c-15.985 0-31.437 3.325958-46.048 9.819708zm16.377-3.523c6.043 0 7.163 1.2746 6.26.6658l40.849-60.5697c-14.562-9.82153-31.233-13.153308-47.109-13.153308zm6.26.6658c-.723-.4878-1.511-1.149-2.26-1.9879-.749-.8388-1.317-1.6945-1.719-2.4653-.802-1.5361-.665-2.1732-.574-1.0217l72.828-5.78c-1.461-18.4155-9.351-37.1251-27.426-49.3148zm58.223-33.6509-11.198-11.6748-52.724 50.5721 11.198 11.6747zm-42.091 49.8578c.865.1081 1.135.2271.969.1676-.192-.0685-.756-.3012-1.496-.8225l42.043-59.7467c-10.148-7.1417-21.462-10.7174-32.454-12.0915zm-.527-.6549c-.459-.3225-1.069-.8473-1.677-1.5914-.609-.746-1.029-1.4855-1.288-2.0832l67.034-29.0481c-4.766-10.9974-12.295-20.1769-22.026-27.024zm-2.965-3.6746c-.094-.2175-.081-.2607-.039-.0405.044.2322.125.7809.125 1.7182h73.057c0-10.2295-1.761-20.6928-6.109-30.7258zm.086 1.6777c0 .6297-.202 4.048-4.86 10.886l60.38 41.1282c10.273-15.082 17.537-32.63 17.537-52.0142zm-4.719 10.6808c-4.321 6.2514-10.175 11.8404-18.172 16.6814l37.83 62.5c16.147-9.773 29.83-22.291 40.44-37.642zm-18.172 16.6814c-7.015 4.246-12.934 5.681-18.254 5.681v73.057c20.095 0 38.955-5.871 56.084-16.238zm3.19 78.351c.237 0 2.172.084 4.696 1.455 2.582 1.403 3.971 3.172 4.43 3.912l-62.092 38.497c11.879 19.159 31.202 29.193 52.966 29.193zm9.294 5.642c-1.101-1.812-2.819-5.869-3.34-13.891l-72.903 4.734c1.067 16.439 5.067 32.713 13.814 47.104zm-3.312-13.419c-.492-9.472.032-20.605 1.842-33.552l-72.354-10.114c-2.32 16.596-3.226 32.467-2.447 47.456zm-33.307-2.095 16.917-.477-2.057-73.028-16.917.476zm-20.639-36.659c.171 18.756 1.886 36.799 7.062 51.552l68.937-24.189c-1.177-3.355-2.797-11.838-2.945-28.027zm7.254 52.086c2.928 7.947 7.796 17.265 16.296 24.835 9.257 8.245 20.89 12.646 33.229 12.646v-73.057c2.406 0 5.236.414 8.181 1.533 2.947 1.12 5.355 2.697 7.179 4.322 3.417 3.043 4.076 5.571 3.668 4.464zm49.525 37.481c13.826 0 25.008-5.692 32.878-11.594l-43.835-58.446c.246-.184 4.121-3.017 10.957-3.017zm32.878-11.594c8.134-6.101 14.506-13.661 19.364-21.948l-63.026-36.947c-.286.488-.463.694-.481.715-.012.014.088-.101.308-.266zm-35.744-12.536c-4.43-3.749-7.255-8.873-8.273-13.891-.871-4.294-.113-6.891-.189-6.591l70.786 18.073c3.683-14.426 4.032-37.145-15.133-53.362zm-8.596-19.941c-.001.002-.001.002-.001.002 0 .001-.002.008-.009.023-.01.026-.048.114-.141.27-.181.305-.657 1.009-1.727 2.051l50.984 52.326c10.378-10.112 18.362-22.686 21.948-37.681zm-1.878 2.346c-.338.329.011-.102 1.123-.582 1.182-.51 2.427-.729 3.402-.729v73.057c18.403 0 34.271-7.544 46.459-19.42zm-53.893-1.708c-3.584-.76-5.227-1.416-5.569-1.571l-30.231 66.509c6.647 3.021 13.74 5.066 20.64 6.529zm-4.98-1.297c.25.119 2.765 1.347 5.394 4.694l-57.446 45.136c6.124 7.795 13.722 12.835 20.643 16.131zm6.396 6.03c3.525 4.936 4.421 9.972 4.421 13.131h-73.057c0 9.513 2.484 19.95 9.187 29.333zm4.421 13.131c0 2.259-.296 3.463-.176 2.839.072-.373.28-1.322.745-2.994.933-3.353 2.51-8.236 4.901-14.885l-68.748-24.719c-2.693 7.488-4.928 14.24-6.536 20.02-1.313 4.718-3.243 12.248-3.243 19.739zm5.47-15.04c4.936-13.729 12.597-34.061 23.054-61.154l-68.157-26.306c-10.51 27.23-18.416 48.196-23.645 62.741zm22.98-60.964c4.983-12.699 9.808-25.245 14.475-37.6372l-68.369-25.7494c-4.545 12.0692-9.25 24.3025-14.115 36.6996zm14.328-37.2509c4.831-12.4019 8.568-22.6331 10.883-30.1566l-69.826-21.4851c-1.498 4.866-4.432 13.0602-9.131 25.1197zm-31.396-5.121c1.772.3649 3.047.7027 3.905.9679.879.2715 1.104.4008.86.2846l31.41-65.9605c-6.949-3.3089-14.425-5.4035-21.443-6.8484zm5.355 1.5267c-.104-.0471-3.634-1.6133-6.985-6.3044l59.449-42.4636c-6.527-9.1386-15.141-14.517-22.233-17.7409zm-5.984-4.968c-4.178-5.3183-5.184-10.9076-5.184-14.2291h73.057c0-9.9928-2.753-21.1415-10.426-30.9073zm-5.184-14.2291c0-1.7891.151-3.1537.25-3.8879.105-.7855.217-1.3334.268-1.5733.095-.4419.112-.4126-.094.2582-.19.6169-.495 1.5383-.953 2.8142-.454 1.262-1.02 2.7687-1.715 4.5396l68.014 26.6725c1.748-4.4572 3.305-8.7222 4.48-12.5412.771-2.5048 2.807-9.0899 2.807-16.2821zm-2.467 2.7344c-2.928 7.8597-8.174 21.5633-15.799 41.2619l68.131 26.373c7.624-19.694 13.021-33.788 16.129-42.13zm-15.649 40.8819c-9.279 23.197-17.017 43.101-23.188 59.664l68.461 25.505c5.901-15.841 13.412-35.17 22.559-58.036zm-23.257 59.851c-6.062 16.549-10.672 30.926-13.257 42.46l71.288 15.978c1.545-6.891 4.877-17.771 10.568-33.307zm150.615 50.211 18.669-31.398c-.211-.126-.424-.249-.638-.371zm-11.198-14.296-35.438 8.859c.018.072.036.143.054.214zm4.289-21.682 24.384-27.198c-8.298-7.439-19.538-10.684-30.524-8.811-10.987 1.874-20.517 8.66-25.88 18.43zm18.108 10.245-12.425 34.351zm22.873 5.48-4.44 36.258c.244.03.487.057.732.082zm19.294-.953 36.52.987c.31-11.605-4.91-22.668-14.07-29.803-9.15-7.135-21.16-9.491-32.34-6.348zm-4.52 14.773-29.646-21.344c-.191.265-.379.533-.563.803zm-11.2 8.815 13.57 33.916zm19.06-36.692 6.9 35.871c16.88-3.246 29.21-17.825 29.62-35.012zm-18.58-.238-15.311 33.166c.355.164.713.323 1.074.476zm-8.343-9.531-35.213 9.714c.135.491.281.98.437 1.465zm-1.668-18.346 36.521.761c0-.11 0-.22.01-.331zm.715-84.582-36.525-.5293c-.002.1764-.004.3528-.004.5293zm-.238-26.4469-36.519.8695c.007.2894.018.5788.031.868zm-.953-15.7252-3.708-36.33989c-9.781.99803-18.747 5.89655-24.87 13.58819-6.124 7.6916-8.888 17.5269-7.669 27.2826zm18.107 1.1913-12.686 34.2547c.499.1848 1.002.3588 1.508.5216zm9.29 8.5774-33.826 13.7822c.061.1507.124.3009.187.4508zm3.1 17.8695 36.5-1.3688c0-.0403 0-.0806 0-.1209zm-.48 84.3439 36.52.769c0-.034.01-.068.01-.102zm15.25 53.847-31.32-18.794c-.13.222-.27.446-.39.671zm-10.96 13.819 20.58 30.181c.31-.208.61-.421.91-.639zm-10.48 2.621-8.1 35.62c.52.118 1.04.224 1.56.319zm-12.15-5.956 20.74-30.071c-.16-.109-.32-.217-.48-.323zm-1.43-.953-31.146-19.089c-10.259 16.738-5.453 38.592 10.881 49.482zm31.45-56.468-32.4-16.874zm31.93-67.4279 33.62 14.2729zm16.91-52.4172 6.13-36.01071c-9.68-1.64849-19.62.67363-27.58 6.44216-7.95 5.76855-13.24 14.49715-14.68 24.21535zm16.92 7.1478-24.69 26.9272c.39.3562.79.7039 1.19 1.0429zm5.48 13.8191-36.48-1.9717c-.02.4573-.04.915-.05 1.3729zm-14.77 45.7462-33.12-15.42c-.03.0695-.06.139-.09.2087zm-30.02 59.803 31.94 17.717c.02-.038.04-.075.06-.113zm-75.533 32.329c-1.01 0-1.507-.114-1.629-.145-.099-.026-.044-.019.045.034l-37.337 62.795c12.156 7.229 25.501 10.373 38.921 10.373zm-2.222-.482c.723.411 2.123 1.386 3.518 3.167 1.424 1.818 2.249 3.718 2.637 5.233l-70.768 18.146c4.204 16.394 14.595 29.07 28.552 36.991zm6.209 8.613c.666 2.664.476 4.759.277 5.762-.169.855-.265.561.594-1.004l-64.04-35.159c-7.056 12.85-12.301 29.742-7.707 48.12zm-55.534 14.376c8.932 8.008 19.388 13.535 30.068 17.398l24.849-68.701c-4.25-1.538-5.867-2.841-6.148-3.093zm30.068 17.398c10.015 3.622 20.316 6.096 30.858 7.387l8.884-72.515c-5.029-.616-9.976-1.795-14.893-3.573zm31.59 7.469c10.352 1.057 21.802.991 32.892-2.128l-19.78-70.329c.6-.168.51-.061-.54-.009-1.04.051-2.72.035-5.16-.213zm-13.509-38.279c-.002.099.003-.517.339-1.616.352-1.148.986-2.553 2.006-3.969l59.286 42.687c7.94-11.025 11.08-23.43 11.4-35.129zm1.782-4.782c.731-1.075 1.681-2.109 2.787-2.979 1.089-.858 2.054-1.34 2.655-1.581l27.137 67.832c11.03-4.413 20.76-11.783 27.83-22.191zm5.442-4.56c.404-.161.37-.091-.281.016-.655.107-1.804.231-3.545.231v73.057c10.025 0 20.713-1.372 30.963-5.472zm25.727-38.647c-1.19.229-2.08.354-2.7.419-.63.065-.86.057-.77.058.08.001.67.012 1.63.184.97.171 2.51.536 4.39 1.33l-28.467 67.284c14.467 6.118 29.657 4.402 39.717 2.467zm3.62 2.466c2.23 1.027 4.76 2.738 7 5.3 2.23 2.544 3.49 5.146 4.13 7.158l-69.549 22.357c4.461 13.879 14.116 25.199 27.808 31.518zm11.57 13.922c.08.287-.07-.165-.2-1.634-.13-1.429-.22-3.473-.16-6.237l-73.042-1.521c-.194 9.323.376 19.397 2.976 28.82zm-.35-8.202c.47-40.495.71-68.887.71-85.012h-73.055c0 15.643-.235 43.639-.712 84.153zm.71-84.4827c.16-11.304.09-20.965-.28-28.7137l-72.972 3.475c.267 5.5939.355 13.5641.201 24.1801zm-.25-27.8457c-.17-7.1461-.52-13.7919-1.22-19.3865l-72.494 9.0617c.254 2.0297.534 5.8673.681 12.0638zm-33.759 21.4842c1.175-.1198 2.118-.1775 2.851-.1986.736-.0212 1.193-.0033 1.407.0107.218.0144.097.0192-.301-.0573-.395-.0759-1.181-.2548-2.244-.6487l25.376-68.50934c-12-4.44411-24.589-4.28845-34.505-3.27655zm3.221-.3723c-2.28-.7328-5.181-2.1724-7.939-4.7184-2.766-2.5526-4.472-5.3733-5.419-7.6983l67.656-27.5644c-5.86-14.3926-17.32-24.8704-31.94-29.57146zm-13.171-11.9659c-.513-1.2129-.459-1.5452-.266-.4296.18 1.0358.395 2.8284.507 5.5558l72.998-2.9794c-.39-9.4256-1.68-20.5132-5.96-30.6128zm.236 5.0054c.431 11.4893.303 38.518-.496 82.309l73.049 1.333c.79-43.254.98-72.4546.45-86.3797zm-.494 82.206c-.317 15.064-.634 29.329-.951 42.797l73.038 1.718c.32-13.534.64-27.86.95-42.977zm20.057 36.493c-1.26 2.191-2.11 3.385-2.51 3.883-.18.227-.16.176.08-.064.24-.235.79-.763 1.7-1.419l42.97 59.084c9.75-7.093 16.5-17.038 21.19-25.238zm.17 1.761c1.21-.824 3.38-2.04 6.48-2.815 3.22-.804 6.72-.947 10.15-.322l-13.07 71.878c14.71 2.674 27.8-1.694 37.6-8.379zm18.19-2.818c.84.19 1.45.391 1.81.525.36.133.54.221.52.21-.02-.009-.19-.094-.51-.286-.32-.191-.76-.47-1.32-.856l-41.481 60.141c6.52 4.497 14.956 9.27 24.791 11.506zm.02-.73-1.43-.953-40.525 60.787 1.43.953zm9.45 48.529c9.66-15.752 20.57-35.382 32.71-58.682l-64.8-33.748c-11.69 22.445-21.743 40.461-30.196 54.253zm32.71-58.682c12.32-23.661 23.38-47.005 33.15-70.029l-67.25-28.5453c-8.97 21.133-19.2 42.7413-30.7 64.8263zm33.15-70.029c9.75-22.9656 16.83-43.8347 19.43-61.3369l-72.27-10.7064c-1.22 8.2299-5.41 22.3056-14.41 43.498zm-22.84-30.6794c1.58.2691 2.05.5054 1.74.3775-.34-.1429-1.7-.7733-3.38-2.3132l49.37-53.8544c-10.87-9.96834-24.11-14.29811-35.47-16.23131zm-.45-.8928c-2.42-2.0379-4.69-4.9592-6.11-8.5482-1.36-3.4345-1.46-6.2223-1.39-7.5745l72.95 3.9434c.85-15.575-4.42-31.9705-18.46-43.761zm-7.55-14.7498c.01-.3491-.07 1.9575-2.05 8.0773-1.85 5.7286-4.85 13.2775-9.31 22.8477l66.23 30.839c9.68-20.777 17.88-42.3329 18.18-60.5665zm-11.45 31.1337c-9.18 20.0383-18.79 39.1713-28.82 57.4103l64.01 35.208c10.94-19.883 21.34-40.618 31.23-62.196zm-28.76 57.2973c-10.47 18.888-17.84 31.83-22.25 39.189l62.65 37.588c5.11-8.525 13-22.426 23.49-41.343z" fill="#000" mask="url(#a)"/></svg>